G04 #@! TF.GenerationSoftware,KiCad,Pcbnew,(5.1.4)-1*
G04 #@! TF.CreationDate,2020-10-17T14:20:49+02:00*
G04 #@! TF.ProjectId,Long range deauther,4c6f6e67-2072-4616-9e67-652064656175,rev?*
G04 #@! TF.SameCoordinates,Original*
G04 #@! TF.FileFunction,Legend,Bot*
G04 #@! TF.FilePolarity,Positive*
%FSLAX46Y46*%
G04 Gerber Fmt 4.6, Leading zero omitted, Abs format (unit mm)*
G04 Created by KiCad (PCBNEW (5.1.4)-1) date 2020-10-17 14:20:49*
%MOMM*%
%LPD*%
G04 APERTURE LIST*
%ADD10C,0.010000*%
%ADD11C,0.120000*%
%ADD12C,0.150000*%
G04 APERTURE END LIST*
D10*
X153230000Y-76290000D02*
X150840000Y-76290000D01*
X153230000Y-78750000D02*
X153230000Y-76290000D01*
X150839700Y-78750000D02*
X153230000Y-78750000D01*
X150840000Y-76290000D02*
X150840000Y-78750000D01*
G36*
X145364983Y-90697132D02*
G01*
X145485873Y-90684504D01*
X145588125Y-90657864D01*
X145696648Y-90612737D01*
X145702363Y-90610067D01*
X145838012Y-90535267D01*
X145973767Y-90442978D01*
X146038945Y-90389811D01*
X146182625Y-90260006D01*
X146824286Y-90255631D01*
X147085706Y-90252123D01*
X147288879Y-90244408D01*
X147444162Y-90230689D01*
X147561915Y-90209167D01*
X147652496Y-90178044D01*
X147726264Y-90135521D01*
X147783447Y-90089103D01*
X147849203Y-89985575D01*
X147860676Y-89909068D01*
X147829902Y-89796759D01*
X147736745Y-89683553D01*
X147579949Y-89568664D01*
X147358263Y-89451306D01*
X147070430Y-89330692D01*
X146766468Y-89222908D01*
X146601596Y-89167385D01*
X146489323Y-89125561D01*
X146416985Y-89089835D01*
X146371923Y-89052606D01*
X146341473Y-89006271D01*
X146317268Y-88953224D01*
X146223178Y-88791692D01*
X146086049Y-88626702D01*
X145926721Y-88479941D01*
X145766032Y-88373096D01*
X145754021Y-88367058D01*
X145497348Y-88273915D01*
X145226464Y-88241757D01*
X145016761Y-88254970D01*
X144776891Y-88308573D01*
X144568059Y-88409101D01*
X144378759Y-88557066D01*
X144233126Y-88691306D01*
X143669942Y-88687071D01*
X143341475Y-88690590D01*
X143076141Y-88707496D01*
X142869482Y-88739152D01*
X142717044Y-88786924D01*
X142614369Y-88852176D01*
X142557002Y-88936273D01*
X142540406Y-89033004D01*
X142543080Y-89042830D01*
X142829472Y-89042830D01*
X142868762Y-89010159D01*
X142968842Y-88982212D01*
X143048416Y-88967156D01*
X143170216Y-88953621D01*
X143337300Y-88945046D01*
X143526468Y-88941659D01*
X143714519Y-88943688D01*
X143878252Y-88951362D01*
X143951155Y-88958269D01*
X144074741Y-88973451D01*
X144029891Y-89099011D01*
X144001288Y-89214824D01*
X143984896Y-89349837D01*
X143983534Y-89387612D01*
X143976689Y-89482681D01*
X143960969Y-89541438D01*
X143950438Y-89550652D01*
X143891470Y-89538033D01*
X143784971Y-89504098D01*
X143646441Y-89454734D01*
X143491382Y-89395826D01*
X143335291Y-89333260D01*
X143193669Y-89272921D01*
X143083568Y-89221479D01*
X142936153Y-89143261D01*
X142851695Y-89085454D01*
X142829472Y-89042830D01*
X142543080Y-89042830D01*
X142571679Y-89147909D01*
X142666228Y-89263259D01*
X142825144Y-89379744D01*
X143049521Y-89498053D01*
X143340450Y-89618876D01*
X143630639Y-89720703D01*
X144017224Y-89847842D01*
X144075495Y-89964778D01*
X146350406Y-89964778D01*
X146361694Y-89911101D01*
X146383851Y-89844723D01*
X146405840Y-89757278D01*
X146422591Y-89638437D01*
X146426756Y-89585065D01*
X146438717Y-89487100D01*
X146458922Y-89424933D01*
X146472683Y-89413364D01*
X146519769Y-89423931D01*
X146614564Y-89452179D01*
X146740052Y-89492917D01*
X146798765Y-89512830D01*
X147033137Y-89598023D01*
X147235839Y-89680972D01*
X147399236Y-89757931D01*
X147515693Y-89825149D01*
X147577573Y-89878880D01*
X147585657Y-89899119D01*
X147557154Y-89924327D01*
X147487065Y-89955942D01*
X147477987Y-89959186D01*
X147408045Y-89972573D01*
X147292367Y-89983057D01*
X147144667Y-89990571D01*
X146978662Y-89995045D01*
X146808068Y-89996412D01*
X146646602Y-89994605D01*
X146507978Y-89989554D01*
X146405914Y-89981192D01*
X146354126Y-89969452D01*
X146350406Y-89964778D01*
X144075495Y-89964778D01*
X144106027Y-90026047D01*
X144249208Y-90244735D01*
X144441940Y-90438426D01*
X144665441Y-90588691D01*
X144694670Y-90603534D01*
X144802986Y-90651985D01*
X144900439Y-90681077D01*
X145011753Y-90695535D01*
X145161647Y-90700085D01*
X145200541Y-90700224D01*
X145364983Y-90697132D01*
X145364983Y-90697132D01*
G37*
X145364983Y-90697132D02*
X145485873Y-90684504D01*
X145588125Y-90657864D01*
X145696648Y-90612737D01*
X145702363Y-90610067D01*
X145838012Y-90535267D01*
X145973767Y-90442978D01*
X146038945Y-90389811D01*
X146182625Y-90260006D01*
X146824286Y-90255631D01*
X147085706Y-90252123D01*
X147288879Y-90244408D01*
X147444162Y-90230689D01*
X147561915Y-90209167D01*
X147652496Y-90178044D01*
X147726264Y-90135521D01*
X147783447Y-90089103D01*
X147849203Y-89985575D01*
X147860676Y-89909068D01*
X147829902Y-89796759D01*
X147736745Y-89683553D01*
X147579949Y-89568664D01*
X147358263Y-89451306D01*
X147070430Y-89330692D01*
X146766468Y-89222908D01*
X146601596Y-89167385D01*
X146489323Y-89125561D01*
X146416985Y-89089835D01*
X146371923Y-89052606D01*
X146341473Y-89006271D01*
X146317268Y-88953224D01*
X146223178Y-88791692D01*
X146086049Y-88626702D01*
X145926721Y-88479941D01*
X145766032Y-88373096D01*
X145754021Y-88367058D01*
X145497348Y-88273915D01*
X145226464Y-88241757D01*
X145016761Y-88254970D01*
X144776891Y-88308573D01*
X144568059Y-88409101D01*
X144378759Y-88557066D01*
X144233126Y-88691306D01*
X143669942Y-88687071D01*
X143341475Y-88690590D01*
X143076141Y-88707496D01*
X142869482Y-88739152D01*
X142717044Y-88786924D01*
X142614369Y-88852176D01*
X142557002Y-88936273D01*
X142540406Y-89033004D01*
X142543080Y-89042830D01*
X142829472Y-89042830D01*
X142868762Y-89010159D01*
X142968842Y-88982212D01*
X143048416Y-88967156D01*
X143170216Y-88953621D01*
X143337300Y-88945046D01*
X143526468Y-88941659D01*
X143714519Y-88943688D01*
X143878252Y-88951362D01*
X143951155Y-88958269D01*
X144074741Y-88973451D01*
X144029891Y-89099011D01*
X144001288Y-89214824D01*
X143984896Y-89349837D01*
X143983534Y-89387612D01*
X143976689Y-89482681D01*
X143960969Y-89541438D01*
X143950438Y-89550652D01*
X143891470Y-89538033D01*
X143784971Y-89504098D01*
X143646441Y-89454734D01*
X143491382Y-89395826D01*
X143335291Y-89333260D01*
X143193669Y-89272921D01*
X143083568Y-89221479D01*
X142936153Y-89143261D01*
X142851695Y-89085454D01*
X142829472Y-89042830D01*
X142543080Y-89042830D01*
X142571679Y-89147909D01*
X142666228Y-89263259D01*
X142825144Y-89379744D01*
X143049521Y-89498053D01*
X143340450Y-89618876D01*
X143630639Y-89720703D01*
X144017224Y-89847842D01*
X144075495Y-89964778D01*
X146350406Y-89964778D01*
X146361694Y-89911101D01*
X146383851Y-89844723D01*
X146405840Y-89757278D01*
X146422591Y-89638437D01*
X146426756Y-89585065D01*
X146438717Y-89487100D01*
X146458922Y-89424933D01*
X146472683Y-89413364D01*
X146519769Y-89423931D01*
X146614564Y-89452179D01*
X146740052Y-89492917D01*
X146798765Y-89512830D01*
X147033137Y-89598023D01*
X147235839Y-89680972D01*
X147399236Y-89757931D01*
X147515693Y-89825149D01*
X147577573Y-89878880D01*
X147585657Y-89899119D01*
X147557154Y-89924327D01*
X147487065Y-89955942D01*
X147477987Y-89959186D01*
X147408045Y-89972573D01*
X147292367Y-89983057D01*
X147144667Y-89990571D01*
X146978662Y-89995045D01*
X146808068Y-89996412D01*
X146646602Y-89994605D01*
X146507978Y-89989554D01*
X146405914Y-89981192D01*
X146354126Y-89969452D01*
X146350406Y-89964778D01*
X144075495Y-89964778D01*
X144106027Y-90026047D01*
X144249208Y-90244735D01*
X144441940Y-90438426D01*
X144665441Y-90588691D01*
X144694670Y-90603534D01*
X144802986Y-90651985D01*
X144900439Y-90681077D01*
X145011753Y-90695535D01*
X145161647Y-90700085D01*
X145200541Y-90700224D01*
X145364983Y-90697132D01*
G36*
X131136149Y-87763629D02*
G01*
X131328350Y-87752738D01*
X131495934Y-87718272D01*
X131642433Y-87667653D01*
X131882703Y-87573835D01*
X131882703Y-87065307D01*
X131642433Y-86971489D01*
X131463855Y-86912092D01*
X131294833Y-86882748D01*
X131136149Y-86875513D01*
X130870136Y-86873355D01*
X130870136Y-87027814D01*
X130872700Y-87122721D01*
X130890082Y-87167662D01*
X130936810Y-87181321D01*
X130990271Y-87182274D01*
X131067189Y-87186430D01*
X131101372Y-87212094D01*
X131110137Y-87279058D01*
X131110381Y-87315850D01*
X131385001Y-87315850D01*
X131390631Y-87243218D01*
X131420257Y-87222183D01*
X131479393Y-87232468D01*
X131561246Y-87261305D01*
X131608109Y-87289986D01*
X131612196Y-87331256D01*
X131570535Y-87377609D01*
X131502675Y-87412948D01*
X131447089Y-87422544D01*
X131401430Y-87403604D01*
X131385414Y-87336794D01*
X131385001Y-87315850D01*
X131110381Y-87315850D01*
X131110406Y-87319571D01*
X131106769Y-87407478D01*
X131084313Y-87446544D01*
X131025720Y-87456561D01*
X130990271Y-87456868D01*
X130916455Y-87460166D01*
X130881500Y-87482513D01*
X130870877Y-87542593D01*
X130870136Y-87611328D01*
X130870136Y-87765787D01*
X131136149Y-87763629D01*
X131136149Y-87763629D01*
G37*
X131136149Y-87763629D02*
X131328350Y-87752738D01*
X131495934Y-87718272D01*
X131642433Y-87667653D01*
X131882703Y-87573835D01*
X131882703Y-87065307D01*
X131642433Y-86971489D01*
X131463855Y-86912092D01*
X131294833Y-86882748D01*
X131136149Y-86875513D01*
X130870136Y-86873355D01*
X130870136Y-87027814D01*
X130872700Y-87122721D01*
X130890082Y-87167662D01*
X130936810Y-87181321D01*
X130990271Y-87182274D01*
X131067189Y-87186430D01*
X131101372Y-87212094D01*
X131110137Y-87279058D01*
X131110381Y-87315850D01*
X131385001Y-87315850D01*
X131390631Y-87243218D01*
X131420257Y-87222183D01*
X131479393Y-87232468D01*
X131561246Y-87261305D01*
X131608109Y-87289986D01*
X131612196Y-87331256D01*
X131570535Y-87377609D01*
X131502675Y-87412948D01*
X131447089Y-87422544D01*
X131401430Y-87403604D01*
X131385414Y-87336794D01*
X131385001Y-87315850D01*
X131110381Y-87315850D01*
X131110406Y-87319571D01*
X131106769Y-87407478D01*
X131084313Y-87446544D01*
X131025720Y-87456561D01*
X130990271Y-87456868D01*
X130916455Y-87460166D01*
X130881500Y-87482513D01*
X130870877Y-87542593D01*
X130870136Y-87611328D01*
X130870136Y-87765787D01*
X131136149Y-87763629D01*
G36*
X166353244Y-90465463D02*
G01*
X166471632Y-90433481D01*
X166641224Y-90374596D01*
X166641702Y-90374422D01*
X166979186Y-90226550D01*
X167288359Y-90042416D01*
X167559776Y-89829691D01*
X167783992Y-89596047D01*
X167951562Y-89349156D01*
X167984812Y-89283474D01*
X168045555Y-89141917D01*
X168078376Y-89022622D01*
X168091012Y-88890421D01*
X168092147Y-88795517D01*
X168086119Y-88638396D01*
X168065290Y-88519489D01*
X168023328Y-88408885D01*
X168000501Y-88362770D01*
X167849801Y-88145189D01*
X167639903Y-87958384D01*
X167374373Y-87805320D01*
X167282665Y-87765726D01*
X167156533Y-87717093D01*
X167050451Y-87683682D01*
X166944771Y-87662026D01*
X166819842Y-87648655D01*
X166656015Y-87640102D01*
X166550271Y-87636450D01*
X166124106Y-87644609D01*
X165736721Y-87696373D01*
X165391873Y-87790349D01*
X165093320Y-87925144D01*
X164844821Y-88099365D01*
X164650132Y-88311618D01*
X164622959Y-88350926D01*
X164549881Y-88517398D01*
X164532222Y-88698426D01*
X164570621Y-88872361D01*
X164605538Y-88941225D01*
X164679985Y-89061683D01*
X164480196Y-89019991D01*
X164195654Y-88934342D01*
X163965679Y-88811175D01*
X163791989Y-88656307D01*
X163676301Y-88475553D01*
X163620333Y-88274727D01*
X163625802Y-88059646D01*
X163694425Y-87836124D01*
X163827918Y-87609976D01*
X164004586Y-87409355D01*
X164225088Y-87217781D01*
X164461378Y-87060620D01*
X164734012Y-86925294D01*
X164913598Y-86853091D01*
X165084344Y-86783759D01*
X165194800Y-86724762D01*
X165251464Y-86670565D01*
X165260835Y-86615628D01*
X165242266Y-86573017D01*
X165198356Y-86527194D01*
X165133920Y-86510094D01*
X165037052Y-86522254D01*
X164895842Y-86564207D01*
X164816893Y-86592134D01*
X164427307Y-86763744D01*
X164084980Y-86979113D01*
X163839576Y-87185855D01*
X163632943Y-87405178D01*
X163486532Y-87616908D01*
X163394454Y-87831935D01*
X163350818Y-88061149D01*
X163348294Y-88094142D01*
X163358462Y-88362824D01*
X163426395Y-88599638D01*
X163553344Y-88806055D01*
X163740559Y-88983544D01*
X163989292Y-89133577D01*
X164300794Y-89257623D01*
X164352010Y-89273773D01*
X164628209Y-89331507D01*
X164949209Y-89352005D01*
X165302154Y-89335293D01*
X165674189Y-89281397D01*
X165726487Y-89271004D01*
X166033532Y-89185881D01*
X166306704Y-89066006D01*
X166537291Y-88916835D01*
X166716585Y-88743823D01*
X166820234Y-88585965D01*
X166888759Y-88415248D01*
X166905741Y-88269485D01*
X166871908Y-88129123D01*
X166839684Y-88061368D01*
X166768691Y-87928911D01*
X166926808Y-87952622D01*
X167173545Y-88016522D01*
X167398999Y-88126354D01*
X167588138Y-88272855D01*
X167724502Y-88444307D01*
X167802416Y-88641205D01*
X167816719Y-88850774D01*
X167769947Y-89067329D01*
X167664638Y-89285184D01*
X167503329Y-89498652D01*
X167288556Y-89702047D01*
X167102242Y-89839059D01*
X166947850Y-89930781D01*
X166766059Y-90022517D01*
X166580420Y-90103652D01*
X166414479Y-90163575D01*
X166335458Y-90184658D01*
X166230495Y-90229919D01*
X166176680Y-90303193D01*
X166182040Y-90392124D01*
X166189866Y-90408760D01*
X166223904Y-90452225D01*
X166274516Y-90471419D01*
X166353244Y-90465463D01*
X166353244Y-90465463D01*
G37*
X166353244Y-90465463D02*
X166471632Y-90433481D01*
X166641224Y-90374596D01*
X166641702Y-90374422D01*
X166979186Y-90226550D01*
X167288359Y-90042416D01*
X167559776Y-89829691D01*
X167783992Y-89596047D01*
X167951562Y-89349156D01*
X167984812Y-89283474D01*
X168045555Y-89141917D01*
X168078376Y-89022622D01*
X168091012Y-88890421D01*
X168092147Y-88795517D01*
X168086119Y-88638396D01*
X168065290Y-88519489D01*
X168023328Y-88408885D01*
X168000501Y-88362770D01*
X167849801Y-88145189D01*
X167639903Y-87958384D01*
X167374373Y-87805320D01*
X167282665Y-87765726D01*
X167156533Y-87717093D01*
X167050451Y-87683682D01*
X166944771Y-87662026D01*
X166819842Y-87648655D01*
X166656015Y-87640102D01*
X166550271Y-87636450D01*
X166124106Y-87644609D01*
X165736721Y-87696373D01*
X165391873Y-87790349D01*
X165093320Y-87925144D01*
X164844821Y-88099365D01*
X164650132Y-88311618D01*
X164622959Y-88350926D01*
X164549881Y-88517398D01*
X164532222Y-88698426D01*
X164570621Y-88872361D01*
X164605538Y-88941225D01*
X164679985Y-89061683D01*
X164480196Y-89019991D01*
X164195654Y-88934342D01*
X163965679Y-88811175D01*
X163791989Y-88656307D01*
X163676301Y-88475553D01*
X163620333Y-88274727D01*
X163625802Y-88059646D01*
X163694425Y-87836124D01*
X163827918Y-87609976D01*
X164004586Y-87409355D01*
X164225088Y-87217781D01*
X164461378Y-87060620D01*
X164734012Y-86925294D01*
X164913598Y-86853091D01*
X165084344Y-86783759D01*
X165194800Y-86724762D01*
X165251464Y-86670565D01*
X165260835Y-86615628D01*
X165242266Y-86573017D01*
X165198356Y-86527194D01*
X165133920Y-86510094D01*
X165037052Y-86522254D01*
X164895842Y-86564207D01*
X164816893Y-86592134D01*
X164427307Y-86763744D01*
X164084980Y-86979113D01*
X163839576Y-87185855D01*
X163632943Y-87405178D01*
X163486532Y-87616908D01*
X163394454Y-87831935D01*
X163350818Y-88061149D01*
X163348294Y-88094142D01*
X163358462Y-88362824D01*
X163426395Y-88599638D01*
X163553344Y-88806055D01*
X163740559Y-88983544D01*
X163989292Y-89133577D01*
X164300794Y-89257623D01*
X164352010Y-89273773D01*
X164628209Y-89331507D01*
X164949209Y-89352005D01*
X165302154Y-89335293D01*
X165674189Y-89281397D01*
X165726487Y-89271004D01*
X166033532Y-89185881D01*
X166306704Y-89066006D01*
X166537291Y-88916835D01*
X166716585Y-88743823D01*
X166820234Y-88585965D01*
X166888759Y-88415248D01*
X166905741Y-88269485D01*
X166871908Y-88129123D01*
X166839684Y-88061368D01*
X166768691Y-87928911D01*
X166926808Y-87952622D01*
X167173545Y-88016522D01*
X167398999Y-88126354D01*
X167588138Y-88272855D01*
X167724502Y-88444307D01*
X167802416Y-88641205D01*
X167816719Y-88850774D01*
X167769947Y-89067329D01*
X167664638Y-89285184D01*
X167503329Y-89498652D01*
X167288556Y-89702047D01*
X167102242Y-89839059D01*
X166947850Y-89930781D01*
X166766059Y-90022517D01*
X166580420Y-90103652D01*
X166414479Y-90163575D01*
X166335458Y-90184658D01*
X166230495Y-90229919D01*
X166176680Y-90303193D01*
X166182040Y-90392124D01*
X166189866Y-90408760D01*
X166223904Y-90452225D01*
X166274516Y-90471419D01*
X166353244Y-90465463D01*
G36*
X131899866Y-86549935D02*
G01*
X131891405Y-86477888D01*
X131858195Y-86412913D01*
X131788493Y-86337062D01*
X131720252Y-86275341D01*
X131540639Y-86118220D01*
X131677347Y-86117694D01*
X131800769Y-86108195D01*
X131869198Y-86073698D01*
X131894801Y-86003416D01*
X131893660Y-85925942D01*
X131882703Y-85792139D01*
X131392868Y-85782611D01*
X131193835Y-85779919D01*
X131053501Y-85781367D01*
X130961999Y-85787725D01*
X130909464Y-85799762D01*
X130886029Y-85818245D01*
X130884166Y-85822249D01*
X130874141Y-85889292D01*
X130876018Y-85983228D01*
X130876298Y-85986236D01*
X130891826Y-86064803D01*
X130933109Y-86101893D01*
X131009382Y-86118220D01*
X131110961Y-86151424D01*
X131223845Y-86215227D01*
X131266054Y-86246936D01*
X131400642Y-86358490D01*
X130870136Y-86358490D01*
X130870136Y-86667409D01*
X131899866Y-86667409D01*
X131899866Y-86549935D01*
X131899866Y-86549935D01*
G37*
X131899866Y-86549935D02*
X131891405Y-86477888D01*
X131858195Y-86412913D01*
X131788493Y-86337062D01*
X131720252Y-86275341D01*
X131540639Y-86118220D01*
X131677347Y-86117694D01*
X131800769Y-86108195D01*
X131869198Y-86073698D01*
X131894801Y-86003416D01*
X131893660Y-85925942D01*
X131882703Y-85792139D01*
X131392868Y-85782611D01*
X131193835Y-85779919D01*
X131053501Y-85781367D01*
X130961999Y-85787725D01*
X130909464Y-85799762D01*
X130886029Y-85818245D01*
X130884166Y-85822249D01*
X130874141Y-85889292D01*
X130876018Y-85983228D01*
X130876298Y-85986236D01*
X130891826Y-86064803D01*
X130933109Y-86101893D01*
X131009382Y-86118220D01*
X131110961Y-86151424D01*
X131223845Y-86215227D01*
X131266054Y-86246936D01*
X131400642Y-86358490D01*
X130870136Y-86358490D01*
X130870136Y-86667409D01*
X131899866Y-86667409D01*
X131899866Y-86549935D01*
G36*
X131899866Y-85265234D02*
G01*
X131893203Y-85053976D01*
X131871435Y-84900928D01*
X131831891Y-84796783D01*
X131771898Y-84732238D01*
X131742083Y-84715653D01*
X131662015Y-84696541D01*
X131536021Y-84684540D01*
X131386469Y-84679788D01*
X131235728Y-84682426D01*
X131106164Y-84692590D01*
X131020146Y-84710421D01*
X131018258Y-84711162D01*
X130955404Y-84748958D01*
X130912496Y-84810440D01*
X130886209Y-84907112D01*
X130873215Y-85050482D01*
X130871199Y-85163830D01*
X131116352Y-85163830D01*
X131125234Y-85069395D01*
X131186817Y-85011422D01*
X131305163Y-84986839D01*
X131352072Y-84985517D01*
X131461707Y-84989707D01*
X131548050Y-85000293D01*
X131570977Y-85006351D01*
X131613328Y-85058046D01*
X131625271Y-85145152D01*
X131625271Y-85263119D01*
X131376420Y-85253034D01*
X131247271Y-85246069D01*
X131171463Y-85234715D01*
X131133693Y-85213726D01*
X131118657Y-85177850D01*
X131116352Y-85163830D01*
X130871199Y-85163830D01*
X130870136Y-85223531D01*
X130870136Y-85569030D01*
X131899866Y-85569030D01*
X131899866Y-85265234D01*
X131899866Y-85265234D01*
G37*
X131899866Y-85265234D02*
X131893203Y-85053976D01*
X131871435Y-84900928D01*
X131831891Y-84796783D01*
X131771898Y-84732238D01*
X131742083Y-84715653D01*
X131662015Y-84696541D01*
X131536021Y-84684540D01*
X131386469Y-84679788D01*
X131235728Y-84682426D01*
X131106164Y-84692590D01*
X131020146Y-84710421D01*
X131018258Y-84711162D01*
X130955404Y-84748958D01*
X130912496Y-84810440D01*
X130886209Y-84907112D01*
X130873215Y-85050482D01*
X130871199Y-85163830D01*
X131116352Y-85163830D01*
X131125234Y-85069395D01*
X131186817Y-85011422D01*
X131305163Y-84986839D01*
X131352072Y-84985517D01*
X131461707Y-84989707D01*
X131548050Y-85000293D01*
X131570977Y-85006351D01*
X131613328Y-85058046D01*
X131625271Y-85145152D01*
X131625271Y-85263119D01*
X131376420Y-85253034D01*
X131247271Y-85246069D01*
X131171463Y-85234715D01*
X131133693Y-85213726D01*
X131118657Y-85177850D01*
X131116352Y-85163830D01*
X130871199Y-85163830D01*
X130870136Y-85223531D01*
X130870136Y-85569030D01*
X131899866Y-85569030D01*
X131899866Y-85265234D01*
G36*
X131899360Y-84170314D02*
G01*
X131893921Y-84011397D01*
X131879659Y-83878710D01*
X131858821Y-83791940D01*
X131855300Y-83784166D01*
X131821538Y-83734224D01*
X131771632Y-83707704D01*
X131684799Y-83696765D01*
X131617937Y-83694627D01*
X131464443Y-83679246D01*
X131373614Y-83639941D01*
X131367788Y-83634559D01*
X131304890Y-83599129D01*
X131197606Y-83581479D01*
X131090792Y-83578220D01*
X130870136Y-83578220D01*
X130870136Y-83887139D01*
X131020923Y-83887139D01*
X131131660Y-83898091D01*
X131190483Y-83940625D01*
X131211970Y-84029253D01*
X131213234Y-84073642D01*
X131453649Y-84073642D01*
X131463542Y-84010879D01*
X131507447Y-83993569D01*
X131548041Y-83996413D01*
X131625656Y-84024854D01*
X131653401Y-84084503D01*
X131650692Y-84138909D01*
X131608821Y-84159472D01*
X131559010Y-84161733D01*
X131484445Y-84153111D01*
X131456624Y-84115567D01*
X131453649Y-84073642D01*
X131213234Y-84073642D01*
X131213379Y-84078730D01*
X131207404Y-84128036D01*
X131177811Y-84152636D01*
X131107101Y-84160993D01*
X131041757Y-84161733D01*
X130870136Y-84161733D01*
X130870136Y-84470652D01*
X131899866Y-84470652D01*
X131899360Y-84170314D01*
X131899360Y-84170314D01*
G37*
X131899360Y-84170314D02*
X131893921Y-84011397D01*
X131879659Y-83878710D01*
X131858821Y-83791940D01*
X131855300Y-83784166D01*
X131821538Y-83734224D01*
X131771632Y-83707704D01*
X131684799Y-83696765D01*
X131617937Y-83694627D01*
X131464443Y-83679246D01*
X131373614Y-83639941D01*
X131367788Y-83634559D01*
X131304890Y-83599129D01*
X131197606Y-83581479D01*
X131090792Y-83578220D01*
X130870136Y-83578220D01*
X130870136Y-83887139D01*
X131020923Y-83887139D01*
X131131660Y-83898091D01*
X131190483Y-83940625D01*
X131211970Y-84029253D01*
X131213234Y-84073642D01*
X131453649Y-84073642D01*
X131463542Y-84010879D01*
X131507447Y-83993569D01*
X131548041Y-83996413D01*
X131625656Y-84024854D01*
X131653401Y-84084503D01*
X131650692Y-84138909D01*
X131608821Y-84159472D01*
X131559010Y-84161733D01*
X131484445Y-84153111D01*
X131456624Y-84115567D01*
X131453649Y-84073642D01*
X131213234Y-84073642D01*
X131213379Y-84078730D01*
X131207404Y-84128036D01*
X131177811Y-84152636D01*
X131107101Y-84160993D01*
X131041757Y-84161733D01*
X130870136Y-84161733D01*
X130870136Y-84470652D01*
X131899866Y-84470652D01*
X131899360Y-84170314D01*
G36*
X131554148Y-83405219D02*
G01*
X131663156Y-83401210D01*
X131732709Y-83390498D01*
X131777403Y-83370105D01*
X131811833Y-83337050D01*
X131828726Y-83316158D01*
X131869705Y-83247509D01*
X131891762Y-83159383D01*
X131899585Y-83030184D01*
X131899866Y-82988373D01*
X131884474Y-82782655D01*
X131838426Y-82637427D01*
X131761912Y-82553170D01*
X131721037Y-82536159D01*
X131651501Y-82526482D01*
X131534675Y-82519028D01*
X131391912Y-82515006D01*
X131340535Y-82514634D01*
X131191255Y-82516255D01*
X131093225Y-82524074D01*
X131029093Y-82541681D01*
X130981510Y-82572668D01*
X130959247Y-82593556D01*
X130898812Y-82692425D01*
X130862998Y-82829830D01*
X130851624Y-82985382D01*
X130852970Y-83001398D01*
X131116352Y-83001398D01*
X131121780Y-82912349D01*
X131173260Y-82856257D01*
X131278030Y-82828370D01*
X131387996Y-82823084D01*
X131507446Y-82827310D01*
X131577404Y-82843621D01*
X131616706Y-82877465D01*
X131625271Y-82891733D01*
X131643221Y-82978702D01*
X131624456Y-83030553D01*
X131595982Y-83068211D01*
X131550031Y-83087938D01*
X131468820Y-83093732D01*
X131357235Y-83090620D01*
X131234064Y-83083125D01*
X131163586Y-83070323D01*
X131129850Y-83046305D01*
X131116905Y-83005164D01*
X131116352Y-83001398D01*
X130852970Y-83001398D01*
X130864511Y-83138691D01*
X130901481Y-83269368D01*
X130962353Y-83357022D01*
X130965987Y-83359884D01*
X131037121Y-83384460D01*
X131174049Y-83399611D01*
X131377860Y-83405453D01*
X131391091Y-83405506D01*
X131554148Y-83405219D01*
X131554148Y-83405219D01*
G37*
X131554148Y-83405219D02*
X131663156Y-83401210D01*
X131732709Y-83390498D01*
X131777403Y-83370105D01*
X131811833Y-83337050D01*
X131828726Y-83316158D01*
X131869705Y-83247509D01*
X131891762Y-83159383D01*
X131899585Y-83030184D01*
X131899866Y-82988373D01*
X131884474Y-82782655D01*
X131838426Y-82637427D01*
X131761912Y-82553170D01*
X131721037Y-82536159D01*
X131651501Y-82526482D01*
X131534675Y-82519028D01*
X131391912Y-82515006D01*
X131340535Y-82514634D01*
X131191255Y-82516255D01*
X131093225Y-82524074D01*
X131029093Y-82541681D01*
X130981510Y-82572668D01*
X130959247Y-82593556D01*
X130898812Y-82692425D01*
X130862998Y-82829830D01*
X130851624Y-82985382D01*
X130852970Y-83001398D01*
X131116352Y-83001398D01*
X131121780Y-82912349D01*
X131173260Y-82856257D01*
X131278030Y-82828370D01*
X131387996Y-82823084D01*
X131507446Y-82827310D01*
X131577404Y-82843621D01*
X131616706Y-82877465D01*
X131625271Y-82891733D01*
X131643221Y-82978702D01*
X131624456Y-83030553D01*
X131595982Y-83068211D01*
X131550031Y-83087938D01*
X131468820Y-83093732D01*
X131357235Y-83090620D01*
X131234064Y-83083125D01*
X131163586Y-83070323D01*
X131129850Y-83046305D01*
X131116905Y-83005164D01*
X131116352Y-83001398D01*
X130852970Y-83001398D01*
X130864511Y-83138691D01*
X130901481Y-83269368D01*
X130962353Y-83357022D01*
X130965987Y-83359884D01*
X131037121Y-83384460D01*
X131174049Y-83399611D01*
X131377860Y-83405453D01*
X131391091Y-83405506D01*
X131554148Y-83405219D01*
G36*
X131899866Y-82157022D02*
G01*
X131895415Y-82065287D01*
X131871747Y-82006623D01*
X131813387Y-81956815D01*
X131745406Y-81915305D01*
X131658238Y-81859648D01*
X131602229Y-81815103D01*
X131590947Y-81798748D01*
X131619134Y-81770183D01*
X131691187Y-81725752D01*
X131747268Y-81696763D01*
X131839208Y-81649183D01*
X131884144Y-81607274D01*
X131896878Y-81546831D01*
X131893146Y-81458234D01*
X131882703Y-81295652D01*
X131392868Y-81286124D01*
X131193835Y-81283432D01*
X131053501Y-81284881D01*
X130961999Y-81291239D01*
X130909464Y-81303275D01*
X130886029Y-81321759D01*
X130884166Y-81325762D01*
X130874141Y-81392806D01*
X130876018Y-81486742D01*
X130876298Y-81489749D01*
X130887298Y-81604571D01*
X131138799Y-81614709D01*
X131390299Y-81624848D01*
X131301839Y-81694430D01*
X131229863Y-81769496D01*
X131223539Y-81837753D01*
X131282967Y-81911023D01*
X131303819Y-81928161D01*
X131394259Y-81999301D01*
X130870136Y-81999301D01*
X130870136Y-82308220D01*
X131899866Y-82308220D01*
X131899866Y-82157022D01*
X131899866Y-82157022D01*
G37*
X131899866Y-82157022D02*
X131895415Y-82065287D01*
X131871747Y-82006623D01*
X131813387Y-81956815D01*
X131745406Y-81915305D01*
X131658238Y-81859648D01*
X131602229Y-81815103D01*
X131590947Y-81798748D01*
X131619134Y-81770183D01*
X131691187Y-81725752D01*
X131747268Y-81696763D01*
X131839208Y-81649183D01*
X131884144Y-81607274D01*
X131896878Y-81546831D01*
X131893146Y-81458234D01*
X131882703Y-81295652D01*
X131392868Y-81286124D01*
X131193835Y-81283432D01*
X131053501Y-81284881D01*
X130961999Y-81291239D01*
X130909464Y-81303275D01*
X130886029Y-81321759D01*
X130884166Y-81325762D01*
X130874141Y-81392806D01*
X130876018Y-81486742D01*
X130876298Y-81489749D01*
X130887298Y-81604571D01*
X131138799Y-81614709D01*
X131390299Y-81624848D01*
X131301839Y-81694430D01*
X131229863Y-81769496D01*
X131223539Y-81837753D01*
X131282967Y-81911023D01*
X131303819Y-81928161D01*
X131394259Y-81999301D01*
X130870136Y-81999301D01*
X130870136Y-82308220D01*
X131899866Y-82308220D01*
X131899866Y-82157022D01*
G36*
X131899866Y-80317409D02*
G01*
X131625271Y-80317409D01*
X131625271Y-80540517D01*
X131621575Y-80666865D01*
X131608704Y-80736909D01*
X131583981Y-80762687D01*
X131575665Y-80763625D01*
X131540659Y-80737413D01*
X131520353Y-80653859D01*
X131515598Y-80600584D01*
X131506817Y-80502357D01*
X131487404Y-80454529D01*
X131442830Y-80438961D01*
X131385001Y-80437544D01*
X131312752Y-80440820D01*
X131276057Y-80462663D01*
X131260657Y-80521092D01*
X131254316Y-80602722D01*
X131243251Y-80703617D01*
X131222762Y-80750261D01*
X131186465Y-80756986D01*
X131185668Y-80756837D01*
X131151623Y-80735425D01*
X131130977Y-80677728D01*
X131119395Y-80569455D01*
X131117349Y-80531591D01*
X131107130Y-80317409D01*
X130870136Y-80317409D01*
X130870136Y-81072544D01*
X131899866Y-81072544D01*
X131899866Y-80317409D01*
X131899866Y-80317409D01*
G37*
X131899866Y-80317409D02*
X131625271Y-80317409D01*
X131625271Y-80540517D01*
X131621575Y-80666865D01*
X131608704Y-80736909D01*
X131583981Y-80762687D01*
X131575665Y-80763625D01*
X131540659Y-80737413D01*
X131520353Y-80653859D01*
X131515598Y-80600584D01*
X131506817Y-80502357D01*
X131487404Y-80454529D01*
X131442830Y-80438961D01*
X131385001Y-80437544D01*
X131312752Y-80440820D01*
X131276057Y-80462663D01*
X131260657Y-80521092D01*
X131254316Y-80602722D01*
X131243251Y-80703617D01*
X131222762Y-80750261D01*
X131186465Y-80756986D01*
X131185668Y-80756837D01*
X131151623Y-80735425D01*
X131130977Y-80677728D01*
X131119395Y-80569455D01*
X131117349Y-80531591D01*
X131107130Y-80317409D01*
X130870136Y-80317409D01*
X130870136Y-81072544D01*
X131899866Y-81072544D01*
X131899866Y-80317409D01*
G36*
X131899866Y-79807666D02*
G01*
X131893203Y-79596409D01*
X131871435Y-79443360D01*
X131831891Y-79339216D01*
X131771898Y-79274671D01*
X131742083Y-79258086D01*
X131662015Y-79238974D01*
X131536021Y-79226972D01*
X131386469Y-79222221D01*
X131235728Y-79224858D01*
X131106164Y-79235023D01*
X131020146Y-79252854D01*
X131018258Y-79253594D01*
X130955404Y-79291391D01*
X130912496Y-79352872D01*
X130886209Y-79449544D01*
X130873215Y-79592915D01*
X130871199Y-79706263D01*
X131116352Y-79706263D01*
X131125234Y-79611827D01*
X131186817Y-79553854D01*
X131305163Y-79529272D01*
X131352072Y-79527949D01*
X131461707Y-79532139D01*
X131548050Y-79542726D01*
X131570977Y-79548784D01*
X131613328Y-79600479D01*
X131625271Y-79687585D01*
X131625271Y-79805551D01*
X131376420Y-79795467D01*
X131247271Y-79788501D01*
X131171463Y-79777148D01*
X131133693Y-79756158D01*
X131118657Y-79720283D01*
X131116352Y-79706263D01*
X130871199Y-79706263D01*
X130870136Y-79765963D01*
X130870136Y-80111463D01*
X131899866Y-80111463D01*
X131899866Y-79807666D01*
X131899866Y-79807666D01*
G37*
X131899866Y-79807666D02*
X131893203Y-79596409D01*
X131871435Y-79443360D01*
X131831891Y-79339216D01*
X131771898Y-79274671D01*
X131742083Y-79258086D01*
X131662015Y-79238974D01*
X131536021Y-79226972D01*
X131386469Y-79222221D01*
X131235728Y-79224858D01*
X131106164Y-79235023D01*
X131020146Y-79252854D01*
X131018258Y-79253594D01*
X130955404Y-79291391D01*
X130912496Y-79352872D01*
X130886209Y-79449544D01*
X130873215Y-79592915D01*
X130871199Y-79706263D01*
X131116352Y-79706263D01*
X131125234Y-79611827D01*
X131186817Y-79553854D01*
X131305163Y-79529272D01*
X131352072Y-79527949D01*
X131461707Y-79532139D01*
X131548050Y-79542726D01*
X131570977Y-79548784D01*
X131613328Y-79600479D01*
X131625271Y-79687585D01*
X131625271Y-79805551D01*
X131376420Y-79795467D01*
X131247271Y-79788501D01*
X131171463Y-79777148D01*
X131133693Y-79756158D01*
X131118657Y-79720283D01*
X131116352Y-79706263D01*
X130871199Y-79706263D01*
X130870136Y-79765963D01*
X130870136Y-80111463D01*
X131899866Y-80111463D01*
X131899866Y-79807666D01*
G36*
X131118987Y-79045625D02*
G01*
X131319299Y-79031560D01*
X131511771Y-78987318D01*
X131625271Y-78948679D01*
X131882703Y-78853516D01*
X131882703Y-78345579D01*
X131642433Y-78251637D01*
X131467463Y-78193005D01*
X131303458Y-78163839D01*
X131136149Y-78156336D01*
X130870136Y-78154976D01*
X130870136Y-78309436D01*
X130872700Y-78404342D01*
X130890082Y-78449284D01*
X130936810Y-78462943D01*
X130990271Y-78463895D01*
X131067189Y-78468052D01*
X131101372Y-78493716D01*
X131110137Y-78560679D01*
X131110406Y-78601193D01*
X131385001Y-78601193D01*
X131390202Y-78526694D01*
X131417972Y-78503867D01*
X131479393Y-78514090D01*
X131560481Y-78542066D01*
X131606393Y-78569297D01*
X131618466Y-78614455D01*
X131568075Y-78657429D01*
X131479393Y-78688296D01*
X131414607Y-78698212D01*
X131389230Y-78671995D01*
X131385001Y-78601193D01*
X131110406Y-78601193D01*
X131106769Y-78689099D01*
X131084313Y-78728165D01*
X131025720Y-78738183D01*
X130990271Y-78738490D01*
X130916455Y-78741787D01*
X130881500Y-78764134D01*
X130870877Y-78824214D01*
X130870136Y-78892949D01*
X130870136Y-79047409D01*
X131118987Y-79045625D01*
X131118987Y-79045625D01*
G37*
X131118987Y-79045625D02*
X131319299Y-79031560D01*
X131511771Y-78987318D01*
X131625271Y-78948679D01*
X131882703Y-78853516D01*
X131882703Y-78345579D01*
X131642433Y-78251637D01*
X131467463Y-78193005D01*
X131303458Y-78163839D01*
X131136149Y-78156336D01*
X130870136Y-78154976D01*
X130870136Y-78309436D01*
X130872700Y-78404342D01*
X130890082Y-78449284D01*
X130936810Y-78462943D01*
X130990271Y-78463895D01*
X131067189Y-78468052D01*
X131101372Y-78493716D01*
X131110137Y-78560679D01*
X131110406Y-78601193D01*
X131385001Y-78601193D01*
X131390202Y-78526694D01*
X131417972Y-78503867D01*
X131479393Y-78514090D01*
X131560481Y-78542066D01*
X131606393Y-78569297D01*
X131618466Y-78614455D01*
X131568075Y-78657429D01*
X131479393Y-78688296D01*
X131414607Y-78698212D01*
X131389230Y-78671995D01*
X131385001Y-78601193D01*
X131110406Y-78601193D01*
X131106769Y-78689099D01*
X131084313Y-78728165D01*
X131025720Y-78738183D01*
X130990271Y-78738490D01*
X130916455Y-78741787D01*
X130881500Y-78764134D01*
X130870877Y-78824214D01*
X130870136Y-78892949D01*
X130870136Y-79047409D01*
X131118987Y-79045625D01*
G36*
X161779254Y-88046979D02*
G01*
X161804226Y-88035250D01*
X161936137Y-87933877D01*
X162014366Y-87791198D01*
X162036622Y-87636013D01*
X162043471Y-87551847D01*
X162073840Y-87490292D01*
X162142459Y-87427688D01*
X162186613Y-87395115D01*
X162260593Y-87339525D01*
X162368838Y-87254182D01*
X162514715Y-87136341D01*
X162701591Y-86983254D01*
X162932829Y-86792174D01*
X163211797Y-86560354D01*
X163323784Y-86467042D01*
X163441087Y-86370267D01*
X163520504Y-86311322D01*
X163576901Y-86284103D01*
X163625142Y-86282505D01*
X163680094Y-86300427D01*
X163704729Y-86310627D01*
X163865782Y-86345415D01*
X164016017Y-86313094D01*
X164149945Y-86214996D01*
X164164489Y-86199061D01*
X164228288Y-86114982D01*
X164266818Y-86042383D01*
X164271503Y-86022633D01*
X164264547Y-85873497D01*
X164229165Y-85736762D01*
X164172424Y-85631601D01*
X164108147Y-85579487D01*
X164082827Y-85562048D01*
X164071396Y-85527734D01*
X164075406Y-85467007D01*
X164096413Y-85370325D01*
X164135970Y-85228150D01*
X164195632Y-85030942D01*
X164199644Y-85017931D01*
X164247240Y-84866919D01*
X164283013Y-84768989D01*
X164314742Y-84711429D01*
X164350202Y-84681529D01*
X164397168Y-84666579D01*
X164416987Y-84662672D01*
X164554767Y-84604832D01*
X164658295Y-84498415D01*
X164719040Y-84358490D01*
X164728470Y-84200129D01*
X164715883Y-84134700D01*
X164681357Y-84038201D01*
X164641453Y-83968775D01*
X164631862Y-83958902D01*
X164610239Y-83928453D01*
X164607626Y-83877739D01*
X164625528Y-83791458D01*
X164660127Y-83671728D01*
X164698132Y-83537450D01*
X164744319Y-83360057D01*
X164792599Y-83163583D01*
X164833114Y-82988939D01*
X164930596Y-82554117D01*
X165041186Y-82533370D01*
X165182842Y-82473669D01*
X165296941Y-82360045D01*
X165367448Y-82214221D01*
X165381445Y-82060785D01*
X165336534Y-81920001D01*
X165242448Y-81803583D01*
X165108921Y-81723244D01*
X164945686Y-81690698D01*
X164932254Y-81690510D01*
X164790182Y-81690382D01*
X164589010Y-81364296D01*
X164465762Y-81164427D01*
X164374444Y-81014621D01*
X164311198Y-80906360D01*
X164272164Y-80831126D01*
X164253485Y-80780400D01*
X164251301Y-80745665D01*
X164261753Y-80718403D01*
X164280983Y-80690095D01*
X164282569Y-80687839D01*
X164328299Y-80568226D01*
X164329588Y-80416601D01*
X164299304Y-80290026D01*
X164281254Y-80199910D01*
X164290723Y-80134208D01*
X164326434Y-80088115D01*
X164403044Y-79999954D01*
X164513763Y-79877034D01*
X164651801Y-79726668D01*
X164810369Y-79556166D01*
X164982675Y-79372839D01*
X165161931Y-79183998D01*
X165341346Y-78996955D01*
X165474011Y-78860112D01*
X165621389Y-78709549D01*
X165729448Y-78602162D01*
X165806509Y-78531698D01*
X165860891Y-78491904D01*
X165900913Y-78476525D01*
X165934894Y-78479309D01*
X165964895Y-78491125D01*
X166105879Y-78528360D01*
X166253606Y-78524509D01*
X166379534Y-78481339D01*
X166405178Y-78463895D01*
X166476624Y-78415960D01*
X166528300Y-78395266D01*
X166529208Y-78395247D01*
X166568971Y-78413357D01*
X166655209Y-78463410D01*
X166777462Y-78538993D01*
X166925273Y-78633690D01*
X167030275Y-78702570D01*
X167190986Y-78808621D01*
X167334350Y-78902622D01*
X167449373Y-78977411D01*
X167525062Y-79025827D01*
X167547470Y-79039490D01*
X167585995Y-79094763D01*
X167610424Y-79199532D01*
X167613220Y-79226954D01*
X167654230Y-79407545D01*
X167742863Y-79541261D01*
X167860509Y-79618443D01*
X167976019Y-79657018D01*
X168071554Y-79657502D01*
X168181808Y-79618836D01*
X168205285Y-79607926D01*
X168340265Y-79511363D01*
X168421992Y-79383727D01*
X168449403Y-79238539D01*
X168421436Y-79089321D01*
X168337030Y-78949595D01*
X168262544Y-78878818D01*
X168137831Y-78820077D01*
X167991215Y-78807819D01*
X167851305Y-78842032D01*
X167789698Y-78878969D01*
X167698381Y-78950799D01*
X167150248Y-78595793D01*
X166957420Y-78469966D01*
X166815335Y-78374271D01*
X166716463Y-78302553D01*
X166653273Y-78248656D01*
X166618236Y-78206424D01*
X166603820Y-78169701D01*
X166601936Y-78147560D01*
X166572423Y-77987631D01*
X166493193Y-77854449D01*
X166377232Y-77757340D01*
X166237527Y-77705633D01*
X166087064Y-77708654D01*
X166020415Y-77729885D01*
X165922685Y-77784031D01*
X165844610Y-77848424D01*
X165842442Y-77850877D01*
X165781984Y-77959210D01*
X165751161Y-78092525D01*
X165758045Y-78214372D01*
X165760276Y-78221937D01*
X165760930Y-78254750D01*
X165741325Y-78300705D01*
X165696214Y-78366463D01*
X165620351Y-78458690D01*
X165508489Y-78584046D01*
X165355379Y-78749196D01*
X165291657Y-78817016D01*
X165052849Y-79070737D01*
X164855174Y-79281145D01*
X164692551Y-79454762D01*
X164558901Y-79598108D01*
X164448143Y-79717706D01*
X164354196Y-79820078D01*
X164270980Y-79911745D01*
X164269863Y-79912983D01*
X164187444Y-80000892D01*
X164128196Y-80047238D01*
X164070440Y-80062429D01*
X163992497Y-80056876D01*
X163975074Y-80054535D01*
X163851647Y-80050409D01*
X163749001Y-80083837D01*
X163709717Y-80106293D01*
X163594653Y-80209984D01*
X163529953Y-80337481D01*
X163511502Y-80475992D01*
X163535184Y-80612724D01*
X163596884Y-80734888D01*
X163692488Y-80829690D01*
X163817881Y-80884338D01*
X163960990Y-80887389D01*
X164093975Y-80866124D01*
X164258069Y-81126880D01*
X164353328Y-81277844D01*
X164454611Y-81437708D01*
X164542239Y-81575424D01*
X164553660Y-81593300D01*
X164621105Y-81701753D01*
X164654830Y-81769613D01*
X164659372Y-81813289D01*
X164639266Y-81849190D01*
X164627981Y-81862144D01*
X164566188Y-81977337D01*
X164550759Y-82118247D01*
X164578500Y-82263081D01*
X164646221Y-82390051D01*
X164714995Y-82456136D01*
X164738580Y-82474518D01*
X164753798Y-82497533D01*
X164759478Y-82534518D01*
X164754450Y-82594810D01*
X164737543Y-82687747D01*
X164707587Y-82822663D01*
X164663411Y-83008896D01*
X164626522Y-83161869D01*
X164467934Y-83818490D01*
X164366716Y-83818490D01*
X164204742Y-83845894D01*
X164067454Y-83920003D01*
X163963812Y-84028661D01*
X163902775Y-84159715D01*
X163893300Y-84301010D01*
X163928654Y-84412841D01*
X163979469Y-84490895D01*
X164048733Y-84575381D01*
X164050600Y-84577394D01*
X164134028Y-84666973D01*
X164015721Y-85074700D01*
X163965266Y-85245441D01*
X163927244Y-85361402D01*
X163895886Y-85433994D01*
X163865425Y-85474629D01*
X163830090Y-85494719D01*
X163799383Y-85502665D01*
X163633943Y-85566102D01*
X163518953Y-85674322D01*
X163458702Y-85821390D01*
X163454551Y-85979803D01*
X163473796Y-86142295D01*
X163059016Y-86482082D01*
X162895061Y-86616473D01*
X162730383Y-86751597D01*
X162581168Y-86874162D01*
X162463608Y-86970876D01*
X162434821Y-86994603D01*
X162311688Y-87095115D01*
X162188059Y-87194324D01*
X162090176Y-87271177D01*
X162088109Y-87272766D01*
X161950812Y-87378195D01*
X161847839Y-87314739D01*
X161693667Y-87255746D01*
X161537404Y-87257519D01*
X161394028Y-87314330D01*
X161278515Y-87420454D01*
X161209030Y-87559018D01*
X161187963Y-87658336D01*
X161199869Y-87741418D01*
X161234153Y-87820287D01*
X161338069Y-87968355D01*
X161469040Y-88057560D01*
X161618842Y-88084801D01*
X161779254Y-88046979D01*
X161779254Y-88046979D01*
G37*
X161779254Y-88046979D02*
X161804226Y-88035250D01*
X161936137Y-87933877D01*
X162014366Y-87791198D01*
X162036622Y-87636013D01*
X162043471Y-87551847D01*
X162073840Y-87490292D01*
X162142459Y-87427688D01*
X162186613Y-87395115D01*
X162260593Y-87339525D01*
X162368838Y-87254182D01*
X162514715Y-87136341D01*
X162701591Y-86983254D01*
X162932829Y-86792174D01*
X163211797Y-86560354D01*
X163323784Y-86467042D01*
X163441087Y-86370267D01*
X163520504Y-86311322D01*
X163576901Y-86284103D01*
X163625142Y-86282505D01*
X163680094Y-86300427D01*
X163704729Y-86310627D01*
X163865782Y-86345415D01*
X164016017Y-86313094D01*
X164149945Y-86214996D01*
X164164489Y-86199061D01*
X164228288Y-86114982D01*
X164266818Y-86042383D01*
X164271503Y-86022633D01*
X164264547Y-85873497D01*
X164229165Y-85736762D01*
X164172424Y-85631601D01*
X164108147Y-85579487D01*
X164082827Y-85562048D01*
X164071396Y-85527734D01*
X164075406Y-85467007D01*
X164096413Y-85370325D01*
X164135970Y-85228150D01*
X164195632Y-85030942D01*
X164199644Y-85017931D01*
X164247240Y-84866919D01*
X164283013Y-84768989D01*
X164314742Y-84711429D01*
X164350202Y-84681529D01*
X164397168Y-84666579D01*
X164416987Y-84662672D01*
X164554767Y-84604832D01*
X164658295Y-84498415D01*
X164719040Y-84358490D01*
X164728470Y-84200129D01*
X164715883Y-84134700D01*
X164681357Y-84038201D01*
X164641453Y-83968775D01*
X164631862Y-83958902D01*
X164610239Y-83928453D01*
X164607626Y-83877739D01*
X164625528Y-83791458D01*
X164660127Y-83671728D01*
X164698132Y-83537450D01*
X164744319Y-83360057D01*
X164792599Y-83163583D01*
X164833114Y-82988939D01*
X164930596Y-82554117D01*
X165041186Y-82533370D01*
X165182842Y-82473669D01*
X165296941Y-82360045D01*
X165367448Y-82214221D01*
X165381445Y-82060785D01*
X165336534Y-81920001D01*
X165242448Y-81803583D01*
X165108921Y-81723244D01*
X164945686Y-81690698D01*
X164932254Y-81690510D01*
X164790182Y-81690382D01*
X164589010Y-81364296D01*
X164465762Y-81164427D01*
X164374444Y-81014621D01*
X164311198Y-80906360D01*
X164272164Y-80831126D01*
X164253485Y-80780400D01*
X164251301Y-80745665D01*
X164261753Y-80718403D01*
X164280983Y-80690095D01*
X164282569Y-80687839D01*
X164328299Y-80568226D01*
X164329588Y-80416601D01*
X164299304Y-80290026D01*
X164281254Y-80199910D01*
X164290723Y-80134208D01*
X164326434Y-80088115D01*
X164403044Y-79999954D01*
X164513763Y-79877034D01*
X164651801Y-79726668D01*
X164810369Y-79556166D01*
X164982675Y-79372839D01*
X165161931Y-79183998D01*
X165341346Y-78996955D01*
X165474011Y-78860112D01*
X165621389Y-78709549D01*
X165729448Y-78602162D01*
X165806509Y-78531698D01*
X165860891Y-78491904D01*
X165900913Y-78476525D01*
X165934894Y-78479309D01*
X165964895Y-78491125D01*
X166105879Y-78528360D01*
X166253606Y-78524509D01*
X166379534Y-78481339D01*
X166405178Y-78463895D01*
X166476624Y-78415960D01*
X166528300Y-78395266D01*
X166529208Y-78395247D01*
X166568971Y-78413357D01*
X166655209Y-78463410D01*
X166777462Y-78538993D01*
X166925273Y-78633690D01*
X167030275Y-78702570D01*
X167190986Y-78808621D01*
X167334350Y-78902622D01*
X167449373Y-78977411D01*
X167525062Y-79025827D01*
X167547470Y-79039490D01*
X167585995Y-79094763D01*
X167610424Y-79199532D01*
X167613220Y-79226954D01*
X167654230Y-79407545D01*
X167742863Y-79541261D01*
X167860509Y-79618443D01*
X167976019Y-79657018D01*
X168071554Y-79657502D01*
X168181808Y-79618836D01*
X168205285Y-79607926D01*
X168340265Y-79511363D01*
X168421992Y-79383727D01*
X168449403Y-79238539D01*
X168421436Y-79089321D01*
X168337030Y-78949595D01*
X168262544Y-78878818D01*
X168137831Y-78820077D01*
X167991215Y-78807819D01*
X167851305Y-78842032D01*
X167789698Y-78878969D01*
X167698381Y-78950799D01*
X167150248Y-78595793D01*
X166957420Y-78469966D01*
X166815335Y-78374271D01*
X166716463Y-78302553D01*
X166653273Y-78248656D01*
X166618236Y-78206424D01*
X166603820Y-78169701D01*
X166601936Y-78147560D01*
X166572423Y-77987631D01*
X166493193Y-77854449D01*
X166377232Y-77757340D01*
X166237527Y-77705633D01*
X166087064Y-77708654D01*
X166020415Y-77729885D01*
X165922685Y-77784031D01*
X165844610Y-77848424D01*
X165842442Y-77850877D01*
X165781984Y-77959210D01*
X165751161Y-78092525D01*
X165758045Y-78214372D01*
X165760276Y-78221937D01*
X165760930Y-78254750D01*
X165741325Y-78300705D01*
X165696214Y-78366463D01*
X165620351Y-78458690D01*
X165508489Y-78584046D01*
X165355379Y-78749196D01*
X165291657Y-78817016D01*
X165052849Y-79070737D01*
X164855174Y-79281145D01*
X164692551Y-79454762D01*
X164558901Y-79598108D01*
X164448143Y-79717706D01*
X164354196Y-79820078D01*
X164270980Y-79911745D01*
X164269863Y-79912983D01*
X164187444Y-80000892D01*
X164128196Y-80047238D01*
X164070440Y-80062429D01*
X163992497Y-80056876D01*
X163975074Y-80054535D01*
X163851647Y-80050409D01*
X163749001Y-80083837D01*
X163709717Y-80106293D01*
X163594653Y-80209984D01*
X163529953Y-80337481D01*
X163511502Y-80475992D01*
X163535184Y-80612724D01*
X163596884Y-80734888D01*
X163692488Y-80829690D01*
X163817881Y-80884338D01*
X163960990Y-80887389D01*
X164093975Y-80866124D01*
X164258069Y-81126880D01*
X164353328Y-81277844D01*
X164454611Y-81437708D01*
X164542239Y-81575424D01*
X164553660Y-81593300D01*
X164621105Y-81701753D01*
X164654830Y-81769613D01*
X164659372Y-81813289D01*
X164639266Y-81849190D01*
X164627981Y-81862144D01*
X164566188Y-81977337D01*
X164550759Y-82118247D01*
X164578500Y-82263081D01*
X164646221Y-82390051D01*
X164714995Y-82456136D01*
X164738580Y-82474518D01*
X164753798Y-82497533D01*
X164759478Y-82534518D01*
X164754450Y-82594810D01*
X164737543Y-82687747D01*
X164707587Y-82822663D01*
X164663411Y-83008896D01*
X164626522Y-83161869D01*
X164467934Y-83818490D01*
X164366716Y-83818490D01*
X164204742Y-83845894D01*
X164067454Y-83920003D01*
X163963812Y-84028661D01*
X163902775Y-84159715D01*
X163893300Y-84301010D01*
X163928654Y-84412841D01*
X163979469Y-84490895D01*
X164048733Y-84575381D01*
X164050600Y-84577394D01*
X164134028Y-84666973D01*
X164015721Y-85074700D01*
X163965266Y-85245441D01*
X163927244Y-85361402D01*
X163895886Y-85433994D01*
X163865425Y-85474629D01*
X163830090Y-85494719D01*
X163799383Y-85502665D01*
X163633943Y-85566102D01*
X163518953Y-85674322D01*
X163458702Y-85821390D01*
X163454551Y-85979803D01*
X163473796Y-86142295D01*
X163059016Y-86482082D01*
X162895061Y-86616473D01*
X162730383Y-86751597D01*
X162581168Y-86874162D01*
X162463608Y-86970876D01*
X162434821Y-86994603D01*
X162311688Y-87095115D01*
X162188059Y-87194324D01*
X162090176Y-87271177D01*
X162088109Y-87272766D01*
X161950812Y-87378195D01*
X161847839Y-87314739D01*
X161693667Y-87255746D01*
X161537404Y-87257519D01*
X161394028Y-87314330D01*
X161278515Y-87420454D01*
X161209030Y-87559018D01*
X161187963Y-87658336D01*
X161199869Y-87741418D01*
X161234153Y-87820287D01*
X161338069Y-87968355D01*
X161469040Y-88057560D01*
X161618842Y-88084801D01*
X161779254Y-88046979D01*
G36*
X160961071Y-78794363D02*
G01*
X161168601Y-78760716D01*
X161407178Y-78709133D01*
X161660447Y-78643362D01*
X161912051Y-78567155D01*
X162050011Y-78519924D01*
X162389481Y-78397988D01*
X162533451Y-78482360D01*
X162803921Y-78602387D01*
X163094715Y-78662531D01*
X163393073Y-78663058D01*
X163686235Y-78604236D01*
X163961440Y-78486332D01*
X164020308Y-78451231D01*
X164264233Y-78258215D01*
X164456489Y-78020478D01*
X164595793Y-77739922D01*
X164667252Y-77490755D01*
X164692793Y-77371687D01*
X164713050Y-77283585D01*
X164724065Y-77243554D01*
X164724586Y-77242788D01*
X165086777Y-77003228D01*
X165399369Y-76778667D01*
X165659987Y-76571220D01*
X165866252Y-76383004D01*
X166015789Y-76216133D01*
X166106221Y-76072724D01*
X166132808Y-75989261D01*
X166126737Y-75847934D01*
X166063130Y-75738200D01*
X165946524Y-75662339D01*
X165781457Y-75622627D01*
X165572468Y-75621345D01*
X165434730Y-75638800D01*
X165318734Y-75663107D01*
X165156613Y-75703255D01*
X164967537Y-75753873D01*
X164770672Y-75809594D01*
X164585185Y-75865048D01*
X164430243Y-75914867D01*
X164359603Y-75939938D01*
X164125421Y-76028155D01*
X163876628Y-75905194D01*
X163589846Y-75798606D01*
X163300629Y-75756039D01*
X163016450Y-75773586D01*
X162744784Y-75847339D01*
X162493104Y-75973391D01*
X162268885Y-76147832D01*
X162175681Y-76255631D01*
X164397999Y-76255631D01*
X164398063Y-76255594D01*
X164456217Y-76231735D01*
X164564389Y-76194704D01*
X164706387Y-76149464D01*
X164866018Y-76100978D01*
X165027091Y-76054209D01*
X165173414Y-76014121D01*
X165245947Y-75995692D01*
X165422688Y-75958143D01*
X165579545Y-75934974D01*
X165704643Y-75926995D01*
X165786104Y-75935017D01*
X165812298Y-75957025D01*
X165786643Y-76012060D01*
X165716311Y-76098314D01*
X165611254Y-76205434D01*
X165481423Y-76323066D01*
X165379317Y-76407561D01*
X165250349Y-76506997D01*
X165110625Y-76609538D01*
X164972429Y-76706789D01*
X164848044Y-76790356D01*
X164749754Y-76851844D01*
X164689842Y-76882859D01*
X164680729Y-76884976D01*
X164656216Y-76855145D01*
X164633658Y-76782423D01*
X164631870Y-76773422D01*
X164602819Y-76684805D01*
X164548547Y-76567041D01*
X164492396Y-76465513D01*
X164436119Y-76364897D01*
X164402220Y-76289520D01*
X164397999Y-76255631D01*
X162175681Y-76255631D01*
X162079599Y-76366757D01*
X161932721Y-76626255D01*
X161835725Y-76922421D01*
X161824332Y-76978284D01*
X161798702Y-77095947D01*
X161765944Y-77170427D01*
X161709941Y-77226600D01*
X161628291Y-77280855D01*
X161453085Y-77396118D01*
X161256756Y-77535797D01*
X161056140Y-77686960D01*
X160868071Y-77836679D01*
X160709388Y-77972025D01*
X160623886Y-78052210D01*
X160473402Y-78226369D01*
X160385655Y-78384792D01*
X160369104Y-78481057D01*
X160646487Y-78481057D01*
X160834549Y-78280647D01*
X160909367Y-78208884D01*
X161018332Y-78114472D01*
X161150321Y-78005973D01*
X161294210Y-77891949D01*
X161438875Y-77780963D01*
X161573194Y-77681577D01*
X161686041Y-77602352D01*
X161766294Y-77551851D01*
X161799510Y-77537887D01*
X161820858Y-77567028D01*
X161858644Y-77644718D01*
X161905310Y-77755192D01*
X161913117Y-77774910D01*
X161965268Y-77896839D01*
X162015385Y-77995618D01*
X162053324Y-78051433D01*
X162055837Y-78053707D01*
X162094140Y-78096448D01*
X162093684Y-78135336D01*
X162048207Y-78174785D01*
X161951445Y-78219209D01*
X161797136Y-78273023D01*
X161701960Y-78303121D01*
X161444360Y-78380587D01*
X161239745Y-78436040D01*
X161076913Y-78471811D01*
X160944662Y-78490232D01*
X160831790Y-78493635D01*
X160795672Y-78491774D01*
X160646487Y-78481057D01*
X160369104Y-78481057D01*
X160361480Y-78525393D01*
X160392083Y-78630303D01*
X160474642Y-78727324D01*
X160596233Y-78784350D01*
X160767286Y-78805871D01*
X160800947Y-78806322D01*
X160961071Y-78794363D01*
X160961071Y-78794363D01*
G37*
X160961071Y-78794363D02*
X161168601Y-78760716D01*
X161407178Y-78709133D01*
X161660447Y-78643362D01*
X161912051Y-78567155D01*
X162050011Y-78519924D01*
X162389481Y-78397988D01*
X162533451Y-78482360D01*
X162803921Y-78602387D01*
X163094715Y-78662531D01*
X163393073Y-78663058D01*
X163686235Y-78604236D01*
X163961440Y-78486332D01*
X164020308Y-78451231D01*
X164264233Y-78258215D01*
X164456489Y-78020478D01*
X164595793Y-77739922D01*
X164667252Y-77490755D01*
X164692793Y-77371687D01*
X164713050Y-77283585D01*
X164724065Y-77243554D01*
X164724586Y-77242788D01*
X165086777Y-77003228D01*
X165399369Y-76778667D01*
X165659987Y-76571220D01*
X165866252Y-76383004D01*
X166015789Y-76216133D01*
X166106221Y-76072724D01*
X166132808Y-75989261D01*
X166126737Y-75847934D01*
X166063130Y-75738200D01*
X165946524Y-75662339D01*
X165781457Y-75622627D01*
X165572468Y-75621345D01*
X165434730Y-75638800D01*
X165318734Y-75663107D01*
X165156613Y-75703255D01*
X164967537Y-75753873D01*
X164770672Y-75809594D01*
X164585185Y-75865048D01*
X164430243Y-75914867D01*
X164359603Y-75939938D01*
X164125421Y-76028155D01*
X163876628Y-75905194D01*
X163589846Y-75798606D01*
X163300629Y-75756039D01*
X163016450Y-75773586D01*
X162744784Y-75847339D01*
X162493104Y-75973391D01*
X162268885Y-76147832D01*
X162175681Y-76255631D01*
X164397999Y-76255631D01*
X164398063Y-76255594D01*
X164456217Y-76231735D01*
X164564389Y-76194704D01*
X164706387Y-76149464D01*
X164866018Y-76100978D01*
X165027091Y-76054209D01*
X165173414Y-76014121D01*
X165245947Y-75995692D01*
X165422688Y-75958143D01*
X165579545Y-75934974D01*
X165704643Y-75926995D01*
X165786104Y-75935017D01*
X165812298Y-75957025D01*
X165786643Y-76012060D01*
X165716311Y-76098314D01*
X165611254Y-76205434D01*
X165481423Y-76323066D01*
X165379317Y-76407561D01*
X165250349Y-76506997D01*
X165110625Y-76609538D01*
X164972429Y-76706789D01*
X164848044Y-76790356D01*
X164749754Y-76851844D01*
X164689842Y-76882859D01*
X164680729Y-76884976D01*
X164656216Y-76855145D01*
X164633658Y-76782423D01*
X164631870Y-76773422D01*
X164602819Y-76684805D01*
X164548547Y-76567041D01*
X164492396Y-76465513D01*
X164436119Y-76364897D01*
X164402220Y-76289520D01*
X164397999Y-76255631D01*
X162175681Y-76255631D01*
X162079599Y-76366757D01*
X161932721Y-76626255D01*
X161835725Y-76922421D01*
X161824332Y-76978284D01*
X161798702Y-77095947D01*
X161765944Y-77170427D01*
X161709941Y-77226600D01*
X161628291Y-77280855D01*
X161453085Y-77396118D01*
X161256756Y-77535797D01*
X161056140Y-77686960D01*
X160868071Y-77836679D01*
X160709388Y-77972025D01*
X160623886Y-78052210D01*
X160473402Y-78226369D01*
X160385655Y-78384792D01*
X160369104Y-78481057D01*
X160646487Y-78481057D01*
X160834549Y-78280647D01*
X160909367Y-78208884D01*
X161018332Y-78114472D01*
X161150321Y-78005973D01*
X161294210Y-77891949D01*
X161438875Y-77780963D01*
X161573194Y-77681577D01*
X161686041Y-77602352D01*
X161766294Y-77551851D01*
X161799510Y-77537887D01*
X161820858Y-77567028D01*
X161858644Y-77644718D01*
X161905310Y-77755192D01*
X161913117Y-77774910D01*
X161965268Y-77896839D01*
X162015385Y-77995618D01*
X162053324Y-78051433D01*
X162055837Y-78053707D01*
X162094140Y-78096448D01*
X162093684Y-78135336D01*
X162048207Y-78174785D01*
X161951445Y-78219209D01*
X161797136Y-78273023D01*
X161701960Y-78303121D01*
X161444360Y-78380587D01*
X161239745Y-78436040D01*
X161076913Y-78471811D01*
X160944662Y-78490232D01*
X160831790Y-78493635D01*
X160795672Y-78491774D01*
X160646487Y-78481057D01*
X160369104Y-78481057D01*
X160361480Y-78525393D01*
X160392083Y-78630303D01*
X160474642Y-78727324D01*
X160596233Y-78784350D01*
X160767286Y-78805871D01*
X160800947Y-78806322D01*
X160961071Y-78794363D01*
G36*
X143087756Y-78563661D02*
G01*
X143104113Y-78459750D01*
X143144348Y-78319355D01*
X143200018Y-78166553D01*
X143262681Y-78025424D01*
X143301464Y-77954142D01*
X143515906Y-77664272D01*
X143778484Y-77416922D01*
X144079468Y-77218875D01*
X144409129Y-77076914D01*
X144648121Y-77015230D01*
X144871888Y-76972782D01*
X144675809Y-76932223D01*
X144316981Y-76830227D01*
X144000742Y-76679177D01*
X143716480Y-76473398D01*
X143582681Y-76347865D01*
X143403727Y-76132979D01*
X143253914Y-75887189D01*
X143143788Y-75630983D01*
X143083895Y-75384847D01*
X143082891Y-75377087D01*
X143070769Y-75358701D01*
X143047987Y-75406119D01*
X143015400Y-75517468D01*
X143010954Y-75534713D01*
X142905491Y-75822069D01*
X142743131Y-76100438D01*
X142535382Y-76355059D01*
X142293755Y-76571175D01*
X142107445Y-76693428D01*
X141973181Y-76759846D01*
X141812206Y-76826302D01*
X141645084Y-76885655D01*
X141492379Y-76930766D01*
X141374655Y-76954496D01*
X141350165Y-76956354D01*
X141324408Y-76963419D01*
X141362086Y-76980048D01*
X141458946Y-77004366D01*
X141459190Y-77004420D01*
X141829983Y-77116622D01*
X142158409Y-77281578D01*
X142448680Y-77501616D01*
X142563485Y-77614456D01*
X142759873Y-77854485D01*
X142905340Y-78111353D01*
X143009129Y-78393358D01*
X143044362Y-78501960D01*
X143071452Y-78565652D01*
X143086238Y-78575425D01*
X143087756Y-78563661D01*
X143087756Y-78563661D01*
G37*
X143087756Y-78563661D02*
X143104113Y-78459750D01*
X143144348Y-78319355D01*
X143200018Y-78166553D01*
X143262681Y-78025424D01*
X143301464Y-77954142D01*
X143515906Y-77664272D01*
X143778484Y-77416922D01*
X144079468Y-77218875D01*
X144409129Y-77076914D01*
X144648121Y-77015230D01*
X144871888Y-76972782D01*
X144675809Y-76932223D01*
X144316981Y-76830227D01*
X144000742Y-76679177D01*
X143716480Y-76473398D01*
X143582681Y-76347865D01*
X143403727Y-76132979D01*
X143253914Y-75887189D01*
X143143788Y-75630983D01*
X143083895Y-75384847D01*
X143082891Y-75377087D01*
X143070769Y-75358701D01*
X143047987Y-75406119D01*
X143015400Y-75517468D01*
X143010954Y-75534713D01*
X142905491Y-75822069D01*
X142743131Y-76100438D01*
X142535382Y-76355059D01*
X142293755Y-76571175D01*
X142107445Y-76693428D01*
X141973181Y-76759846D01*
X141812206Y-76826302D01*
X141645084Y-76885655D01*
X141492379Y-76930766D01*
X141374655Y-76954496D01*
X141350165Y-76956354D01*
X141324408Y-76963419D01*
X141362086Y-76980048D01*
X141458946Y-77004366D01*
X141459190Y-77004420D01*
X141829983Y-77116622D01*
X142158409Y-77281578D01*
X142448680Y-77501616D01*
X142563485Y-77614456D01*
X142759873Y-77854485D01*
X142905340Y-78111353D01*
X143009129Y-78393358D01*
X143044362Y-78501960D01*
X143071452Y-78565652D01*
X143086238Y-78575425D01*
X143087756Y-78563661D01*
D11*
X138908748Y-89320000D02*
X139431252Y-89320000D01*
X138908748Y-87900000D02*
X139431252Y-87900000D01*
X134431252Y-86610000D02*
X133908748Y-86610000D01*
X134431252Y-85190000D02*
X133908748Y-85190000D01*
X133908748Y-80810000D02*
X134431252Y-80810000D01*
X133908748Y-79390000D02*
X134431252Y-79390000D01*
X137608748Y-77490000D02*
X138131252Y-77490000D01*
X137608748Y-78910000D02*
X138131252Y-78910000D01*
X138908748Y-86000000D02*
X139431252Y-86000000D01*
X138908748Y-87420000D02*
X139431252Y-87420000D01*
X134431252Y-82710000D02*
X133908748Y-82710000D01*
X134431252Y-81290000D02*
X133908748Y-81290000D01*
X133908748Y-84710000D02*
X134431252Y-84710000D01*
X133908748Y-83290000D02*
X134431252Y-83290000D01*
X152270000Y-85481252D02*
X152270000Y-84958748D01*
X150850000Y-85481252D02*
X150850000Y-84958748D01*
X154170000Y-84958748D02*
X154170000Y-85481252D01*
X152750000Y-84958748D02*
X152750000Y-85481252D01*
X156198748Y-81400000D02*
X156721252Y-81400000D01*
X156198748Y-82820000D02*
X156721252Y-82820000D01*
X156198748Y-90420000D02*
X156721252Y-90420000D01*
X156198748Y-89000000D02*
X156721252Y-89000000D01*
X156198748Y-85200000D02*
X156721252Y-85200000D01*
X156198748Y-86620000D02*
X156721252Y-86620000D01*
X156721252Y-83300000D02*
X156198748Y-83300000D01*
X156721252Y-84720000D02*
X156198748Y-84720000D01*
X139431252Y-84090000D02*
X138908748Y-84090000D01*
X139431252Y-85510000D02*
X138908748Y-85510000D01*
X139431252Y-82190000D02*
X138908748Y-82190000D01*
X139431252Y-83610000D02*
X138908748Y-83610000D01*
X156721252Y-88520000D02*
X156198748Y-88520000D01*
X156721252Y-87100000D02*
X156198748Y-87100000D01*
X154040000Y-89580000D02*
X153110000Y-89580000D01*
X150880000Y-89580000D02*
X151810000Y-89580000D01*
X150880000Y-89580000D02*
X150880000Y-87420000D01*
X154040000Y-89580000D02*
X154040000Y-88120000D01*
X150980000Y-80860000D02*
X150980000Y-82320000D01*
X154140000Y-80860000D02*
X154140000Y-83020000D01*
X154140000Y-80860000D02*
X153210000Y-80860000D01*
X150980000Y-80860000D02*
X151910000Y-80860000D01*
X155698748Y-77120000D02*
X156221252Y-77120000D01*
X155698748Y-75700000D02*
X156221252Y-75700000D01*
X134431252Y-77490000D02*
X133908748Y-77490000D01*
X134431252Y-78910000D02*
X133908748Y-78910000D01*
X156188748Y-77600000D02*
X156711252Y-77600000D01*
X156188748Y-79020000D02*
X156711252Y-79020000D01*
X156188748Y-79500000D02*
X156711252Y-79500000D01*
X156188748Y-80920000D02*
X156711252Y-80920000D01*
X134431252Y-87090000D02*
X133908748Y-87090000D01*
X134431252Y-88510000D02*
X133908748Y-88510000D01*
D12*
X148105000Y-79625000D02*
X148105000Y-78515000D01*
X143955000Y-78515000D02*
X143955000Y-79625000D01*
X143955000Y-87465000D02*
X143955000Y-86355000D01*
X148105000Y-87465000D02*
X148105000Y-86355000D01*
X148105000Y-78515000D02*
X143955000Y-78515000D01*
X148105000Y-87465000D02*
X143955000Y-87465000D01*
X148105000Y-79625000D02*
X149230000Y-79625000D01*
X152831704Y-75078340D02*
X152831704Y-75887864D01*
X152784085Y-75983102D01*
X152736466Y-76030721D01*
X152641228Y-76078340D01*
X152450752Y-76078340D01*
X152355514Y-76030721D01*
X152307895Y-75983102D01*
X152260276Y-75887864D01*
X152260276Y-75078340D01*
X151260276Y-76078340D02*
X151831704Y-76078340D01*
X151545990Y-76078340D02*
X151545990Y-75078340D01*
X151641228Y-75221198D01*
X151736466Y-75316436D01*
X151831704Y-75364055D01*
X139336666Y-90367142D02*
X139384285Y-90414761D01*
X139527142Y-90462380D01*
X139622380Y-90462380D01*
X139765238Y-90414761D01*
X139860476Y-90319523D01*
X139908095Y-90224285D01*
X139955714Y-90033809D01*
X139955714Y-89890952D01*
X139908095Y-89700476D01*
X139860476Y-89605238D01*
X139765238Y-89510000D01*
X139622380Y-89462380D01*
X139527142Y-89462380D01*
X139384285Y-89510000D01*
X139336666Y-89557619D01*
X138384285Y-90462380D02*
X138955714Y-90462380D01*
X138670000Y-90462380D02*
X138670000Y-89462380D01*
X138765238Y-89605238D01*
X138860476Y-89700476D01*
X138955714Y-89748095D01*
X136838986Y-86557122D02*
X136886605Y-86604741D01*
X137029462Y-86652360D01*
X137124700Y-86652360D01*
X137267558Y-86604741D01*
X137362796Y-86509503D01*
X137410415Y-86414265D01*
X137458034Y-86223789D01*
X137458034Y-86080932D01*
X137410415Y-85890456D01*
X137362796Y-85795218D01*
X137267558Y-85699980D01*
X137124700Y-85652360D01*
X137029462Y-85652360D01*
X136886605Y-85699980D01*
X136838986Y-85747599D01*
X136458034Y-85747599D02*
X136410415Y-85699980D01*
X136315177Y-85652360D01*
X136077081Y-85652360D01*
X135981843Y-85699980D01*
X135934224Y-85747599D01*
X135886605Y-85842837D01*
X135886605Y-85938075D01*
X135934224Y-86080932D01*
X136505653Y-86652360D01*
X135886605Y-86652360D01*
X137067586Y-80445882D02*
X137115205Y-80493501D01*
X137258062Y-80541120D01*
X137353300Y-80541120D01*
X137496158Y-80493501D01*
X137591396Y-80398263D01*
X137639015Y-80303025D01*
X137686634Y-80112549D01*
X137686634Y-79969692D01*
X137639015Y-79779216D01*
X137591396Y-79683978D01*
X137496158Y-79588740D01*
X137353300Y-79541120D01*
X137258062Y-79541120D01*
X137115205Y-79588740D01*
X137067586Y-79636359D01*
X136734253Y-79541120D02*
X136115205Y-79541120D01*
X136448539Y-79922073D01*
X136305681Y-79922073D01*
X136210443Y-79969692D01*
X136162824Y-80017311D01*
X136115205Y-80112549D01*
X136115205Y-80350644D01*
X136162824Y-80445882D01*
X136210443Y-80493501D01*
X136305681Y-80541120D01*
X136591396Y-80541120D01*
X136686634Y-80493501D01*
X136734253Y-80445882D01*
X140608346Y-78545962D02*
X140655965Y-78593581D01*
X140798822Y-78641200D01*
X140894060Y-78641200D01*
X141036918Y-78593581D01*
X141132156Y-78498343D01*
X141179775Y-78403105D01*
X141227394Y-78212629D01*
X141227394Y-78069772D01*
X141179775Y-77879296D01*
X141132156Y-77784058D01*
X141036918Y-77688820D01*
X140894060Y-77641200D01*
X140798822Y-77641200D01*
X140655965Y-77688820D01*
X140608346Y-77736439D01*
X139751203Y-77974534D02*
X139751203Y-78641200D01*
X139989299Y-77593581D02*
X140227394Y-78307867D01*
X139608346Y-78307867D01*
X141845326Y-87282280D02*
X142178660Y-86806090D01*
X142416755Y-87282280D02*
X142416755Y-86282280D01*
X142035802Y-86282280D01*
X141940564Y-86329900D01*
X141892945Y-86377519D01*
X141845326Y-86472757D01*
X141845326Y-86615614D01*
X141892945Y-86710852D01*
X141940564Y-86758471D01*
X142035802Y-86806090D01*
X142416755Y-86806090D01*
X140892945Y-87282280D02*
X141464374Y-87282280D01*
X141178660Y-87282280D02*
X141178660Y-86282280D01*
X141273898Y-86425138D01*
X141369136Y-86520376D01*
X141464374Y-86567995D01*
X136968526Y-82527400D02*
X137301860Y-82051210D01*
X137539955Y-82527400D02*
X137539955Y-81527400D01*
X137159002Y-81527400D01*
X137063764Y-81575020D01*
X137016145Y-81622639D01*
X136968526Y-81717877D01*
X136968526Y-81860734D01*
X137016145Y-81955972D01*
X137063764Y-82003591D01*
X137159002Y-82051210D01*
X137539955Y-82051210D01*
X136587574Y-81622639D02*
X136539955Y-81575020D01*
X136444717Y-81527400D01*
X136206621Y-81527400D01*
X136111383Y-81575020D01*
X136063764Y-81622639D01*
X136016145Y-81717877D01*
X136016145Y-81813115D01*
X136063764Y-81955972D01*
X136635193Y-82527400D01*
X136016145Y-82527400D01*
X136823746Y-84356200D02*
X137157080Y-83880010D01*
X137395175Y-84356200D02*
X137395175Y-83356200D01*
X137014222Y-83356200D01*
X136918984Y-83403820D01*
X136871365Y-83451439D01*
X136823746Y-83546677D01*
X136823746Y-83689534D01*
X136871365Y-83784772D01*
X136918984Y-83832391D01*
X137014222Y-83880010D01*
X137395175Y-83880010D01*
X136490413Y-83356200D02*
X135871365Y-83356200D01*
X136204699Y-83737153D01*
X136061841Y-83737153D01*
X135966603Y-83784772D01*
X135918984Y-83832391D01*
X135871365Y-83927629D01*
X135871365Y-84165724D01*
X135918984Y-84260962D01*
X135966603Y-84308581D01*
X136061841Y-84356200D01*
X136347556Y-84356200D01*
X136442794Y-84308581D01*
X136490413Y-84260962D01*
X150525740Y-84199433D02*
X150049550Y-83866100D01*
X150525740Y-83628004D02*
X149525740Y-83628004D01*
X149525740Y-84008957D01*
X149573360Y-84104195D01*
X149620979Y-84151814D01*
X149716217Y-84199433D01*
X149859074Y-84199433D01*
X149954312Y-84151814D01*
X150001931Y-84104195D01*
X150049550Y-84008957D01*
X150049550Y-83628004D01*
X149859074Y-85056576D02*
X150525740Y-85056576D01*
X149478121Y-84818480D02*
X150192407Y-84580385D01*
X150192407Y-85199433D01*
X150525740Y-86056173D02*
X150049550Y-85722840D01*
X150525740Y-85484744D02*
X149525740Y-85484744D01*
X149525740Y-85865697D01*
X149573360Y-85960935D01*
X149620979Y-86008554D01*
X149716217Y-86056173D01*
X149859074Y-86056173D01*
X149954312Y-86008554D01*
X150001931Y-85960935D01*
X150049550Y-85865697D01*
X150049550Y-85484744D01*
X149525740Y-86960935D02*
X149525740Y-86484744D01*
X150001931Y-86437125D01*
X149954312Y-86484744D01*
X149906693Y-86579982D01*
X149906693Y-86818078D01*
X149954312Y-86913316D01*
X150001931Y-86960935D01*
X150097169Y-87008554D01*
X150335264Y-87008554D01*
X150430502Y-86960935D01*
X150478121Y-86913316D01*
X150525740Y-86818078D01*
X150525740Y-86579982D01*
X150478121Y-86484744D01*
X150430502Y-86437125D01*
X159358626Y-82481680D02*
X159691960Y-82005490D01*
X159930055Y-82481680D02*
X159930055Y-81481680D01*
X159549102Y-81481680D01*
X159453864Y-81529300D01*
X159406245Y-81576919D01*
X159358626Y-81672157D01*
X159358626Y-81815014D01*
X159406245Y-81910252D01*
X159453864Y-81957871D01*
X159549102Y-82005490D01*
X159930055Y-82005490D01*
X158501483Y-81481680D02*
X158691960Y-81481680D01*
X158787198Y-81529300D01*
X158834817Y-81576919D01*
X158930055Y-81719776D01*
X158977674Y-81910252D01*
X158977674Y-82291204D01*
X158930055Y-82386442D01*
X158882436Y-82434061D01*
X158787198Y-82481680D01*
X158596721Y-82481680D01*
X158501483Y-82434061D01*
X158453864Y-82386442D01*
X158406245Y-82291204D01*
X158406245Y-82053109D01*
X158453864Y-81957871D01*
X158501483Y-81910252D01*
X158596721Y-81862633D01*
X158787198Y-81862633D01*
X158882436Y-81910252D01*
X158930055Y-81957871D01*
X158977674Y-82053109D01*
X159462766Y-90302340D02*
X159796100Y-89826150D01*
X160034195Y-90302340D02*
X160034195Y-89302340D01*
X159653242Y-89302340D01*
X159558004Y-89349960D01*
X159510385Y-89397579D01*
X159462766Y-89492817D01*
X159462766Y-89635674D01*
X159510385Y-89730912D01*
X159558004Y-89778531D01*
X159653242Y-89826150D01*
X160034195Y-89826150D01*
X159129433Y-89302340D02*
X158462766Y-89302340D01*
X158891338Y-90302340D01*
X159376406Y-86286600D02*
X159709740Y-85810410D01*
X159947835Y-86286600D02*
X159947835Y-85286600D01*
X159566882Y-85286600D01*
X159471644Y-85334220D01*
X159424025Y-85381839D01*
X159376406Y-85477077D01*
X159376406Y-85619934D01*
X159424025Y-85715172D01*
X159471644Y-85762791D01*
X159566882Y-85810410D01*
X159947835Y-85810410D01*
X158804978Y-85715172D02*
X158900216Y-85667553D01*
X158947835Y-85619934D01*
X158995454Y-85524696D01*
X158995454Y-85477077D01*
X158947835Y-85381839D01*
X158900216Y-85334220D01*
X158804978Y-85286600D01*
X158614501Y-85286600D01*
X158519263Y-85334220D01*
X158471644Y-85381839D01*
X158424025Y-85477077D01*
X158424025Y-85524696D01*
X158471644Y-85619934D01*
X158519263Y-85667553D01*
X158614501Y-85715172D01*
X158804978Y-85715172D01*
X158900216Y-85762791D01*
X158947835Y-85810410D01*
X158995454Y-85905648D01*
X158995454Y-86096124D01*
X158947835Y-86191362D01*
X158900216Y-86238981D01*
X158804978Y-86286600D01*
X158614501Y-86286600D01*
X158519263Y-86238981D01*
X158471644Y-86191362D01*
X158424025Y-86096124D01*
X158424025Y-85905648D01*
X158471644Y-85810410D01*
X158519263Y-85762791D01*
X158614501Y-85715172D01*
X159396726Y-84559400D02*
X159730060Y-84083210D01*
X159968155Y-84559400D02*
X159968155Y-83559400D01*
X159587202Y-83559400D01*
X159491964Y-83607020D01*
X159444345Y-83654639D01*
X159396726Y-83749877D01*
X159396726Y-83892734D01*
X159444345Y-83987972D01*
X159491964Y-84035591D01*
X159587202Y-84083210D01*
X159968155Y-84083210D01*
X158920536Y-84559400D02*
X158730060Y-84559400D01*
X158634821Y-84511781D01*
X158587202Y-84464162D01*
X158491964Y-84321305D01*
X158444345Y-84130829D01*
X158444345Y-83749877D01*
X158491964Y-83654639D01*
X158539583Y-83607020D01*
X158634821Y-83559400D01*
X158825298Y-83559400D01*
X158920536Y-83607020D01*
X158968155Y-83654639D01*
X159015774Y-83749877D01*
X159015774Y-83987972D01*
X158968155Y-84083210D01*
X158920536Y-84130829D01*
X158825298Y-84178448D01*
X158634821Y-84178448D01*
X158539583Y-84130829D01*
X158491964Y-84083210D01*
X158444345Y-83987972D01*
X141015459Y-85148657D02*
X141491649Y-85481990D01*
X141015459Y-85720085D02*
X142015459Y-85720085D01*
X142015459Y-85339133D01*
X141967840Y-85243895D01*
X141920220Y-85196276D01*
X141824982Y-85148657D01*
X141682125Y-85148657D01*
X141586887Y-85196276D01*
X141539268Y-85243895D01*
X141491649Y-85339133D01*
X141491649Y-85720085D01*
X141015459Y-84196276D02*
X141015459Y-84767704D01*
X141015459Y-84481990D02*
X142015459Y-84481990D01*
X141872601Y-84577228D01*
X141777363Y-84672466D01*
X141729744Y-84767704D01*
X142015459Y-83577228D02*
X142015459Y-83481990D01*
X141967840Y-83386752D01*
X141920220Y-83339133D01*
X141824982Y-83291514D01*
X141634506Y-83243895D01*
X141396411Y-83243895D01*
X141205935Y-83291514D01*
X141110697Y-83339133D01*
X141063078Y-83386752D01*
X141015459Y-83481990D01*
X141015459Y-83577228D01*
X141063078Y-83672466D01*
X141110697Y-83720085D01*
X141205935Y-83767704D01*
X141396411Y-83815323D01*
X141634506Y-83815323D01*
X141824982Y-83767704D01*
X141920220Y-83720085D01*
X141967840Y-83672466D01*
X142015459Y-83577228D01*
X139812857Y-82002380D02*
X140146190Y-81526190D01*
X140384285Y-82002380D02*
X140384285Y-81002380D01*
X140003333Y-81002380D01*
X139908095Y-81050000D01*
X139860476Y-81097619D01*
X139812857Y-81192857D01*
X139812857Y-81335714D01*
X139860476Y-81430952D01*
X139908095Y-81478571D01*
X140003333Y-81526190D01*
X140384285Y-81526190D01*
X138860476Y-82002380D02*
X139431904Y-82002380D01*
X139146190Y-82002380D02*
X139146190Y-81002380D01*
X139241428Y-81145238D01*
X139336666Y-81240476D01*
X139431904Y-81288095D01*
X137908095Y-82002380D02*
X138479523Y-82002380D01*
X138193809Y-82002380D02*
X138193809Y-81002380D01*
X138289047Y-81145238D01*
X138384285Y-81240476D01*
X138479523Y-81288095D01*
X160411397Y-88262380D02*
X160744730Y-87786190D01*
X160982825Y-88262380D02*
X160982825Y-87262380D01*
X160601873Y-87262380D01*
X160506635Y-87310000D01*
X160459016Y-87357619D01*
X160411397Y-87452857D01*
X160411397Y-87595714D01*
X160459016Y-87690952D01*
X160506635Y-87738571D01*
X160601873Y-87786190D01*
X160982825Y-87786190D01*
X159459016Y-88262380D02*
X160030444Y-88262380D01*
X159744730Y-88262380D02*
X159744730Y-87262380D01*
X159839968Y-87405238D01*
X159935206Y-87500476D01*
X160030444Y-87548095D01*
X159078063Y-87357619D02*
X159030444Y-87310000D01*
X158935206Y-87262380D01*
X158697111Y-87262380D01*
X158601873Y-87310000D01*
X158554254Y-87357619D01*
X158506635Y-87452857D01*
X158506635Y-87548095D01*
X158554254Y-87690952D01*
X159125682Y-88262380D01*
X158506635Y-88262380D01*
X150534619Y-89089241D02*
X150487000Y-88994003D01*
X150391761Y-88898765D01*
X150248904Y-88755908D01*
X150201285Y-88660670D01*
X150201285Y-88565432D01*
X150439380Y-88613051D02*
X150391761Y-88517813D01*
X150296523Y-88422575D01*
X150106047Y-88374956D01*
X149772714Y-88374956D01*
X149582238Y-88422575D01*
X149487000Y-88517813D01*
X149439380Y-88613051D01*
X149439380Y-88803527D01*
X149487000Y-88898765D01*
X149582238Y-88994003D01*
X149772714Y-89041622D01*
X150106047Y-89041622D01*
X150296523Y-88994003D01*
X150391761Y-88898765D01*
X150439380Y-88803527D01*
X150439380Y-88613051D01*
X150439380Y-89994003D02*
X150439380Y-89422575D01*
X150439380Y-89708289D02*
X149439380Y-89708289D01*
X149582238Y-89613051D01*
X149677476Y-89517813D01*
X149725095Y-89422575D01*
X150791159Y-81415901D02*
X150743540Y-81320663D01*
X150648301Y-81225425D01*
X150505444Y-81082568D01*
X150457825Y-80987330D01*
X150457825Y-80892092D01*
X150695920Y-80939711D02*
X150648301Y-80844473D01*
X150553063Y-80749235D01*
X150362587Y-80701616D01*
X150029254Y-80701616D01*
X149838778Y-80749235D01*
X149743540Y-80844473D01*
X149695920Y-80939711D01*
X149695920Y-81130187D01*
X149743540Y-81225425D01*
X149838778Y-81320663D01*
X150029254Y-81368282D01*
X150362587Y-81368282D01*
X150553063Y-81320663D01*
X150648301Y-81225425D01*
X150695920Y-81130187D01*
X150695920Y-80939711D01*
X149791159Y-81749235D02*
X149743540Y-81796854D01*
X149695920Y-81892092D01*
X149695920Y-82130187D01*
X149743540Y-82225425D01*
X149791159Y-82273044D01*
X149886397Y-82320663D01*
X149981635Y-82320663D01*
X150124492Y-82273044D01*
X150695920Y-81701616D01*
X150695920Y-82320663D01*
X159455146Y-76948302D02*
X159502765Y-76995921D01*
X159645622Y-77043540D01*
X159740860Y-77043540D01*
X159883718Y-76995921D01*
X159978956Y-76900683D01*
X160026575Y-76805445D01*
X160074194Y-76614969D01*
X160074194Y-76472112D01*
X160026575Y-76281636D01*
X159978956Y-76186398D01*
X159883718Y-76091160D01*
X159740860Y-76043540D01*
X159645622Y-76043540D01*
X159502765Y-76091160D01*
X159455146Y-76138779D01*
X158550384Y-76043540D02*
X159026575Y-76043540D01*
X159074194Y-76519731D01*
X159026575Y-76472112D01*
X158931337Y-76424493D01*
X158693241Y-76424493D01*
X158598003Y-76472112D01*
X158550384Y-76519731D01*
X158502765Y-76614969D01*
X158502765Y-76853064D01*
X158550384Y-76948302D01*
X158598003Y-76995921D01*
X158693241Y-77043540D01*
X158931337Y-77043540D01*
X159026575Y-76995921D01*
X159074194Y-76948302D01*
X132556546Y-76963542D02*
X132604165Y-77011161D01*
X132747022Y-77058780D01*
X132842260Y-77058780D01*
X132985118Y-77011161D01*
X133080356Y-76915923D01*
X133127975Y-76820685D01*
X133175594Y-76630209D01*
X133175594Y-76487352D01*
X133127975Y-76296876D01*
X133080356Y-76201638D01*
X132985118Y-76106400D01*
X132842260Y-76058780D01*
X132747022Y-76058780D01*
X132604165Y-76106400D01*
X132556546Y-76154019D01*
X131699403Y-76058780D02*
X131889880Y-76058780D01*
X131985118Y-76106400D01*
X132032737Y-76154019D01*
X132127975Y-76296876D01*
X132175594Y-76487352D01*
X132175594Y-76868304D01*
X132127975Y-76963542D01*
X132080356Y-77011161D01*
X131985118Y-77058780D01*
X131794641Y-77058780D01*
X131699403Y-77011161D01*
X131651784Y-76963542D01*
X131604165Y-76868304D01*
X131604165Y-76630209D01*
X131651784Y-76534971D01*
X131699403Y-76487352D01*
X131794641Y-76439733D01*
X131985118Y-76439733D01*
X132080356Y-76487352D01*
X132127975Y-76534971D01*
X132175594Y-76630209D01*
X159432286Y-78693282D02*
X159479905Y-78740901D01*
X159622762Y-78788520D01*
X159718000Y-78788520D01*
X159860858Y-78740901D01*
X159956096Y-78645663D01*
X160003715Y-78550425D01*
X160051334Y-78359949D01*
X160051334Y-78217092D01*
X160003715Y-78026616D01*
X159956096Y-77931378D01*
X159860858Y-77836140D01*
X159718000Y-77788520D01*
X159622762Y-77788520D01*
X159479905Y-77836140D01*
X159432286Y-77883759D01*
X159098953Y-77788520D02*
X158432286Y-77788520D01*
X158860858Y-78788520D01*
X159340846Y-80552562D02*
X159388465Y-80600181D01*
X159531322Y-80647800D01*
X159626560Y-80647800D01*
X159769418Y-80600181D01*
X159864656Y-80504943D01*
X159912275Y-80409705D01*
X159959894Y-80219229D01*
X159959894Y-80076372D01*
X159912275Y-79885896D01*
X159864656Y-79790658D01*
X159769418Y-79695420D01*
X159626560Y-79647800D01*
X159531322Y-79647800D01*
X159388465Y-79695420D01*
X159340846Y-79743039D01*
X158769418Y-80076372D02*
X158864656Y-80028753D01*
X158912275Y-79981134D01*
X158959894Y-79885896D01*
X158959894Y-79838277D01*
X158912275Y-79743039D01*
X158864656Y-79695420D01*
X158769418Y-79647800D01*
X158578941Y-79647800D01*
X158483703Y-79695420D01*
X158436084Y-79743039D01*
X158388465Y-79838277D01*
X158388465Y-79885896D01*
X158436084Y-79981134D01*
X158483703Y-80028753D01*
X158578941Y-80076372D01*
X158769418Y-80076372D01*
X158864656Y-80123991D01*
X158912275Y-80171610D01*
X158959894Y-80266848D01*
X158959894Y-80457324D01*
X158912275Y-80552562D01*
X158864656Y-80600181D01*
X158769418Y-80647800D01*
X158578941Y-80647800D01*
X158483703Y-80600181D01*
X158436084Y-80552562D01*
X158388465Y-80457324D01*
X158388465Y-80266848D01*
X158436084Y-80171610D01*
X158483703Y-80123991D01*
X158578941Y-80076372D01*
X133131773Y-89468651D02*
X133465106Y-89468651D01*
X133465106Y-89992460D02*
X133465106Y-88992460D01*
X132988916Y-88992460D01*
X132274630Y-89468651D02*
X132131773Y-89516270D01*
X132084154Y-89563889D01*
X132036535Y-89659127D01*
X132036535Y-89801984D01*
X132084154Y-89897222D01*
X132131773Y-89944841D01*
X132227011Y-89992460D01*
X132607963Y-89992460D01*
X132607963Y-88992460D01*
X132274630Y-88992460D01*
X132179392Y-89040080D01*
X132131773Y-89087699D01*
X132084154Y-89182937D01*
X132084154Y-89278175D01*
X132131773Y-89373413D01*
X132179392Y-89421032D01*
X132274630Y-89468651D01*
X132607963Y-89468651D01*
X131084154Y-89992460D02*
X131655582Y-89992460D01*
X131369868Y-89992460D02*
X131369868Y-88992460D01*
X131465106Y-89135318D01*
X131560344Y-89230556D01*
X131655582Y-89278175D01*
X146799204Y-77326240D02*
X146799204Y-78135764D01*
X146751585Y-78231002D01*
X146703966Y-78278621D01*
X146608728Y-78326240D01*
X146418252Y-78326240D01*
X146323014Y-78278621D01*
X146275395Y-78231002D01*
X146227776Y-78135764D01*
X146227776Y-77326240D01*
X145799204Y-77421479D02*
X145751585Y-77373860D01*
X145656347Y-77326240D01*
X145418252Y-77326240D01*
X145323014Y-77373860D01*
X145275395Y-77421479D01*
X145227776Y-77516717D01*
X145227776Y-77611955D01*
X145275395Y-77754812D01*
X145846823Y-78326240D01*
X145227776Y-78326240D01*
M02*
