M48
; DRILL file {KiCad (5.1.4)-1} date 11/1/2020 9:23:21 PM
; FORMAT={-:-/ absolute / inch / decimal}
; #@! TF.CreationDate,2020-11-01T21:23:21+01:00
; #@! TF.GenerationSoftware,Kicad,Pcbnew,(5.1.4)-1
FMAT,2
INCH
T1C0.0157
T2C0.0354
T3C0.0394
T4C0.0591
T5C0.0276
T6C0.0433
%
G90
G05
T1
X5.0772Y-3.2453
X5.0772Y-3.2867
X5.1796Y-3.0542
X5.1842Y-3.4784
X5.3843Y-3.3374
X5.3844Y-3.3927
X5.3852Y-3.2687
X5.3921Y-3.15
X5.5177Y-3.5332
X5.5586Y-3.0523
X5.5622Y-3.2024
X5.5628Y-3.3449
X5.5709Y-3.4764
X5.578Y-2.9949
X5.5905Y-3.3834
X5.611Y-3.448
X5.6254Y-3.5404
X5.6449Y-3.1178
X5.6878Y-3.1299
X5.6939Y-3.3907
X5.7108Y-3.519
X5.7208Y-3.4195
X5.721Y-3.3621
X5.7402Y-3.1119
X5.754Y-3.4704
X5.7966Y-3.3476
X5.8012Y-3.074
X5.8357Y-2.984
X5.8769Y-3.1115
X5.8805Y-3.0522
X5.8933Y-3.4133
X5.8953Y-3.4704
X5.8966Y-3.155
X5.8988Y-3.2521
X5.9004Y-3.2961
X5.9547Y-3.128
X5.9928Y-3.0406
X6.0335Y-2.978
X6.0631Y-3.2083
X6.0686Y-3.1384
X6.0706Y-3.0911
X6.0774Y-3.4841
X6.2283Y-3.0102
X6.2449Y-3.4189
X6.2457Y-3.2669
X6.2685Y-3.5387
X6.2693Y-3.1932
T3
X6.365Y-3.024
X6.465Y-3.024
X6.565Y-3.024
X6.3649Y-3.5126
X6.4649Y-3.5126
X6.5649Y-3.5126
T4
X6.3761Y-3.1683
X6.3761Y-3.3683
X6.5761Y-3.1683
X6.5761Y-3.3683
T5
X5.2795Y-3.0224
X5.3465Y-3.0224
X5.2795Y-3.5122
X5.3465Y-3.5122
T6
X5.0623Y-3.1754
X5.0623Y-3.3566
T2
G00X5.0937Y-3.0416
M15
G01X5.0308Y-3.0416
M16
G05
G00X5.0937Y-3.4904
M15
G01X5.0308Y-3.4904
M16
G05
T0
M30
