G04 #@! TF.GenerationSoftware,KiCad,Pcbnew,(5.1.4)-1*
G04 #@! TF.CreationDate,2020-11-01T21:23:20+01:00*
G04 #@! TF.ProjectId,deauther-andromeda,64656175-7468-4657-922d-616e64726f6d,rev?*
G04 #@! TF.SameCoordinates,Original*
G04 #@! TF.FileFunction,Paste,Bot*
G04 #@! TF.FilePolarity,Positive*
%FSLAX46Y46*%
G04 Gerber Fmt 4.6, Leading zero omitted, Abs format (unit mm)*
G04 Created by KiCad (PCBNEW (5.1.4)-1) date 2020-11-01 21:23:20*
%MOMM*%
%LPD*%
G04 APERTURE LIST*
%ADD10R,0.800000X0.550000*%
%ADD11C,0.100000*%
%ADD12C,1.150000*%
%ADD13R,0.800000X0.900000*%
%ADD14R,1.200000X0.400000*%
G04 APERTURE END LIST*
D10*
X153179780Y-78458140D03*
X150779780Y-78458140D03*
X150779780Y-77508140D03*
X150779780Y-76558140D03*
X153179780Y-76558140D03*
D11*
G36*
X138494505Y-87911204D02*
G01*
X138518773Y-87914804D01*
X138542572Y-87920765D01*
X138565671Y-87929030D01*
X138587850Y-87939520D01*
X138608893Y-87952132D01*
X138628599Y-87966747D01*
X138646777Y-87983223D01*
X138663253Y-88001401D01*
X138677868Y-88021107D01*
X138690480Y-88042150D01*
X138700970Y-88064329D01*
X138709235Y-88087428D01*
X138715196Y-88111227D01*
X138718796Y-88135495D01*
X138720000Y-88159999D01*
X138720000Y-89060001D01*
X138718796Y-89084505D01*
X138715196Y-89108773D01*
X138709235Y-89132572D01*
X138700970Y-89155671D01*
X138690480Y-89177850D01*
X138677868Y-89198893D01*
X138663253Y-89218599D01*
X138646777Y-89236777D01*
X138628599Y-89253253D01*
X138608893Y-89267868D01*
X138587850Y-89280480D01*
X138565671Y-89290970D01*
X138542572Y-89299235D01*
X138518773Y-89305196D01*
X138494505Y-89308796D01*
X138470001Y-89310000D01*
X137819999Y-89310000D01*
X137795495Y-89308796D01*
X137771227Y-89305196D01*
X137747428Y-89299235D01*
X137724329Y-89290970D01*
X137702150Y-89280480D01*
X137681107Y-89267868D01*
X137661401Y-89253253D01*
X137643223Y-89236777D01*
X137626747Y-89218599D01*
X137612132Y-89198893D01*
X137599520Y-89177850D01*
X137589030Y-89155671D01*
X137580765Y-89132572D01*
X137574804Y-89108773D01*
X137571204Y-89084505D01*
X137570000Y-89060001D01*
X137570000Y-88159999D01*
X137571204Y-88135495D01*
X137574804Y-88111227D01*
X137580765Y-88087428D01*
X137589030Y-88064329D01*
X137599520Y-88042150D01*
X137612132Y-88021107D01*
X137626747Y-88001401D01*
X137643223Y-87983223D01*
X137661401Y-87966747D01*
X137681107Y-87952132D01*
X137702150Y-87939520D01*
X137724329Y-87929030D01*
X137747428Y-87920765D01*
X137771227Y-87914804D01*
X137795495Y-87911204D01*
X137819999Y-87910000D01*
X138470001Y-87910000D01*
X138494505Y-87911204D01*
X138494505Y-87911204D01*
G37*
D12*
X138145000Y-88610000D03*
D11*
G36*
X140544505Y-87911204D02*
G01*
X140568773Y-87914804D01*
X140592572Y-87920765D01*
X140615671Y-87929030D01*
X140637850Y-87939520D01*
X140658893Y-87952132D01*
X140678599Y-87966747D01*
X140696777Y-87983223D01*
X140713253Y-88001401D01*
X140727868Y-88021107D01*
X140740480Y-88042150D01*
X140750970Y-88064329D01*
X140759235Y-88087428D01*
X140765196Y-88111227D01*
X140768796Y-88135495D01*
X140770000Y-88159999D01*
X140770000Y-89060001D01*
X140768796Y-89084505D01*
X140765196Y-89108773D01*
X140759235Y-89132572D01*
X140750970Y-89155671D01*
X140740480Y-89177850D01*
X140727868Y-89198893D01*
X140713253Y-89218599D01*
X140696777Y-89236777D01*
X140678599Y-89253253D01*
X140658893Y-89267868D01*
X140637850Y-89280480D01*
X140615671Y-89290970D01*
X140592572Y-89299235D01*
X140568773Y-89305196D01*
X140544505Y-89308796D01*
X140520001Y-89310000D01*
X139869999Y-89310000D01*
X139845495Y-89308796D01*
X139821227Y-89305196D01*
X139797428Y-89299235D01*
X139774329Y-89290970D01*
X139752150Y-89280480D01*
X139731107Y-89267868D01*
X139711401Y-89253253D01*
X139693223Y-89236777D01*
X139676747Y-89218599D01*
X139662132Y-89198893D01*
X139649520Y-89177850D01*
X139639030Y-89155671D01*
X139630765Y-89132572D01*
X139624804Y-89108773D01*
X139621204Y-89084505D01*
X139620000Y-89060001D01*
X139620000Y-88159999D01*
X139621204Y-88135495D01*
X139624804Y-88111227D01*
X139630765Y-88087428D01*
X139639030Y-88064329D01*
X139649520Y-88042150D01*
X139662132Y-88021107D01*
X139676747Y-88001401D01*
X139693223Y-87983223D01*
X139711401Y-87966747D01*
X139731107Y-87952132D01*
X139752150Y-87939520D01*
X139774329Y-87929030D01*
X139797428Y-87920765D01*
X139821227Y-87914804D01*
X139845495Y-87911204D01*
X139869999Y-87910000D01*
X140520001Y-87910000D01*
X140544505Y-87911204D01*
X140544505Y-87911204D01*
G37*
D12*
X140195000Y-88610000D03*
D11*
G36*
X133494505Y-85201204D02*
G01*
X133518773Y-85204804D01*
X133542572Y-85210765D01*
X133565671Y-85219030D01*
X133587850Y-85229520D01*
X133608893Y-85242132D01*
X133628599Y-85256747D01*
X133646777Y-85273223D01*
X133663253Y-85291401D01*
X133677868Y-85311107D01*
X133690480Y-85332150D01*
X133700970Y-85354329D01*
X133709235Y-85377428D01*
X133715196Y-85401227D01*
X133718796Y-85425495D01*
X133720000Y-85449999D01*
X133720000Y-86350001D01*
X133718796Y-86374505D01*
X133715196Y-86398773D01*
X133709235Y-86422572D01*
X133700970Y-86445671D01*
X133690480Y-86467850D01*
X133677868Y-86488893D01*
X133663253Y-86508599D01*
X133646777Y-86526777D01*
X133628599Y-86543253D01*
X133608893Y-86557868D01*
X133587850Y-86570480D01*
X133565671Y-86580970D01*
X133542572Y-86589235D01*
X133518773Y-86595196D01*
X133494505Y-86598796D01*
X133470001Y-86600000D01*
X132819999Y-86600000D01*
X132795495Y-86598796D01*
X132771227Y-86595196D01*
X132747428Y-86589235D01*
X132724329Y-86580970D01*
X132702150Y-86570480D01*
X132681107Y-86557868D01*
X132661401Y-86543253D01*
X132643223Y-86526777D01*
X132626747Y-86508599D01*
X132612132Y-86488893D01*
X132599520Y-86467850D01*
X132589030Y-86445671D01*
X132580765Y-86422572D01*
X132574804Y-86398773D01*
X132571204Y-86374505D01*
X132570000Y-86350001D01*
X132570000Y-85449999D01*
X132571204Y-85425495D01*
X132574804Y-85401227D01*
X132580765Y-85377428D01*
X132589030Y-85354329D01*
X132599520Y-85332150D01*
X132612132Y-85311107D01*
X132626747Y-85291401D01*
X132643223Y-85273223D01*
X132661401Y-85256747D01*
X132681107Y-85242132D01*
X132702150Y-85229520D01*
X132724329Y-85219030D01*
X132747428Y-85210765D01*
X132771227Y-85204804D01*
X132795495Y-85201204D01*
X132819999Y-85200000D01*
X133470001Y-85200000D01*
X133494505Y-85201204D01*
X133494505Y-85201204D01*
G37*
D12*
X133145000Y-85900000D03*
D11*
G36*
X135544505Y-85201204D02*
G01*
X135568773Y-85204804D01*
X135592572Y-85210765D01*
X135615671Y-85219030D01*
X135637850Y-85229520D01*
X135658893Y-85242132D01*
X135678599Y-85256747D01*
X135696777Y-85273223D01*
X135713253Y-85291401D01*
X135727868Y-85311107D01*
X135740480Y-85332150D01*
X135750970Y-85354329D01*
X135759235Y-85377428D01*
X135765196Y-85401227D01*
X135768796Y-85425495D01*
X135770000Y-85449999D01*
X135770000Y-86350001D01*
X135768796Y-86374505D01*
X135765196Y-86398773D01*
X135759235Y-86422572D01*
X135750970Y-86445671D01*
X135740480Y-86467850D01*
X135727868Y-86488893D01*
X135713253Y-86508599D01*
X135696777Y-86526777D01*
X135678599Y-86543253D01*
X135658893Y-86557868D01*
X135637850Y-86570480D01*
X135615671Y-86580970D01*
X135592572Y-86589235D01*
X135568773Y-86595196D01*
X135544505Y-86598796D01*
X135520001Y-86600000D01*
X134869999Y-86600000D01*
X134845495Y-86598796D01*
X134821227Y-86595196D01*
X134797428Y-86589235D01*
X134774329Y-86580970D01*
X134752150Y-86570480D01*
X134731107Y-86557868D01*
X134711401Y-86543253D01*
X134693223Y-86526777D01*
X134676747Y-86508599D01*
X134662132Y-86488893D01*
X134649520Y-86467850D01*
X134639030Y-86445671D01*
X134630765Y-86422572D01*
X134624804Y-86398773D01*
X134621204Y-86374505D01*
X134620000Y-86350001D01*
X134620000Y-85449999D01*
X134621204Y-85425495D01*
X134624804Y-85401227D01*
X134630765Y-85377428D01*
X134639030Y-85354329D01*
X134649520Y-85332150D01*
X134662132Y-85311107D01*
X134676747Y-85291401D01*
X134693223Y-85273223D01*
X134711401Y-85256747D01*
X134731107Y-85242132D01*
X134752150Y-85229520D01*
X134774329Y-85219030D01*
X134797428Y-85210765D01*
X134821227Y-85204804D01*
X134845495Y-85201204D01*
X134869999Y-85200000D01*
X135520001Y-85200000D01*
X135544505Y-85201204D01*
X135544505Y-85201204D01*
G37*
D12*
X135195000Y-85900000D03*
D11*
G36*
X133494505Y-79401204D02*
G01*
X133518773Y-79404804D01*
X133542572Y-79410765D01*
X133565671Y-79419030D01*
X133587850Y-79429520D01*
X133608893Y-79442132D01*
X133628599Y-79456747D01*
X133646777Y-79473223D01*
X133663253Y-79491401D01*
X133677868Y-79511107D01*
X133690480Y-79532150D01*
X133700970Y-79554329D01*
X133709235Y-79577428D01*
X133715196Y-79601227D01*
X133718796Y-79625495D01*
X133720000Y-79649999D01*
X133720000Y-80550001D01*
X133718796Y-80574505D01*
X133715196Y-80598773D01*
X133709235Y-80622572D01*
X133700970Y-80645671D01*
X133690480Y-80667850D01*
X133677868Y-80688893D01*
X133663253Y-80708599D01*
X133646777Y-80726777D01*
X133628599Y-80743253D01*
X133608893Y-80757868D01*
X133587850Y-80770480D01*
X133565671Y-80780970D01*
X133542572Y-80789235D01*
X133518773Y-80795196D01*
X133494505Y-80798796D01*
X133470001Y-80800000D01*
X132819999Y-80800000D01*
X132795495Y-80798796D01*
X132771227Y-80795196D01*
X132747428Y-80789235D01*
X132724329Y-80780970D01*
X132702150Y-80770480D01*
X132681107Y-80757868D01*
X132661401Y-80743253D01*
X132643223Y-80726777D01*
X132626747Y-80708599D01*
X132612132Y-80688893D01*
X132599520Y-80667850D01*
X132589030Y-80645671D01*
X132580765Y-80622572D01*
X132574804Y-80598773D01*
X132571204Y-80574505D01*
X132570000Y-80550001D01*
X132570000Y-79649999D01*
X132571204Y-79625495D01*
X132574804Y-79601227D01*
X132580765Y-79577428D01*
X132589030Y-79554329D01*
X132599520Y-79532150D01*
X132612132Y-79511107D01*
X132626747Y-79491401D01*
X132643223Y-79473223D01*
X132661401Y-79456747D01*
X132681107Y-79442132D01*
X132702150Y-79429520D01*
X132724329Y-79419030D01*
X132747428Y-79410765D01*
X132771227Y-79404804D01*
X132795495Y-79401204D01*
X132819999Y-79400000D01*
X133470001Y-79400000D01*
X133494505Y-79401204D01*
X133494505Y-79401204D01*
G37*
D12*
X133145000Y-80100000D03*
D11*
G36*
X135544505Y-79401204D02*
G01*
X135568773Y-79404804D01*
X135592572Y-79410765D01*
X135615671Y-79419030D01*
X135637850Y-79429520D01*
X135658893Y-79442132D01*
X135678599Y-79456747D01*
X135696777Y-79473223D01*
X135713253Y-79491401D01*
X135727868Y-79511107D01*
X135740480Y-79532150D01*
X135750970Y-79554329D01*
X135759235Y-79577428D01*
X135765196Y-79601227D01*
X135768796Y-79625495D01*
X135770000Y-79649999D01*
X135770000Y-80550001D01*
X135768796Y-80574505D01*
X135765196Y-80598773D01*
X135759235Y-80622572D01*
X135750970Y-80645671D01*
X135740480Y-80667850D01*
X135727868Y-80688893D01*
X135713253Y-80708599D01*
X135696777Y-80726777D01*
X135678599Y-80743253D01*
X135658893Y-80757868D01*
X135637850Y-80770480D01*
X135615671Y-80780970D01*
X135592572Y-80789235D01*
X135568773Y-80795196D01*
X135544505Y-80798796D01*
X135520001Y-80800000D01*
X134869999Y-80800000D01*
X134845495Y-80798796D01*
X134821227Y-80795196D01*
X134797428Y-80789235D01*
X134774329Y-80780970D01*
X134752150Y-80770480D01*
X134731107Y-80757868D01*
X134711401Y-80743253D01*
X134693223Y-80726777D01*
X134676747Y-80708599D01*
X134662132Y-80688893D01*
X134649520Y-80667850D01*
X134639030Y-80645671D01*
X134630765Y-80622572D01*
X134624804Y-80598773D01*
X134621204Y-80574505D01*
X134620000Y-80550001D01*
X134620000Y-79649999D01*
X134621204Y-79625495D01*
X134624804Y-79601227D01*
X134630765Y-79577428D01*
X134639030Y-79554329D01*
X134649520Y-79532150D01*
X134662132Y-79511107D01*
X134676747Y-79491401D01*
X134693223Y-79473223D01*
X134711401Y-79456747D01*
X134731107Y-79442132D01*
X134752150Y-79429520D01*
X134774329Y-79419030D01*
X134797428Y-79410765D01*
X134821227Y-79404804D01*
X134845495Y-79401204D01*
X134869999Y-79400000D01*
X135520001Y-79400000D01*
X135544505Y-79401204D01*
X135544505Y-79401204D01*
G37*
D12*
X135195000Y-80100000D03*
D11*
G36*
X139244505Y-77501204D02*
G01*
X139268773Y-77504804D01*
X139292572Y-77510765D01*
X139315671Y-77519030D01*
X139337850Y-77529520D01*
X139358893Y-77542132D01*
X139378599Y-77556747D01*
X139396777Y-77573223D01*
X139413253Y-77591401D01*
X139427868Y-77611107D01*
X139440480Y-77632150D01*
X139450970Y-77654329D01*
X139459235Y-77677428D01*
X139465196Y-77701227D01*
X139468796Y-77725495D01*
X139470000Y-77749999D01*
X139470000Y-78650001D01*
X139468796Y-78674505D01*
X139465196Y-78698773D01*
X139459235Y-78722572D01*
X139450970Y-78745671D01*
X139440480Y-78767850D01*
X139427868Y-78788893D01*
X139413253Y-78808599D01*
X139396777Y-78826777D01*
X139378599Y-78843253D01*
X139358893Y-78857868D01*
X139337850Y-78870480D01*
X139315671Y-78880970D01*
X139292572Y-78889235D01*
X139268773Y-78895196D01*
X139244505Y-78898796D01*
X139220001Y-78900000D01*
X138569999Y-78900000D01*
X138545495Y-78898796D01*
X138521227Y-78895196D01*
X138497428Y-78889235D01*
X138474329Y-78880970D01*
X138452150Y-78870480D01*
X138431107Y-78857868D01*
X138411401Y-78843253D01*
X138393223Y-78826777D01*
X138376747Y-78808599D01*
X138362132Y-78788893D01*
X138349520Y-78767850D01*
X138339030Y-78745671D01*
X138330765Y-78722572D01*
X138324804Y-78698773D01*
X138321204Y-78674505D01*
X138320000Y-78650001D01*
X138320000Y-77749999D01*
X138321204Y-77725495D01*
X138324804Y-77701227D01*
X138330765Y-77677428D01*
X138339030Y-77654329D01*
X138349520Y-77632150D01*
X138362132Y-77611107D01*
X138376747Y-77591401D01*
X138393223Y-77573223D01*
X138411401Y-77556747D01*
X138431107Y-77542132D01*
X138452150Y-77529520D01*
X138474329Y-77519030D01*
X138497428Y-77510765D01*
X138521227Y-77504804D01*
X138545495Y-77501204D01*
X138569999Y-77500000D01*
X139220001Y-77500000D01*
X139244505Y-77501204D01*
X139244505Y-77501204D01*
G37*
D12*
X138895000Y-78200000D03*
D11*
G36*
X137194505Y-77501204D02*
G01*
X137218773Y-77504804D01*
X137242572Y-77510765D01*
X137265671Y-77519030D01*
X137287850Y-77529520D01*
X137308893Y-77542132D01*
X137328599Y-77556747D01*
X137346777Y-77573223D01*
X137363253Y-77591401D01*
X137377868Y-77611107D01*
X137390480Y-77632150D01*
X137400970Y-77654329D01*
X137409235Y-77677428D01*
X137415196Y-77701227D01*
X137418796Y-77725495D01*
X137420000Y-77749999D01*
X137420000Y-78650001D01*
X137418796Y-78674505D01*
X137415196Y-78698773D01*
X137409235Y-78722572D01*
X137400970Y-78745671D01*
X137390480Y-78767850D01*
X137377868Y-78788893D01*
X137363253Y-78808599D01*
X137346777Y-78826777D01*
X137328599Y-78843253D01*
X137308893Y-78857868D01*
X137287850Y-78870480D01*
X137265671Y-78880970D01*
X137242572Y-78889235D01*
X137218773Y-78895196D01*
X137194505Y-78898796D01*
X137170001Y-78900000D01*
X136519999Y-78900000D01*
X136495495Y-78898796D01*
X136471227Y-78895196D01*
X136447428Y-78889235D01*
X136424329Y-78880970D01*
X136402150Y-78870480D01*
X136381107Y-78857868D01*
X136361401Y-78843253D01*
X136343223Y-78826777D01*
X136326747Y-78808599D01*
X136312132Y-78788893D01*
X136299520Y-78767850D01*
X136289030Y-78745671D01*
X136280765Y-78722572D01*
X136274804Y-78698773D01*
X136271204Y-78674505D01*
X136270000Y-78650001D01*
X136270000Y-77749999D01*
X136271204Y-77725495D01*
X136274804Y-77701227D01*
X136280765Y-77677428D01*
X136289030Y-77654329D01*
X136299520Y-77632150D01*
X136312132Y-77611107D01*
X136326747Y-77591401D01*
X136343223Y-77573223D01*
X136361401Y-77556747D01*
X136381107Y-77542132D01*
X136402150Y-77529520D01*
X136424329Y-77519030D01*
X136447428Y-77510765D01*
X136471227Y-77504804D01*
X136495495Y-77501204D01*
X136519999Y-77500000D01*
X137170001Y-77500000D01*
X137194505Y-77501204D01*
X137194505Y-77501204D01*
G37*
D12*
X136845000Y-78200000D03*
D11*
G36*
X140544505Y-86011204D02*
G01*
X140568773Y-86014804D01*
X140592572Y-86020765D01*
X140615671Y-86029030D01*
X140637850Y-86039520D01*
X140658893Y-86052132D01*
X140678599Y-86066747D01*
X140696777Y-86083223D01*
X140713253Y-86101401D01*
X140727868Y-86121107D01*
X140740480Y-86142150D01*
X140750970Y-86164329D01*
X140759235Y-86187428D01*
X140765196Y-86211227D01*
X140768796Y-86235495D01*
X140770000Y-86259999D01*
X140770000Y-87160001D01*
X140768796Y-87184505D01*
X140765196Y-87208773D01*
X140759235Y-87232572D01*
X140750970Y-87255671D01*
X140740480Y-87277850D01*
X140727868Y-87298893D01*
X140713253Y-87318599D01*
X140696777Y-87336777D01*
X140678599Y-87353253D01*
X140658893Y-87367868D01*
X140637850Y-87380480D01*
X140615671Y-87390970D01*
X140592572Y-87399235D01*
X140568773Y-87405196D01*
X140544505Y-87408796D01*
X140520001Y-87410000D01*
X139869999Y-87410000D01*
X139845495Y-87408796D01*
X139821227Y-87405196D01*
X139797428Y-87399235D01*
X139774329Y-87390970D01*
X139752150Y-87380480D01*
X139731107Y-87367868D01*
X139711401Y-87353253D01*
X139693223Y-87336777D01*
X139676747Y-87318599D01*
X139662132Y-87298893D01*
X139649520Y-87277850D01*
X139639030Y-87255671D01*
X139630765Y-87232572D01*
X139624804Y-87208773D01*
X139621204Y-87184505D01*
X139620000Y-87160001D01*
X139620000Y-86259999D01*
X139621204Y-86235495D01*
X139624804Y-86211227D01*
X139630765Y-86187428D01*
X139639030Y-86164329D01*
X139649520Y-86142150D01*
X139662132Y-86121107D01*
X139676747Y-86101401D01*
X139693223Y-86083223D01*
X139711401Y-86066747D01*
X139731107Y-86052132D01*
X139752150Y-86039520D01*
X139774329Y-86029030D01*
X139797428Y-86020765D01*
X139821227Y-86014804D01*
X139845495Y-86011204D01*
X139869999Y-86010000D01*
X140520001Y-86010000D01*
X140544505Y-86011204D01*
X140544505Y-86011204D01*
G37*
D12*
X140195000Y-86710000D03*
D11*
G36*
X138494505Y-86011204D02*
G01*
X138518773Y-86014804D01*
X138542572Y-86020765D01*
X138565671Y-86029030D01*
X138587850Y-86039520D01*
X138608893Y-86052132D01*
X138628599Y-86066747D01*
X138646777Y-86083223D01*
X138663253Y-86101401D01*
X138677868Y-86121107D01*
X138690480Y-86142150D01*
X138700970Y-86164329D01*
X138709235Y-86187428D01*
X138715196Y-86211227D01*
X138718796Y-86235495D01*
X138720000Y-86259999D01*
X138720000Y-87160001D01*
X138718796Y-87184505D01*
X138715196Y-87208773D01*
X138709235Y-87232572D01*
X138700970Y-87255671D01*
X138690480Y-87277850D01*
X138677868Y-87298893D01*
X138663253Y-87318599D01*
X138646777Y-87336777D01*
X138628599Y-87353253D01*
X138608893Y-87367868D01*
X138587850Y-87380480D01*
X138565671Y-87390970D01*
X138542572Y-87399235D01*
X138518773Y-87405196D01*
X138494505Y-87408796D01*
X138470001Y-87410000D01*
X137819999Y-87410000D01*
X137795495Y-87408796D01*
X137771227Y-87405196D01*
X137747428Y-87399235D01*
X137724329Y-87390970D01*
X137702150Y-87380480D01*
X137681107Y-87367868D01*
X137661401Y-87353253D01*
X137643223Y-87336777D01*
X137626747Y-87318599D01*
X137612132Y-87298893D01*
X137599520Y-87277850D01*
X137589030Y-87255671D01*
X137580765Y-87232572D01*
X137574804Y-87208773D01*
X137571204Y-87184505D01*
X137570000Y-87160001D01*
X137570000Y-86259999D01*
X137571204Y-86235495D01*
X137574804Y-86211227D01*
X137580765Y-86187428D01*
X137589030Y-86164329D01*
X137599520Y-86142150D01*
X137612132Y-86121107D01*
X137626747Y-86101401D01*
X137643223Y-86083223D01*
X137661401Y-86066747D01*
X137681107Y-86052132D01*
X137702150Y-86039520D01*
X137724329Y-86029030D01*
X137747428Y-86020765D01*
X137771227Y-86014804D01*
X137795495Y-86011204D01*
X137819999Y-86010000D01*
X138470001Y-86010000D01*
X138494505Y-86011204D01*
X138494505Y-86011204D01*
G37*
D12*
X138145000Y-86710000D03*
D11*
G36*
X133494505Y-81301204D02*
G01*
X133518773Y-81304804D01*
X133542572Y-81310765D01*
X133565671Y-81319030D01*
X133587850Y-81329520D01*
X133608893Y-81342132D01*
X133628599Y-81356747D01*
X133646777Y-81373223D01*
X133663253Y-81391401D01*
X133677868Y-81411107D01*
X133690480Y-81432150D01*
X133700970Y-81454329D01*
X133709235Y-81477428D01*
X133715196Y-81501227D01*
X133718796Y-81525495D01*
X133720000Y-81549999D01*
X133720000Y-82450001D01*
X133718796Y-82474505D01*
X133715196Y-82498773D01*
X133709235Y-82522572D01*
X133700970Y-82545671D01*
X133690480Y-82567850D01*
X133677868Y-82588893D01*
X133663253Y-82608599D01*
X133646777Y-82626777D01*
X133628599Y-82643253D01*
X133608893Y-82657868D01*
X133587850Y-82670480D01*
X133565671Y-82680970D01*
X133542572Y-82689235D01*
X133518773Y-82695196D01*
X133494505Y-82698796D01*
X133470001Y-82700000D01*
X132819999Y-82700000D01*
X132795495Y-82698796D01*
X132771227Y-82695196D01*
X132747428Y-82689235D01*
X132724329Y-82680970D01*
X132702150Y-82670480D01*
X132681107Y-82657868D01*
X132661401Y-82643253D01*
X132643223Y-82626777D01*
X132626747Y-82608599D01*
X132612132Y-82588893D01*
X132599520Y-82567850D01*
X132589030Y-82545671D01*
X132580765Y-82522572D01*
X132574804Y-82498773D01*
X132571204Y-82474505D01*
X132570000Y-82450001D01*
X132570000Y-81549999D01*
X132571204Y-81525495D01*
X132574804Y-81501227D01*
X132580765Y-81477428D01*
X132589030Y-81454329D01*
X132599520Y-81432150D01*
X132612132Y-81411107D01*
X132626747Y-81391401D01*
X132643223Y-81373223D01*
X132661401Y-81356747D01*
X132681107Y-81342132D01*
X132702150Y-81329520D01*
X132724329Y-81319030D01*
X132747428Y-81310765D01*
X132771227Y-81304804D01*
X132795495Y-81301204D01*
X132819999Y-81300000D01*
X133470001Y-81300000D01*
X133494505Y-81301204D01*
X133494505Y-81301204D01*
G37*
D12*
X133145000Y-82000000D03*
D11*
G36*
X135544505Y-81301204D02*
G01*
X135568773Y-81304804D01*
X135592572Y-81310765D01*
X135615671Y-81319030D01*
X135637850Y-81329520D01*
X135658893Y-81342132D01*
X135678599Y-81356747D01*
X135696777Y-81373223D01*
X135713253Y-81391401D01*
X135727868Y-81411107D01*
X135740480Y-81432150D01*
X135750970Y-81454329D01*
X135759235Y-81477428D01*
X135765196Y-81501227D01*
X135768796Y-81525495D01*
X135770000Y-81549999D01*
X135770000Y-82450001D01*
X135768796Y-82474505D01*
X135765196Y-82498773D01*
X135759235Y-82522572D01*
X135750970Y-82545671D01*
X135740480Y-82567850D01*
X135727868Y-82588893D01*
X135713253Y-82608599D01*
X135696777Y-82626777D01*
X135678599Y-82643253D01*
X135658893Y-82657868D01*
X135637850Y-82670480D01*
X135615671Y-82680970D01*
X135592572Y-82689235D01*
X135568773Y-82695196D01*
X135544505Y-82698796D01*
X135520001Y-82700000D01*
X134869999Y-82700000D01*
X134845495Y-82698796D01*
X134821227Y-82695196D01*
X134797428Y-82689235D01*
X134774329Y-82680970D01*
X134752150Y-82670480D01*
X134731107Y-82657868D01*
X134711401Y-82643253D01*
X134693223Y-82626777D01*
X134676747Y-82608599D01*
X134662132Y-82588893D01*
X134649520Y-82567850D01*
X134639030Y-82545671D01*
X134630765Y-82522572D01*
X134624804Y-82498773D01*
X134621204Y-82474505D01*
X134620000Y-82450001D01*
X134620000Y-81549999D01*
X134621204Y-81525495D01*
X134624804Y-81501227D01*
X134630765Y-81477428D01*
X134639030Y-81454329D01*
X134649520Y-81432150D01*
X134662132Y-81411107D01*
X134676747Y-81391401D01*
X134693223Y-81373223D01*
X134711401Y-81356747D01*
X134731107Y-81342132D01*
X134752150Y-81329520D01*
X134774329Y-81319030D01*
X134797428Y-81310765D01*
X134821227Y-81304804D01*
X134845495Y-81301204D01*
X134869999Y-81300000D01*
X135520001Y-81300000D01*
X135544505Y-81301204D01*
X135544505Y-81301204D01*
G37*
D12*
X135195000Y-82000000D03*
D11*
G36*
X133494505Y-83301204D02*
G01*
X133518773Y-83304804D01*
X133542572Y-83310765D01*
X133565671Y-83319030D01*
X133587850Y-83329520D01*
X133608893Y-83342132D01*
X133628599Y-83356747D01*
X133646777Y-83373223D01*
X133663253Y-83391401D01*
X133677868Y-83411107D01*
X133690480Y-83432150D01*
X133700970Y-83454329D01*
X133709235Y-83477428D01*
X133715196Y-83501227D01*
X133718796Y-83525495D01*
X133720000Y-83549999D01*
X133720000Y-84450001D01*
X133718796Y-84474505D01*
X133715196Y-84498773D01*
X133709235Y-84522572D01*
X133700970Y-84545671D01*
X133690480Y-84567850D01*
X133677868Y-84588893D01*
X133663253Y-84608599D01*
X133646777Y-84626777D01*
X133628599Y-84643253D01*
X133608893Y-84657868D01*
X133587850Y-84670480D01*
X133565671Y-84680970D01*
X133542572Y-84689235D01*
X133518773Y-84695196D01*
X133494505Y-84698796D01*
X133470001Y-84700000D01*
X132819999Y-84700000D01*
X132795495Y-84698796D01*
X132771227Y-84695196D01*
X132747428Y-84689235D01*
X132724329Y-84680970D01*
X132702150Y-84670480D01*
X132681107Y-84657868D01*
X132661401Y-84643253D01*
X132643223Y-84626777D01*
X132626747Y-84608599D01*
X132612132Y-84588893D01*
X132599520Y-84567850D01*
X132589030Y-84545671D01*
X132580765Y-84522572D01*
X132574804Y-84498773D01*
X132571204Y-84474505D01*
X132570000Y-84450001D01*
X132570000Y-83549999D01*
X132571204Y-83525495D01*
X132574804Y-83501227D01*
X132580765Y-83477428D01*
X132589030Y-83454329D01*
X132599520Y-83432150D01*
X132612132Y-83411107D01*
X132626747Y-83391401D01*
X132643223Y-83373223D01*
X132661401Y-83356747D01*
X132681107Y-83342132D01*
X132702150Y-83329520D01*
X132724329Y-83319030D01*
X132747428Y-83310765D01*
X132771227Y-83304804D01*
X132795495Y-83301204D01*
X132819999Y-83300000D01*
X133470001Y-83300000D01*
X133494505Y-83301204D01*
X133494505Y-83301204D01*
G37*
D12*
X133145000Y-84000000D03*
D11*
G36*
X135544505Y-83301204D02*
G01*
X135568773Y-83304804D01*
X135592572Y-83310765D01*
X135615671Y-83319030D01*
X135637850Y-83329520D01*
X135658893Y-83342132D01*
X135678599Y-83356747D01*
X135696777Y-83373223D01*
X135713253Y-83391401D01*
X135727868Y-83411107D01*
X135740480Y-83432150D01*
X135750970Y-83454329D01*
X135759235Y-83477428D01*
X135765196Y-83501227D01*
X135768796Y-83525495D01*
X135770000Y-83549999D01*
X135770000Y-84450001D01*
X135768796Y-84474505D01*
X135765196Y-84498773D01*
X135759235Y-84522572D01*
X135750970Y-84545671D01*
X135740480Y-84567850D01*
X135727868Y-84588893D01*
X135713253Y-84608599D01*
X135696777Y-84626777D01*
X135678599Y-84643253D01*
X135658893Y-84657868D01*
X135637850Y-84670480D01*
X135615671Y-84680970D01*
X135592572Y-84689235D01*
X135568773Y-84695196D01*
X135544505Y-84698796D01*
X135520001Y-84700000D01*
X134869999Y-84700000D01*
X134845495Y-84698796D01*
X134821227Y-84695196D01*
X134797428Y-84689235D01*
X134774329Y-84680970D01*
X134752150Y-84670480D01*
X134731107Y-84657868D01*
X134711401Y-84643253D01*
X134693223Y-84626777D01*
X134676747Y-84608599D01*
X134662132Y-84588893D01*
X134649520Y-84567850D01*
X134639030Y-84545671D01*
X134630765Y-84522572D01*
X134624804Y-84498773D01*
X134621204Y-84474505D01*
X134620000Y-84450001D01*
X134620000Y-83549999D01*
X134621204Y-83525495D01*
X134624804Y-83501227D01*
X134630765Y-83477428D01*
X134639030Y-83454329D01*
X134649520Y-83432150D01*
X134662132Y-83411107D01*
X134676747Y-83391401D01*
X134693223Y-83373223D01*
X134711401Y-83356747D01*
X134731107Y-83342132D01*
X134752150Y-83329520D01*
X134774329Y-83319030D01*
X134797428Y-83310765D01*
X134821227Y-83304804D01*
X134845495Y-83301204D01*
X134869999Y-83300000D01*
X135520001Y-83300000D01*
X135544505Y-83301204D01*
X135544505Y-83301204D01*
G37*
D12*
X135195000Y-84000000D03*
D11*
G36*
X152034505Y-85671204D02*
G01*
X152058773Y-85674804D01*
X152082572Y-85680765D01*
X152105671Y-85689030D01*
X152127850Y-85699520D01*
X152148893Y-85712132D01*
X152168599Y-85726747D01*
X152186777Y-85743223D01*
X152203253Y-85761401D01*
X152217868Y-85781107D01*
X152230480Y-85802150D01*
X152240970Y-85824329D01*
X152249235Y-85847428D01*
X152255196Y-85871227D01*
X152258796Y-85895495D01*
X152260000Y-85919999D01*
X152260000Y-86570001D01*
X152258796Y-86594505D01*
X152255196Y-86618773D01*
X152249235Y-86642572D01*
X152240970Y-86665671D01*
X152230480Y-86687850D01*
X152217868Y-86708893D01*
X152203253Y-86728599D01*
X152186777Y-86746777D01*
X152168599Y-86763253D01*
X152148893Y-86777868D01*
X152127850Y-86790480D01*
X152105671Y-86800970D01*
X152082572Y-86809235D01*
X152058773Y-86815196D01*
X152034505Y-86818796D01*
X152010001Y-86820000D01*
X151109999Y-86820000D01*
X151085495Y-86818796D01*
X151061227Y-86815196D01*
X151037428Y-86809235D01*
X151014329Y-86800970D01*
X150992150Y-86790480D01*
X150971107Y-86777868D01*
X150951401Y-86763253D01*
X150933223Y-86746777D01*
X150916747Y-86728599D01*
X150902132Y-86708893D01*
X150889520Y-86687850D01*
X150879030Y-86665671D01*
X150870765Y-86642572D01*
X150864804Y-86618773D01*
X150861204Y-86594505D01*
X150860000Y-86570001D01*
X150860000Y-85919999D01*
X150861204Y-85895495D01*
X150864804Y-85871227D01*
X150870765Y-85847428D01*
X150879030Y-85824329D01*
X150889520Y-85802150D01*
X150902132Y-85781107D01*
X150916747Y-85761401D01*
X150933223Y-85743223D01*
X150951401Y-85726747D01*
X150971107Y-85712132D01*
X150992150Y-85699520D01*
X151014329Y-85689030D01*
X151037428Y-85680765D01*
X151061227Y-85674804D01*
X151085495Y-85671204D01*
X151109999Y-85670000D01*
X152010001Y-85670000D01*
X152034505Y-85671204D01*
X152034505Y-85671204D01*
G37*
D12*
X151560000Y-86245000D03*
D11*
G36*
X152034505Y-83621204D02*
G01*
X152058773Y-83624804D01*
X152082572Y-83630765D01*
X152105671Y-83639030D01*
X152127850Y-83649520D01*
X152148893Y-83662132D01*
X152168599Y-83676747D01*
X152186777Y-83693223D01*
X152203253Y-83711401D01*
X152217868Y-83731107D01*
X152230480Y-83752150D01*
X152240970Y-83774329D01*
X152249235Y-83797428D01*
X152255196Y-83821227D01*
X152258796Y-83845495D01*
X152260000Y-83869999D01*
X152260000Y-84520001D01*
X152258796Y-84544505D01*
X152255196Y-84568773D01*
X152249235Y-84592572D01*
X152240970Y-84615671D01*
X152230480Y-84637850D01*
X152217868Y-84658893D01*
X152203253Y-84678599D01*
X152186777Y-84696777D01*
X152168599Y-84713253D01*
X152148893Y-84727868D01*
X152127850Y-84740480D01*
X152105671Y-84750970D01*
X152082572Y-84759235D01*
X152058773Y-84765196D01*
X152034505Y-84768796D01*
X152010001Y-84770000D01*
X151109999Y-84770000D01*
X151085495Y-84768796D01*
X151061227Y-84765196D01*
X151037428Y-84759235D01*
X151014329Y-84750970D01*
X150992150Y-84740480D01*
X150971107Y-84727868D01*
X150951401Y-84713253D01*
X150933223Y-84696777D01*
X150916747Y-84678599D01*
X150902132Y-84658893D01*
X150889520Y-84637850D01*
X150879030Y-84615671D01*
X150870765Y-84592572D01*
X150864804Y-84568773D01*
X150861204Y-84544505D01*
X150860000Y-84520001D01*
X150860000Y-83869999D01*
X150861204Y-83845495D01*
X150864804Y-83821227D01*
X150870765Y-83797428D01*
X150879030Y-83774329D01*
X150889520Y-83752150D01*
X150902132Y-83731107D01*
X150916747Y-83711401D01*
X150933223Y-83693223D01*
X150951401Y-83676747D01*
X150971107Y-83662132D01*
X150992150Y-83649520D01*
X151014329Y-83639030D01*
X151037428Y-83630765D01*
X151061227Y-83624804D01*
X151085495Y-83621204D01*
X151109999Y-83620000D01*
X152010001Y-83620000D01*
X152034505Y-83621204D01*
X152034505Y-83621204D01*
G37*
D12*
X151560000Y-84195000D03*
D11*
G36*
X153934505Y-85671204D02*
G01*
X153958773Y-85674804D01*
X153982572Y-85680765D01*
X154005671Y-85689030D01*
X154027850Y-85699520D01*
X154048893Y-85712132D01*
X154068599Y-85726747D01*
X154086777Y-85743223D01*
X154103253Y-85761401D01*
X154117868Y-85781107D01*
X154130480Y-85802150D01*
X154140970Y-85824329D01*
X154149235Y-85847428D01*
X154155196Y-85871227D01*
X154158796Y-85895495D01*
X154160000Y-85919999D01*
X154160000Y-86570001D01*
X154158796Y-86594505D01*
X154155196Y-86618773D01*
X154149235Y-86642572D01*
X154140970Y-86665671D01*
X154130480Y-86687850D01*
X154117868Y-86708893D01*
X154103253Y-86728599D01*
X154086777Y-86746777D01*
X154068599Y-86763253D01*
X154048893Y-86777868D01*
X154027850Y-86790480D01*
X154005671Y-86800970D01*
X153982572Y-86809235D01*
X153958773Y-86815196D01*
X153934505Y-86818796D01*
X153910001Y-86820000D01*
X153009999Y-86820000D01*
X152985495Y-86818796D01*
X152961227Y-86815196D01*
X152937428Y-86809235D01*
X152914329Y-86800970D01*
X152892150Y-86790480D01*
X152871107Y-86777868D01*
X152851401Y-86763253D01*
X152833223Y-86746777D01*
X152816747Y-86728599D01*
X152802132Y-86708893D01*
X152789520Y-86687850D01*
X152779030Y-86665671D01*
X152770765Y-86642572D01*
X152764804Y-86618773D01*
X152761204Y-86594505D01*
X152760000Y-86570001D01*
X152760000Y-85919999D01*
X152761204Y-85895495D01*
X152764804Y-85871227D01*
X152770765Y-85847428D01*
X152779030Y-85824329D01*
X152789520Y-85802150D01*
X152802132Y-85781107D01*
X152816747Y-85761401D01*
X152833223Y-85743223D01*
X152851401Y-85726747D01*
X152871107Y-85712132D01*
X152892150Y-85699520D01*
X152914329Y-85689030D01*
X152937428Y-85680765D01*
X152961227Y-85674804D01*
X152985495Y-85671204D01*
X153009999Y-85670000D01*
X153910001Y-85670000D01*
X153934505Y-85671204D01*
X153934505Y-85671204D01*
G37*
D12*
X153460000Y-86245000D03*
D11*
G36*
X153934505Y-83621204D02*
G01*
X153958773Y-83624804D01*
X153982572Y-83630765D01*
X154005671Y-83639030D01*
X154027850Y-83649520D01*
X154048893Y-83662132D01*
X154068599Y-83676747D01*
X154086777Y-83693223D01*
X154103253Y-83711401D01*
X154117868Y-83731107D01*
X154130480Y-83752150D01*
X154140970Y-83774329D01*
X154149235Y-83797428D01*
X154155196Y-83821227D01*
X154158796Y-83845495D01*
X154160000Y-83869999D01*
X154160000Y-84520001D01*
X154158796Y-84544505D01*
X154155196Y-84568773D01*
X154149235Y-84592572D01*
X154140970Y-84615671D01*
X154130480Y-84637850D01*
X154117868Y-84658893D01*
X154103253Y-84678599D01*
X154086777Y-84696777D01*
X154068599Y-84713253D01*
X154048893Y-84727868D01*
X154027850Y-84740480D01*
X154005671Y-84750970D01*
X153982572Y-84759235D01*
X153958773Y-84765196D01*
X153934505Y-84768796D01*
X153910001Y-84770000D01*
X153009999Y-84770000D01*
X152985495Y-84768796D01*
X152961227Y-84765196D01*
X152937428Y-84759235D01*
X152914329Y-84750970D01*
X152892150Y-84740480D01*
X152871107Y-84727868D01*
X152851401Y-84713253D01*
X152833223Y-84696777D01*
X152816747Y-84678599D01*
X152802132Y-84658893D01*
X152789520Y-84637850D01*
X152779030Y-84615671D01*
X152770765Y-84592572D01*
X152764804Y-84568773D01*
X152761204Y-84544505D01*
X152760000Y-84520001D01*
X152760000Y-83869999D01*
X152761204Y-83845495D01*
X152764804Y-83821227D01*
X152770765Y-83797428D01*
X152779030Y-83774329D01*
X152789520Y-83752150D01*
X152802132Y-83731107D01*
X152816747Y-83711401D01*
X152833223Y-83693223D01*
X152851401Y-83676747D01*
X152871107Y-83662132D01*
X152892150Y-83649520D01*
X152914329Y-83639030D01*
X152937428Y-83630765D01*
X152961227Y-83624804D01*
X152985495Y-83621204D01*
X153009999Y-83620000D01*
X153910001Y-83620000D01*
X153934505Y-83621204D01*
X153934505Y-83621204D01*
G37*
D12*
X153460000Y-84195000D03*
D11*
G36*
X157834505Y-81411204D02*
G01*
X157858773Y-81414804D01*
X157882572Y-81420765D01*
X157905671Y-81429030D01*
X157927850Y-81439520D01*
X157948893Y-81452132D01*
X157968599Y-81466747D01*
X157986777Y-81483223D01*
X158003253Y-81501401D01*
X158017868Y-81521107D01*
X158030480Y-81542150D01*
X158040970Y-81564329D01*
X158049235Y-81587428D01*
X158055196Y-81611227D01*
X158058796Y-81635495D01*
X158060000Y-81659999D01*
X158060000Y-82560001D01*
X158058796Y-82584505D01*
X158055196Y-82608773D01*
X158049235Y-82632572D01*
X158040970Y-82655671D01*
X158030480Y-82677850D01*
X158017868Y-82698893D01*
X158003253Y-82718599D01*
X157986777Y-82736777D01*
X157968599Y-82753253D01*
X157948893Y-82767868D01*
X157927850Y-82780480D01*
X157905671Y-82790970D01*
X157882572Y-82799235D01*
X157858773Y-82805196D01*
X157834505Y-82808796D01*
X157810001Y-82810000D01*
X157159999Y-82810000D01*
X157135495Y-82808796D01*
X157111227Y-82805196D01*
X157087428Y-82799235D01*
X157064329Y-82790970D01*
X157042150Y-82780480D01*
X157021107Y-82767868D01*
X157001401Y-82753253D01*
X156983223Y-82736777D01*
X156966747Y-82718599D01*
X156952132Y-82698893D01*
X156939520Y-82677850D01*
X156929030Y-82655671D01*
X156920765Y-82632572D01*
X156914804Y-82608773D01*
X156911204Y-82584505D01*
X156910000Y-82560001D01*
X156910000Y-81659999D01*
X156911204Y-81635495D01*
X156914804Y-81611227D01*
X156920765Y-81587428D01*
X156929030Y-81564329D01*
X156939520Y-81542150D01*
X156952132Y-81521107D01*
X156966747Y-81501401D01*
X156983223Y-81483223D01*
X157001401Y-81466747D01*
X157021107Y-81452132D01*
X157042150Y-81439520D01*
X157064329Y-81429030D01*
X157087428Y-81420765D01*
X157111227Y-81414804D01*
X157135495Y-81411204D01*
X157159999Y-81410000D01*
X157810001Y-81410000D01*
X157834505Y-81411204D01*
X157834505Y-81411204D01*
G37*
D12*
X157485000Y-82110000D03*
D11*
G36*
X155784505Y-81411204D02*
G01*
X155808773Y-81414804D01*
X155832572Y-81420765D01*
X155855671Y-81429030D01*
X155877850Y-81439520D01*
X155898893Y-81452132D01*
X155918599Y-81466747D01*
X155936777Y-81483223D01*
X155953253Y-81501401D01*
X155967868Y-81521107D01*
X155980480Y-81542150D01*
X155990970Y-81564329D01*
X155999235Y-81587428D01*
X156005196Y-81611227D01*
X156008796Y-81635495D01*
X156010000Y-81659999D01*
X156010000Y-82560001D01*
X156008796Y-82584505D01*
X156005196Y-82608773D01*
X155999235Y-82632572D01*
X155990970Y-82655671D01*
X155980480Y-82677850D01*
X155967868Y-82698893D01*
X155953253Y-82718599D01*
X155936777Y-82736777D01*
X155918599Y-82753253D01*
X155898893Y-82767868D01*
X155877850Y-82780480D01*
X155855671Y-82790970D01*
X155832572Y-82799235D01*
X155808773Y-82805196D01*
X155784505Y-82808796D01*
X155760001Y-82810000D01*
X155109999Y-82810000D01*
X155085495Y-82808796D01*
X155061227Y-82805196D01*
X155037428Y-82799235D01*
X155014329Y-82790970D01*
X154992150Y-82780480D01*
X154971107Y-82767868D01*
X154951401Y-82753253D01*
X154933223Y-82736777D01*
X154916747Y-82718599D01*
X154902132Y-82698893D01*
X154889520Y-82677850D01*
X154879030Y-82655671D01*
X154870765Y-82632572D01*
X154864804Y-82608773D01*
X154861204Y-82584505D01*
X154860000Y-82560001D01*
X154860000Y-81659999D01*
X154861204Y-81635495D01*
X154864804Y-81611227D01*
X154870765Y-81587428D01*
X154879030Y-81564329D01*
X154889520Y-81542150D01*
X154902132Y-81521107D01*
X154916747Y-81501401D01*
X154933223Y-81483223D01*
X154951401Y-81466747D01*
X154971107Y-81452132D01*
X154992150Y-81439520D01*
X155014329Y-81429030D01*
X155037428Y-81420765D01*
X155061227Y-81414804D01*
X155085495Y-81411204D01*
X155109999Y-81410000D01*
X155760001Y-81410000D01*
X155784505Y-81411204D01*
X155784505Y-81411204D01*
G37*
D12*
X155435000Y-82110000D03*
D11*
G36*
X155784505Y-89011204D02*
G01*
X155808773Y-89014804D01*
X155832572Y-89020765D01*
X155855671Y-89029030D01*
X155877850Y-89039520D01*
X155898893Y-89052132D01*
X155918599Y-89066747D01*
X155936777Y-89083223D01*
X155953253Y-89101401D01*
X155967868Y-89121107D01*
X155980480Y-89142150D01*
X155990970Y-89164329D01*
X155999235Y-89187428D01*
X156005196Y-89211227D01*
X156008796Y-89235495D01*
X156010000Y-89259999D01*
X156010000Y-90160001D01*
X156008796Y-90184505D01*
X156005196Y-90208773D01*
X155999235Y-90232572D01*
X155990970Y-90255671D01*
X155980480Y-90277850D01*
X155967868Y-90298893D01*
X155953253Y-90318599D01*
X155936777Y-90336777D01*
X155918599Y-90353253D01*
X155898893Y-90367868D01*
X155877850Y-90380480D01*
X155855671Y-90390970D01*
X155832572Y-90399235D01*
X155808773Y-90405196D01*
X155784505Y-90408796D01*
X155760001Y-90410000D01*
X155109999Y-90410000D01*
X155085495Y-90408796D01*
X155061227Y-90405196D01*
X155037428Y-90399235D01*
X155014329Y-90390970D01*
X154992150Y-90380480D01*
X154971107Y-90367868D01*
X154951401Y-90353253D01*
X154933223Y-90336777D01*
X154916747Y-90318599D01*
X154902132Y-90298893D01*
X154889520Y-90277850D01*
X154879030Y-90255671D01*
X154870765Y-90232572D01*
X154864804Y-90208773D01*
X154861204Y-90184505D01*
X154860000Y-90160001D01*
X154860000Y-89259999D01*
X154861204Y-89235495D01*
X154864804Y-89211227D01*
X154870765Y-89187428D01*
X154879030Y-89164329D01*
X154889520Y-89142150D01*
X154902132Y-89121107D01*
X154916747Y-89101401D01*
X154933223Y-89083223D01*
X154951401Y-89066747D01*
X154971107Y-89052132D01*
X154992150Y-89039520D01*
X155014329Y-89029030D01*
X155037428Y-89020765D01*
X155061227Y-89014804D01*
X155085495Y-89011204D01*
X155109999Y-89010000D01*
X155760001Y-89010000D01*
X155784505Y-89011204D01*
X155784505Y-89011204D01*
G37*
D12*
X155435000Y-89710000D03*
D11*
G36*
X157834505Y-89011204D02*
G01*
X157858773Y-89014804D01*
X157882572Y-89020765D01*
X157905671Y-89029030D01*
X157927850Y-89039520D01*
X157948893Y-89052132D01*
X157968599Y-89066747D01*
X157986777Y-89083223D01*
X158003253Y-89101401D01*
X158017868Y-89121107D01*
X158030480Y-89142150D01*
X158040970Y-89164329D01*
X158049235Y-89187428D01*
X158055196Y-89211227D01*
X158058796Y-89235495D01*
X158060000Y-89259999D01*
X158060000Y-90160001D01*
X158058796Y-90184505D01*
X158055196Y-90208773D01*
X158049235Y-90232572D01*
X158040970Y-90255671D01*
X158030480Y-90277850D01*
X158017868Y-90298893D01*
X158003253Y-90318599D01*
X157986777Y-90336777D01*
X157968599Y-90353253D01*
X157948893Y-90367868D01*
X157927850Y-90380480D01*
X157905671Y-90390970D01*
X157882572Y-90399235D01*
X157858773Y-90405196D01*
X157834505Y-90408796D01*
X157810001Y-90410000D01*
X157159999Y-90410000D01*
X157135495Y-90408796D01*
X157111227Y-90405196D01*
X157087428Y-90399235D01*
X157064329Y-90390970D01*
X157042150Y-90380480D01*
X157021107Y-90367868D01*
X157001401Y-90353253D01*
X156983223Y-90336777D01*
X156966747Y-90318599D01*
X156952132Y-90298893D01*
X156939520Y-90277850D01*
X156929030Y-90255671D01*
X156920765Y-90232572D01*
X156914804Y-90208773D01*
X156911204Y-90184505D01*
X156910000Y-90160001D01*
X156910000Y-89259999D01*
X156911204Y-89235495D01*
X156914804Y-89211227D01*
X156920765Y-89187428D01*
X156929030Y-89164329D01*
X156939520Y-89142150D01*
X156952132Y-89121107D01*
X156966747Y-89101401D01*
X156983223Y-89083223D01*
X157001401Y-89066747D01*
X157021107Y-89052132D01*
X157042150Y-89039520D01*
X157064329Y-89029030D01*
X157087428Y-89020765D01*
X157111227Y-89014804D01*
X157135495Y-89011204D01*
X157159999Y-89010000D01*
X157810001Y-89010000D01*
X157834505Y-89011204D01*
X157834505Y-89011204D01*
G37*
D12*
X157485000Y-89710000D03*
D11*
G36*
X157834505Y-85211204D02*
G01*
X157858773Y-85214804D01*
X157882572Y-85220765D01*
X157905671Y-85229030D01*
X157927850Y-85239520D01*
X157948893Y-85252132D01*
X157968599Y-85266747D01*
X157986777Y-85283223D01*
X158003253Y-85301401D01*
X158017868Y-85321107D01*
X158030480Y-85342150D01*
X158040970Y-85364329D01*
X158049235Y-85387428D01*
X158055196Y-85411227D01*
X158058796Y-85435495D01*
X158060000Y-85459999D01*
X158060000Y-86360001D01*
X158058796Y-86384505D01*
X158055196Y-86408773D01*
X158049235Y-86432572D01*
X158040970Y-86455671D01*
X158030480Y-86477850D01*
X158017868Y-86498893D01*
X158003253Y-86518599D01*
X157986777Y-86536777D01*
X157968599Y-86553253D01*
X157948893Y-86567868D01*
X157927850Y-86580480D01*
X157905671Y-86590970D01*
X157882572Y-86599235D01*
X157858773Y-86605196D01*
X157834505Y-86608796D01*
X157810001Y-86610000D01*
X157159999Y-86610000D01*
X157135495Y-86608796D01*
X157111227Y-86605196D01*
X157087428Y-86599235D01*
X157064329Y-86590970D01*
X157042150Y-86580480D01*
X157021107Y-86567868D01*
X157001401Y-86553253D01*
X156983223Y-86536777D01*
X156966747Y-86518599D01*
X156952132Y-86498893D01*
X156939520Y-86477850D01*
X156929030Y-86455671D01*
X156920765Y-86432572D01*
X156914804Y-86408773D01*
X156911204Y-86384505D01*
X156910000Y-86360001D01*
X156910000Y-85459999D01*
X156911204Y-85435495D01*
X156914804Y-85411227D01*
X156920765Y-85387428D01*
X156929030Y-85364329D01*
X156939520Y-85342150D01*
X156952132Y-85321107D01*
X156966747Y-85301401D01*
X156983223Y-85283223D01*
X157001401Y-85266747D01*
X157021107Y-85252132D01*
X157042150Y-85239520D01*
X157064329Y-85229030D01*
X157087428Y-85220765D01*
X157111227Y-85214804D01*
X157135495Y-85211204D01*
X157159999Y-85210000D01*
X157810001Y-85210000D01*
X157834505Y-85211204D01*
X157834505Y-85211204D01*
G37*
D12*
X157485000Y-85910000D03*
D11*
G36*
X155784505Y-85211204D02*
G01*
X155808773Y-85214804D01*
X155832572Y-85220765D01*
X155855671Y-85229030D01*
X155877850Y-85239520D01*
X155898893Y-85252132D01*
X155918599Y-85266747D01*
X155936777Y-85283223D01*
X155953253Y-85301401D01*
X155967868Y-85321107D01*
X155980480Y-85342150D01*
X155990970Y-85364329D01*
X155999235Y-85387428D01*
X156005196Y-85411227D01*
X156008796Y-85435495D01*
X156010000Y-85459999D01*
X156010000Y-86360001D01*
X156008796Y-86384505D01*
X156005196Y-86408773D01*
X155999235Y-86432572D01*
X155990970Y-86455671D01*
X155980480Y-86477850D01*
X155967868Y-86498893D01*
X155953253Y-86518599D01*
X155936777Y-86536777D01*
X155918599Y-86553253D01*
X155898893Y-86567868D01*
X155877850Y-86580480D01*
X155855671Y-86590970D01*
X155832572Y-86599235D01*
X155808773Y-86605196D01*
X155784505Y-86608796D01*
X155760001Y-86610000D01*
X155109999Y-86610000D01*
X155085495Y-86608796D01*
X155061227Y-86605196D01*
X155037428Y-86599235D01*
X155014329Y-86590970D01*
X154992150Y-86580480D01*
X154971107Y-86567868D01*
X154951401Y-86553253D01*
X154933223Y-86536777D01*
X154916747Y-86518599D01*
X154902132Y-86498893D01*
X154889520Y-86477850D01*
X154879030Y-86455671D01*
X154870765Y-86432572D01*
X154864804Y-86408773D01*
X154861204Y-86384505D01*
X154860000Y-86360001D01*
X154860000Y-85459999D01*
X154861204Y-85435495D01*
X154864804Y-85411227D01*
X154870765Y-85387428D01*
X154879030Y-85364329D01*
X154889520Y-85342150D01*
X154902132Y-85321107D01*
X154916747Y-85301401D01*
X154933223Y-85283223D01*
X154951401Y-85266747D01*
X154971107Y-85252132D01*
X154992150Y-85239520D01*
X155014329Y-85229030D01*
X155037428Y-85220765D01*
X155061227Y-85214804D01*
X155085495Y-85211204D01*
X155109999Y-85210000D01*
X155760001Y-85210000D01*
X155784505Y-85211204D01*
X155784505Y-85211204D01*
G37*
D12*
X155435000Y-85910000D03*
D11*
G36*
X157834505Y-83311204D02*
G01*
X157858773Y-83314804D01*
X157882572Y-83320765D01*
X157905671Y-83329030D01*
X157927850Y-83339520D01*
X157948893Y-83352132D01*
X157968599Y-83366747D01*
X157986777Y-83383223D01*
X158003253Y-83401401D01*
X158017868Y-83421107D01*
X158030480Y-83442150D01*
X158040970Y-83464329D01*
X158049235Y-83487428D01*
X158055196Y-83511227D01*
X158058796Y-83535495D01*
X158060000Y-83559999D01*
X158060000Y-84460001D01*
X158058796Y-84484505D01*
X158055196Y-84508773D01*
X158049235Y-84532572D01*
X158040970Y-84555671D01*
X158030480Y-84577850D01*
X158017868Y-84598893D01*
X158003253Y-84618599D01*
X157986777Y-84636777D01*
X157968599Y-84653253D01*
X157948893Y-84667868D01*
X157927850Y-84680480D01*
X157905671Y-84690970D01*
X157882572Y-84699235D01*
X157858773Y-84705196D01*
X157834505Y-84708796D01*
X157810001Y-84710000D01*
X157159999Y-84710000D01*
X157135495Y-84708796D01*
X157111227Y-84705196D01*
X157087428Y-84699235D01*
X157064329Y-84690970D01*
X157042150Y-84680480D01*
X157021107Y-84667868D01*
X157001401Y-84653253D01*
X156983223Y-84636777D01*
X156966747Y-84618599D01*
X156952132Y-84598893D01*
X156939520Y-84577850D01*
X156929030Y-84555671D01*
X156920765Y-84532572D01*
X156914804Y-84508773D01*
X156911204Y-84484505D01*
X156910000Y-84460001D01*
X156910000Y-83559999D01*
X156911204Y-83535495D01*
X156914804Y-83511227D01*
X156920765Y-83487428D01*
X156929030Y-83464329D01*
X156939520Y-83442150D01*
X156952132Y-83421107D01*
X156966747Y-83401401D01*
X156983223Y-83383223D01*
X157001401Y-83366747D01*
X157021107Y-83352132D01*
X157042150Y-83339520D01*
X157064329Y-83329030D01*
X157087428Y-83320765D01*
X157111227Y-83314804D01*
X157135495Y-83311204D01*
X157159999Y-83310000D01*
X157810001Y-83310000D01*
X157834505Y-83311204D01*
X157834505Y-83311204D01*
G37*
D12*
X157485000Y-84010000D03*
D11*
G36*
X155784505Y-83311204D02*
G01*
X155808773Y-83314804D01*
X155832572Y-83320765D01*
X155855671Y-83329030D01*
X155877850Y-83339520D01*
X155898893Y-83352132D01*
X155918599Y-83366747D01*
X155936777Y-83383223D01*
X155953253Y-83401401D01*
X155967868Y-83421107D01*
X155980480Y-83442150D01*
X155990970Y-83464329D01*
X155999235Y-83487428D01*
X156005196Y-83511227D01*
X156008796Y-83535495D01*
X156010000Y-83559999D01*
X156010000Y-84460001D01*
X156008796Y-84484505D01*
X156005196Y-84508773D01*
X155999235Y-84532572D01*
X155990970Y-84555671D01*
X155980480Y-84577850D01*
X155967868Y-84598893D01*
X155953253Y-84618599D01*
X155936777Y-84636777D01*
X155918599Y-84653253D01*
X155898893Y-84667868D01*
X155877850Y-84680480D01*
X155855671Y-84690970D01*
X155832572Y-84699235D01*
X155808773Y-84705196D01*
X155784505Y-84708796D01*
X155760001Y-84710000D01*
X155109999Y-84710000D01*
X155085495Y-84708796D01*
X155061227Y-84705196D01*
X155037428Y-84699235D01*
X155014329Y-84690970D01*
X154992150Y-84680480D01*
X154971107Y-84667868D01*
X154951401Y-84653253D01*
X154933223Y-84636777D01*
X154916747Y-84618599D01*
X154902132Y-84598893D01*
X154889520Y-84577850D01*
X154879030Y-84555671D01*
X154870765Y-84532572D01*
X154864804Y-84508773D01*
X154861204Y-84484505D01*
X154860000Y-84460001D01*
X154860000Y-83559999D01*
X154861204Y-83535495D01*
X154864804Y-83511227D01*
X154870765Y-83487428D01*
X154879030Y-83464329D01*
X154889520Y-83442150D01*
X154902132Y-83421107D01*
X154916747Y-83401401D01*
X154933223Y-83383223D01*
X154951401Y-83366747D01*
X154971107Y-83352132D01*
X154992150Y-83339520D01*
X155014329Y-83329030D01*
X155037428Y-83320765D01*
X155061227Y-83314804D01*
X155085495Y-83311204D01*
X155109999Y-83310000D01*
X155760001Y-83310000D01*
X155784505Y-83311204D01*
X155784505Y-83311204D01*
G37*
D12*
X155435000Y-84010000D03*
D11*
G36*
X140544505Y-84101204D02*
G01*
X140568773Y-84104804D01*
X140592572Y-84110765D01*
X140615671Y-84119030D01*
X140637850Y-84129520D01*
X140658893Y-84142132D01*
X140678599Y-84156747D01*
X140696777Y-84173223D01*
X140713253Y-84191401D01*
X140727868Y-84211107D01*
X140740480Y-84232150D01*
X140750970Y-84254329D01*
X140759235Y-84277428D01*
X140765196Y-84301227D01*
X140768796Y-84325495D01*
X140770000Y-84349999D01*
X140770000Y-85250001D01*
X140768796Y-85274505D01*
X140765196Y-85298773D01*
X140759235Y-85322572D01*
X140750970Y-85345671D01*
X140740480Y-85367850D01*
X140727868Y-85388893D01*
X140713253Y-85408599D01*
X140696777Y-85426777D01*
X140678599Y-85443253D01*
X140658893Y-85457868D01*
X140637850Y-85470480D01*
X140615671Y-85480970D01*
X140592572Y-85489235D01*
X140568773Y-85495196D01*
X140544505Y-85498796D01*
X140520001Y-85500000D01*
X139869999Y-85500000D01*
X139845495Y-85498796D01*
X139821227Y-85495196D01*
X139797428Y-85489235D01*
X139774329Y-85480970D01*
X139752150Y-85470480D01*
X139731107Y-85457868D01*
X139711401Y-85443253D01*
X139693223Y-85426777D01*
X139676747Y-85408599D01*
X139662132Y-85388893D01*
X139649520Y-85367850D01*
X139639030Y-85345671D01*
X139630765Y-85322572D01*
X139624804Y-85298773D01*
X139621204Y-85274505D01*
X139620000Y-85250001D01*
X139620000Y-84349999D01*
X139621204Y-84325495D01*
X139624804Y-84301227D01*
X139630765Y-84277428D01*
X139639030Y-84254329D01*
X139649520Y-84232150D01*
X139662132Y-84211107D01*
X139676747Y-84191401D01*
X139693223Y-84173223D01*
X139711401Y-84156747D01*
X139731107Y-84142132D01*
X139752150Y-84129520D01*
X139774329Y-84119030D01*
X139797428Y-84110765D01*
X139821227Y-84104804D01*
X139845495Y-84101204D01*
X139869999Y-84100000D01*
X140520001Y-84100000D01*
X140544505Y-84101204D01*
X140544505Y-84101204D01*
G37*
D12*
X140195000Y-84800000D03*
D11*
G36*
X138494505Y-84101204D02*
G01*
X138518773Y-84104804D01*
X138542572Y-84110765D01*
X138565671Y-84119030D01*
X138587850Y-84129520D01*
X138608893Y-84142132D01*
X138628599Y-84156747D01*
X138646777Y-84173223D01*
X138663253Y-84191401D01*
X138677868Y-84211107D01*
X138690480Y-84232150D01*
X138700970Y-84254329D01*
X138709235Y-84277428D01*
X138715196Y-84301227D01*
X138718796Y-84325495D01*
X138720000Y-84349999D01*
X138720000Y-85250001D01*
X138718796Y-85274505D01*
X138715196Y-85298773D01*
X138709235Y-85322572D01*
X138700970Y-85345671D01*
X138690480Y-85367850D01*
X138677868Y-85388893D01*
X138663253Y-85408599D01*
X138646777Y-85426777D01*
X138628599Y-85443253D01*
X138608893Y-85457868D01*
X138587850Y-85470480D01*
X138565671Y-85480970D01*
X138542572Y-85489235D01*
X138518773Y-85495196D01*
X138494505Y-85498796D01*
X138470001Y-85500000D01*
X137819999Y-85500000D01*
X137795495Y-85498796D01*
X137771227Y-85495196D01*
X137747428Y-85489235D01*
X137724329Y-85480970D01*
X137702150Y-85470480D01*
X137681107Y-85457868D01*
X137661401Y-85443253D01*
X137643223Y-85426777D01*
X137626747Y-85408599D01*
X137612132Y-85388893D01*
X137599520Y-85367850D01*
X137589030Y-85345671D01*
X137580765Y-85322572D01*
X137574804Y-85298773D01*
X137571204Y-85274505D01*
X137570000Y-85250001D01*
X137570000Y-84349999D01*
X137571204Y-84325495D01*
X137574804Y-84301227D01*
X137580765Y-84277428D01*
X137589030Y-84254329D01*
X137599520Y-84232150D01*
X137612132Y-84211107D01*
X137626747Y-84191401D01*
X137643223Y-84173223D01*
X137661401Y-84156747D01*
X137681107Y-84142132D01*
X137702150Y-84129520D01*
X137724329Y-84119030D01*
X137747428Y-84110765D01*
X137771227Y-84104804D01*
X137795495Y-84101204D01*
X137819999Y-84100000D01*
X138470001Y-84100000D01*
X138494505Y-84101204D01*
X138494505Y-84101204D01*
G37*
D12*
X138145000Y-84800000D03*
D11*
G36*
X140544505Y-82201204D02*
G01*
X140568773Y-82204804D01*
X140592572Y-82210765D01*
X140615671Y-82219030D01*
X140637850Y-82229520D01*
X140658893Y-82242132D01*
X140678599Y-82256747D01*
X140696777Y-82273223D01*
X140713253Y-82291401D01*
X140727868Y-82311107D01*
X140740480Y-82332150D01*
X140750970Y-82354329D01*
X140759235Y-82377428D01*
X140765196Y-82401227D01*
X140768796Y-82425495D01*
X140770000Y-82449999D01*
X140770000Y-83350001D01*
X140768796Y-83374505D01*
X140765196Y-83398773D01*
X140759235Y-83422572D01*
X140750970Y-83445671D01*
X140740480Y-83467850D01*
X140727868Y-83488893D01*
X140713253Y-83508599D01*
X140696777Y-83526777D01*
X140678599Y-83543253D01*
X140658893Y-83557868D01*
X140637850Y-83570480D01*
X140615671Y-83580970D01*
X140592572Y-83589235D01*
X140568773Y-83595196D01*
X140544505Y-83598796D01*
X140520001Y-83600000D01*
X139869999Y-83600000D01*
X139845495Y-83598796D01*
X139821227Y-83595196D01*
X139797428Y-83589235D01*
X139774329Y-83580970D01*
X139752150Y-83570480D01*
X139731107Y-83557868D01*
X139711401Y-83543253D01*
X139693223Y-83526777D01*
X139676747Y-83508599D01*
X139662132Y-83488893D01*
X139649520Y-83467850D01*
X139639030Y-83445671D01*
X139630765Y-83422572D01*
X139624804Y-83398773D01*
X139621204Y-83374505D01*
X139620000Y-83350001D01*
X139620000Y-82449999D01*
X139621204Y-82425495D01*
X139624804Y-82401227D01*
X139630765Y-82377428D01*
X139639030Y-82354329D01*
X139649520Y-82332150D01*
X139662132Y-82311107D01*
X139676747Y-82291401D01*
X139693223Y-82273223D01*
X139711401Y-82256747D01*
X139731107Y-82242132D01*
X139752150Y-82229520D01*
X139774329Y-82219030D01*
X139797428Y-82210765D01*
X139821227Y-82204804D01*
X139845495Y-82201204D01*
X139869999Y-82200000D01*
X140520001Y-82200000D01*
X140544505Y-82201204D01*
X140544505Y-82201204D01*
G37*
D12*
X140195000Y-82900000D03*
D11*
G36*
X138494505Y-82201204D02*
G01*
X138518773Y-82204804D01*
X138542572Y-82210765D01*
X138565671Y-82219030D01*
X138587850Y-82229520D01*
X138608893Y-82242132D01*
X138628599Y-82256747D01*
X138646777Y-82273223D01*
X138663253Y-82291401D01*
X138677868Y-82311107D01*
X138690480Y-82332150D01*
X138700970Y-82354329D01*
X138709235Y-82377428D01*
X138715196Y-82401227D01*
X138718796Y-82425495D01*
X138720000Y-82449999D01*
X138720000Y-83350001D01*
X138718796Y-83374505D01*
X138715196Y-83398773D01*
X138709235Y-83422572D01*
X138700970Y-83445671D01*
X138690480Y-83467850D01*
X138677868Y-83488893D01*
X138663253Y-83508599D01*
X138646777Y-83526777D01*
X138628599Y-83543253D01*
X138608893Y-83557868D01*
X138587850Y-83570480D01*
X138565671Y-83580970D01*
X138542572Y-83589235D01*
X138518773Y-83595196D01*
X138494505Y-83598796D01*
X138470001Y-83600000D01*
X137819999Y-83600000D01*
X137795495Y-83598796D01*
X137771227Y-83595196D01*
X137747428Y-83589235D01*
X137724329Y-83580970D01*
X137702150Y-83570480D01*
X137681107Y-83557868D01*
X137661401Y-83543253D01*
X137643223Y-83526777D01*
X137626747Y-83508599D01*
X137612132Y-83488893D01*
X137599520Y-83467850D01*
X137589030Y-83445671D01*
X137580765Y-83422572D01*
X137574804Y-83398773D01*
X137571204Y-83374505D01*
X137570000Y-83350001D01*
X137570000Y-82449999D01*
X137571204Y-82425495D01*
X137574804Y-82401227D01*
X137580765Y-82377428D01*
X137589030Y-82354329D01*
X137599520Y-82332150D01*
X137612132Y-82311107D01*
X137626747Y-82291401D01*
X137643223Y-82273223D01*
X137661401Y-82256747D01*
X137681107Y-82242132D01*
X137702150Y-82229520D01*
X137724329Y-82219030D01*
X137747428Y-82210765D01*
X137771227Y-82204804D01*
X137795495Y-82201204D01*
X137819999Y-82200000D01*
X138470001Y-82200000D01*
X138494505Y-82201204D01*
X138494505Y-82201204D01*
G37*
D12*
X138145000Y-82900000D03*
D11*
G36*
X155784505Y-87111204D02*
G01*
X155808773Y-87114804D01*
X155832572Y-87120765D01*
X155855671Y-87129030D01*
X155877850Y-87139520D01*
X155898893Y-87152132D01*
X155918599Y-87166747D01*
X155936777Y-87183223D01*
X155953253Y-87201401D01*
X155967868Y-87221107D01*
X155980480Y-87242150D01*
X155990970Y-87264329D01*
X155999235Y-87287428D01*
X156005196Y-87311227D01*
X156008796Y-87335495D01*
X156010000Y-87359999D01*
X156010000Y-88260001D01*
X156008796Y-88284505D01*
X156005196Y-88308773D01*
X155999235Y-88332572D01*
X155990970Y-88355671D01*
X155980480Y-88377850D01*
X155967868Y-88398893D01*
X155953253Y-88418599D01*
X155936777Y-88436777D01*
X155918599Y-88453253D01*
X155898893Y-88467868D01*
X155877850Y-88480480D01*
X155855671Y-88490970D01*
X155832572Y-88499235D01*
X155808773Y-88505196D01*
X155784505Y-88508796D01*
X155760001Y-88510000D01*
X155109999Y-88510000D01*
X155085495Y-88508796D01*
X155061227Y-88505196D01*
X155037428Y-88499235D01*
X155014329Y-88490970D01*
X154992150Y-88480480D01*
X154971107Y-88467868D01*
X154951401Y-88453253D01*
X154933223Y-88436777D01*
X154916747Y-88418599D01*
X154902132Y-88398893D01*
X154889520Y-88377850D01*
X154879030Y-88355671D01*
X154870765Y-88332572D01*
X154864804Y-88308773D01*
X154861204Y-88284505D01*
X154860000Y-88260001D01*
X154860000Y-87359999D01*
X154861204Y-87335495D01*
X154864804Y-87311227D01*
X154870765Y-87287428D01*
X154879030Y-87264329D01*
X154889520Y-87242150D01*
X154902132Y-87221107D01*
X154916747Y-87201401D01*
X154933223Y-87183223D01*
X154951401Y-87166747D01*
X154971107Y-87152132D01*
X154992150Y-87139520D01*
X155014329Y-87129030D01*
X155037428Y-87120765D01*
X155061227Y-87114804D01*
X155085495Y-87111204D01*
X155109999Y-87110000D01*
X155760001Y-87110000D01*
X155784505Y-87111204D01*
X155784505Y-87111204D01*
G37*
D12*
X155435000Y-87810000D03*
D11*
G36*
X157834505Y-87111204D02*
G01*
X157858773Y-87114804D01*
X157882572Y-87120765D01*
X157905671Y-87129030D01*
X157927850Y-87139520D01*
X157948893Y-87152132D01*
X157968599Y-87166747D01*
X157986777Y-87183223D01*
X158003253Y-87201401D01*
X158017868Y-87221107D01*
X158030480Y-87242150D01*
X158040970Y-87264329D01*
X158049235Y-87287428D01*
X158055196Y-87311227D01*
X158058796Y-87335495D01*
X158060000Y-87359999D01*
X158060000Y-88260001D01*
X158058796Y-88284505D01*
X158055196Y-88308773D01*
X158049235Y-88332572D01*
X158040970Y-88355671D01*
X158030480Y-88377850D01*
X158017868Y-88398893D01*
X158003253Y-88418599D01*
X157986777Y-88436777D01*
X157968599Y-88453253D01*
X157948893Y-88467868D01*
X157927850Y-88480480D01*
X157905671Y-88490970D01*
X157882572Y-88499235D01*
X157858773Y-88505196D01*
X157834505Y-88508796D01*
X157810001Y-88510000D01*
X157159999Y-88510000D01*
X157135495Y-88508796D01*
X157111227Y-88505196D01*
X157087428Y-88499235D01*
X157064329Y-88490970D01*
X157042150Y-88480480D01*
X157021107Y-88467868D01*
X157001401Y-88453253D01*
X156983223Y-88436777D01*
X156966747Y-88418599D01*
X156952132Y-88398893D01*
X156939520Y-88377850D01*
X156929030Y-88355671D01*
X156920765Y-88332572D01*
X156914804Y-88308773D01*
X156911204Y-88284505D01*
X156910000Y-88260001D01*
X156910000Y-87359999D01*
X156911204Y-87335495D01*
X156914804Y-87311227D01*
X156920765Y-87287428D01*
X156929030Y-87264329D01*
X156939520Y-87242150D01*
X156952132Y-87221107D01*
X156966747Y-87201401D01*
X156983223Y-87183223D01*
X157001401Y-87166747D01*
X157021107Y-87152132D01*
X157042150Y-87139520D01*
X157064329Y-87129030D01*
X157087428Y-87120765D01*
X157111227Y-87114804D01*
X157135495Y-87111204D01*
X157159999Y-87110000D01*
X157810001Y-87110000D01*
X157834505Y-87111204D01*
X157834505Y-87111204D01*
G37*
D12*
X157485000Y-87810000D03*
D13*
X151510000Y-87820000D03*
X153410000Y-87820000D03*
X152460000Y-89820000D03*
X152560000Y-80620000D03*
X151610000Y-82620000D03*
X153510000Y-82620000D03*
D11*
G36*
X155284505Y-75711204D02*
G01*
X155308773Y-75714804D01*
X155332572Y-75720765D01*
X155355671Y-75729030D01*
X155377850Y-75739520D01*
X155398893Y-75752132D01*
X155418599Y-75766747D01*
X155436777Y-75783223D01*
X155453253Y-75801401D01*
X155467868Y-75821107D01*
X155480480Y-75842150D01*
X155490970Y-75864329D01*
X155499235Y-75887428D01*
X155505196Y-75911227D01*
X155508796Y-75935495D01*
X155510000Y-75959999D01*
X155510000Y-76860001D01*
X155508796Y-76884505D01*
X155505196Y-76908773D01*
X155499235Y-76932572D01*
X155490970Y-76955671D01*
X155480480Y-76977850D01*
X155467868Y-76998893D01*
X155453253Y-77018599D01*
X155436777Y-77036777D01*
X155418599Y-77053253D01*
X155398893Y-77067868D01*
X155377850Y-77080480D01*
X155355671Y-77090970D01*
X155332572Y-77099235D01*
X155308773Y-77105196D01*
X155284505Y-77108796D01*
X155260001Y-77110000D01*
X154609999Y-77110000D01*
X154585495Y-77108796D01*
X154561227Y-77105196D01*
X154537428Y-77099235D01*
X154514329Y-77090970D01*
X154492150Y-77080480D01*
X154471107Y-77067868D01*
X154451401Y-77053253D01*
X154433223Y-77036777D01*
X154416747Y-77018599D01*
X154402132Y-76998893D01*
X154389520Y-76977850D01*
X154379030Y-76955671D01*
X154370765Y-76932572D01*
X154364804Y-76908773D01*
X154361204Y-76884505D01*
X154360000Y-76860001D01*
X154360000Y-75959999D01*
X154361204Y-75935495D01*
X154364804Y-75911227D01*
X154370765Y-75887428D01*
X154379030Y-75864329D01*
X154389520Y-75842150D01*
X154402132Y-75821107D01*
X154416747Y-75801401D01*
X154433223Y-75783223D01*
X154451401Y-75766747D01*
X154471107Y-75752132D01*
X154492150Y-75739520D01*
X154514329Y-75729030D01*
X154537428Y-75720765D01*
X154561227Y-75714804D01*
X154585495Y-75711204D01*
X154609999Y-75710000D01*
X155260001Y-75710000D01*
X155284505Y-75711204D01*
X155284505Y-75711204D01*
G37*
D12*
X154935000Y-76410000D03*
D11*
G36*
X157334505Y-75711204D02*
G01*
X157358773Y-75714804D01*
X157382572Y-75720765D01*
X157405671Y-75729030D01*
X157427850Y-75739520D01*
X157448893Y-75752132D01*
X157468599Y-75766747D01*
X157486777Y-75783223D01*
X157503253Y-75801401D01*
X157517868Y-75821107D01*
X157530480Y-75842150D01*
X157540970Y-75864329D01*
X157549235Y-75887428D01*
X157555196Y-75911227D01*
X157558796Y-75935495D01*
X157560000Y-75959999D01*
X157560000Y-76860001D01*
X157558796Y-76884505D01*
X157555196Y-76908773D01*
X157549235Y-76932572D01*
X157540970Y-76955671D01*
X157530480Y-76977850D01*
X157517868Y-76998893D01*
X157503253Y-77018599D01*
X157486777Y-77036777D01*
X157468599Y-77053253D01*
X157448893Y-77067868D01*
X157427850Y-77080480D01*
X157405671Y-77090970D01*
X157382572Y-77099235D01*
X157358773Y-77105196D01*
X157334505Y-77108796D01*
X157310001Y-77110000D01*
X156659999Y-77110000D01*
X156635495Y-77108796D01*
X156611227Y-77105196D01*
X156587428Y-77099235D01*
X156564329Y-77090970D01*
X156542150Y-77080480D01*
X156521107Y-77067868D01*
X156501401Y-77053253D01*
X156483223Y-77036777D01*
X156466747Y-77018599D01*
X156452132Y-76998893D01*
X156439520Y-76977850D01*
X156429030Y-76955671D01*
X156420765Y-76932572D01*
X156414804Y-76908773D01*
X156411204Y-76884505D01*
X156410000Y-76860001D01*
X156410000Y-75959999D01*
X156411204Y-75935495D01*
X156414804Y-75911227D01*
X156420765Y-75887428D01*
X156429030Y-75864329D01*
X156439520Y-75842150D01*
X156452132Y-75821107D01*
X156466747Y-75801401D01*
X156483223Y-75783223D01*
X156501401Y-75766747D01*
X156521107Y-75752132D01*
X156542150Y-75739520D01*
X156564329Y-75729030D01*
X156587428Y-75720765D01*
X156611227Y-75714804D01*
X156635495Y-75711204D01*
X156659999Y-75710000D01*
X157310001Y-75710000D01*
X157334505Y-75711204D01*
X157334505Y-75711204D01*
G37*
D12*
X156985000Y-76410000D03*
D11*
G36*
X135544505Y-77501204D02*
G01*
X135568773Y-77504804D01*
X135592572Y-77510765D01*
X135615671Y-77519030D01*
X135637850Y-77529520D01*
X135658893Y-77542132D01*
X135678599Y-77556747D01*
X135696777Y-77573223D01*
X135713253Y-77591401D01*
X135727868Y-77611107D01*
X135740480Y-77632150D01*
X135750970Y-77654329D01*
X135759235Y-77677428D01*
X135765196Y-77701227D01*
X135768796Y-77725495D01*
X135770000Y-77749999D01*
X135770000Y-78650001D01*
X135768796Y-78674505D01*
X135765196Y-78698773D01*
X135759235Y-78722572D01*
X135750970Y-78745671D01*
X135740480Y-78767850D01*
X135727868Y-78788893D01*
X135713253Y-78808599D01*
X135696777Y-78826777D01*
X135678599Y-78843253D01*
X135658893Y-78857868D01*
X135637850Y-78870480D01*
X135615671Y-78880970D01*
X135592572Y-78889235D01*
X135568773Y-78895196D01*
X135544505Y-78898796D01*
X135520001Y-78900000D01*
X134869999Y-78900000D01*
X134845495Y-78898796D01*
X134821227Y-78895196D01*
X134797428Y-78889235D01*
X134774329Y-78880970D01*
X134752150Y-78870480D01*
X134731107Y-78857868D01*
X134711401Y-78843253D01*
X134693223Y-78826777D01*
X134676747Y-78808599D01*
X134662132Y-78788893D01*
X134649520Y-78767850D01*
X134639030Y-78745671D01*
X134630765Y-78722572D01*
X134624804Y-78698773D01*
X134621204Y-78674505D01*
X134620000Y-78650001D01*
X134620000Y-77749999D01*
X134621204Y-77725495D01*
X134624804Y-77701227D01*
X134630765Y-77677428D01*
X134639030Y-77654329D01*
X134649520Y-77632150D01*
X134662132Y-77611107D01*
X134676747Y-77591401D01*
X134693223Y-77573223D01*
X134711401Y-77556747D01*
X134731107Y-77542132D01*
X134752150Y-77529520D01*
X134774329Y-77519030D01*
X134797428Y-77510765D01*
X134821227Y-77504804D01*
X134845495Y-77501204D01*
X134869999Y-77500000D01*
X135520001Y-77500000D01*
X135544505Y-77501204D01*
X135544505Y-77501204D01*
G37*
D12*
X135195000Y-78200000D03*
D11*
G36*
X133494505Y-77501204D02*
G01*
X133518773Y-77504804D01*
X133542572Y-77510765D01*
X133565671Y-77519030D01*
X133587850Y-77529520D01*
X133608893Y-77542132D01*
X133628599Y-77556747D01*
X133646777Y-77573223D01*
X133663253Y-77591401D01*
X133677868Y-77611107D01*
X133690480Y-77632150D01*
X133700970Y-77654329D01*
X133709235Y-77677428D01*
X133715196Y-77701227D01*
X133718796Y-77725495D01*
X133720000Y-77749999D01*
X133720000Y-78650001D01*
X133718796Y-78674505D01*
X133715196Y-78698773D01*
X133709235Y-78722572D01*
X133700970Y-78745671D01*
X133690480Y-78767850D01*
X133677868Y-78788893D01*
X133663253Y-78808599D01*
X133646777Y-78826777D01*
X133628599Y-78843253D01*
X133608893Y-78857868D01*
X133587850Y-78870480D01*
X133565671Y-78880970D01*
X133542572Y-78889235D01*
X133518773Y-78895196D01*
X133494505Y-78898796D01*
X133470001Y-78900000D01*
X132819999Y-78900000D01*
X132795495Y-78898796D01*
X132771227Y-78895196D01*
X132747428Y-78889235D01*
X132724329Y-78880970D01*
X132702150Y-78870480D01*
X132681107Y-78857868D01*
X132661401Y-78843253D01*
X132643223Y-78826777D01*
X132626747Y-78808599D01*
X132612132Y-78788893D01*
X132599520Y-78767850D01*
X132589030Y-78745671D01*
X132580765Y-78722572D01*
X132574804Y-78698773D01*
X132571204Y-78674505D01*
X132570000Y-78650001D01*
X132570000Y-77749999D01*
X132571204Y-77725495D01*
X132574804Y-77701227D01*
X132580765Y-77677428D01*
X132589030Y-77654329D01*
X132599520Y-77632150D01*
X132612132Y-77611107D01*
X132626747Y-77591401D01*
X132643223Y-77573223D01*
X132661401Y-77556747D01*
X132681107Y-77542132D01*
X132702150Y-77529520D01*
X132724329Y-77519030D01*
X132747428Y-77510765D01*
X132771227Y-77504804D01*
X132795495Y-77501204D01*
X132819999Y-77500000D01*
X133470001Y-77500000D01*
X133494505Y-77501204D01*
X133494505Y-77501204D01*
G37*
D12*
X133145000Y-78200000D03*
D11*
G36*
X157824505Y-77611204D02*
G01*
X157848773Y-77614804D01*
X157872572Y-77620765D01*
X157895671Y-77629030D01*
X157917850Y-77639520D01*
X157938893Y-77652132D01*
X157958599Y-77666747D01*
X157976777Y-77683223D01*
X157993253Y-77701401D01*
X158007868Y-77721107D01*
X158020480Y-77742150D01*
X158030970Y-77764329D01*
X158039235Y-77787428D01*
X158045196Y-77811227D01*
X158048796Y-77835495D01*
X158050000Y-77859999D01*
X158050000Y-78760001D01*
X158048796Y-78784505D01*
X158045196Y-78808773D01*
X158039235Y-78832572D01*
X158030970Y-78855671D01*
X158020480Y-78877850D01*
X158007868Y-78898893D01*
X157993253Y-78918599D01*
X157976777Y-78936777D01*
X157958599Y-78953253D01*
X157938893Y-78967868D01*
X157917850Y-78980480D01*
X157895671Y-78990970D01*
X157872572Y-78999235D01*
X157848773Y-79005196D01*
X157824505Y-79008796D01*
X157800001Y-79010000D01*
X157149999Y-79010000D01*
X157125495Y-79008796D01*
X157101227Y-79005196D01*
X157077428Y-78999235D01*
X157054329Y-78990970D01*
X157032150Y-78980480D01*
X157011107Y-78967868D01*
X156991401Y-78953253D01*
X156973223Y-78936777D01*
X156956747Y-78918599D01*
X156942132Y-78898893D01*
X156929520Y-78877850D01*
X156919030Y-78855671D01*
X156910765Y-78832572D01*
X156904804Y-78808773D01*
X156901204Y-78784505D01*
X156900000Y-78760001D01*
X156900000Y-77859999D01*
X156901204Y-77835495D01*
X156904804Y-77811227D01*
X156910765Y-77787428D01*
X156919030Y-77764329D01*
X156929520Y-77742150D01*
X156942132Y-77721107D01*
X156956747Y-77701401D01*
X156973223Y-77683223D01*
X156991401Y-77666747D01*
X157011107Y-77652132D01*
X157032150Y-77639520D01*
X157054329Y-77629030D01*
X157077428Y-77620765D01*
X157101227Y-77614804D01*
X157125495Y-77611204D01*
X157149999Y-77610000D01*
X157800001Y-77610000D01*
X157824505Y-77611204D01*
X157824505Y-77611204D01*
G37*
D12*
X157475000Y-78310000D03*
D11*
G36*
X155774505Y-77611204D02*
G01*
X155798773Y-77614804D01*
X155822572Y-77620765D01*
X155845671Y-77629030D01*
X155867850Y-77639520D01*
X155888893Y-77652132D01*
X155908599Y-77666747D01*
X155926777Y-77683223D01*
X155943253Y-77701401D01*
X155957868Y-77721107D01*
X155970480Y-77742150D01*
X155980970Y-77764329D01*
X155989235Y-77787428D01*
X155995196Y-77811227D01*
X155998796Y-77835495D01*
X156000000Y-77859999D01*
X156000000Y-78760001D01*
X155998796Y-78784505D01*
X155995196Y-78808773D01*
X155989235Y-78832572D01*
X155980970Y-78855671D01*
X155970480Y-78877850D01*
X155957868Y-78898893D01*
X155943253Y-78918599D01*
X155926777Y-78936777D01*
X155908599Y-78953253D01*
X155888893Y-78967868D01*
X155867850Y-78980480D01*
X155845671Y-78990970D01*
X155822572Y-78999235D01*
X155798773Y-79005196D01*
X155774505Y-79008796D01*
X155750001Y-79010000D01*
X155099999Y-79010000D01*
X155075495Y-79008796D01*
X155051227Y-79005196D01*
X155027428Y-78999235D01*
X155004329Y-78990970D01*
X154982150Y-78980480D01*
X154961107Y-78967868D01*
X154941401Y-78953253D01*
X154923223Y-78936777D01*
X154906747Y-78918599D01*
X154892132Y-78898893D01*
X154879520Y-78877850D01*
X154869030Y-78855671D01*
X154860765Y-78832572D01*
X154854804Y-78808773D01*
X154851204Y-78784505D01*
X154850000Y-78760001D01*
X154850000Y-77859999D01*
X154851204Y-77835495D01*
X154854804Y-77811227D01*
X154860765Y-77787428D01*
X154869030Y-77764329D01*
X154879520Y-77742150D01*
X154892132Y-77721107D01*
X154906747Y-77701401D01*
X154923223Y-77683223D01*
X154941401Y-77666747D01*
X154961107Y-77652132D01*
X154982150Y-77639520D01*
X155004329Y-77629030D01*
X155027428Y-77620765D01*
X155051227Y-77614804D01*
X155075495Y-77611204D01*
X155099999Y-77610000D01*
X155750001Y-77610000D01*
X155774505Y-77611204D01*
X155774505Y-77611204D01*
G37*
D12*
X155425000Y-78310000D03*
D11*
G36*
X157824505Y-79511204D02*
G01*
X157848773Y-79514804D01*
X157872572Y-79520765D01*
X157895671Y-79529030D01*
X157917850Y-79539520D01*
X157938893Y-79552132D01*
X157958599Y-79566747D01*
X157976777Y-79583223D01*
X157993253Y-79601401D01*
X158007868Y-79621107D01*
X158020480Y-79642150D01*
X158030970Y-79664329D01*
X158039235Y-79687428D01*
X158045196Y-79711227D01*
X158048796Y-79735495D01*
X158050000Y-79759999D01*
X158050000Y-80660001D01*
X158048796Y-80684505D01*
X158045196Y-80708773D01*
X158039235Y-80732572D01*
X158030970Y-80755671D01*
X158020480Y-80777850D01*
X158007868Y-80798893D01*
X157993253Y-80818599D01*
X157976777Y-80836777D01*
X157958599Y-80853253D01*
X157938893Y-80867868D01*
X157917850Y-80880480D01*
X157895671Y-80890970D01*
X157872572Y-80899235D01*
X157848773Y-80905196D01*
X157824505Y-80908796D01*
X157800001Y-80910000D01*
X157149999Y-80910000D01*
X157125495Y-80908796D01*
X157101227Y-80905196D01*
X157077428Y-80899235D01*
X157054329Y-80890970D01*
X157032150Y-80880480D01*
X157011107Y-80867868D01*
X156991401Y-80853253D01*
X156973223Y-80836777D01*
X156956747Y-80818599D01*
X156942132Y-80798893D01*
X156929520Y-80777850D01*
X156919030Y-80755671D01*
X156910765Y-80732572D01*
X156904804Y-80708773D01*
X156901204Y-80684505D01*
X156900000Y-80660001D01*
X156900000Y-79759999D01*
X156901204Y-79735495D01*
X156904804Y-79711227D01*
X156910765Y-79687428D01*
X156919030Y-79664329D01*
X156929520Y-79642150D01*
X156942132Y-79621107D01*
X156956747Y-79601401D01*
X156973223Y-79583223D01*
X156991401Y-79566747D01*
X157011107Y-79552132D01*
X157032150Y-79539520D01*
X157054329Y-79529030D01*
X157077428Y-79520765D01*
X157101227Y-79514804D01*
X157125495Y-79511204D01*
X157149999Y-79510000D01*
X157800001Y-79510000D01*
X157824505Y-79511204D01*
X157824505Y-79511204D01*
G37*
D12*
X157475000Y-80210000D03*
D11*
G36*
X155774505Y-79511204D02*
G01*
X155798773Y-79514804D01*
X155822572Y-79520765D01*
X155845671Y-79529030D01*
X155867850Y-79539520D01*
X155888893Y-79552132D01*
X155908599Y-79566747D01*
X155926777Y-79583223D01*
X155943253Y-79601401D01*
X155957868Y-79621107D01*
X155970480Y-79642150D01*
X155980970Y-79664329D01*
X155989235Y-79687428D01*
X155995196Y-79711227D01*
X155998796Y-79735495D01*
X156000000Y-79759999D01*
X156000000Y-80660001D01*
X155998796Y-80684505D01*
X155995196Y-80708773D01*
X155989235Y-80732572D01*
X155980970Y-80755671D01*
X155970480Y-80777850D01*
X155957868Y-80798893D01*
X155943253Y-80818599D01*
X155926777Y-80836777D01*
X155908599Y-80853253D01*
X155888893Y-80867868D01*
X155867850Y-80880480D01*
X155845671Y-80890970D01*
X155822572Y-80899235D01*
X155798773Y-80905196D01*
X155774505Y-80908796D01*
X155750001Y-80910000D01*
X155099999Y-80910000D01*
X155075495Y-80908796D01*
X155051227Y-80905196D01*
X155027428Y-80899235D01*
X155004329Y-80890970D01*
X154982150Y-80880480D01*
X154961107Y-80867868D01*
X154941401Y-80853253D01*
X154923223Y-80836777D01*
X154906747Y-80818599D01*
X154892132Y-80798893D01*
X154879520Y-80777850D01*
X154869030Y-80755671D01*
X154860765Y-80732572D01*
X154854804Y-80708773D01*
X154851204Y-80684505D01*
X154850000Y-80660001D01*
X154850000Y-79759999D01*
X154851204Y-79735495D01*
X154854804Y-79711227D01*
X154860765Y-79687428D01*
X154869030Y-79664329D01*
X154879520Y-79642150D01*
X154892132Y-79621107D01*
X154906747Y-79601401D01*
X154923223Y-79583223D01*
X154941401Y-79566747D01*
X154961107Y-79552132D01*
X154982150Y-79539520D01*
X155004329Y-79529030D01*
X155027428Y-79520765D01*
X155051227Y-79514804D01*
X155075495Y-79511204D01*
X155099999Y-79510000D01*
X155750001Y-79510000D01*
X155774505Y-79511204D01*
X155774505Y-79511204D01*
G37*
D12*
X155425000Y-80210000D03*
D11*
G36*
X135544505Y-87101204D02*
G01*
X135568773Y-87104804D01*
X135592572Y-87110765D01*
X135615671Y-87119030D01*
X135637850Y-87129520D01*
X135658893Y-87142132D01*
X135678599Y-87156747D01*
X135696777Y-87173223D01*
X135713253Y-87191401D01*
X135727868Y-87211107D01*
X135740480Y-87232150D01*
X135750970Y-87254329D01*
X135759235Y-87277428D01*
X135765196Y-87301227D01*
X135768796Y-87325495D01*
X135770000Y-87349999D01*
X135770000Y-88250001D01*
X135768796Y-88274505D01*
X135765196Y-88298773D01*
X135759235Y-88322572D01*
X135750970Y-88345671D01*
X135740480Y-88367850D01*
X135727868Y-88388893D01*
X135713253Y-88408599D01*
X135696777Y-88426777D01*
X135678599Y-88443253D01*
X135658893Y-88457868D01*
X135637850Y-88470480D01*
X135615671Y-88480970D01*
X135592572Y-88489235D01*
X135568773Y-88495196D01*
X135544505Y-88498796D01*
X135520001Y-88500000D01*
X134869999Y-88500000D01*
X134845495Y-88498796D01*
X134821227Y-88495196D01*
X134797428Y-88489235D01*
X134774329Y-88480970D01*
X134752150Y-88470480D01*
X134731107Y-88457868D01*
X134711401Y-88443253D01*
X134693223Y-88426777D01*
X134676747Y-88408599D01*
X134662132Y-88388893D01*
X134649520Y-88367850D01*
X134639030Y-88345671D01*
X134630765Y-88322572D01*
X134624804Y-88298773D01*
X134621204Y-88274505D01*
X134620000Y-88250001D01*
X134620000Y-87349999D01*
X134621204Y-87325495D01*
X134624804Y-87301227D01*
X134630765Y-87277428D01*
X134639030Y-87254329D01*
X134649520Y-87232150D01*
X134662132Y-87211107D01*
X134676747Y-87191401D01*
X134693223Y-87173223D01*
X134711401Y-87156747D01*
X134731107Y-87142132D01*
X134752150Y-87129520D01*
X134774329Y-87119030D01*
X134797428Y-87110765D01*
X134821227Y-87104804D01*
X134845495Y-87101204D01*
X134869999Y-87100000D01*
X135520001Y-87100000D01*
X135544505Y-87101204D01*
X135544505Y-87101204D01*
G37*
D12*
X135195000Y-87800000D03*
D11*
G36*
X133494505Y-87101204D02*
G01*
X133518773Y-87104804D01*
X133542572Y-87110765D01*
X133565671Y-87119030D01*
X133587850Y-87129520D01*
X133608893Y-87142132D01*
X133628599Y-87156747D01*
X133646777Y-87173223D01*
X133663253Y-87191401D01*
X133677868Y-87211107D01*
X133690480Y-87232150D01*
X133700970Y-87254329D01*
X133709235Y-87277428D01*
X133715196Y-87301227D01*
X133718796Y-87325495D01*
X133720000Y-87349999D01*
X133720000Y-88250001D01*
X133718796Y-88274505D01*
X133715196Y-88298773D01*
X133709235Y-88322572D01*
X133700970Y-88345671D01*
X133690480Y-88367850D01*
X133677868Y-88388893D01*
X133663253Y-88408599D01*
X133646777Y-88426777D01*
X133628599Y-88443253D01*
X133608893Y-88457868D01*
X133587850Y-88470480D01*
X133565671Y-88480970D01*
X133542572Y-88489235D01*
X133518773Y-88495196D01*
X133494505Y-88498796D01*
X133470001Y-88500000D01*
X132819999Y-88500000D01*
X132795495Y-88498796D01*
X132771227Y-88495196D01*
X132747428Y-88489235D01*
X132724329Y-88480970D01*
X132702150Y-88470480D01*
X132681107Y-88457868D01*
X132661401Y-88443253D01*
X132643223Y-88426777D01*
X132626747Y-88408599D01*
X132612132Y-88388893D01*
X132599520Y-88367850D01*
X132589030Y-88345671D01*
X132580765Y-88322572D01*
X132574804Y-88298773D01*
X132571204Y-88274505D01*
X132570000Y-88250001D01*
X132570000Y-87349999D01*
X132571204Y-87325495D01*
X132574804Y-87301227D01*
X132580765Y-87277428D01*
X132589030Y-87254329D01*
X132599520Y-87232150D01*
X132612132Y-87211107D01*
X132626747Y-87191401D01*
X132643223Y-87173223D01*
X132661401Y-87156747D01*
X132681107Y-87142132D01*
X132702150Y-87129520D01*
X132724329Y-87119030D01*
X132747428Y-87110765D01*
X132771227Y-87104804D01*
X132795495Y-87101204D01*
X132819999Y-87100000D01*
X133470001Y-87100000D01*
X133494505Y-87101204D01*
X133494505Y-87101204D01*
G37*
D12*
X133145000Y-87800000D03*
D14*
X148630000Y-80132500D03*
X148630000Y-80767500D03*
X148630000Y-81402500D03*
X148630000Y-82037500D03*
X148630000Y-82672500D03*
X148630000Y-83307500D03*
X148630000Y-83942500D03*
X148630000Y-84577500D03*
X148630000Y-85212500D03*
X148630000Y-85847500D03*
X143430000Y-85847500D03*
X143430000Y-85212500D03*
X143430000Y-84577500D03*
X143430000Y-83942500D03*
X143430000Y-83307500D03*
X143430000Y-82672500D03*
X143430000Y-82037500D03*
X143430000Y-81402500D03*
X143430000Y-80767500D03*
X143430000Y-80132500D03*
M02*
