G04 #@! TF.GenerationSoftware,KiCad,Pcbnew,(5.1.4)-1*
G04 #@! TF.CreationDate,2020-10-02T20:13:28+02:00*
G04 #@! TF.ProjectId,Long range deauther,4c6f6e67-2072-4616-9e67-652064656175,rev?*
G04 #@! TF.SameCoordinates,Original*
G04 #@! TF.FileFunction,Legend,Bot*
G04 #@! TF.FilePolarity,Positive*
%FSLAX46Y46*%
G04 Gerber Fmt 4.6, Leading zero omitted, Abs format (unit mm)*
G04 Created by KiCad (PCBNEW (5.1.4)-1) date 2020-10-02 20:13:28*
%MOMM*%
%LPD*%
G04 APERTURE LIST*
%ADD10C,0.120000*%
%ADD11C,0.010000*%
%ADD12C,0.150000*%
G04 APERTURE END LIST*
D10*
X138908748Y-89320000D02*
X139431252Y-89320000D01*
X138908748Y-87900000D02*
X139431252Y-87900000D01*
X134431252Y-86610000D02*
X133908748Y-86610000D01*
X134431252Y-85190000D02*
X133908748Y-85190000D01*
X133908748Y-80810000D02*
X134431252Y-80810000D01*
X133908748Y-79390000D02*
X134431252Y-79390000D01*
X137608748Y-77490000D02*
X138131252Y-77490000D01*
X137608748Y-78910000D02*
X138131252Y-78910000D01*
X138908748Y-86000000D02*
X139431252Y-86000000D01*
X138908748Y-87420000D02*
X139431252Y-87420000D01*
X134431252Y-82710000D02*
X133908748Y-82710000D01*
X134431252Y-81290000D02*
X133908748Y-81290000D01*
X133908748Y-84710000D02*
X134431252Y-84710000D01*
X133908748Y-83290000D02*
X134431252Y-83290000D01*
X152270000Y-85481252D02*
X152270000Y-84958748D01*
X150850000Y-85481252D02*
X150850000Y-84958748D01*
X154170000Y-84958748D02*
X154170000Y-85481252D01*
X152750000Y-84958748D02*
X152750000Y-85481252D01*
X156198748Y-81400000D02*
X156721252Y-81400000D01*
X156198748Y-82820000D02*
X156721252Y-82820000D01*
X156198748Y-90420000D02*
X156721252Y-90420000D01*
X156198748Y-89000000D02*
X156721252Y-89000000D01*
X156198748Y-85200000D02*
X156721252Y-85200000D01*
X156198748Y-86620000D02*
X156721252Y-86620000D01*
X156721252Y-83300000D02*
X156198748Y-83300000D01*
X156721252Y-84720000D02*
X156198748Y-84720000D01*
X139431252Y-84090000D02*
X138908748Y-84090000D01*
X139431252Y-85510000D02*
X138908748Y-85510000D01*
X139431252Y-82190000D02*
X138908748Y-82190000D01*
X139431252Y-83610000D02*
X138908748Y-83610000D01*
X156721252Y-88520000D02*
X156198748Y-88520000D01*
X156721252Y-87100000D02*
X156198748Y-87100000D01*
X154040000Y-89580000D02*
X153110000Y-89580000D01*
X150880000Y-89580000D02*
X151810000Y-89580000D01*
X150880000Y-89580000D02*
X150880000Y-87420000D01*
X154040000Y-89580000D02*
X154040000Y-88120000D01*
X150980000Y-80860000D02*
X150980000Y-82320000D01*
X154140000Y-80860000D02*
X154140000Y-83020000D01*
X154140000Y-80860000D02*
X153210000Y-80860000D01*
X150980000Y-80860000D02*
X151910000Y-80860000D01*
X155698748Y-77120000D02*
X156221252Y-77120000D01*
X155698748Y-75700000D02*
X156221252Y-75700000D01*
X134431252Y-77490000D02*
X133908748Y-77490000D01*
X134431252Y-78910000D02*
X133908748Y-78910000D01*
X156188748Y-77600000D02*
X156711252Y-77600000D01*
X156188748Y-79020000D02*
X156711252Y-79020000D01*
X156188748Y-79500000D02*
X156711252Y-79500000D01*
X156188748Y-80920000D02*
X156711252Y-80920000D01*
X134431252Y-87090000D02*
X133908748Y-87090000D01*
X134431252Y-88510000D02*
X133908748Y-88510000D01*
D11*
X151610000Y-76290000D02*
X151620000Y-78750000D01*
X151620000Y-78750000D02*
X153230000Y-78750000D01*
X153230000Y-78750000D02*
X153230000Y-76290000D01*
X153230000Y-76290000D02*
X151610000Y-76290000D01*
D12*
X148105000Y-79625000D02*
X148105000Y-78515000D01*
X143955000Y-78515000D02*
X143955000Y-79625000D01*
X143955000Y-87465000D02*
X143955000Y-86355000D01*
X148105000Y-87465000D02*
X148105000Y-86355000D01*
X148105000Y-78515000D02*
X143955000Y-78515000D01*
X148105000Y-87465000D02*
X143955000Y-87465000D01*
X148105000Y-79625000D02*
X149230000Y-79625000D01*
X139336666Y-90367142D02*
X139384285Y-90414761D01*
X139527142Y-90462380D01*
X139622380Y-90462380D01*
X139765238Y-90414761D01*
X139860476Y-90319523D01*
X139908095Y-90224285D01*
X139955714Y-90033809D01*
X139955714Y-89890952D01*
X139908095Y-89700476D01*
X139860476Y-89605238D01*
X139765238Y-89510000D01*
X139622380Y-89462380D01*
X139527142Y-89462380D01*
X139384285Y-89510000D01*
X139336666Y-89557619D01*
X138384285Y-90462380D02*
X138955714Y-90462380D01*
X138670000Y-90462380D02*
X138670000Y-89462380D01*
X138765238Y-89605238D01*
X138860476Y-89700476D01*
X138955714Y-89748095D01*
X136838986Y-86557122D02*
X136886605Y-86604741D01*
X137029462Y-86652360D01*
X137124700Y-86652360D01*
X137267558Y-86604741D01*
X137362796Y-86509503D01*
X137410415Y-86414265D01*
X137458034Y-86223789D01*
X137458034Y-86080932D01*
X137410415Y-85890456D01*
X137362796Y-85795218D01*
X137267558Y-85699980D01*
X137124700Y-85652360D01*
X137029462Y-85652360D01*
X136886605Y-85699980D01*
X136838986Y-85747599D01*
X136458034Y-85747599D02*
X136410415Y-85699980D01*
X136315177Y-85652360D01*
X136077081Y-85652360D01*
X135981843Y-85699980D01*
X135934224Y-85747599D01*
X135886605Y-85842837D01*
X135886605Y-85938075D01*
X135934224Y-86080932D01*
X136505653Y-86652360D01*
X135886605Y-86652360D01*
X137067586Y-80445882D02*
X137115205Y-80493501D01*
X137258062Y-80541120D01*
X137353300Y-80541120D01*
X137496158Y-80493501D01*
X137591396Y-80398263D01*
X137639015Y-80303025D01*
X137686634Y-80112549D01*
X137686634Y-79969692D01*
X137639015Y-79779216D01*
X137591396Y-79683978D01*
X137496158Y-79588740D01*
X137353300Y-79541120D01*
X137258062Y-79541120D01*
X137115205Y-79588740D01*
X137067586Y-79636359D01*
X136734253Y-79541120D02*
X136115205Y-79541120D01*
X136448539Y-79922073D01*
X136305681Y-79922073D01*
X136210443Y-79969692D01*
X136162824Y-80017311D01*
X136115205Y-80112549D01*
X136115205Y-80350644D01*
X136162824Y-80445882D01*
X136210443Y-80493501D01*
X136305681Y-80541120D01*
X136591396Y-80541120D01*
X136686634Y-80493501D01*
X136734253Y-80445882D01*
X140608346Y-78545962D02*
X140655965Y-78593581D01*
X140798822Y-78641200D01*
X140894060Y-78641200D01*
X141036918Y-78593581D01*
X141132156Y-78498343D01*
X141179775Y-78403105D01*
X141227394Y-78212629D01*
X141227394Y-78069772D01*
X141179775Y-77879296D01*
X141132156Y-77784058D01*
X141036918Y-77688820D01*
X140894060Y-77641200D01*
X140798822Y-77641200D01*
X140655965Y-77688820D01*
X140608346Y-77736439D01*
X139751203Y-77974534D02*
X139751203Y-78641200D01*
X139989299Y-77593581D02*
X140227394Y-78307867D01*
X139608346Y-78307867D01*
X141845326Y-87282280D02*
X142178660Y-86806090D01*
X142416755Y-87282280D02*
X142416755Y-86282280D01*
X142035802Y-86282280D01*
X141940564Y-86329900D01*
X141892945Y-86377519D01*
X141845326Y-86472757D01*
X141845326Y-86615614D01*
X141892945Y-86710852D01*
X141940564Y-86758471D01*
X142035802Y-86806090D01*
X142416755Y-86806090D01*
X140892945Y-87282280D02*
X141464374Y-87282280D01*
X141178660Y-87282280D02*
X141178660Y-86282280D01*
X141273898Y-86425138D01*
X141369136Y-86520376D01*
X141464374Y-86567995D01*
X136968526Y-82527400D02*
X137301860Y-82051210D01*
X137539955Y-82527400D02*
X137539955Y-81527400D01*
X137159002Y-81527400D01*
X137063764Y-81575020D01*
X137016145Y-81622639D01*
X136968526Y-81717877D01*
X136968526Y-81860734D01*
X137016145Y-81955972D01*
X137063764Y-82003591D01*
X137159002Y-82051210D01*
X137539955Y-82051210D01*
X136587574Y-81622639D02*
X136539955Y-81575020D01*
X136444717Y-81527400D01*
X136206621Y-81527400D01*
X136111383Y-81575020D01*
X136063764Y-81622639D01*
X136016145Y-81717877D01*
X136016145Y-81813115D01*
X136063764Y-81955972D01*
X136635193Y-82527400D01*
X136016145Y-82527400D01*
X136823746Y-84356200D02*
X137157080Y-83880010D01*
X137395175Y-84356200D02*
X137395175Y-83356200D01*
X137014222Y-83356200D01*
X136918984Y-83403820D01*
X136871365Y-83451439D01*
X136823746Y-83546677D01*
X136823746Y-83689534D01*
X136871365Y-83784772D01*
X136918984Y-83832391D01*
X137014222Y-83880010D01*
X137395175Y-83880010D01*
X136490413Y-83356200D02*
X135871365Y-83356200D01*
X136204699Y-83737153D01*
X136061841Y-83737153D01*
X135966603Y-83784772D01*
X135918984Y-83832391D01*
X135871365Y-83927629D01*
X135871365Y-84165724D01*
X135918984Y-84260962D01*
X135966603Y-84308581D01*
X136061841Y-84356200D01*
X136347556Y-84356200D01*
X136442794Y-84308581D01*
X136490413Y-84260962D01*
X150525740Y-84199433D02*
X150049550Y-83866100D01*
X150525740Y-83628004D02*
X149525740Y-83628004D01*
X149525740Y-84008957D01*
X149573360Y-84104195D01*
X149620979Y-84151814D01*
X149716217Y-84199433D01*
X149859074Y-84199433D01*
X149954312Y-84151814D01*
X150001931Y-84104195D01*
X150049550Y-84008957D01*
X150049550Y-83628004D01*
X149859074Y-85056576D02*
X150525740Y-85056576D01*
X149478121Y-84818480D02*
X150192407Y-84580385D01*
X150192407Y-85199433D01*
X150525740Y-86056173D02*
X150049550Y-85722840D01*
X150525740Y-85484744D02*
X149525740Y-85484744D01*
X149525740Y-85865697D01*
X149573360Y-85960935D01*
X149620979Y-86008554D01*
X149716217Y-86056173D01*
X149859074Y-86056173D01*
X149954312Y-86008554D01*
X150001931Y-85960935D01*
X150049550Y-85865697D01*
X150049550Y-85484744D01*
X149525740Y-86960935D02*
X149525740Y-86484744D01*
X150001931Y-86437125D01*
X149954312Y-86484744D01*
X149906693Y-86579982D01*
X149906693Y-86818078D01*
X149954312Y-86913316D01*
X150001931Y-86960935D01*
X150097169Y-87008554D01*
X150335264Y-87008554D01*
X150430502Y-86960935D01*
X150478121Y-86913316D01*
X150525740Y-86818078D01*
X150525740Y-86579982D01*
X150478121Y-86484744D01*
X150430502Y-86437125D01*
X159358626Y-82481680D02*
X159691960Y-82005490D01*
X159930055Y-82481680D02*
X159930055Y-81481680D01*
X159549102Y-81481680D01*
X159453864Y-81529300D01*
X159406245Y-81576919D01*
X159358626Y-81672157D01*
X159358626Y-81815014D01*
X159406245Y-81910252D01*
X159453864Y-81957871D01*
X159549102Y-82005490D01*
X159930055Y-82005490D01*
X158501483Y-81481680D02*
X158691960Y-81481680D01*
X158787198Y-81529300D01*
X158834817Y-81576919D01*
X158930055Y-81719776D01*
X158977674Y-81910252D01*
X158977674Y-82291204D01*
X158930055Y-82386442D01*
X158882436Y-82434061D01*
X158787198Y-82481680D01*
X158596721Y-82481680D01*
X158501483Y-82434061D01*
X158453864Y-82386442D01*
X158406245Y-82291204D01*
X158406245Y-82053109D01*
X158453864Y-81957871D01*
X158501483Y-81910252D01*
X158596721Y-81862633D01*
X158787198Y-81862633D01*
X158882436Y-81910252D01*
X158930055Y-81957871D01*
X158977674Y-82053109D01*
X159462766Y-90302340D02*
X159796100Y-89826150D01*
X160034195Y-90302340D02*
X160034195Y-89302340D01*
X159653242Y-89302340D01*
X159558004Y-89349960D01*
X159510385Y-89397579D01*
X159462766Y-89492817D01*
X159462766Y-89635674D01*
X159510385Y-89730912D01*
X159558004Y-89778531D01*
X159653242Y-89826150D01*
X160034195Y-89826150D01*
X159129433Y-89302340D02*
X158462766Y-89302340D01*
X158891338Y-90302340D01*
X159376406Y-86286600D02*
X159709740Y-85810410D01*
X159947835Y-86286600D02*
X159947835Y-85286600D01*
X159566882Y-85286600D01*
X159471644Y-85334220D01*
X159424025Y-85381839D01*
X159376406Y-85477077D01*
X159376406Y-85619934D01*
X159424025Y-85715172D01*
X159471644Y-85762791D01*
X159566882Y-85810410D01*
X159947835Y-85810410D01*
X158804978Y-85715172D02*
X158900216Y-85667553D01*
X158947835Y-85619934D01*
X158995454Y-85524696D01*
X158995454Y-85477077D01*
X158947835Y-85381839D01*
X158900216Y-85334220D01*
X158804978Y-85286600D01*
X158614501Y-85286600D01*
X158519263Y-85334220D01*
X158471644Y-85381839D01*
X158424025Y-85477077D01*
X158424025Y-85524696D01*
X158471644Y-85619934D01*
X158519263Y-85667553D01*
X158614501Y-85715172D01*
X158804978Y-85715172D01*
X158900216Y-85762791D01*
X158947835Y-85810410D01*
X158995454Y-85905648D01*
X158995454Y-86096124D01*
X158947835Y-86191362D01*
X158900216Y-86238981D01*
X158804978Y-86286600D01*
X158614501Y-86286600D01*
X158519263Y-86238981D01*
X158471644Y-86191362D01*
X158424025Y-86096124D01*
X158424025Y-85905648D01*
X158471644Y-85810410D01*
X158519263Y-85762791D01*
X158614501Y-85715172D01*
X159396726Y-84559400D02*
X159730060Y-84083210D01*
X159968155Y-84559400D02*
X159968155Y-83559400D01*
X159587202Y-83559400D01*
X159491964Y-83607020D01*
X159444345Y-83654639D01*
X159396726Y-83749877D01*
X159396726Y-83892734D01*
X159444345Y-83987972D01*
X159491964Y-84035591D01*
X159587202Y-84083210D01*
X159968155Y-84083210D01*
X158920536Y-84559400D02*
X158730060Y-84559400D01*
X158634821Y-84511781D01*
X158587202Y-84464162D01*
X158491964Y-84321305D01*
X158444345Y-84130829D01*
X158444345Y-83749877D01*
X158491964Y-83654639D01*
X158539583Y-83607020D01*
X158634821Y-83559400D01*
X158825298Y-83559400D01*
X158920536Y-83607020D01*
X158968155Y-83654639D01*
X159015774Y-83749877D01*
X159015774Y-83987972D01*
X158968155Y-84083210D01*
X158920536Y-84130829D01*
X158825298Y-84178448D01*
X158634821Y-84178448D01*
X158539583Y-84130829D01*
X158491964Y-84083210D01*
X158444345Y-83987972D01*
X141015459Y-85148657D02*
X141491649Y-85481990D01*
X141015459Y-85720085D02*
X142015459Y-85720085D01*
X142015459Y-85339133D01*
X141967840Y-85243895D01*
X141920220Y-85196276D01*
X141824982Y-85148657D01*
X141682125Y-85148657D01*
X141586887Y-85196276D01*
X141539268Y-85243895D01*
X141491649Y-85339133D01*
X141491649Y-85720085D01*
X141015459Y-84196276D02*
X141015459Y-84767704D01*
X141015459Y-84481990D02*
X142015459Y-84481990D01*
X141872601Y-84577228D01*
X141777363Y-84672466D01*
X141729744Y-84767704D01*
X142015459Y-83577228D02*
X142015459Y-83481990D01*
X141967840Y-83386752D01*
X141920220Y-83339133D01*
X141824982Y-83291514D01*
X141634506Y-83243895D01*
X141396411Y-83243895D01*
X141205935Y-83291514D01*
X141110697Y-83339133D01*
X141063078Y-83386752D01*
X141015459Y-83481990D01*
X141015459Y-83577228D01*
X141063078Y-83672466D01*
X141110697Y-83720085D01*
X141205935Y-83767704D01*
X141396411Y-83815323D01*
X141634506Y-83815323D01*
X141824982Y-83767704D01*
X141920220Y-83720085D01*
X141967840Y-83672466D01*
X142015459Y-83577228D01*
X139812857Y-82002380D02*
X140146190Y-81526190D01*
X140384285Y-82002380D02*
X140384285Y-81002380D01*
X140003333Y-81002380D01*
X139908095Y-81050000D01*
X139860476Y-81097619D01*
X139812857Y-81192857D01*
X139812857Y-81335714D01*
X139860476Y-81430952D01*
X139908095Y-81478571D01*
X140003333Y-81526190D01*
X140384285Y-81526190D01*
X138860476Y-82002380D02*
X139431904Y-82002380D01*
X139146190Y-82002380D02*
X139146190Y-81002380D01*
X139241428Y-81145238D01*
X139336666Y-81240476D01*
X139431904Y-81288095D01*
X137908095Y-82002380D02*
X138479523Y-82002380D01*
X138193809Y-82002380D02*
X138193809Y-81002380D01*
X138289047Y-81145238D01*
X138384285Y-81240476D01*
X138479523Y-81288095D01*
X160411397Y-88262380D02*
X160744730Y-87786190D01*
X160982825Y-88262380D02*
X160982825Y-87262380D01*
X160601873Y-87262380D01*
X160506635Y-87310000D01*
X160459016Y-87357619D01*
X160411397Y-87452857D01*
X160411397Y-87595714D01*
X160459016Y-87690952D01*
X160506635Y-87738571D01*
X160601873Y-87786190D01*
X160982825Y-87786190D01*
X159459016Y-88262380D02*
X160030444Y-88262380D01*
X159744730Y-88262380D02*
X159744730Y-87262380D01*
X159839968Y-87405238D01*
X159935206Y-87500476D01*
X160030444Y-87548095D01*
X159078063Y-87357619D02*
X159030444Y-87310000D01*
X158935206Y-87262380D01*
X158697111Y-87262380D01*
X158601873Y-87310000D01*
X158554254Y-87357619D01*
X158506635Y-87452857D01*
X158506635Y-87548095D01*
X158554254Y-87690952D01*
X159125682Y-88262380D01*
X158506635Y-88262380D01*
X150534619Y-89089241D02*
X150487000Y-88994003D01*
X150391761Y-88898765D01*
X150248904Y-88755908D01*
X150201285Y-88660670D01*
X150201285Y-88565432D01*
X150439380Y-88613051D02*
X150391761Y-88517813D01*
X150296523Y-88422575D01*
X150106047Y-88374956D01*
X149772714Y-88374956D01*
X149582238Y-88422575D01*
X149487000Y-88517813D01*
X149439380Y-88613051D01*
X149439380Y-88803527D01*
X149487000Y-88898765D01*
X149582238Y-88994003D01*
X149772714Y-89041622D01*
X150106047Y-89041622D01*
X150296523Y-88994003D01*
X150391761Y-88898765D01*
X150439380Y-88803527D01*
X150439380Y-88613051D01*
X150439380Y-89994003D02*
X150439380Y-89422575D01*
X150439380Y-89708289D02*
X149439380Y-89708289D01*
X149582238Y-89613051D01*
X149677476Y-89517813D01*
X149725095Y-89422575D01*
X150791159Y-81415901D02*
X150743540Y-81320663D01*
X150648301Y-81225425D01*
X150505444Y-81082568D01*
X150457825Y-80987330D01*
X150457825Y-80892092D01*
X150695920Y-80939711D02*
X150648301Y-80844473D01*
X150553063Y-80749235D01*
X150362587Y-80701616D01*
X150029254Y-80701616D01*
X149838778Y-80749235D01*
X149743540Y-80844473D01*
X149695920Y-80939711D01*
X149695920Y-81130187D01*
X149743540Y-81225425D01*
X149838778Y-81320663D01*
X150029254Y-81368282D01*
X150362587Y-81368282D01*
X150553063Y-81320663D01*
X150648301Y-81225425D01*
X150695920Y-81130187D01*
X150695920Y-80939711D01*
X149791159Y-81749235D02*
X149743540Y-81796854D01*
X149695920Y-81892092D01*
X149695920Y-82130187D01*
X149743540Y-82225425D01*
X149791159Y-82273044D01*
X149886397Y-82320663D01*
X149981635Y-82320663D01*
X150124492Y-82273044D01*
X150695920Y-81701616D01*
X150695920Y-82320663D01*
X159455146Y-76948302D02*
X159502765Y-76995921D01*
X159645622Y-77043540D01*
X159740860Y-77043540D01*
X159883718Y-76995921D01*
X159978956Y-76900683D01*
X160026575Y-76805445D01*
X160074194Y-76614969D01*
X160074194Y-76472112D01*
X160026575Y-76281636D01*
X159978956Y-76186398D01*
X159883718Y-76091160D01*
X159740860Y-76043540D01*
X159645622Y-76043540D01*
X159502765Y-76091160D01*
X159455146Y-76138779D01*
X158550384Y-76043540D02*
X159026575Y-76043540D01*
X159074194Y-76519731D01*
X159026575Y-76472112D01*
X158931337Y-76424493D01*
X158693241Y-76424493D01*
X158598003Y-76472112D01*
X158550384Y-76519731D01*
X158502765Y-76614969D01*
X158502765Y-76853064D01*
X158550384Y-76948302D01*
X158598003Y-76995921D01*
X158693241Y-77043540D01*
X158931337Y-77043540D01*
X159026575Y-76995921D01*
X159074194Y-76948302D01*
X134336666Y-76907142D02*
X134384285Y-76954761D01*
X134527142Y-77002380D01*
X134622380Y-77002380D01*
X134765238Y-76954761D01*
X134860476Y-76859523D01*
X134908095Y-76764285D01*
X134955714Y-76573809D01*
X134955714Y-76430952D01*
X134908095Y-76240476D01*
X134860476Y-76145238D01*
X134765238Y-76050000D01*
X134622380Y-76002380D01*
X134527142Y-76002380D01*
X134384285Y-76050000D01*
X134336666Y-76097619D01*
X133479523Y-76002380D02*
X133670000Y-76002380D01*
X133765238Y-76050000D01*
X133812857Y-76097619D01*
X133908095Y-76240476D01*
X133955714Y-76430952D01*
X133955714Y-76811904D01*
X133908095Y-76907142D01*
X133860476Y-76954761D01*
X133765238Y-77002380D01*
X133574761Y-77002380D01*
X133479523Y-76954761D01*
X133431904Y-76907142D01*
X133384285Y-76811904D01*
X133384285Y-76573809D01*
X133431904Y-76478571D01*
X133479523Y-76430952D01*
X133574761Y-76383333D01*
X133765238Y-76383333D01*
X133860476Y-76430952D01*
X133908095Y-76478571D01*
X133955714Y-76573809D01*
X159432286Y-78693282D02*
X159479905Y-78740901D01*
X159622762Y-78788520D01*
X159718000Y-78788520D01*
X159860858Y-78740901D01*
X159956096Y-78645663D01*
X160003715Y-78550425D01*
X160051334Y-78359949D01*
X160051334Y-78217092D01*
X160003715Y-78026616D01*
X159956096Y-77931378D01*
X159860858Y-77836140D01*
X159718000Y-77788520D01*
X159622762Y-77788520D01*
X159479905Y-77836140D01*
X159432286Y-77883759D01*
X159098953Y-77788520D02*
X158432286Y-77788520D01*
X158860858Y-78788520D01*
X159340846Y-80552562D02*
X159388465Y-80600181D01*
X159531322Y-80647800D01*
X159626560Y-80647800D01*
X159769418Y-80600181D01*
X159864656Y-80504943D01*
X159912275Y-80409705D01*
X159959894Y-80219229D01*
X159959894Y-80076372D01*
X159912275Y-79885896D01*
X159864656Y-79790658D01*
X159769418Y-79695420D01*
X159626560Y-79647800D01*
X159531322Y-79647800D01*
X159388465Y-79695420D01*
X159340846Y-79743039D01*
X158769418Y-80076372D02*
X158864656Y-80028753D01*
X158912275Y-79981134D01*
X158959894Y-79885896D01*
X158959894Y-79838277D01*
X158912275Y-79743039D01*
X158864656Y-79695420D01*
X158769418Y-79647800D01*
X158578941Y-79647800D01*
X158483703Y-79695420D01*
X158436084Y-79743039D01*
X158388465Y-79838277D01*
X158388465Y-79885896D01*
X158436084Y-79981134D01*
X158483703Y-80028753D01*
X158578941Y-80076372D01*
X158769418Y-80076372D01*
X158864656Y-80123991D01*
X158912275Y-80171610D01*
X158959894Y-80266848D01*
X158959894Y-80457324D01*
X158912275Y-80552562D01*
X158864656Y-80600181D01*
X158769418Y-80647800D01*
X158578941Y-80647800D01*
X158483703Y-80600181D01*
X158436084Y-80552562D01*
X158388465Y-80457324D01*
X158388465Y-80266848D01*
X158436084Y-80171610D01*
X158483703Y-80123991D01*
X158578941Y-80076372D01*
X133266393Y-89473731D02*
X133599726Y-89473731D01*
X133599726Y-89997540D02*
X133599726Y-88997540D01*
X133123536Y-88997540D01*
X132409250Y-89473731D02*
X132266393Y-89521350D01*
X132218774Y-89568969D01*
X132171155Y-89664207D01*
X132171155Y-89807064D01*
X132218774Y-89902302D01*
X132266393Y-89949921D01*
X132361631Y-89997540D01*
X132742583Y-89997540D01*
X132742583Y-88997540D01*
X132409250Y-88997540D01*
X132314012Y-89045160D01*
X132266393Y-89092779D01*
X132218774Y-89188017D01*
X132218774Y-89283255D01*
X132266393Y-89378493D01*
X132314012Y-89426112D01*
X132409250Y-89473731D01*
X132742583Y-89473731D01*
X131218774Y-89997540D02*
X131790202Y-89997540D01*
X131504488Y-89997540D02*
X131504488Y-88997540D01*
X131599726Y-89140398D01*
X131694964Y-89235636D01*
X131790202Y-89283255D01*
X152831704Y-75078340D02*
X152831704Y-75887864D01*
X152784085Y-75983102D01*
X152736466Y-76030721D01*
X152641228Y-76078340D01*
X152450752Y-76078340D01*
X152355514Y-76030721D01*
X152307895Y-75983102D01*
X152260276Y-75887864D01*
X152260276Y-75078340D01*
X151260276Y-76078340D02*
X151831704Y-76078340D01*
X151545990Y-76078340D02*
X151545990Y-75078340D01*
X151641228Y-75221198D01*
X151736466Y-75316436D01*
X151831704Y-75364055D01*
X146791904Y-77042380D02*
X146791904Y-77851904D01*
X146744285Y-77947142D01*
X146696666Y-77994761D01*
X146601428Y-78042380D01*
X146410952Y-78042380D01*
X146315714Y-77994761D01*
X146268095Y-77947142D01*
X146220476Y-77851904D01*
X146220476Y-77042380D01*
X145791904Y-77137619D02*
X145744285Y-77090000D01*
X145649047Y-77042380D01*
X145410952Y-77042380D01*
X145315714Y-77090000D01*
X145268095Y-77137619D01*
X145220476Y-77232857D01*
X145220476Y-77328095D01*
X145268095Y-77470952D01*
X145839523Y-78042380D01*
X145220476Y-78042380D01*
M02*
