M48
; DRILL file {KiCad (5.1.4)-1} date 10/17/2020 2:20:42 PM
; FORMAT={-:-/ absolute / inch / decimal}
; #@! TF.CreationDate,2020-10-17T14:20:42+02:00
; #@! TF.GenerationSoftware,Kicad,Pcbnew,(5.1.4)-1
FMAT,2
INCH
T1C0.0157
T2C0.0354
T3C0.0591
T4C0.0276
T5C0.0433
%
G90
G05
T1
X5.0772Y-3.2453
X5.0772Y-3.2867
X5.1796Y-3.0542
X5.1842Y-3.4784
X5.3676Y-3.4156
X5.3843Y-3.3374
X5.3866Y-3.252
X5.3956Y-3.1442
X5.4958Y-3.5414
X5.5586Y-3.0523
X5.5622Y-3.2024
X5.5628Y-3.3449
X5.5709Y-3.4764
X5.578Y-2.9949
X5.5905Y-3.3834
X5.6093Y-3.5091
X5.611Y-3.448
X5.6449Y-3.1178
X5.6878Y-3.1299
X5.6938Y-3.3916
X5.7177Y-3.4234
X5.7209Y-3.3622
X5.7402Y-3.1119
X5.754Y-3.471
X5.7966Y-3.3476
X5.8012Y-3.074
X5.877Y-3.1112
X5.8933Y-3.4157
X5.8953Y-3.474
X5.8974Y-3.0776
X5.9004Y-3.2961
X5.9055Y-2.9854
X5.9115Y-3.2584
X5.9152Y-3.1531
X5.9547Y-3.128
X5.9693Y-3.5024
X6.0335Y-2.978
X6.037Y-3.049
X6.0378Y-3.4988
X6.0524Y-3.1811
X6.0587Y-3.5354
X6.0744Y-3.1358
X6.2283Y-3.0102
X6.2449Y-3.4189
X6.2457Y-3.2669
X6.2457Y-3.4949
T3
X6.3565Y-3.1683
X6.3565Y-3.3683
X6.5565Y-3.1683
X6.5565Y-3.3683
T4
X5.2795Y-3.5122
X5.3465Y-3.5122
X5.2795Y-3.0224
X5.3465Y-3.0224
T5
X5.0623Y-3.1754
X5.0623Y-3.3566
T2
G00X5.0937Y-3.0416
M15
G01X5.0308Y-3.0416
M16
G05
G00X5.0937Y-3.4904
M15
G01X5.0308Y-3.4904
M16
G05
T0
M30
