G04 #@! TF.GenerationSoftware,KiCad,Pcbnew,(5.1.4)-1*
G04 #@! TF.CreationDate,2020-08-19T16:22:55+02:00*
G04 #@! TF.ProjectId,Long range deauther,4c6f6e67-2072-4616-9e67-652064656175,rev?*
G04 #@! TF.SameCoordinates,Original*
G04 #@! TF.FileFunction,Soldermask,Bot*
G04 #@! TF.FilePolarity,Negative*
%FSLAX46Y46*%
G04 Gerber Fmt 4.6, Leading zero omitted, Abs format (unit mm)*
G04 Created by KiCad (PCBNEW (5.1.4)-1) date 2020-08-19 16:22:55*
%MOMM*%
%LPD*%
G04 APERTURE LIST*
%ADD10C,0.100000*%
G04 APERTURE END LIST*
D10*
G36*
X138438674Y-88253465D02*
G01*
X138476367Y-88264899D01*
X138511103Y-88283466D01*
X138541548Y-88308452D01*
X138566534Y-88338897D01*
X138585101Y-88373633D01*
X138596535Y-88411326D01*
X138601000Y-88456661D01*
X138601000Y-89543339D01*
X138596535Y-89588674D01*
X138585101Y-89626367D01*
X138566534Y-89661103D01*
X138541548Y-89691548D01*
X138511103Y-89716534D01*
X138476367Y-89735101D01*
X138438674Y-89746535D01*
X138393339Y-89751000D01*
X137556661Y-89751000D01*
X137511326Y-89746535D01*
X137473633Y-89735101D01*
X137438897Y-89716534D01*
X137408452Y-89691548D01*
X137383466Y-89661103D01*
X137364899Y-89626367D01*
X137353465Y-89588674D01*
X137349000Y-89543339D01*
X137349000Y-88456661D01*
X137353465Y-88411326D01*
X137364899Y-88373633D01*
X137383466Y-88338897D01*
X137408452Y-88308452D01*
X137438897Y-88283466D01*
X137473633Y-88264899D01*
X137511326Y-88253465D01*
X137556661Y-88249000D01*
X138393339Y-88249000D01*
X138438674Y-88253465D01*
X138438674Y-88253465D01*
G37*
G36*
X144488674Y-88253465D02*
G01*
X144526367Y-88264899D01*
X144561103Y-88283466D01*
X144591548Y-88308452D01*
X144616534Y-88338897D01*
X144635101Y-88373633D01*
X144646535Y-88411326D01*
X144651000Y-88456661D01*
X144651000Y-89543339D01*
X144646535Y-89588674D01*
X144635101Y-89626367D01*
X144616534Y-89661103D01*
X144591548Y-89691548D01*
X144561103Y-89716534D01*
X144526367Y-89735101D01*
X144488674Y-89746535D01*
X144443339Y-89751000D01*
X143606661Y-89751000D01*
X143561326Y-89746535D01*
X143523633Y-89735101D01*
X143488897Y-89716534D01*
X143458452Y-89691548D01*
X143433466Y-89661103D01*
X143414899Y-89626367D01*
X143403465Y-89588674D01*
X143399000Y-89543339D01*
X143399000Y-88456661D01*
X143403465Y-88411326D01*
X143414899Y-88373633D01*
X143433466Y-88338897D01*
X143458452Y-88308452D01*
X143488897Y-88283466D01*
X143523633Y-88264899D01*
X143561326Y-88253465D01*
X143606661Y-88249000D01*
X144443339Y-88249000D01*
X144488674Y-88253465D01*
X144488674Y-88253465D01*
G37*
G36*
X142438674Y-88253465D02*
G01*
X142476367Y-88264899D01*
X142511103Y-88283466D01*
X142541548Y-88308452D01*
X142566534Y-88338897D01*
X142585101Y-88373633D01*
X142596535Y-88411326D01*
X142601000Y-88456661D01*
X142601000Y-89543339D01*
X142596535Y-89588674D01*
X142585101Y-89626367D01*
X142566534Y-89661103D01*
X142541548Y-89691548D01*
X142511103Y-89716534D01*
X142476367Y-89735101D01*
X142438674Y-89746535D01*
X142393339Y-89751000D01*
X141556661Y-89751000D01*
X141511326Y-89746535D01*
X141473633Y-89735101D01*
X141438897Y-89716534D01*
X141408452Y-89691548D01*
X141383466Y-89661103D01*
X141364899Y-89626367D01*
X141353465Y-89588674D01*
X141349000Y-89543339D01*
X141349000Y-88456661D01*
X141353465Y-88411326D01*
X141364899Y-88373633D01*
X141383466Y-88338897D01*
X141408452Y-88308452D01*
X141438897Y-88283466D01*
X141473633Y-88264899D01*
X141511326Y-88253465D01*
X141556661Y-88249000D01*
X142393339Y-88249000D01*
X142438674Y-88253465D01*
X142438674Y-88253465D01*
G37*
G36*
X136488674Y-88253465D02*
G01*
X136526367Y-88264899D01*
X136561103Y-88283466D01*
X136591548Y-88308452D01*
X136616534Y-88338897D01*
X136635101Y-88373633D01*
X136646535Y-88411326D01*
X136651000Y-88456661D01*
X136651000Y-89543339D01*
X136646535Y-89588674D01*
X136635101Y-89626367D01*
X136616534Y-89661103D01*
X136591548Y-89691548D01*
X136561103Y-89716534D01*
X136526367Y-89735101D01*
X136488674Y-89746535D01*
X136443339Y-89751000D01*
X135606661Y-89751000D01*
X135561326Y-89746535D01*
X135523633Y-89735101D01*
X135488897Y-89716534D01*
X135458452Y-89691548D01*
X135433466Y-89661103D01*
X135414899Y-89626367D01*
X135403465Y-89588674D01*
X135399000Y-89543339D01*
X135399000Y-88456661D01*
X135403465Y-88411326D01*
X135414899Y-88373633D01*
X135433466Y-88338897D01*
X135458452Y-88308452D01*
X135488897Y-88283466D01*
X135523633Y-88264899D01*
X135561326Y-88253465D01*
X135606661Y-88249000D01*
X136443339Y-88249000D01*
X136488674Y-88253465D01*
X136488674Y-88253465D01*
G37*
G36*
X140488674Y-88253465D02*
G01*
X140526367Y-88264899D01*
X140561103Y-88283466D01*
X140591548Y-88308452D01*
X140616534Y-88338897D01*
X140635101Y-88373633D01*
X140646535Y-88411326D01*
X140651000Y-88456661D01*
X140651000Y-89543339D01*
X140646535Y-89588674D01*
X140635101Y-89626367D01*
X140616534Y-89661103D01*
X140591548Y-89691548D01*
X140561103Y-89716534D01*
X140526367Y-89735101D01*
X140488674Y-89746535D01*
X140443339Y-89751000D01*
X139606661Y-89751000D01*
X139561326Y-89746535D01*
X139523633Y-89735101D01*
X139488897Y-89716534D01*
X139458452Y-89691548D01*
X139433466Y-89661103D01*
X139414899Y-89626367D01*
X139403465Y-89588674D01*
X139399000Y-89543339D01*
X139399000Y-88456661D01*
X139403465Y-88411326D01*
X139414899Y-88373633D01*
X139433466Y-88338897D01*
X139458452Y-88308452D01*
X139488897Y-88283466D01*
X139523633Y-88264899D01*
X139561326Y-88253465D01*
X139606661Y-88249000D01*
X140443339Y-88249000D01*
X140488674Y-88253465D01*
X140488674Y-88253465D01*
G37*
G36*
X134438674Y-88253465D02*
G01*
X134476367Y-88264899D01*
X134511103Y-88283466D01*
X134541548Y-88308452D01*
X134566534Y-88338897D01*
X134585101Y-88373633D01*
X134596535Y-88411326D01*
X134601000Y-88456661D01*
X134601000Y-89543339D01*
X134596535Y-89588674D01*
X134585101Y-89626367D01*
X134566534Y-89661103D01*
X134541548Y-89691548D01*
X134511103Y-89716534D01*
X134476367Y-89735101D01*
X134438674Y-89746535D01*
X134393339Y-89751000D01*
X133556661Y-89751000D01*
X133511326Y-89746535D01*
X133473633Y-89735101D01*
X133438897Y-89716534D01*
X133408452Y-89691548D01*
X133383466Y-89661103D01*
X133364899Y-89626367D01*
X133353465Y-89588674D01*
X133349000Y-89543339D01*
X133349000Y-88456661D01*
X133353465Y-88411326D01*
X133364899Y-88373633D01*
X133383466Y-88338897D01*
X133408452Y-88308452D01*
X133438897Y-88283466D01*
X133473633Y-88264899D01*
X133511326Y-88253465D01*
X133556661Y-88249000D01*
X134393339Y-88249000D01*
X134438674Y-88253465D01*
X134438674Y-88253465D01*
G37*
G36*
X129911808Y-88056648D02*
G01*
X130063551Y-88102678D01*
X130203398Y-88177428D01*
X130325975Y-88278025D01*
X130426572Y-88400602D01*
X130501322Y-88540449D01*
X130547352Y-88692192D01*
X130562895Y-88850000D01*
X130547352Y-89007808D01*
X130501322Y-89159551D01*
X130426572Y-89299398D01*
X130325975Y-89421975D01*
X130203398Y-89522572D01*
X130063551Y-89597322D01*
X129911808Y-89643352D01*
X129793546Y-89655000D01*
X128206454Y-89655000D01*
X128088192Y-89643352D01*
X127936449Y-89597322D01*
X127796602Y-89522572D01*
X127674025Y-89421975D01*
X127573428Y-89299398D01*
X127498678Y-89159551D01*
X127452648Y-89007808D01*
X127437105Y-88850000D01*
X127452648Y-88692192D01*
X127498678Y-88540449D01*
X127573428Y-88400602D01*
X127674025Y-88278025D01*
X127796602Y-88177428D01*
X127936449Y-88102678D01*
X128088192Y-88056648D01*
X128206454Y-88045000D01*
X129793546Y-88045000D01*
X129911808Y-88056648D01*
X129911808Y-88056648D01*
G37*
G36*
X154888674Y-88053465D02*
G01*
X154926367Y-88064899D01*
X154961103Y-88083466D01*
X154991548Y-88108452D01*
X155016534Y-88138897D01*
X155035101Y-88173633D01*
X155046535Y-88211326D01*
X155051000Y-88256661D01*
X155051000Y-89343339D01*
X155046535Y-89388674D01*
X155035101Y-89426367D01*
X155016534Y-89461103D01*
X154991548Y-89491548D01*
X154961103Y-89516534D01*
X154926367Y-89535101D01*
X154888674Y-89546535D01*
X154843339Y-89551000D01*
X154006661Y-89551000D01*
X153961326Y-89546535D01*
X153923633Y-89535101D01*
X153888897Y-89516534D01*
X153858452Y-89491548D01*
X153833466Y-89461103D01*
X153814899Y-89426367D01*
X153803465Y-89388674D01*
X153799000Y-89343339D01*
X153799000Y-88256661D01*
X153803465Y-88211326D01*
X153814899Y-88173633D01*
X153833466Y-88138897D01*
X153858452Y-88108452D01*
X153888897Y-88083466D01*
X153923633Y-88064899D01*
X153961326Y-88053465D01*
X154006661Y-88049000D01*
X154843339Y-88049000D01*
X154888674Y-88053465D01*
X154888674Y-88053465D01*
G37*
G36*
X152838674Y-88053465D02*
G01*
X152876367Y-88064899D01*
X152911103Y-88083466D01*
X152941548Y-88108452D01*
X152966534Y-88138897D01*
X152985101Y-88173633D01*
X152996535Y-88211326D01*
X153001000Y-88256661D01*
X153001000Y-89343339D01*
X152996535Y-89388674D01*
X152985101Y-89426367D01*
X152966534Y-89461103D01*
X152941548Y-89491548D01*
X152911103Y-89516534D01*
X152876367Y-89535101D01*
X152838674Y-89546535D01*
X152793339Y-89551000D01*
X151956661Y-89551000D01*
X151911326Y-89546535D01*
X151873633Y-89535101D01*
X151838897Y-89516534D01*
X151808452Y-89491548D01*
X151783466Y-89461103D01*
X151764899Y-89426367D01*
X151753465Y-89388674D01*
X151749000Y-89343339D01*
X151749000Y-88256661D01*
X151753465Y-88211326D01*
X151764899Y-88173633D01*
X151783466Y-88138897D01*
X151808452Y-88108452D01*
X151838897Y-88083466D01*
X151873633Y-88064899D01*
X151911326Y-88053465D01*
X151956661Y-88049000D01*
X152793339Y-88049000D01*
X152838674Y-88053465D01*
X152838674Y-88053465D01*
G37*
G36*
X156501000Y-89301000D02*
G01*
X155499000Y-89301000D01*
X155499000Y-88399000D01*
X156501000Y-88399000D01*
X156501000Y-89301000D01*
X156501000Y-89301000D01*
G37*
G36*
X151301000Y-89201000D02*
G01*
X150299000Y-89201000D01*
X150299000Y-88299000D01*
X151301000Y-88299000D01*
X151301000Y-89201000D01*
X151301000Y-89201000D01*
G37*
G36*
X158501000Y-88351000D02*
G01*
X157499000Y-88351000D01*
X157499000Y-87449000D01*
X158501000Y-87449000D01*
X158501000Y-88351000D01*
X158501000Y-88351000D01*
G37*
G36*
X149301000Y-88251000D02*
G01*
X148299000Y-88251000D01*
X148299000Y-87349000D01*
X149301000Y-87349000D01*
X149301000Y-88251000D01*
X149301000Y-88251000D01*
G37*
G36*
X143588674Y-86403465D02*
G01*
X143626367Y-86414899D01*
X143661103Y-86433466D01*
X143691548Y-86458452D01*
X143716534Y-86488897D01*
X143735101Y-86523633D01*
X143746535Y-86561326D01*
X143751000Y-86606661D01*
X143751000Y-87443339D01*
X143746535Y-87488674D01*
X143735101Y-87526367D01*
X143716534Y-87561103D01*
X143691548Y-87591548D01*
X143661103Y-87616534D01*
X143626367Y-87635101D01*
X143588674Y-87646535D01*
X143543339Y-87651000D01*
X142456661Y-87651000D01*
X142411326Y-87646535D01*
X142373633Y-87635101D01*
X142338897Y-87616534D01*
X142308452Y-87591548D01*
X142283466Y-87561103D01*
X142264899Y-87526367D01*
X142253465Y-87488674D01*
X142249000Y-87443339D01*
X142249000Y-86606661D01*
X142253465Y-86561326D01*
X142264899Y-86523633D01*
X142283466Y-86488897D01*
X142308452Y-86458452D01*
X142338897Y-86433466D01*
X142373633Y-86414899D01*
X142411326Y-86403465D01*
X142456661Y-86399000D01*
X143543339Y-86399000D01*
X143588674Y-86403465D01*
X143588674Y-86403465D01*
G37*
G36*
X152838674Y-86153465D02*
G01*
X152876367Y-86164899D01*
X152911103Y-86183466D01*
X152941548Y-86208452D01*
X152966534Y-86238897D01*
X152985101Y-86273633D01*
X152996535Y-86311326D01*
X153001000Y-86356661D01*
X153001000Y-87443339D01*
X152996535Y-87488674D01*
X152985101Y-87526367D01*
X152966534Y-87561103D01*
X152941548Y-87591548D01*
X152911103Y-87616534D01*
X152876367Y-87635101D01*
X152838674Y-87646535D01*
X152793339Y-87651000D01*
X151956661Y-87651000D01*
X151911326Y-87646535D01*
X151873633Y-87635101D01*
X151838897Y-87616534D01*
X151808452Y-87591548D01*
X151783466Y-87561103D01*
X151764899Y-87526367D01*
X151753465Y-87488674D01*
X151749000Y-87443339D01*
X151749000Y-86356661D01*
X151753465Y-86311326D01*
X151764899Y-86273633D01*
X151783466Y-86238897D01*
X151808452Y-86208452D01*
X151838897Y-86183466D01*
X151873633Y-86164899D01*
X151911326Y-86153465D01*
X151956661Y-86149000D01*
X152793339Y-86149000D01*
X152838674Y-86153465D01*
X152838674Y-86153465D01*
G37*
G36*
X154888674Y-86153465D02*
G01*
X154926367Y-86164899D01*
X154961103Y-86183466D01*
X154991548Y-86208452D01*
X155016534Y-86238897D01*
X155035101Y-86273633D01*
X155046535Y-86311326D01*
X155051000Y-86356661D01*
X155051000Y-87443339D01*
X155046535Y-87488674D01*
X155035101Y-87526367D01*
X155016534Y-87561103D01*
X154991548Y-87591548D01*
X154961103Y-87616534D01*
X154926367Y-87635101D01*
X154888674Y-87646535D01*
X154843339Y-87651000D01*
X154006661Y-87651000D01*
X153961326Y-87646535D01*
X153923633Y-87635101D01*
X153888897Y-87616534D01*
X153858452Y-87591548D01*
X153833466Y-87561103D01*
X153814899Y-87526367D01*
X153803465Y-87488674D01*
X153799000Y-87443339D01*
X153799000Y-86356661D01*
X153803465Y-86311326D01*
X153814899Y-86273633D01*
X153833466Y-86238897D01*
X153858452Y-86208452D01*
X153888897Y-86183466D01*
X153923633Y-86164899D01*
X153961326Y-86153465D01*
X154006661Y-86149000D01*
X154843339Y-86149000D01*
X154888674Y-86153465D01*
X154888674Y-86153465D01*
G37*
G36*
X156501000Y-87401000D02*
G01*
X155499000Y-87401000D01*
X155499000Y-86499000D01*
X156501000Y-86499000D01*
X156501000Y-87401000D01*
X156501000Y-87401000D01*
G37*
G36*
X141701000Y-87301000D02*
G01*
X139599000Y-87301000D01*
X139599000Y-85699000D01*
X141701000Y-85699000D01*
X141701000Y-87301000D01*
X141701000Y-87301000D01*
G37*
G36*
X151301000Y-87301000D02*
G01*
X150299000Y-87301000D01*
X150299000Y-86399000D01*
X151301000Y-86399000D01*
X151301000Y-87301000D01*
X151301000Y-87301000D01*
G37*
G36*
X132045000Y-87265000D02*
G01*
X130515000Y-87265000D01*
X130515000Y-85735000D01*
X132045000Y-85735000D01*
X132045000Y-87265000D01*
X132045000Y-87265000D01*
G37*
G36*
X166725560Y-84393064D02*
G01*
X166877027Y-84423193D01*
X167091045Y-84511842D01*
X167155249Y-84554742D01*
X167283654Y-84640539D01*
X167447461Y-84804346D01*
X167522657Y-84916885D01*
X167576158Y-84996955D01*
X167664807Y-85210973D01*
X167694290Y-85359193D01*
X167708968Y-85432983D01*
X167710000Y-85438174D01*
X167710000Y-85669826D01*
X167664807Y-85897027D01*
X167576158Y-86111045D01*
X167540174Y-86164899D01*
X167447461Y-86303654D01*
X167283654Y-86467461D01*
X167236452Y-86499000D01*
X167091045Y-86596158D01*
X166877027Y-86684807D01*
X166725560Y-86714936D01*
X166649827Y-86730000D01*
X166418173Y-86730000D01*
X166342440Y-86714936D01*
X166190973Y-86684807D01*
X165976955Y-86596158D01*
X165831548Y-86499000D01*
X165784346Y-86467461D01*
X165620539Y-86303654D01*
X165527826Y-86164899D01*
X165491842Y-86111045D01*
X165403193Y-85897027D01*
X165358000Y-85669826D01*
X165358000Y-85438174D01*
X165359033Y-85432983D01*
X165373710Y-85359193D01*
X165403193Y-85210973D01*
X165491842Y-84996955D01*
X165545343Y-84916885D01*
X165620539Y-84804346D01*
X165784346Y-84640539D01*
X165912751Y-84554742D01*
X165976955Y-84511842D01*
X166190973Y-84423193D01*
X166342440Y-84393064D01*
X166418173Y-84378000D01*
X166649827Y-84378000D01*
X166725560Y-84393064D01*
X166725560Y-84393064D01*
G37*
G36*
X161645560Y-84393064D02*
G01*
X161797027Y-84423193D01*
X162011045Y-84511842D01*
X162075249Y-84554742D01*
X162203654Y-84640539D01*
X162367461Y-84804346D01*
X162442657Y-84916885D01*
X162496158Y-84996955D01*
X162584807Y-85210973D01*
X162614290Y-85359193D01*
X162628968Y-85432983D01*
X162630000Y-85438174D01*
X162630000Y-85669826D01*
X162584807Y-85897027D01*
X162496158Y-86111045D01*
X162460174Y-86164899D01*
X162367461Y-86303654D01*
X162203654Y-86467461D01*
X162156452Y-86499000D01*
X162011045Y-86596158D01*
X161797027Y-86684807D01*
X161645560Y-86714936D01*
X161569827Y-86730000D01*
X161338173Y-86730000D01*
X161262440Y-86714936D01*
X161110973Y-86684807D01*
X160896955Y-86596158D01*
X160751548Y-86499000D01*
X160704346Y-86467461D01*
X160540539Y-86303654D01*
X160447826Y-86164899D01*
X160411842Y-86111045D01*
X160323193Y-85897027D01*
X160278000Y-85669826D01*
X160278000Y-85438174D01*
X160279033Y-85432983D01*
X160293710Y-85359193D01*
X160323193Y-85210973D01*
X160411842Y-84996955D01*
X160465343Y-84916885D01*
X160540539Y-84804346D01*
X160704346Y-84640539D01*
X160832751Y-84554742D01*
X160896955Y-84511842D01*
X161110973Y-84423193D01*
X161262440Y-84393064D01*
X161338173Y-84378000D01*
X161569827Y-84378000D01*
X161645560Y-84393064D01*
X161645560Y-84393064D01*
G37*
G36*
X135401000Y-86151000D02*
G01*
X133299000Y-86151000D01*
X133299000Y-82249000D01*
X135401000Y-82249000D01*
X135401000Y-86151000D01*
X135401000Y-86151000D01*
G37*
G36*
X128786601Y-84714397D02*
G01*
X128825305Y-84722096D01*
X128857340Y-84735365D01*
X128934680Y-84767400D01*
X129033115Y-84833173D01*
X129116827Y-84916885D01*
X129182600Y-85015320D01*
X129227904Y-85124696D01*
X129251000Y-85240805D01*
X129251000Y-85359195D01*
X129244208Y-85393339D01*
X129227904Y-85475305D01*
X129222366Y-85488674D01*
X129182600Y-85584680D01*
X129116827Y-85683115D01*
X129033115Y-85766827D01*
X128934680Y-85832600D01*
X128857340Y-85864635D01*
X128825305Y-85877904D01*
X128786601Y-85885603D01*
X128709195Y-85901000D01*
X128590805Y-85901000D01*
X128513399Y-85885603D01*
X128474695Y-85877904D01*
X128442660Y-85864635D01*
X128365320Y-85832600D01*
X128266885Y-85766827D01*
X128183173Y-85683115D01*
X128117400Y-85584680D01*
X128077634Y-85488674D01*
X128072096Y-85475305D01*
X128055792Y-85393339D01*
X128049000Y-85359195D01*
X128049000Y-85240805D01*
X128072096Y-85124696D01*
X128117400Y-85015320D01*
X128183173Y-84916885D01*
X128266885Y-84833173D01*
X128365320Y-84767400D01*
X128442660Y-84735365D01*
X128474695Y-84722096D01*
X128513399Y-84714397D01*
X128590805Y-84699000D01*
X128709195Y-84699000D01*
X128786601Y-84714397D01*
X128786601Y-84714397D01*
G37*
G36*
X157988674Y-84153465D02*
G01*
X158026367Y-84164899D01*
X158061103Y-84183466D01*
X158091548Y-84208452D01*
X158116534Y-84238897D01*
X158135101Y-84273633D01*
X158146535Y-84311326D01*
X158151000Y-84356661D01*
X158151000Y-85443339D01*
X158146535Y-85488674D01*
X158135101Y-85526367D01*
X158116534Y-85561103D01*
X158091548Y-85591548D01*
X158061103Y-85616534D01*
X158026367Y-85635101D01*
X157988674Y-85646535D01*
X157943339Y-85651000D01*
X157106661Y-85651000D01*
X157061326Y-85646535D01*
X157023633Y-85635101D01*
X156988897Y-85616534D01*
X156958452Y-85591548D01*
X156933466Y-85561103D01*
X156914899Y-85526367D01*
X156903465Y-85488674D01*
X156899000Y-85443339D01*
X156899000Y-84356661D01*
X156903465Y-84311326D01*
X156914899Y-84273633D01*
X156933466Y-84238897D01*
X156958452Y-84208452D01*
X156988897Y-84183466D01*
X157023633Y-84164899D01*
X157061326Y-84153465D01*
X157106661Y-84149000D01*
X157943339Y-84149000D01*
X157988674Y-84153465D01*
X157988674Y-84153465D01*
G37*
G36*
X155938674Y-84153465D02*
G01*
X155976367Y-84164899D01*
X156011103Y-84183466D01*
X156041548Y-84208452D01*
X156066534Y-84238897D01*
X156085101Y-84273633D01*
X156096535Y-84311326D01*
X156101000Y-84356661D01*
X156101000Y-85443339D01*
X156096535Y-85488674D01*
X156085101Y-85526367D01*
X156066534Y-85561103D01*
X156041548Y-85591548D01*
X156011103Y-85616534D01*
X155976367Y-85635101D01*
X155938674Y-85646535D01*
X155893339Y-85651000D01*
X155056661Y-85651000D01*
X155011326Y-85646535D01*
X154973633Y-85635101D01*
X154938897Y-85616534D01*
X154908452Y-85591548D01*
X154883466Y-85561103D01*
X154864899Y-85526367D01*
X154853465Y-85488674D01*
X154849000Y-85443339D01*
X154849000Y-84356661D01*
X154853465Y-84311326D01*
X154864899Y-84273633D01*
X154883466Y-84238897D01*
X154908452Y-84208452D01*
X154938897Y-84183466D01*
X154973633Y-84164899D01*
X155011326Y-84153465D01*
X155056661Y-84149000D01*
X155893339Y-84149000D01*
X155938674Y-84153465D01*
X155938674Y-84153465D01*
G37*
G36*
X143588674Y-84353465D02*
G01*
X143626367Y-84364899D01*
X143661103Y-84383466D01*
X143691548Y-84408452D01*
X143716534Y-84438897D01*
X143735101Y-84473633D01*
X143746535Y-84511326D01*
X143751000Y-84556661D01*
X143751000Y-85393339D01*
X143746535Y-85438674D01*
X143735101Y-85476367D01*
X143716534Y-85511103D01*
X143691548Y-85541548D01*
X143661103Y-85566534D01*
X143626367Y-85585101D01*
X143588674Y-85596535D01*
X143543339Y-85601000D01*
X142456661Y-85601000D01*
X142411326Y-85596535D01*
X142373633Y-85585101D01*
X142338897Y-85566534D01*
X142308452Y-85541548D01*
X142283466Y-85511103D01*
X142264899Y-85476367D01*
X142253465Y-85438674D01*
X142249000Y-85393339D01*
X142249000Y-84556661D01*
X142253465Y-84511326D01*
X142264899Y-84473633D01*
X142283466Y-84438897D01*
X142308452Y-84408452D01*
X142338897Y-84383466D01*
X142373633Y-84364899D01*
X142411326Y-84353465D01*
X142456661Y-84349000D01*
X143543339Y-84349000D01*
X143588674Y-84353465D01*
X143588674Y-84353465D01*
G37*
G36*
X150076000Y-80299001D02*
G01*
X150078402Y-80323387D01*
X150085515Y-80346836D01*
X150097066Y-80368447D01*
X150112611Y-80387389D01*
X150126342Y-80398658D01*
X150137611Y-80412389D01*
X150156553Y-80427934D01*
X150178164Y-80439485D01*
X150201613Y-80446598D01*
X150225999Y-80449000D01*
X151306000Y-80449000D01*
X151306000Y-83851000D01*
X150225999Y-83851000D01*
X150201613Y-83853402D01*
X150178164Y-83860515D01*
X150156553Y-83872066D01*
X150137611Y-83887611D01*
X150126342Y-83901342D01*
X150112611Y-83912611D01*
X150097066Y-83931553D01*
X150085515Y-83953164D01*
X150078402Y-83976613D01*
X150076000Y-84000999D01*
X150076000Y-85071000D01*
X146674000Y-85071000D01*
X146674000Y-84000999D01*
X146671598Y-83976613D01*
X146664485Y-83953164D01*
X146652934Y-83931553D01*
X146637389Y-83912611D01*
X146623658Y-83901342D01*
X146612389Y-83887611D01*
X146593447Y-83872066D01*
X146571836Y-83860515D01*
X146548387Y-83853402D01*
X146524001Y-83851000D01*
X145454000Y-83851000D01*
X145454000Y-80449000D01*
X146524001Y-80449000D01*
X146548387Y-80446598D01*
X146571836Y-80439485D01*
X146593447Y-80427934D01*
X146612389Y-80412389D01*
X146623658Y-80398658D01*
X146637389Y-80387389D01*
X146652934Y-80368447D01*
X146664485Y-80346836D01*
X146671598Y-80323387D01*
X146674000Y-80299001D01*
X146674000Y-79219000D01*
X150076000Y-79219000D01*
X150076000Y-80299001D01*
X150076000Y-80299001D01*
G37*
G36*
X141701000Y-85001000D02*
G01*
X139599000Y-85001000D01*
X139599000Y-83399000D01*
X141701000Y-83399000D01*
X141701000Y-85001000D01*
X141701000Y-85001000D01*
G37*
G36*
X131429244Y-83249699D02*
G01*
X131503142Y-83264398D01*
X131642364Y-83322065D01*
X131767659Y-83405785D01*
X131874215Y-83512341D01*
X131957935Y-83637636D01*
X132015602Y-83776858D01*
X132045000Y-83924654D01*
X132045000Y-84075346D01*
X132015602Y-84223142D01*
X131957935Y-84362364D01*
X131874215Y-84487659D01*
X131767659Y-84594215D01*
X131642364Y-84677935D01*
X131503142Y-84735602D01*
X131429244Y-84750301D01*
X131355347Y-84765000D01*
X131204653Y-84765000D01*
X131130756Y-84750301D01*
X131056858Y-84735602D01*
X130917636Y-84677935D01*
X130792341Y-84594215D01*
X130685785Y-84487659D01*
X130602065Y-84362364D01*
X130544398Y-84223142D01*
X130515000Y-84075346D01*
X130515000Y-83924654D01*
X130544398Y-83776858D01*
X130602065Y-83637636D01*
X130685785Y-83512341D01*
X130792341Y-83405785D01*
X130917636Y-83322065D01*
X131056858Y-83264398D01*
X131130756Y-83249699D01*
X131204653Y-83235000D01*
X131355347Y-83235000D01*
X131429244Y-83249699D01*
X131429244Y-83249699D01*
G37*
G36*
X155938674Y-82253465D02*
G01*
X155976367Y-82264899D01*
X156011103Y-82283466D01*
X156041548Y-82308452D01*
X156066534Y-82338897D01*
X156085101Y-82373633D01*
X156096535Y-82411326D01*
X156101000Y-82456661D01*
X156101000Y-83543339D01*
X156096535Y-83588674D01*
X156085101Y-83626367D01*
X156066534Y-83661103D01*
X156041548Y-83691548D01*
X156011103Y-83716534D01*
X155976367Y-83735101D01*
X155938674Y-83746535D01*
X155893339Y-83751000D01*
X155056661Y-83751000D01*
X155011326Y-83746535D01*
X154973633Y-83735101D01*
X154938897Y-83716534D01*
X154908452Y-83691548D01*
X154883466Y-83661103D01*
X154864899Y-83626367D01*
X154853465Y-83588674D01*
X154849000Y-83543339D01*
X154849000Y-82456661D01*
X154853465Y-82411326D01*
X154864899Y-82373633D01*
X154883466Y-82338897D01*
X154908452Y-82308452D01*
X154938897Y-82283466D01*
X154973633Y-82264899D01*
X155011326Y-82253465D01*
X155056661Y-82249000D01*
X155893339Y-82249000D01*
X155938674Y-82253465D01*
X155938674Y-82253465D01*
G37*
G36*
X157988674Y-82253465D02*
G01*
X158026367Y-82264899D01*
X158061103Y-82283466D01*
X158091548Y-82308452D01*
X158116534Y-82338897D01*
X158135101Y-82373633D01*
X158146535Y-82411326D01*
X158151000Y-82456661D01*
X158151000Y-83543339D01*
X158146535Y-83588674D01*
X158135101Y-83626367D01*
X158116534Y-83661103D01*
X158091548Y-83691548D01*
X158061103Y-83716534D01*
X158026367Y-83735101D01*
X157988674Y-83746535D01*
X157943339Y-83751000D01*
X157106661Y-83751000D01*
X157061326Y-83746535D01*
X157023633Y-83735101D01*
X156988897Y-83716534D01*
X156958452Y-83691548D01*
X156933466Y-83661103D01*
X156914899Y-83626367D01*
X156903465Y-83588674D01*
X156899000Y-83543339D01*
X156899000Y-82456661D01*
X156903465Y-82411326D01*
X156914899Y-82373633D01*
X156933466Y-82338897D01*
X156958452Y-82308452D01*
X156988897Y-82283466D01*
X157023633Y-82264899D01*
X157061326Y-82253465D01*
X157106661Y-82249000D01*
X157943339Y-82249000D01*
X157988674Y-82253465D01*
X157988674Y-82253465D01*
G37*
G36*
X143588674Y-82403465D02*
G01*
X143626367Y-82414899D01*
X143661103Y-82433466D01*
X143691548Y-82458452D01*
X143716534Y-82488897D01*
X143735101Y-82523633D01*
X143746535Y-82561326D01*
X143751000Y-82606661D01*
X143751000Y-83443339D01*
X143746535Y-83488674D01*
X143735101Y-83526367D01*
X143716534Y-83561103D01*
X143691548Y-83591548D01*
X143661103Y-83616534D01*
X143626367Y-83635101D01*
X143588674Y-83646535D01*
X143543339Y-83651000D01*
X142456661Y-83651000D01*
X142411326Y-83646535D01*
X142373633Y-83635101D01*
X142338897Y-83616534D01*
X142308452Y-83591548D01*
X142283466Y-83561103D01*
X142264899Y-83526367D01*
X142253465Y-83488674D01*
X142249000Y-83443339D01*
X142249000Y-82606661D01*
X142253465Y-82561326D01*
X142264899Y-82523633D01*
X142283466Y-82488897D01*
X142308452Y-82458452D01*
X142338897Y-82433466D01*
X142373633Y-82414899D01*
X142411326Y-82403465D01*
X142456661Y-82399000D01*
X143543339Y-82399000D01*
X143588674Y-82403465D01*
X143588674Y-82403465D01*
G37*
G36*
X131429244Y-81249699D02*
G01*
X131503142Y-81264398D01*
X131642364Y-81322065D01*
X131767659Y-81405785D01*
X131874215Y-81512341D01*
X131957935Y-81637636D01*
X132015602Y-81776858D01*
X132045000Y-81924654D01*
X132045000Y-82075346D01*
X132015602Y-82223142D01*
X131957935Y-82362364D01*
X131874215Y-82487659D01*
X131767659Y-82594215D01*
X131642364Y-82677935D01*
X131503142Y-82735602D01*
X131429244Y-82750301D01*
X131355347Y-82765000D01*
X131204653Y-82765000D01*
X131130756Y-82750301D01*
X131056858Y-82735602D01*
X130917636Y-82677935D01*
X130792341Y-82594215D01*
X130685785Y-82487659D01*
X130602065Y-82362364D01*
X130544398Y-82223142D01*
X130515000Y-82075346D01*
X130515000Y-81924654D01*
X130544398Y-81776858D01*
X130602065Y-81637636D01*
X130685785Y-81512341D01*
X130792341Y-81405785D01*
X130917636Y-81322065D01*
X131056858Y-81264398D01*
X131130756Y-81249699D01*
X131204653Y-81235000D01*
X131355347Y-81235000D01*
X131429244Y-81249699D01*
X131429244Y-81249699D01*
G37*
G36*
X141701000Y-82701000D02*
G01*
X139599000Y-82701000D01*
X139599000Y-81099000D01*
X141701000Y-81099000D01*
X141701000Y-82701000D01*
X141701000Y-82701000D01*
G37*
G36*
X157988674Y-80353465D02*
G01*
X158026367Y-80364899D01*
X158061103Y-80383466D01*
X158091548Y-80408452D01*
X158116534Y-80438897D01*
X158135101Y-80473633D01*
X158146535Y-80511326D01*
X158151000Y-80556661D01*
X158151000Y-81643339D01*
X158146535Y-81688674D01*
X158135101Y-81726367D01*
X158116534Y-81761103D01*
X158091548Y-81791548D01*
X158061103Y-81816534D01*
X158026367Y-81835101D01*
X157988674Y-81846535D01*
X157943339Y-81851000D01*
X157106661Y-81851000D01*
X157061326Y-81846535D01*
X157023633Y-81835101D01*
X156988897Y-81816534D01*
X156958452Y-81791548D01*
X156933466Y-81761103D01*
X156914899Y-81726367D01*
X156903465Y-81688674D01*
X156899000Y-81643339D01*
X156899000Y-80556661D01*
X156903465Y-80511326D01*
X156914899Y-80473633D01*
X156933466Y-80438897D01*
X156958452Y-80408452D01*
X156988897Y-80383466D01*
X157023633Y-80364899D01*
X157061326Y-80353465D01*
X157106661Y-80349000D01*
X157943339Y-80349000D01*
X157988674Y-80353465D01*
X157988674Y-80353465D01*
G37*
G36*
X155938674Y-80353465D02*
G01*
X155976367Y-80364899D01*
X156011103Y-80383466D01*
X156041548Y-80408452D01*
X156066534Y-80438897D01*
X156085101Y-80473633D01*
X156096535Y-80511326D01*
X156101000Y-80556661D01*
X156101000Y-81643339D01*
X156096535Y-81688674D01*
X156085101Y-81726367D01*
X156066534Y-81761103D01*
X156041548Y-81791548D01*
X156011103Y-81816534D01*
X155976367Y-81835101D01*
X155938674Y-81846535D01*
X155893339Y-81851000D01*
X155056661Y-81851000D01*
X155011326Y-81846535D01*
X154973633Y-81835101D01*
X154938897Y-81816534D01*
X154908452Y-81791548D01*
X154883466Y-81761103D01*
X154864899Y-81726367D01*
X154853465Y-81688674D01*
X154849000Y-81643339D01*
X154849000Y-80556661D01*
X154853465Y-80511326D01*
X154864899Y-80473633D01*
X154883466Y-80438897D01*
X154908452Y-80408452D01*
X154938897Y-80383466D01*
X154973633Y-80364899D01*
X155011326Y-80353465D01*
X155056661Y-80349000D01*
X155893339Y-80349000D01*
X155938674Y-80353465D01*
X155938674Y-80353465D01*
G37*
G36*
X166725560Y-79313064D02*
G01*
X166877027Y-79343193D01*
X167091045Y-79431842D01*
X167091046Y-79431843D01*
X167283654Y-79560539D01*
X167447461Y-79724346D01*
X167490443Y-79788674D01*
X167576158Y-79916955D01*
X167664807Y-80130973D01*
X167672053Y-80167401D01*
X167709216Y-80354230D01*
X167710000Y-80358174D01*
X167710000Y-80589826D01*
X167664807Y-80817027D01*
X167576158Y-81031045D01*
X167576157Y-81031046D01*
X167447461Y-81223654D01*
X167283654Y-81387461D01*
X167215525Y-81432983D01*
X167091045Y-81516158D01*
X166877027Y-81604807D01*
X166740695Y-81631925D01*
X166649827Y-81650000D01*
X166418173Y-81650000D01*
X166327305Y-81631925D01*
X166190973Y-81604807D01*
X165976955Y-81516158D01*
X165852475Y-81432983D01*
X165784346Y-81387461D01*
X165620539Y-81223654D01*
X165491843Y-81031046D01*
X165491842Y-81031045D01*
X165403193Y-80817027D01*
X165358000Y-80589826D01*
X165358000Y-80358174D01*
X165358785Y-80354230D01*
X165395947Y-80167401D01*
X165403193Y-80130973D01*
X165491842Y-79916955D01*
X165577557Y-79788674D01*
X165620539Y-79724346D01*
X165784346Y-79560539D01*
X165976954Y-79431843D01*
X165976955Y-79431842D01*
X166190973Y-79343193D01*
X166342440Y-79313064D01*
X166418173Y-79298000D01*
X166649827Y-79298000D01*
X166725560Y-79313064D01*
X166725560Y-79313064D01*
G37*
G36*
X161645560Y-79313064D02*
G01*
X161797027Y-79343193D01*
X162011045Y-79431842D01*
X162011046Y-79431843D01*
X162203654Y-79560539D01*
X162367461Y-79724346D01*
X162410443Y-79788674D01*
X162496158Y-79916955D01*
X162584807Y-80130973D01*
X162592053Y-80167401D01*
X162629216Y-80354230D01*
X162630000Y-80358174D01*
X162630000Y-80589826D01*
X162584807Y-80817027D01*
X162496158Y-81031045D01*
X162496157Y-81031046D01*
X162367461Y-81223654D01*
X162203654Y-81387461D01*
X162135525Y-81432983D01*
X162011045Y-81516158D01*
X161797027Y-81604807D01*
X161660695Y-81631925D01*
X161569827Y-81650000D01*
X161338173Y-81650000D01*
X161247305Y-81631925D01*
X161110973Y-81604807D01*
X160896955Y-81516158D01*
X160772475Y-81432983D01*
X160704346Y-81387461D01*
X160540539Y-81223654D01*
X160411843Y-81031046D01*
X160411842Y-81031045D01*
X160323193Y-80817027D01*
X160278000Y-80589826D01*
X160278000Y-80358174D01*
X160278785Y-80354230D01*
X160315947Y-80167401D01*
X160323193Y-80130973D01*
X160411842Y-79916955D01*
X160497557Y-79788674D01*
X160540539Y-79724346D01*
X160704346Y-79560539D01*
X160896954Y-79431843D01*
X160896955Y-79431842D01*
X161110973Y-79343193D01*
X161262440Y-79313064D01*
X161338173Y-79298000D01*
X161569827Y-79298000D01*
X161645560Y-79313064D01*
X161645560Y-79313064D01*
G37*
G36*
X143588674Y-80353465D02*
G01*
X143626367Y-80364899D01*
X143661103Y-80383466D01*
X143691548Y-80408452D01*
X143716534Y-80438897D01*
X143735101Y-80473633D01*
X143746535Y-80511326D01*
X143751000Y-80556661D01*
X143751000Y-81393339D01*
X143746535Y-81438674D01*
X143735101Y-81476367D01*
X143716534Y-81511103D01*
X143691548Y-81541548D01*
X143661103Y-81566534D01*
X143626367Y-81585101D01*
X143588674Y-81596535D01*
X143543339Y-81601000D01*
X142456661Y-81601000D01*
X142411326Y-81596535D01*
X142373633Y-81585101D01*
X142338897Y-81566534D01*
X142308452Y-81541548D01*
X142283466Y-81511103D01*
X142264899Y-81476367D01*
X142253465Y-81438674D01*
X142249000Y-81393339D01*
X142249000Y-80556661D01*
X142253465Y-80511326D01*
X142264899Y-80473633D01*
X142283466Y-80438897D01*
X142308452Y-80408452D01*
X142338897Y-80383466D01*
X142373633Y-80364899D01*
X142411326Y-80353465D01*
X142456661Y-80349000D01*
X143543339Y-80349000D01*
X143588674Y-80353465D01*
X143588674Y-80353465D01*
G37*
G36*
X128786601Y-80114397D02*
G01*
X128825305Y-80122096D01*
X128857340Y-80135365D01*
X128934680Y-80167400D01*
X129033115Y-80233173D01*
X129116827Y-80316885D01*
X129182600Y-80415320D01*
X129192609Y-80439485D01*
X129224724Y-80517017D01*
X129227904Y-80524696D01*
X129240860Y-80589827D01*
X129251000Y-80640807D01*
X129251000Y-80759193D01*
X129232739Y-80851000D01*
X129227904Y-80875304D01*
X129182600Y-80984680D01*
X129116827Y-81083115D01*
X129033115Y-81166827D01*
X128934680Y-81232600D01*
X128857911Y-81264398D01*
X128825305Y-81277904D01*
X128786601Y-81285603D01*
X128709195Y-81301000D01*
X128590805Y-81301000D01*
X128513399Y-81285603D01*
X128474695Y-81277904D01*
X128442089Y-81264398D01*
X128365320Y-81232600D01*
X128266885Y-81166827D01*
X128183173Y-81083115D01*
X128117400Y-80984680D01*
X128072096Y-80875304D01*
X128067262Y-80851000D01*
X128049000Y-80759193D01*
X128049000Y-80640807D01*
X128059141Y-80589827D01*
X128072096Y-80524696D01*
X128075277Y-80517017D01*
X128107391Y-80439485D01*
X128117400Y-80415320D01*
X128183173Y-80316885D01*
X128266885Y-80233173D01*
X128365320Y-80167400D01*
X128442660Y-80135365D01*
X128474695Y-80122096D01*
X128513399Y-80114397D01*
X128590805Y-80099000D01*
X128709195Y-80099000D01*
X128786601Y-80114397D01*
X128786601Y-80114397D01*
G37*
G36*
X134401000Y-80351000D02*
G01*
X133299000Y-80351000D01*
X133299000Y-78849000D01*
X134401000Y-78849000D01*
X134401000Y-80351000D01*
X134401000Y-80351000D01*
G37*
G36*
X136221000Y-80351000D02*
G01*
X134919000Y-80351000D01*
X134919000Y-78849000D01*
X136221000Y-78849000D01*
X136221000Y-80351000D01*
X136221000Y-80351000D01*
G37*
G36*
X131429244Y-78749699D02*
G01*
X131503142Y-78764398D01*
X131642364Y-78822065D01*
X131767659Y-78905785D01*
X131874215Y-79012341D01*
X131957935Y-79137636D01*
X132015602Y-79276858D01*
X132045000Y-79424654D01*
X132045000Y-79575346D01*
X132015602Y-79723142D01*
X131957935Y-79862364D01*
X131874215Y-79987659D01*
X131767659Y-80094215D01*
X131642364Y-80177935D01*
X131503142Y-80235602D01*
X131429244Y-80250301D01*
X131355347Y-80265000D01*
X131204653Y-80265000D01*
X131130756Y-80250301D01*
X131056858Y-80235602D01*
X130917636Y-80177935D01*
X130792341Y-80094215D01*
X130685785Y-79987659D01*
X130602065Y-79862364D01*
X130544398Y-79723142D01*
X130515000Y-79575346D01*
X130515000Y-79424654D01*
X130544398Y-79276858D01*
X130602065Y-79137636D01*
X130685785Y-79012341D01*
X130792341Y-78905785D01*
X130917636Y-78822065D01*
X131056858Y-78764398D01*
X131130756Y-78749699D01*
X131204653Y-78735000D01*
X131355347Y-78735000D01*
X131429244Y-78749699D01*
X131429244Y-78749699D01*
G37*
G36*
X157988674Y-78453465D02*
G01*
X158026367Y-78464899D01*
X158061103Y-78483466D01*
X158091548Y-78508452D01*
X158116534Y-78538897D01*
X158135101Y-78573633D01*
X158146535Y-78611326D01*
X158151000Y-78656661D01*
X158151000Y-79743339D01*
X158146535Y-79788674D01*
X158135101Y-79826367D01*
X158116534Y-79861103D01*
X158091548Y-79891548D01*
X158061103Y-79916534D01*
X158026367Y-79935101D01*
X157988674Y-79946535D01*
X157943339Y-79951000D01*
X157106661Y-79951000D01*
X157061326Y-79946535D01*
X157023633Y-79935101D01*
X156988897Y-79916534D01*
X156958452Y-79891548D01*
X156933466Y-79861103D01*
X156914899Y-79826367D01*
X156903465Y-79788674D01*
X156899000Y-79743339D01*
X156899000Y-78656661D01*
X156903465Y-78611326D01*
X156914899Y-78573633D01*
X156933466Y-78538897D01*
X156958452Y-78508452D01*
X156988897Y-78483466D01*
X157023633Y-78464899D01*
X157061326Y-78453465D01*
X157106661Y-78449000D01*
X157943339Y-78449000D01*
X157988674Y-78453465D01*
X157988674Y-78453465D01*
G37*
G36*
X155938674Y-78453465D02*
G01*
X155976367Y-78464899D01*
X156011103Y-78483466D01*
X156041548Y-78508452D01*
X156066534Y-78538897D01*
X156085101Y-78573633D01*
X156096535Y-78611326D01*
X156101000Y-78656661D01*
X156101000Y-79743339D01*
X156096535Y-79788674D01*
X156085101Y-79826367D01*
X156066534Y-79861103D01*
X156041548Y-79891548D01*
X156011103Y-79916534D01*
X155976367Y-79935101D01*
X155938674Y-79946535D01*
X155893339Y-79951000D01*
X155056661Y-79951000D01*
X155011326Y-79946535D01*
X154973633Y-79935101D01*
X154938897Y-79916534D01*
X154908452Y-79891548D01*
X154883466Y-79861103D01*
X154864899Y-79826367D01*
X154853465Y-79788674D01*
X154849000Y-79743339D01*
X154849000Y-78656661D01*
X154853465Y-78611326D01*
X154864899Y-78573633D01*
X154883466Y-78538897D01*
X154908452Y-78508452D01*
X154938897Y-78483466D01*
X154973633Y-78464899D01*
X155011326Y-78453465D01*
X155056661Y-78449000D01*
X155893339Y-78449000D01*
X155938674Y-78453465D01*
X155938674Y-78453465D01*
G37*
G36*
X136301000Y-78151000D02*
G01*
X135199000Y-78151000D01*
X135199000Y-76649000D01*
X136301000Y-76649000D01*
X136301000Y-78151000D01*
X136301000Y-78151000D01*
G37*
G36*
X134401000Y-78151000D02*
G01*
X133299000Y-78151000D01*
X133299000Y-76649000D01*
X134401000Y-76649000D01*
X134401000Y-78151000D01*
X134401000Y-78151000D01*
G37*
G36*
X155938674Y-76553465D02*
G01*
X155976367Y-76564899D01*
X156011103Y-76583466D01*
X156041548Y-76608452D01*
X156066534Y-76638897D01*
X156085101Y-76673633D01*
X156096535Y-76711326D01*
X156101000Y-76756661D01*
X156101000Y-77843339D01*
X156096535Y-77888674D01*
X156085101Y-77926367D01*
X156066534Y-77961103D01*
X156041548Y-77991548D01*
X156011103Y-78016534D01*
X155976367Y-78035101D01*
X155938674Y-78046535D01*
X155893339Y-78051000D01*
X155056661Y-78051000D01*
X155011326Y-78046535D01*
X154973633Y-78035101D01*
X154938897Y-78016534D01*
X154908452Y-77991548D01*
X154883466Y-77961103D01*
X154864899Y-77926367D01*
X154853465Y-77888674D01*
X154849000Y-77843339D01*
X154849000Y-76756661D01*
X154853465Y-76711326D01*
X154864899Y-76673633D01*
X154883466Y-76638897D01*
X154908452Y-76608452D01*
X154938897Y-76583466D01*
X154973633Y-76564899D01*
X155011326Y-76553465D01*
X155056661Y-76549000D01*
X155893339Y-76549000D01*
X155938674Y-76553465D01*
X155938674Y-76553465D01*
G37*
G36*
X157988674Y-76553465D02*
G01*
X158026367Y-76564899D01*
X158061103Y-76583466D01*
X158091548Y-76608452D01*
X158116534Y-76638897D01*
X158135101Y-76673633D01*
X158146535Y-76711326D01*
X158151000Y-76756661D01*
X158151000Y-77843339D01*
X158146535Y-77888674D01*
X158135101Y-77926367D01*
X158116534Y-77961103D01*
X158091548Y-77991548D01*
X158061103Y-78016534D01*
X158026367Y-78035101D01*
X157988674Y-78046535D01*
X157943339Y-78051000D01*
X157106661Y-78051000D01*
X157061326Y-78046535D01*
X157023633Y-78035101D01*
X156988897Y-78016534D01*
X156958452Y-77991548D01*
X156933466Y-77961103D01*
X156914899Y-77926367D01*
X156903465Y-77888674D01*
X156899000Y-77843339D01*
X156899000Y-76756661D01*
X156903465Y-76711326D01*
X156914899Y-76673633D01*
X156933466Y-76638897D01*
X156958452Y-76608452D01*
X156988897Y-76583466D01*
X157023633Y-76564899D01*
X157061326Y-76553465D01*
X157106661Y-76549000D01*
X157943339Y-76549000D01*
X157988674Y-76553465D01*
X157988674Y-76553465D01*
G37*
G36*
X151513674Y-76503465D02*
G01*
X151551367Y-76514899D01*
X151586103Y-76533466D01*
X151616548Y-76558452D01*
X151641534Y-76588897D01*
X151660101Y-76623633D01*
X151671535Y-76661326D01*
X151676000Y-76706661D01*
X151676000Y-77793339D01*
X151671535Y-77838674D01*
X151660101Y-77876367D01*
X151641534Y-77911103D01*
X151616548Y-77941548D01*
X151586103Y-77966534D01*
X151551367Y-77985101D01*
X151513674Y-77996535D01*
X151468339Y-78001000D01*
X150631661Y-78001000D01*
X150586326Y-77996535D01*
X150548633Y-77985101D01*
X150513897Y-77966534D01*
X150483452Y-77941548D01*
X150458466Y-77911103D01*
X150439899Y-77876367D01*
X150428465Y-77838674D01*
X150424000Y-77793339D01*
X150424000Y-76706661D01*
X150428465Y-76661326D01*
X150439899Y-76623633D01*
X150458466Y-76588897D01*
X150483452Y-76558452D01*
X150513897Y-76533466D01*
X150548633Y-76514899D01*
X150586326Y-76503465D01*
X150631661Y-76499000D01*
X151468339Y-76499000D01*
X151513674Y-76503465D01*
X151513674Y-76503465D01*
G37*
G36*
X149463674Y-76503465D02*
G01*
X149501367Y-76514899D01*
X149536103Y-76533466D01*
X149566548Y-76558452D01*
X149591534Y-76588897D01*
X149610101Y-76623633D01*
X149621535Y-76661326D01*
X149626000Y-76706661D01*
X149626000Y-77793339D01*
X149621535Y-77838674D01*
X149610101Y-77876367D01*
X149591534Y-77911103D01*
X149566548Y-77941548D01*
X149536103Y-77966534D01*
X149501367Y-77985101D01*
X149463674Y-77996535D01*
X149418339Y-78001000D01*
X148581661Y-78001000D01*
X148536326Y-77996535D01*
X148498633Y-77985101D01*
X148463897Y-77966534D01*
X148433452Y-77941548D01*
X148408466Y-77911103D01*
X148389899Y-77876367D01*
X148378465Y-77838674D01*
X148374000Y-77793339D01*
X148374000Y-76706661D01*
X148378465Y-76661326D01*
X148389899Y-76623633D01*
X148408466Y-76588897D01*
X148433452Y-76558452D01*
X148463897Y-76533466D01*
X148498633Y-76514899D01*
X148536326Y-76503465D01*
X148581661Y-76499000D01*
X149418339Y-76499000D01*
X149463674Y-76503465D01*
X149463674Y-76503465D01*
G37*
G36*
X147738674Y-76503465D02*
G01*
X147776367Y-76514899D01*
X147811103Y-76533466D01*
X147841548Y-76558452D01*
X147866534Y-76588897D01*
X147885101Y-76623633D01*
X147896535Y-76661326D01*
X147901000Y-76706661D01*
X147901000Y-77793339D01*
X147896535Y-77838674D01*
X147885101Y-77876367D01*
X147866534Y-77911103D01*
X147841548Y-77941548D01*
X147811103Y-77966534D01*
X147776367Y-77985101D01*
X147738674Y-77996535D01*
X147693339Y-78001000D01*
X146856661Y-78001000D01*
X146811326Y-77996535D01*
X146773633Y-77985101D01*
X146738897Y-77966534D01*
X146708452Y-77941548D01*
X146683466Y-77911103D01*
X146664899Y-77876367D01*
X146653465Y-77838674D01*
X146649000Y-77793339D01*
X146649000Y-76706661D01*
X146653465Y-76661326D01*
X146664899Y-76623633D01*
X146683466Y-76588897D01*
X146708452Y-76558452D01*
X146738897Y-76533466D01*
X146773633Y-76514899D01*
X146811326Y-76503465D01*
X146856661Y-76499000D01*
X147693339Y-76499000D01*
X147738674Y-76503465D01*
X147738674Y-76503465D01*
G37*
G36*
X145688674Y-76503465D02*
G01*
X145726367Y-76514899D01*
X145761103Y-76533466D01*
X145791548Y-76558452D01*
X145816534Y-76588897D01*
X145835101Y-76623633D01*
X145846535Y-76661326D01*
X145851000Y-76706661D01*
X145851000Y-77793339D01*
X145846535Y-77838674D01*
X145835101Y-77876367D01*
X145816534Y-77911103D01*
X145791548Y-77941548D01*
X145761103Y-77966534D01*
X145726367Y-77985101D01*
X145688674Y-77996535D01*
X145643339Y-78001000D01*
X144806661Y-78001000D01*
X144761326Y-77996535D01*
X144723633Y-77985101D01*
X144688897Y-77966534D01*
X144658452Y-77941548D01*
X144633466Y-77911103D01*
X144614899Y-77876367D01*
X144603465Y-77838674D01*
X144599000Y-77793339D01*
X144599000Y-76706661D01*
X144603465Y-76661326D01*
X144614899Y-76623633D01*
X144633466Y-76588897D01*
X144658452Y-76558452D01*
X144688897Y-76533466D01*
X144723633Y-76514899D01*
X144761326Y-76503465D01*
X144806661Y-76499000D01*
X145643339Y-76499000D01*
X145688674Y-76503465D01*
X145688674Y-76503465D01*
G37*
G36*
X143988674Y-76503465D02*
G01*
X144026367Y-76514899D01*
X144061103Y-76533466D01*
X144091548Y-76558452D01*
X144116534Y-76588897D01*
X144135101Y-76623633D01*
X144146535Y-76661326D01*
X144151000Y-76706661D01*
X144151000Y-77793339D01*
X144146535Y-77838674D01*
X144135101Y-77876367D01*
X144116534Y-77911103D01*
X144091548Y-77941548D01*
X144061103Y-77966534D01*
X144026367Y-77985101D01*
X143988674Y-77996535D01*
X143943339Y-78001000D01*
X143106661Y-78001000D01*
X143061326Y-77996535D01*
X143023633Y-77985101D01*
X142988897Y-77966534D01*
X142958452Y-77941548D01*
X142933466Y-77911103D01*
X142914899Y-77876367D01*
X142903465Y-77838674D01*
X142899000Y-77793339D01*
X142899000Y-76706661D01*
X142903465Y-76661326D01*
X142914899Y-76623633D01*
X142933466Y-76588897D01*
X142958452Y-76558452D01*
X142988897Y-76533466D01*
X143023633Y-76514899D01*
X143061326Y-76503465D01*
X143106661Y-76499000D01*
X143943339Y-76499000D01*
X143988674Y-76503465D01*
X143988674Y-76503465D01*
G37*
G36*
X141938674Y-76503465D02*
G01*
X141976367Y-76514899D01*
X142011103Y-76533466D01*
X142041548Y-76558452D01*
X142066534Y-76588897D01*
X142085101Y-76623633D01*
X142096535Y-76661326D01*
X142101000Y-76706661D01*
X142101000Y-77793339D01*
X142096535Y-77838674D01*
X142085101Y-77876367D01*
X142066534Y-77911103D01*
X142041548Y-77941548D01*
X142011103Y-77966534D01*
X141976367Y-77985101D01*
X141938674Y-77996535D01*
X141893339Y-78001000D01*
X141056661Y-78001000D01*
X141011326Y-77996535D01*
X140973633Y-77985101D01*
X140938897Y-77966534D01*
X140908452Y-77941548D01*
X140883466Y-77911103D01*
X140864899Y-77876367D01*
X140853465Y-77838674D01*
X140849000Y-77793339D01*
X140849000Y-76706661D01*
X140853465Y-76661326D01*
X140864899Y-76623633D01*
X140883466Y-76588897D01*
X140908452Y-76558452D01*
X140938897Y-76533466D01*
X140973633Y-76514899D01*
X141011326Y-76503465D01*
X141056661Y-76499000D01*
X141893339Y-76499000D01*
X141938674Y-76503465D01*
X141938674Y-76503465D01*
G37*
G36*
X140238674Y-76503465D02*
G01*
X140276367Y-76514899D01*
X140311103Y-76533466D01*
X140341548Y-76558452D01*
X140366534Y-76588897D01*
X140385101Y-76623633D01*
X140396535Y-76661326D01*
X140401000Y-76706661D01*
X140401000Y-77793339D01*
X140396535Y-77838674D01*
X140385101Y-77876367D01*
X140366534Y-77911103D01*
X140341548Y-77941548D01*
X140311103Y-77966534D01*
X140276367Y-77985101D01*
X140238674Y-77996535D01*
X140193339Y-78001000D01*
X139356661Y-78001000D01*
X139311326Y-77996535D01*
X139273633Y-77985101D01*
X139238897Y-77966534D01*
X139208452Y-77941548D01*
X139183466Y-77911103D01*
X139164899Y-77876367D01*
X139153465Y-77838674D01*
X139149000Y-77793339D01*
X139149000Y-76706661D01*
X139153465Y-76661326D01*
X139164899Y-76623633D01*
X139183466Y-76588897D01*
X139208452Y-76558452D01*
X139238897Y-76533466D01*
X139273633Y-76514899D01*
X139311326Y-76503465D01*
X139356661Y-76499000D01*
X140193339Y-76499000D01*
X140238674Y-76503465D01*
X140238674Y-76503465D01*
G37*
G36*
X138188674Y-76503465D02*
G01*
X138226367Y-76514899D01*
X138261103Y-76533466D01*
X138291548Y-76558452D01*
X138316534Y-76588897D01*
X138335101Y-76623633D01*
X138346535Y-76661326D01*
X138351000Y-76706661D01*
X138351000Y-77793339D01*
X138346535Y-77838674D01*
X138335101Y-77876367D01*
X138316534Y-77911103D01*
X138291548Y-77941548D01*
X138261103Y-77966534D01*
X138226367Y-77985101D01*
X138188674Y-77996535D01*
X138143339Y-78001000D01*
X137306661Y-78001000D01*
X137261326Y-77996535D01*
X137223633Y-77985101D01*
X137188897Y-77966534D01*
X137158452Y-77941548D01*
X137133466Y-77911103D01*
X137114899Y-77876367D01*
X137103465Y-77838674D01*
X137099000Y-77793339D01*
X137099000Y-76706661D01*
X137103465Y-76661326D01*
X137114899Y-76623633D01*
X137133466Y-76588897D01*
X137158452Y-76558452D01*
X137188897Y-76533466D01*
X137223633Y-76514899D01*
X137261326Y-76503465D01*
X137306661Y-76499000D01*
X138143339Y-76499000D01*
X138188674Y-76503465D01*
X138188674Y-76503465D01*
G37*
G36*
X129911808Y-76356648D02*
G01*
X130063551Y-76402678D01*
X130203398Y-76477428D01*
X130325975Y-76578025D01*
X130426572Y-76700602D01*
X130501322Y-76840449D01*
X130547352Y-76992192D01*
X130562895Y-77150000D01*
X130547352Y-77307808D01*
X130501322Y-77459551D01*
X130426572Y-77599398D01*
X130325975Y-77721975D01*
X130203398Y-77822572D01*
X130063551Y-77897322D01*
X129911808Y-77943352D01*
X129793546Y-77955000D01*
X128206454Y-77955000D01*
X128088192Y-77943352D01*
X127936449Y-77897322D01*
X127796602Y-77822572D01*
X127674025Y-77721975D01*
X127573428Y-77599398D01*
X127498678Y-77459551D01*
X127452648Y-77307808D01*
X127437105Y-77150000D01*
X127452648Y-76992192D01*
X127498678Y-76840449D01*
X127573428Y-76700602D01*
X127674025Y-76578025D01*
X127796602Y-76477428D01*
X127936449Y-76402678D01*
X128088192Y-76356648D01*
X128206454Y-76345000D01*
X129793546Y-76345000D01*
X129911808Y-76356648D01*
X129911808Y-76356648D01*
G37*
M02*
