G04 #@! TF.GenerationSoftware,KiCad,Pcbnew,(5.1.4)-1*
<<<<<<< HEAD
G04 #@! TF.CreationDate,2020-10-17T14:20:40+02:00*
=======
G04 #@! TF.CreationDate,2020-10-04T16:00:56+02:00*
>>>>>>> 4f5eff2da70f33c6a3496d7f09484d0b736aad29
G04 #@! TF.ProjectId,Long range deauther,4c6f6e67-2072-4616-9e67-652064656175,rev?*
G04 #@! TF.SameCoordinates,Original*
G04 #@! TF.FileFunction,Soldermask,Bot*
G04 #@! TF.FilePolarity,Negative*
%FSLAX46Y46*%
G04 Gerber Fmt 4.6, Leading zero omitted, Abs format (unit mm)*
<<<<<<< HEAD
G04 Created by KiCad (PCBNEW (5.1.4)-1) date 2020-10-17 14:20:40*
=======
G04 Created by KiCad (PCBNEW (5.1.4)-1) date 2020-10-04 16:00:56*
>>>>>>> 4f5eff2da70f33c6a3496d7f09484d0b736aad29
%MOMM*%
%LPD*%
G04 APERTURE LIST*
%ADD10C,0.100000*%
G04 APERTURE END LIST*
D10*
G36*
X157948674Y-88963465D02*
G01*
X157986367Y-88974899D01*
X158021103Y-88993466D01*
X158051548Y-89018452D01*
X158076534Y-89048897D01*
X158095101Y-89083633D01*
X158106535Y-89121326D01*
X158111000Y-89166661D01*
X158111000Y-90253339D01*
X158106535Y-90298674D01*
X158095101Y-90336367D01*
X158076534Y-90371103D01*
X158051548Y-90401548D01*
X158021103Y-90426534D01*
X157986367Y-90445101D01*
X157948674Y-90456535D01*
X157903339Y-90461000D01*
X157066661Y-90461000D01*
X157021326Y-90456535D01*
X156983633Y-90445101D01*
X156948897Y-90426534D01*
X156918452Y-90401548D01*
X156893466Y-90371103D01*
X156874899Y-90336367D01*
X156863465Y-90298674D01*
X156859000Y-90253339D01*
X156859000Y-89166661D01*
X156863465Y-89121326D01*
X156874899Y-89083633D01*
X156893466Y-89048897D01*
X156918452Y-89018452D01*
X156948897Y-88993466D01*
X156983633Y-88974899D01*
X157021326Y-88963465D01*
X157066661Y-88959000D01*
X157903339Y-88959000D01*
X157948674Y-88963465D01*
X157948674Y-88963465D01*
G37*
G36*
X155898674Y-88963465D02*
G01*
X155936367Y-88974899D01*
X155971103Y-88993466D01*
X156001548Y-89018452D01*
X156026534Y-89048897D01*
X156045101Y-89083633D01*
X156056535Y-89121326D01*
X156061000Y-89166661D01*
X156061000Y-90253339D01*
X156056535Y-90298674D01*
X156045101Y-90336367D01*
X156026534Y-90371103D01*
X156001548Y-90401548D01*
X155971103Y-90426534D01*
X155936367Y-90445101D01*
X155898674Y-90456535D01*
X155853339Y-90461000D01*
X155016661Y-90461000D01*
X154971326Y-90456535D01*
X154933633Y-90445101D01*
X154898897Y-90426534D01*
X154868452Y-90401548D01*
X154843466Y-90371103D01*
X154824899Y-90336367D01*
X154813465Y-90298674D01*
X154809000Y-90253339D01*
X154809000Y-89166661D01*
X154813465Y-89121326D01*
X154824899Y-89083633D01*
X154843466Y-89048897D01*
X154868452Y-89018452D01*
X154898897Y-88993466D01*
X154933633Y-88974899D01*
X154971326Y-88963465D01*
X155016661Y-88959000D01*
X155853339Y-88959000D01*
X155898674Y-88963465D01*
X155898674Y-88963465D01*
G37*
G36*
X152911000Y-90321000D02*
G01*
X152009000Y-90321000D01*
X152009000Y-89319000D01*
X152911000Y-89319000D01*
X152911000Y-90321000D01*
X152911000Y-90321000D01*
G37*
G36*
X129577468Y-87669883D02*
G01*
X129766162Y-87727123D01*
X129940055Y-87820071D01*
X130092479Y-87945161D01*
X130217569Y-88097585D01*
X130310517Y-88271478D01*
X130367757Y-88460172D01*
X130387083Y-88656400D01*
X130367757Y-88852628D01*
X130310517Y-89041322D01*
X130217569Y-89215215D01*
X130092479Y-89367639D01*
X129940055Y-89492729D01*
X129766162Y-89585677D01*
X129766159Y-89585678D01*
X129731036Y-89596332D01*
X129577468Y-89642917D01*
X129430415Y-89657400D01*
X127732065Y-89657400D01*
X127585012Y-89642917D01*
X127431444Y-89596332D01*
X127396321Y-89585678D01*
X127396318Y-89585677D01*
X127222425Y-89492729D01*
X127070001Y-89367639D01*
X126944911Y-89215215D01*
X126851963Y-89041322D01*
X126794723Y-88852628D01*
X126775397Y-88656400D01*
X126794723Y-88460172D01*
X126851963Y-88271478D01*
X126944911Y-88097585D01*
X127070001Y-87945161D01*
X127222425Y-87820071D01*
X127396318Y-87727123D01*
X127585012Y-87669883D01*
X127732065Y-87655400D01*
X129430415Y-87655400D01*
X129577468Y-87669883D01*
X129577468Y-87669883D01*
G37*
G36*
<<<<<<< HEAD
X135878231Y-88816705D02*
G01*
X135916967Y-88824410D01*
X135947195Y-88836931D01*
X135989944Y-88854638D01*
X136055622Y-88898523D01*
X136111477Y-88954378D01*
X136155362Y-89020056D01*
X136167308Y-89048897D01*
X136183848Y-89088827D01*
X136185590Y-89093034D01*
X136200236Y-89166661D01*
X136201000Y-89170505D01*
X136201000Y-89249495D01*
X136185590Y-89326967D01*
X136173659Y-89355770D01*
X136155362Y-89399944D01*
X136111477Y-89465622D01*
X136055622Y-89521477D01*
X135989944Y-89565362D01*
X135947195Y-89583069D01*
X135916967Y-89595590D01*
X135878231Y-89603295D01*
X135839496Y-89611000D01*
X135760504Y-89611000D01*
X135721769Y-89603295D01*
X135683033Y-89595590D01*
X135652805Y-89583069D01*
X135610056Y-89565362D01*
X135544378Y-89521477D01*
X135488523Y-89465622D01*
X135444638Y-89399944D01*
X135426341Y-89355770D01*
X135414410Y-89326967D01*
X135399000Y-89249495D01*
X135399000Y-89170505D01*
X135399765Y-89166661D01*
X135414410Y-89093034D01*
X135416153Y-89088827D01*
X135432692Y-89048897D01*
X135444638Y-89020056D01*
X135488523Y-88954378D01*
X135544378Y-88898523D01*
X135610056Y-88854638D01*
X135652805Y-88836931D01*
X135683033Y-88824410D01*
X135721769Y-88816705D01*
X135760504Y-88809000D01*
X135839496Y-88809000D01*
X135878231Y-88816705D01*
X135878231Y-88816705D01*
G37*
G36*
X134178231Y-88816705D02*
G01*
X134216967Y-88824410D01*
X134247195Y-88836931D01*
X134289944Y-88854638D01*
X134355622Y-88898523D01*
X134411477Y-88954378D01*
X134455362Y-89020056D01*
X134467308Y-89048897D01*
X134483848Y-89088827D01*
X134485590Y-89093034D01*
X134500236Y-89166661D01*
X134501000Y-89170505D01*
X134501000Y-89249495D01*
X134485590Y-89326967D01*
X134473659Y-89355770D01*
X134455362Y-89399944D01*
X134411477Y-89465622D01*
X134355622Y-89521477D01*
X134289944Y-89565362D01*
X134247195Y-89583069D01*
X134216967Y-89595590D01*
X134178231Y-89603295D01*
X134139496Y-89611000D01*
X134060504Y-89611000D01*
X134021769Y-89603295D01*
X133983033Y-89595590D01*
X133952805Y-89583069D01*
X133910056Y-89565362D01*
X133844378Y-89521477D01*
X133788523Y-89465622D01*
X133744638Y-89399944D01*
X133726341Y-89355770D01*
X133714410Y-89326967D01*
X133699000Y-89249495D01*
X133699000Y-89170505D01*
X133699765Y-89166661D01*
X133714410Y-89093034D01*
X133716153Y-89088827D01*
X133732692Y-89048897D01*
X133744638Y-89020056D01*
X133788523Y-88954378D01*
X133844378Y-88898523D01*
X133910056Y-88854638D01*
X133952805Y-88836931D01*
X133983033Y-88824410D01*
X134021769Y-88816705D01*
X134060504Y-88809000D01*
X134139496Y-88809000D01*
X134178231Y-88816705D01*
X134178231Y-88816705D01*
=======
X134178231Y-88811505D02*
G01*
X134216967Y-88819210D01*
X134247195Y-88831731D01*
X134289944Y-88849438D01*
X134355622Y-88893323D01*
X134411477Y-88949178D01*
X134455362Y-89014856D01*
X134456851Y-89018452D01*
X134482330Y-89079962D01*
X134485590Y-89087834D01*
X134496350Y-89141925D01*
X134501000Y-89165305D01*
X134501000Y-89244295D01*
X134485590Y-89321767D01*
X134473069Y-89351995D01*
X134455362Y-89394744D01*
X134411477Y-89460422D01*
X134355622Y-89516277D01*
X134289944Y-89560162D01*
X134247195Y-89577869D01*
X134216967Y-89590390D01*
X134178231Y-89598095D01*
X134139496Y-89605800D01*
X134060504Y-89605800D01*
X134021769Y-89598095D01*
X133983033Y-89590390D01*
X133952805Y-89577869D01*
X133910056Y-89560162D01*
X133844378Y-89516277D01*
X133788523Y-89460422D01*
X133744638Y-89394744D01*
X133726931Y-89351995D01*
X133714410Y-89321767D01*
X133699000Y-89244295D01*
X133699000Y-89165305D01*
X133703651Y-89141925D01*
X133714410Y-89087834D01*
X133717671Y-89079962D01*
X133743149Y-89018452D01*
X133744638Y-89014856D01*
X133788523Y-88949178D01*
X133844378Y-88893323D01*
X133910056Y-88849438D01*
X133952805Y-88831731D01*
X133983033Y-88819210D01*
X134021769Y-88811505D01*
X134060504Y-88803800D01*
X134139496Y-88803800D01*
X134178231Y-88811505D01*
X134178231Y-88811505D01*
G37*
G36*
X135878231Y-88811505D02*
G01*
X135916967Y-88819210D01*
X135947195Y-88831731D01*
X135989944Y-88849438D01*
X136055622Y-88893323D01*
X136111477Y-88949178D01*
X136155362Y-89014856D01*
X136156851Y-89018452D01*
X136182330Y-89079962D01*
X136185590Y-89087834D01*
X136196350Y-89141925D01*
X136201000Y-89165305D01*
X136201000Y-89244295D01*
X136185590Y-89321767D01*
X136173069Y-89351995D01*
X136155362Y-89394744D01*
X136111477Y-89460422D01*
X136055622Y-89516277D01*
X135989944Y-89560162D01*
X135947195Y-89577869D01*
X135916967Y-89590390D01*
X135878231Y-89598095D01*
X135839496Y-89605800D01*
X135760504Y-89605800D01*
X135721769Y-89598095D01*
X135683033Y-89590390D01*
X135652805Y-89577869D01*
X135610056Y-89560162D01*
X135544378Y-89516277D01*
X135488523Y-89460422D01*
X135444638Y-89394744D01*
X135426931Y-89351995D01*
X135414410Y-89321767D01*
X135399000Y-89244295D01*
X135399000Y-89165305D01*
X135403651Y-89141925D01*
X135414410Y-89087834D01*
X135417671Y-89079962D01*
X135443149Y-89018452D01*
X135444638Y-89014856D01*
X135488523Y-88949178D01*
X135544378Y-88893323D01*
X135610056Y-88849438D01*
X135652805Y-88831731D01*
X135683033Y-88819210D01*
X135721769Y-88811505D01*
X135760504Y-88803800D01*
X135839496Y-88803800D01*
X135878231Y-88811505D01*
X135878231Y-88811505D01*
G37*
G36*
X140658674Y-87863465D02*
G01*
X140696367Y-87874899D01*
X140731103Y-87893466D01*
X140761548Y-87918452D01*
X140786534Y-87948897D01*
X140805101Y-87983633D01*
X140816535Y-88021326D01*
X140821000Y-88066661D01*
X140821000Y-89153339D01*
X140816535Y-89198674D01*
X140805101Y-89236367D01*
X140786534Y-89271103D01*
X140761548Y-89301548D01*
X140731103Y-89326534D01*
X140696367Y-89345101D01*
X140658674Y-89356535D01*
X140613339Y-89361000D01*
X139776661Y-89361000D01*
X139731326Y-89356535D01*
X139693633Y-89345101D01*
X139658897Y-89326534D01*
X139628452Y-89301548D01*
X139603466Y-89271103D01*
X139584899Y-89236367D01*
X139573465Y-89198674D01*
X139569000Y-89153339D01*
X139569000Y-88066661D01*
X139573465Y-88021326D01*
X139584899Y-87983633D01*
X139603466Y-87948897D01*
X139628452Y-87918452D01*
X139658897Y-87893466D01*
X139693633Y-87874899D01*
X139731326Y-87863465D01*
X139776661Y-87859000D01*
X140613339Y-87859000D01*
X140658674Y-87863465D01*
X140658674Y-87863465D01*
>>>>>>> 4f5eff2da70f33c6a3496d7f09484d0b736aad29
G37*
G36*
X138608674Y-87863465D02*
G01*
X138646367Y-87874899D01*
X138681103Y-87893466D01*
X138711548Y-87918452D01*
X138736534Y-87948897D01*
X138755101Y-87983633D01*
X138766535Y-88021326D01*
X138771000Y-88066661D01*
X138771000Y-89153339D01*
X138766535Y-89198674D01*
X138755101Y-89236367D01*
X138736534Y-89271103D01*
X138711548Y-89301548D01*
X138681103Y-89326534D01*
X138646367Y-89345101D01*
X138608674Y-89356535D01*
X138563339Y-89361000D01*
X137726661Y-89361000D01*
X137681326Y-89356535D01*
X137643633Y-89345101D01*
X137608897Y-89326534D01*
X137578452Y-89301548D01*
X137553466Y-89271103D01*
X137534899Y-89236367D01*
X137523465Y-89198674D01*
X137519000Y-89153339D01*
X137519000Y-88066661D01*
X137523465Y-88021326D01*
X137534899Y-87983633D01*
X137553466Y-87948897D01*
X137578452Y-87918452D01*
X137608897Y-87893466D01*
X137643633Y-87874899D01*
X137681326Y-87863465D01*
X137726661Y-87859000D01*
X138563339Y-87859000D01*
X138608674Y-87863465D01*
X138608674Y-87863465D01*
G37*
G36*
X140658674Y-87863465D02*
G01*
X140696367Y-87874899D01*
X140731103Y-87893466D01*
X140761548Y-87918452D01*
X140786534Y-87948897D01*
X140805101Y-87983633D01*
X140816535Y-88021326D01*
X140821000Y-88066661D01*
X140821000Y-89153339D01*
X140816535Y-89198674D01*
X140805101Y-89236367D01*
X140786534Y-89271103D01*
X140761548Y-89301548D01*
X140731103Y-89326534D01*
X140696367Y-89345101D01*
X140658674Y-89356535D01*
X140613339Y-89361000D01*
X139776661Y-89361000D01*
X139731326Y-89356535D01*
X139693633Y-89345101D01*
X139658897Y-89326534D01*
X139628452Y-89301548D01*
X139603466Y-89271103D01*
X139584899Y-89236367D01*
X139573465Y-89198674D01*
X139569000Y-89153339D01*
X139569000Y-88066661D01*
X139573465Y-88021326D01*
X139584899Y-87983633D01*
X139603466Y-87948897D01*
X139628452Y-87918452D01*
X139658897Y-87893466D01*
X139693633Y-87874899D01*
X139731326Y-87863465D01*
X139776661Y-87859000D01*
X140613339Y-87859000D01*
X140658674Y-87863465D01*
X140658674Y-87863465D01*
G37*
G36*
X155898674Y-87063465D02*
G01*
X155936367Y-87074899D01*
X155971103Y-87093466D01*
X156001548Y-87118452D01*
X156026534Y-87148897D01*
X156045101Y-87183633D01*
X156056535Y-87221326D01*
X156061000Y-87266661D01*
X156061000Y-88353339D01*
X156056535Y-88398674D01*
X156045101Y-88436367D01*
X156026534Y-88471103D01*
X156001548Y-88501548D01*
X155971103Y-88526534D01*
X155936367Y-88545101D01*
X155898674Y-88556535D01*
X155853339Y-88561000D01*
X155016661Y-88561000D01*
X154971326Y-88556535D01*
X154933633Y-88545101D01*
X154898897Y-88526534D01*
X154868452Y-88501548D01*
X154843466Y-88471103D01*
X154824899Y-88436367D01*
X154813465Y-88398674D01*
X154809000Y-88353339D01*
X154809000Y-87266661D01*
X154813465Y-87221326D01*
X154824899Y-87183633D01*
X154843466Y-87148897D01*
X154868452Y-87118452D01*
X154898897Y-87093466D01*
X154933633Y-87074899D01*
X154971326Y-87063465D01*
X155016661Y-87059000D01*
X155853339Y-87059000D01*
X155898674Y-87063465D01*
X155898674Y-87063465D01*
G37*
G36*
X157948674Y-87063465D02*
G01*
X157986367Y-87074899D01*
X158021103Y-87093466D01*
X158051548Y-87118452D01*
X158076534Y-87148897D01*
X158095101Y-87183633D01*
X158106535Y-87221326D01*
X158111000Y-87266661D01*
X158111000Y-88353339D01*
X158106535Y-88398674D01*
X158095101Y-88436367D01*
X158076534Y-88471103D01*
X158051548Y-88501548D01*
X158021103Y-88526534D01*
X157986367Y-88545101D01*
X157948674Y-88556535D01*
X157903339Y-88561000D01*
X157066661Y-88561000D01*
X157021326Y-88556535D01*
X156983633Y-88545101D01*
X156948897Y-88526534D01*
X156918452Y-88501548D01*
X156893466Y-88471103D01*
X156874899Y-88436367D01*
X156863465Y-88398674D01*
X156859000Y-88353339D01*
X156859000Y-87266661D01*
X156863465Y-87221326D01*
X156874899Y-87183633D01*
X156893466Y-87148897D01*
X156918452Y-87118452D01*
X156948897Y-87093466D01*
X156983633Y-87074899D01*
X157021326Y-87063465D01*
X157066661Y-87059000D01*
X157903339Y-87059000D01*
X157948674Y-87063465D01*
X157948674Y-87063465D01*
G37*
G36*
X135658674Y-87053465D02*
G01*
X135696367Y-87064899D01*
X135731103Y-87083466D01*
X135761548Y-87108452D01*
X135786534Y-87138897D01*
X135805101Y-87173633D01*
X135816535Y-87211326D01*
X135821000Y-87256661D01*
X135821000Y-88343339D01*
X135816535Y-88388674D01*
X135805101Y-88426367D01*
X135786534Y-88461103D01*
X135761548Y-88491548D01*
X135731103Y-88516534D01*
X135696367Y-88535101D01*
X135658674Y-88546535D01*
X135613339Y-88551000D01*
X134776661Y-88551000D01*
X134731326Y-88546535D01*
X134693633Y-88535101D01*
X134658897Y-88516534D01*
X134628452Y-88491548D01*
X134603466Y-88461103D01*
X134584899Y-88426367D01*
X134573465Y-88388674D01*
X134569000Y-88343339D01*
X134569000Y-87256661D01*
X134573465Y-87211326D01*
X134584899Y-87173633D01*
X134603466Y-87138897D01*
X134628452Y-87108452D01*
X134658897Y-87083466D01*
X134693633Y-87064899D01*
X134731326Y-87053465D01*
X134776661Y-87049000D01*
X135613339Y-87049000D01*
X135658674Y-87053465D01*
X135658674Y-87053465D01*
G37*
G36*
X133608674Y-87053465D02*
G01*
X133646367Y-87064899D01*
X133681103Y-87083466D01*
X133711548Y-87108452D01*
X133736534Y-87138897D01*
X133755101Y-87173633D01*
X133766535Y-87211326D01*
X133771000Y-87256661D01*
X133771000Y-88343339D01*
X133766535Y-88388674D01*
X133755101Y-88426367D01*
X133736534Y-88461103D01*
X133711548Y-88491548D01*
X133681103Y-88516534D01*
X133646367Y-88535101D01*
X133608674Y-88546535D01*
X133563339Y-88551000D01*
X132726661Y-88551000D01*
X132681326Y-88546535D01*
X132643633Y-88535101D01*
X132608897Y-88516534D01*
X132578452Y-88491548D01*
X132553466Y-88461103D01*
X132534899Y-88426367D01*
X132523465Y-88388674D01*
X132519000Y-88343339D01*
X132519000Y-87256661D01*
X132523465Y-87211326D01*
X132534899Y-87173633D01*
X132553466Y-87138897D01*
X132578452Y-87108452D01*
X132608897Y-87083466D01*
X132643633Y-87064899D01*
X132681326Y-87053465D01*
X132726661Y-87049000D01*
X133563339Y-87049000D01*
X133608674Y-87053465D01*
X133608674Y-87053465D01*
G37*
G36*
X151961000Y-88321000D02*
G01*
X151059000Y-88321000D01*
X151059000Y-87319000D01*
X151961000Y-87319000D01*
X151961000Y-88321000D01*
X151961000Y-88321000D01*
G37*
G36*
X153861000Y-88321000D02*
G01*
X152959000Y-88321000D01*
X152959000Y-87319000D01*
X153861000Y-87319000D01*
X153861000Y-88321000D01*
X153861000Y-88321000D01*
G37*
G36*
X140658674Y-85963465D02*
G01*
X140696367Y-85974899D01*
X140731103Y-85993466D01*
X140761548Y-86018452D01*
X140786534Y-86048897D01*
X140805101Y-86083633D01*
X140816535Y-86121326D01*
X140821000Y-86166661D01*
X140821000Y-87253339D01*
X140816535Y-87298674D01*
X140805101Y-87336367D01*
X140786534Y-87371103D01*
X140761548Y-87401548D01*
X140731103Y-87426534D01*
X140696367Y-87445101D01*
X140658674Y-87456535D01*
X140613339Y-87461000D01*
X139776661Y-87461000D01*
X139731326Y-87456535D01*
X139693633Y-87445101D01*
X139658897Y-87426534D01*
X139628452Y-87401548D01*
X139603466Y-87371103D01*
X139584899Y-87336367D01*
X139573465Y-87298674D01*
X139569000Y-87253339D01*
X139569000Y-86166661D01*
X139573465Y-86121326D01*
X139584899Y-86083633D01*
X139603466Y-86048897D01*
X139628452Y-86018452D01*
X139658897Y-85993466D01*
X139693633Y-85974899D01*
X139731326Y-85963465D01*
X139776661Y-85959000D01*
X140613339Y-85959000D01*
X140658674Y-85963465D01*
X140658674Y-85963465D01*
G37*
G36*
X138608674Y-85963465D02*
G01*
X138646367Y-85974899D01*
X138681103Y-85993466D01*
X138711548Y-86018452D01*
X138736534Y-86048897D01*
X138755101Y-86083633D01*
X138766535Y-86121326D01*
X138771000Y-86166661D01*
X138771000Y-87253339D01*
X138766535Y-87298674D01*
X138755101Y-87336367D01*
X138736534Y-87371103D01*
X138711548Y-87401548D01*
X138681103Y-87426534D01*
X138646367Y-87445101D01*
X138608674Y-87456535D01*
X138563339Y-87461000D01*
X137726661Y-87461000D01*
X137681326Y-87456535D01*
X137643633Y-87445101D01*
X137608897Y-87426534D01*
X137578452Y-87401548D01*
X137553466Y-87371103D01*
X137534899Y-87336367D01*
X137523465Y-87298674D01*
X137519000Y-87253339D01*
X137519000Y-86166661D01*
X137523465Y-86121326D01*
X137534899Y-86083633D01*
X137553466Y-86048897D01*
X137578452Y-86018452D01*
X137608897Y-85993466D01*
X137643633Y-85974899D01*
X137681326Y-85963465D01*
X137726661Y-85959000D01*
X138563339Y-85959000D01*
X138608674Y-85963465D01*
X138608674Y-85963465D01*
G37*
G36*
X154048674Y-85623465D02*
G01*
X154086367Y-85634899D01*
X154121103Y-85653466D01*
X154151548Y-85678452D01*
X154176534Y-85708897D01*
X154195101Y-85743633D01*
X154206535Y-85781326D01*
X154211000Y-85826661D01*
X154211000Y-86663339D01*
X154206535Y-86708674D01*
X154195101Y-86746367D01*
X154176534Y-86781103D01*
X154151548Y-86811548D01*
X154121103Y-86836534D01*
X154086367Y-86855101D01*
X154048674Y-86866535D01*
X154003339Y-86871000D01*
X152916661Y-86871000D01*
X152871326Y-86866535D01*
X152833633Y-86855101D01*
X152798897Y-86836534D01*
X152768452Y-86811548D01*
X152743466Y-86781103D01*
X152724899Y-86746367D01*
X152713465Y-86708674D01*
X152709000Y-86663339D01*
X152709000Y-85826661D01*
X152713465Y-85781326D01*
X152724899Y-85743633D01*
X152743466Y-85708897D01*
X152768452Y-85678452D01*
X152798897Y-85653466D01*
X152833633Y-85634899D01*
X152871326Y-85623465D01*
X152916661Y-85619000D01*
X154003339Y-85619000D01*
X154048674Y-85623465D01*
X154048674Y-85623465D01*
G37*
G36*
X152148674Y-85623465D02*
G01*
X152186367Y-85634899D01*
X152221103Y-85653466D01*
X152251548Y-85678452D01*
X152276534Y-85708897D01*
X152295101Y-85743633D01*
X152306535Y-85781326D01*
X152311000Y-85826661D01*
X152311000Y-86663339D01*
X152306535Y-86708674D01*
X152295101Y-86746367D01*
X152276534Y-86781103D01*
X152251548Y-86811548D01*
X152221103Y-86836534D01*
X152186367Y-86855101D01*
X152148674Y-86866535D01*
X152103339Y-86871000D01*
X151016661Y-86871000D01*
X150971326Y-86866535D01*
X150933633Y-86855101D01*
X150898897Y-86836534D01*
X150868452Y-86811548D01*
X150843466Y-86781103D01*
X150824899Y-86746367D01*
X150813465Y-86708674D01*
X150809000Y-86663339D01*
X150809000Y-85826661D01*
X150813465Y-85781326D01*
X150824899Y-85743633D01*
X150843466Y-85708897D01*
X150868452Y-85678452D01*
X150898897Y-85653466D01*
X150933633Y-85634899D01*
X150971326Y-85623465D01*
X151016661Y-85619000D01*
X152103339Y-85619000D01*
X152148674Y-85623465D01*
X152148674Y-85623465D01*
G37*
G36*
X161645560Y-84393064D02*
G01*
X161797027Y-84423193D01*
X162011045Y-84511842D01*
X162011046Y-84511843D01*
X162203654Y-84640539D01*
X162367461Y-84804346D01*
X162383600Y-84828500D01*
X162496158Y-84996955D01*
X162584807Y-85210973D01*
X162608866Y-85331925D01*
X162628608Y-85431173D01*
X162630000Y-85438174D01*
X162630000Y-85669826D01*
X162584807Y-85897027D01*
X162496158Y-86111045D01*
X162496157Y-86111046D01*
X162367461Y-86303654D01*
X162203654Y-86467461D01*
X162100528Y-86536367D01*
X162011045Y-86596158D01*
X161797027Y-86684807D01*
X161677039Y-86708674D01*
X161569827Y-86730000D01*
X161338173Y-86730000D01*
X161230961Y-86708674D01*
X161110973Y-86684807D01*
X160896955Y-86596158D01*
X160807472Y-86536367D01*
X160704346Y-86467461D01*
X160540539Y-86303654D01*
X160411843Y-86111046D01*
X160411842Y-86111045D01*
X160323193Y-85897027D01*
X160278000Y-85669826D01*
X160278000Y-85438174D01*
X160279393Y-85431173D01*
X160299134Y-85331925D01*
X160323193Y-85210973D01*
X160411842Y-84996955D01*
X160524400Y-84828500D01*
X160540539Y-84804346D01*
X160704346Y-84640539D01*
X160896954Y-84511843D01*
X160896955Y-84511842D01*
X161110973Y-84423193D01*
X161262440Y-84393064D01*
X161338173Y-84378000D01*
X161569827Y-84378000D01*
X161645560Y-84393064D01*
X161645560Y-84393064D01*
G37*
G36*
X166725560Y-84393064D02*
G01*
X166877027Y-84423193D01*
X167091045Y-84511842D01*
X167091046Y-84511843D01*
X167283654Y-84640539D01*
X167447461Y-84804346D01*
X167463600Y-84828500D01*
X167576158Y-84996955D01*
X167664807Y-85210973D01*
X167688866Y-85331925D01*
X167708608Y-85431173D01*
X167710000Y-85438174D01*
X167710000Y-85669826D01*
X167664807Y-85897027D01*
X167576158Y-86111045D01*
X167576157Y-86111046D01*
X167447461Y-86303654D01*
X167283654Y-86467461D01*
X167180528Y-86536367D01*
X167091045Y-86596158D01*
X166877027Y-86684807D01*
X166757039Y-86708674D01*
X166649827Y-86730000D01*
X166418173Y-86730000D01*
X166310961Y-86708674D01*
X166190973Y-86684807D01*
X165976955Y-86596158D01*
X165887472Y-86536367D01*
X165784346Y-86467461D01*
X165620539Y-86303654D01*
X165491843Y-86111046D01*
X165491842Y-86111045D01*
X165403193Y-85897027D01*
X165358000Y-85669826D01*
X165358000Y-85438174D01*
X165359393Y-85431173D01*
X165379134Y-85331925D01*
X165403193Y-85210973D01*
X165491842Y-84996955D01*
X165604400Y-84828500D01*
X165620539Y-84804346D01*
X165784346Y-84640539D01*
X165976954Y-84511843D01*
X165976955Y-84511842D01*
X166190973Y-84423193D01*
X166342440Y-84393064D01*
X166418173Y-84378000D01*
X166649827Y-84378000D01*
X166725560Y-84393064D01*
X166725560Y-84393064D01*
G37*
G36*
X155898674Y-85163465D02*
G01*
X155936367Y-85174899D01*
X155971103Y-85193466D01*
X156001548Y-85218452D01*
X156026534Y-85248897D01*
X156045101Y-85283633D01*
X156056535Y-85321326D01*
X156061000Y-85366661D01*
X156061000Y-86453339D01*
X156056535Y-86498674D01*
X156045101Y-86536367D01*
X156026534Y-86571103D01*
X156001548Y-86601548D01*
X155971103Y-86626534D01*
X155936367Y-86645101D01*
X155898674Y-86656535D01*
X155853339Y-86661000D01*
X155016661Y-86661000D01*
X154971326Y-86656535D01*
X154933633Y-86645101D01*
X154898897Y-86626534D01*
X154868452Y-86601548D01*
X154843466Y-86571103D01*
X154824899Y-86536367D01*
X154813465Y-86498674D01*
X154809000Y-86453339D01*
X154809000Y-85366661D01*
X154813465Y-85321326D01*
X154824899Y-85283633D01*
X154843466Y-85248897D01*
X154868452Y-85218452D01*
X154898897Y-85193466D01*
X154933633Y-85174899D01*
X154971326Y-85163465D01*
X155016661Y-85159000D01*
X155853339Y-85159000D01*
X155898674Y-85163465D01*
X155898674Y-85163465D01*
G37*
G36*
X157948674Y-85163465D02*
G01*
X157986367Y-85174899D01*
X158021103Y-85193466D01*
X158051548Y-85218452D01*
X158076534Y-85248897D01*
X158095101Y-85283633D01*
X158106535Y-85321326D01*
X158111000Y-85366661D01*
X158111000Y-86453339D01*
X158106535Y-86498674D01*
X158095101Y-86536367D01*
X158076534Y-86571103D01*
X158051548Y-86601548D01*
X158021103Y-86626534D01*
X157986367Y-86645101D01*
X157948674Y-86656535D01*
X157903339Y-86661000D01*
X157066661Y-86661000D01*
X157021326Y-86656535D01*
X156983633Y-86645101D01*
X156948897Y-86626534D01*
X156918452Y-86601548D01*
X156893466Y-86571103D01*
X156874899Y-86536367D01*
X156863465Y-86498674D01*
X156859000Y-86453339D01*
X156859000Y-85366661D01*
X156863465Y-85321326D01*
X156874899Y-85283633D01*
X156893466Y-85248897D01*
X156918452Y-85218452D01*
X156948897Y-85193466D01*
X156983633Y-85174899D01*
X157021326Y-85163465D01*
X157066661Y-85159000D01*
X157903339Y-85159000D01*
X157948674Y-85163465D01*
X157948674Y-85163465D01*
G37*
G36*
X133608674Y-85153465D02*
G01*
X133646367Y-85164899D01*
X133681103Y-85183466D01*
X133711548Y-85208452D01*
X133736534Y-85238897D01*
X133755101Y-85273633D01*
X133766535Y-85311326D01*
X133771000Y-85356661D01*
X133771000Y-86443339D01*
X133766535Y-86488674D01*
X133755101Y-86526367D01*
X133736534Y-86561103D01*
X133711548Y-86591548D01*
X133681103Y-86616534D01*
X133646367Y-86635101D01*
X133608674Y-86646535D01*
X133563339Y-86651000D01*
X132726661Y-86651000D01*
X132681326Y-86646535D01*
X132643633Y-86635101D01*
X132608897Y-86616534D01*
X132578452Y-86591548D01*
X132553466Y-86561103D01*
X132534899Y-86526367D01*
X132523465Y-86488674D01*
X132519000Y-86443339D01*
X132519000Y-85356661D01*
X132523465Y-85311326D01*
X132534899Y-85273633D01*
X132553466Y-85238897D01*
X132578452Y-85208452D01*
X132608897Y-85183466D01*
X132643633Y-85164899D01*
X132681326Y-85153465D01*
X132726661Y-85149000D01*
X133563339Y-85149000D01*
X133608674Y-85153465D01*
X133608674Y-85153465D01*
G37*
G36*
X135658674Y-85153465D02*
G01*
X135696367Y-85164899D01*
X135731103Y-85183466D01*
X135761548Y-85208452D01*
X135786534Y-85238897D01*
X135805101Y-85273633D01*
X135816535Y-85311326D01*
X135821000Y-85356661D01*
X135821000Y-86443339D01*
X135816535Y-86488674D01*
X135805101Y-86526367D01*
X135786534Y-86561103D01*
X135761548Y-86591548D01*
X135731103Y-86616534D01*
X135696367Y-86635101D01*
X135658674Y-86646535D01*
X135613339Y-86651000D01*
X134776661Y-86651000D01*
X134731326Y-86646535D01*
X134693633Y-86635101D01*
X134658897Y-86616534D01*
X134628452Y-86591548D01*
X134603466Y-86561103D01*
X134584899Y-86526367D01*
X134573465Y-86488674D01*
X134569000Y-86443339D01*
X134569000Y-85356661D01*
X134573465Y-85311326D01*
X134584899Y-85273633D01*
X134603466Y-85238897D01*
X134628452Y-85208452D01*
X134658897Y-85183466D01*
X134693633Y-85164899D01*
X134731326Y-85153465D01*
X134776661Y-85149000D01*
X135613339Y-85149000D01*
X135658674Y-85153465D01*
X135658674Y-85153465D01*
G37*
G36*
X149281000Y-86098500D02*
G01*
X147979000Y-86098500D01*
X147979000Y-79881500D01*
X149281000Y-79881500D01*
X149281000Y-86098500D01*
X149281000Y-86098500D01*
G37*
G36*
X144081000Y-86098500D02*
G01*
X142779000Y-86098500D01*
X142779000Y-79881500D01*
X144081000Y-79881500D01*
X144081000Y-86098500D01*
X144081000Y-86098500D01*
G37*
G36*
X128717841Y-84670797D02*
G01*
X128756545Y-84678496D01*
X128788055Y-84691548D01*
X128865920Y-84723800D01*
X128964355Y-84789573D01*
X129048067Y-84873285D01*
X129113840Y-84971720D01*
X129159144Y-85081096D01*
X129182240Y-85197205D01*
X129182240Y-85315595D01*
X129176721Y-85343339D01*
X129159476Y-85430038D01*
X129159144Y-85431704D01*
X129113840Y-85541080D01*
X129048067Y-85639515D01*
X128964355Y-85723227D01*
X128865920Y-85789000D01*
X128788580Y-85821035D01*
X128756545Y-85834304D01*
X128717841Y-85842003D01*
X128640435Y-85857400D01*
X128522045Y-85857400D01*
X128444639Y-85842003D01*
X128405935Y-85834304D01*
X128373900Y-85821035D01*
X128296560Y-85789000D01*
X128198125Y-85723227D01*
X128114413Y-85639515D01*
X128048640Y-85541080D01*
X128003336Y-85431704D01*
X128003005Y-85430038D01*
X127985759Y-85343339D01*
X127980240Y-85315595D01*
X127980240Y-85197205D01*
X128003336Y-85081096D01*
X128048640Y-84971720D01*
X128114413Y-84873285D01*
X128198125Y-84789573D01*
X128296560Y-84723800D01*
X128374425Y-84691548D01*
X128405935Y-84678496D01*
X128444639Y-84670797D01*
X128522045Y-84655400D01*
X128640435Y-84655400D01*
X128717841Y-84670797D01*
X128717841Y-84670797D01*
G37*
G36*
X138608674Y-84053465D02*
G01*
X138646367Y-84064899D01*
X138681103Y-84083466D01*
X138711548Y-84108452D01*
X138736534Y-84138897D01*
X138755101Y-84173633D01*
X138766535Y-84211326D01*
X138771000Y-84256661D01*
X138771000Y-85343339D01*
X138766535Y-85388674D01*
X138755101Y-85426367D01*
X138736534Y-85461103D01*
X138711548Y-85491548D01*
X138681103Y-85516534D01*
X138646367Y-85535101D01*
X138608674Y-85546535D01*
X138563339Y-85551000D01*
X137726661Y-85551000D01*
X137681326Y-85546535D01*
X137643633Y-85535101D01*
X137608897Y-85516534D01*
X137578452Y-85491548D01*
X137553466Y-85461103D01*
X137534899Y-85426367D01*
X137523465Y-85388674D01*
X137519000Y-85343339D01*
X137519000Y-84256661D01*
X137523465Y-84211326D01*
X137534899Y-84173633D01*
X137553466Y-84138897D01*
X137578452Y-84108452D01*
X137608897Y-84083466D01*
X137643633Y-84064899D01*
X137681326Y-84053465D01*
X137726661Y-84049000D01*
X138563339Y-84049000D01*
X138608674Y-84053465D01*
X138608674Y-84053465D01*
G37*
G36*
X140658674Y-84053465D02*
G01*
X140696367Y-84064899D01*
X140731103Y-84083466D01*
X140761548Y-84108452D01*
X140786534Y-84138897D01*
X140805101Y-84173633D01*
X140816535Y-84211326D01*
X140821000Y-84256661D01*
X140821000Y-85343339D01*
X140816535Y-85388674D01*
X140805101Y-85426367D01*
X140786534Y-85461103D01*
X140761548Y-85491548D01*
X140731103Y-85516534D01*
X140696367Y-85535101D01*
X140658674Y-85546535D01*
X140613339Y-85551000D01*
X139776661Y-85551000D01*
X139731326Y-85546535D01*
X139693633Y-85535101D01*
X139658897Y-85516534D01*
X139628452Y-85491548D01*
X139603466Y-85461103D01*
X139584899Y-85426367D01*
X139573465Y-85388674D01*
X139569000Y-85343339D01*
X139569000Y-84256661D01*
X139573465Y-84211326D01*
X139584899Y-84173633D01*
X139603466Y-84138897D01*
X139628452Y-84108452D01*
X139658897Y-84083466D01*
X139693633Y-84064899D01*
X139731326Y-84053465D01*
X139776661Y-84049000D01*
X140613339Y-84049000D01*
X140658674Y-84053465D01*
X140658674Y-84053465D01*
G37*
G36*
X152148674Y-83573465D02*
G01*
X152186367Y-83584899D01*
X152221103Y-83603466D01*
X152251548Y-83628452D01*
X152276534Y-83658897D01*
X152295101Y-83693633D01*
X152306535Y-83731326D01*
X152311000Y-83776661D01*
X152311000Y-84613339D01*
X152306535Y-84658674D01*
X152295101Y-84696367D01*
X152276534Y-84731103D01*
X152251548Y-84761548D01*
X152221103Y-84786534D01*
X152186367Y-84805101D01*
X152148674Y-84816535D01*
X152103339Y-84821000D01*
X151016661Y-84821000D01*
X150971326Y-84816535D01*
X150933633Y-84805101D01*
X150898897Y-84786534D01*
X150868452Y-84761548D01*
X150843466Y-84731103D01*
X150824899Y-84696367D01*
X150813465Y-84658674D01*
X150809000Y-84613339D01*
X150809000Y-83776661D01*
X150813465Y-83731326D01*
X150824899Y-83693633D01*
X150843466Y-83658897D01*
X150868452Y-83628452D01*
X150898897Y-83603466D01*
X150933633Y-83584899D01*
X150971326Y-83573465D01*
X151016661Y-83569000D01*
X152103339Y-83569000D01*
X152148674Y-83573465D01*
X152148674Y-83573465D01*
G37*
G36*
X154048674Y-83573465D02*
G01*
X154086367Y-83584899D01*
X154121103Y-83603466D01*
X154151548Y-83628452D01*
X154176534Y-83658897D01*
X154195101Y-83693633D01*
X154206535Y-83731326D01*
X154211000Y-83776661D01*
X154211000Y-84613339D01*
X154206535Y-84658674D01*
X154195101Y-84696367D01*
X154176534Y-84731103D01*
X154151548Y-84761548D01*
X154121103Y-84786534D01*
X154086367Y-84805101D01*
X154048674Y-84816535D01*
X154003339Y-84821000D01*
X152916661Y-84821000D01*
X152871326Y-84816535D01*
X152833633Y-84805101D01*
X152798897Y-84786534D01*
X152768452Y-84761548D01*
X152743466Y-84731103D01*
X152724899Y-84696367D01*
X152713465Y-84658674D01*
X152709000Y-84613339D01*
X152709000Y-83776661D01*
X152713465Y-83731326D01*
X152724899Y-83693633D01*
X152743466Y-83658897D01*
X152768452Y-83628452D01*
X152798897Y-83603466D01*
X152833633Y-83584899D01*
X152871326Y-83573465D01*
X152916661Y-83569000D01*
X154003339Y-83569000D01*
X154048674Y-83573465D01*
X154048674Y-83573465D01*
G37*
G36*
X157948674Y-83263465D02*
G01*
X157986367Y-83274899D01*
X158021103Y-83293466D01*
X158051548Y-83318452D01*
X158076534Y-83348897D01*
X158095101Y-83383633D01*
X158106535Y-83421326D01*
X158111000Y-83466661D01*
X158111000Y-84553339D01*
X158106535Y-84598674D01*
X158095101Y-84636367D01*
X158076534Y-84671103D01*
X158051548Y-84701548D01*
X158021103Y-84726534D01*
X157986367Y-84745101D01*
X157948674Y-84756535D01*
X157903339Y-84761000D01*
X157066661Y-84761000D01*
X157021326Y-84756535D01*
X156983633Y-84745101D01*
X156948897Y-84726534D01*
X156918452Y-84701548D01*
X156893466Y-84671103D01*
X156874899Y-84636367D01*
X156863465Y-84598674D01*
X156859000Y-84553339D01*
X156859000Y-83466661D01*
X156863465Y-83421326D01*
X156874899Y-83383633D01*
X156893466Y-83348897D01*
X156918452Y-83318452D01*
X156948897Y-83293466D01*
X156983633Y-83274899D01*
X157021326Y-83263465D01*
X157066661Y-83259000D01*
X157903339Y-83259000D01*
X157948674Y-83263465D01*
X157948674Y-83263465D01*
G37*
G36*
X155898674Y-83263465D02*
G01*
X155936367Y-83274899D01*
X155971103Y-83293466D01*
X156001548Y-83318452D01*
X156026534Y-83348897D01*
X156045101Y-83383633D01*
X156056535Y-83421326D01*
X156061000Y-83466661D01*
X156061000Y-84553339D01*
X156056535Y-84598674D01*
X156045101Y-84636367D01*
X156026534Y-84671103D01*
X156001548Y-84701548D01*
X155971103Y-84726534D01*
X155936367Y-84745101D01*
X155898674Y-84756535D01*
X155853339Y-84761000D01*
X155016661Y-84761000D01*
X154971326Y-84756535D01*
X154933633Y-84745101D01*
X154898897Y-84726534D01*
X154868452Y-84701548D01*
X154843466Y-84671103D01*
X154824899Y-84636367D01*
X154813465Y-84598674D01*
X154809000Y-84553339D01*
X154809000Y-83466661D01*
X154813465Y-83421326D01*
X154824899Y-83383633D01*
X154843466Y-83348897D01*
X154868452Y-83318452D01*
X154898897Y-83293466D01*
X154933633Y-83274899D01*
X154971326Y-83263465D01*
X155016661Y-83259000D01*
X155853339Y-83259000D01*
X155898674Y-83263465D01*
X155898674Y-83263465D01*
G37*
G36*
X135658674Y-83253465D02*
G01*
X135696367Y-83264899D01*
X135731103Y-83283466D01*
X135761548Y-83308452D01*
X135786534Y-83338897D01*
X135805101Y-83373633D01*
X135816535Y-83411326D01*
X135821000Y-83456661D01*
X135821000Y-84543339D01*
X135816535Y-84588674D01*
X135805101Y-84626367D01*
X135786534Y-84661103D01*
X135761548Y-84691548D01*
X135731103Y-84716534D01*
X135696367Y-84735101D01*
X135658674Y-84746535D01*
X135613339Y-84751000D01*
X134776661Y-84751000D01*
X134731326Y-84746535D01*
X134693633Y-84735101D01*
X134658897Y-84716534D01*
X134628452Y-84691548D01*
X134603466Y-84661103D01*
X134584899Y-84626367D01*
X134573465Y-84588674D01*
X134569000Y-84543339D01*
X134569000Y-83456661D01*
X134573465Y-83411326D01*
X134584899Y-83373633D01*
X134603466Y-83338897D01*
X134628452Y-83308452D01*
X134658897Y-83283466D01*
X134693633Y-83264899D01*
X134731326Y-83253465D01*
X134776661Y-83249000D01*
X135613339Y-83249000D01*
X135658674Y-83253465D01*
X135658674Y-83253465D01*
G37*
G36*
X133608674Y-83253465D02*
G01*
X133646367Y-83264899D01*
X133681103Y-83283466D01*
X133711548Y-83308452D01*
X133736534Y-83338897D01*
X133755101Y-83373633D01*
X133766535Y-83411326D01*
X133771000Y-83456661D01*
X133771000Y-84543339D01*
X133766535Y-84588674D01*
X133755101Y-84626367D01*
X133736534Y-84661103D01*
X133711548Y-84691548D01*
X133681103Y-84716534D01*
X133646367Y-84735101D01*
X133608674Y-84746535D01*
X133563339Y-84751000D01*
X132726661Y-84751000D01*
X132681326Y-84746535D01*
X132643633Y-84735101D01*
X132608897Y-84716534D01*
X132578452Y-84691548D01*
X132553466Y-84661103D01*
X132534899Y-84626367D01*
X132523465Y-84588674D01*
X132519000Y-84543339D01*
X132519000Y-83456661D01*
X132523465Y-83411326D01*
X132534899Y-83373633D01*
X132553466Y-83338897D01*
X132578452Y-83308452D01*
X132608897Y-83283466D01*
X132643633Y-83264899D01*
X132681326Y-83253465D01*
X132726661Y-83249000D01*
X133563339Y-83249000D01*
X133608674Y-83253465D01*
X133608674Y-83253465D01*
G37*
G36*
X140658674Y-82153465D02*
G01*
X140696367Y-82164899D01*
X140731103Y-82183466D01*
X140761548Y-82208452D01*
X140786534Y-82238897D01*
X140805101Y-82273633D01*
X140816535Y-82311326D01*
X140821000Y-82356661D01*
X140821000Y-83443339D01*
X140816535Y-83488674D01*
X140805101Y-83526367D01*
X140786534Y-83561103D01*
X140761548Y-83591548D01*
X140731103Y-83616534D01*
X140696367Y-83635101D01*
X140658674Y-83646535D01*
X140613339Y-83651000D01*
X139776661Y-83651000D01*
X139731326Y-83646535D01*
X139693633Y-83635101D01*
X139658897Y-83616534D01*
X139628452Y-83591548D01*
X139603466Y-83561103D01*
X139584899Y-83526367D01*
X139573465Y-83488674D01*
X139569000Y-83443339D01*
X139569000Y-82356661D01*
X139573465Y-82311326D01*
X139584899Y-82273633D01*
X139603466Y-82238897D01*
X139628452Y-82208452D01*
X139658897Y-82183466D01*
X139693633Y-82164899D01*
X139731326Y-82153465D01*
X139776661Y-82149000D01*
X140613339Y-82149000D01*
X140658674Y-82153465D01*
X140658674Y-82153465D01*
G37*
G36*
X138608674Y-82153465D02*
G01*
X138646367Y-82164899D01*
X138681103Y-82183466D01*
X138711548Y-82208452D01*
X138736534Y-82238897D01*
X138755101Y-82273633D01*
X138766535Y-82311326D01*
X138771000Y-82356661D01*
X138771000Y-83443339D01*
X138766535Y-83488674D01*
X138755101Y-83526367D01*
X138736534Y-83561103D01*
X138711548Y-83591548D01*
X138681103Y-83616534D01*
X138646367Y-83635101D01*
X138608674Y-83646535D01*
X138563339Y-83651000D01*
X137726661Y-83651000D01*
X137681326Y-83646535D01*
X137643633Y-83635101D01*
X137608897Y-83616534D01*
X137578452Y-83591548D01*
X137553466Y-83561103D01*
X137534899Y-83526367D01*
X137523465Y-83488674D01*
X137519000Y-83443339D01*
X137519000Y-82356661D01*
X137523465Y-82311326D01*
X137534899Y-82273633D01*
X137553466Y-82238897D01*
X137578452Y-82208452D01*
X137608897Y-82183466D01*
X137643633Y-82164899D01*
X137681326Y-82153465D01*
X137726661Y-82149000D01*
X138563339Y-82149000D01*
X138608674Y-82153465D01*
X138608674Y-82153465D01*
G37*
G36*
X153961000Y-83121000D02*
G01*
X153059000Y-83121000D01*
X153059000Y-82119000D01*
X153961000Y-82119000D01*
X153961000Y-83121000D01*
X153961000Y-83121000D01*
G37*
G36*
X152061000Y-83121000D02*
G01*
X151159000Y-83121000D01*
X151159000Y-82119000D01*
X152061000Y-82119000D01*
X152061000Y-83121000D01*
X152061000Y-83121000D01*
G37*
G36*
X155898674Y-81363465D02*
G01*
X155936367Y-81374899D01*
X155971103Y-81393466D01*
X156001548Y-81418452D01*
X156026534Y-81448897D01*
X156045101Y-81483633D01*
X156056535Y-81521326D01*
X156061000Y-81566661D01*
X156061000Y-82653339D01*
X156056535Y-82698674D01*
X156045101Y-82736367D01*
X156026534Y-82771103D01*
X156001548Y-82801548D01*
X155971103Y-82826534D01*
X155936367Y-82845101D01*
X155898674Y-82856535D01*
X155853339Y-82861000D01*
X155016661Y-82861000D01*
X154971326Y-82856535D01*
X154933633Y-82845101D01*
X154898897Y-82826534D01*
X154868452Y-82801548D01*
X154843466Y-82771103D01*
X154824899Y-82736367D01*
X154813465Y-82698674D01*
X154809000Y-82653339D01*
X154809000Y-81566661D01*
X154813465Y-81521326D01*
X154824899Y-81483633D01*
X154843466Y-81448897D01*
X154868452Y-81418452D01*
X154898897Y-81393466D01*
X154933633Y-81374899D01*
X154971326Y-81363465D01*
X155016661Y-81359000D01*
X155853339Y-81359000D01*
X155898674Y-81363465D01*
X155898674Y-81363465D01*
G37*
G36*
X157948674Y-81363465D02*
G01*
X157986367Y-81374899D01*
X158021103Y-81393466D01*
X158051548Y-81418452D01*
X158076534Y-81448897D01*
X158095101Y-81483633D01*
X158106535Y-81521326D01*
X158111000Y-81566661D01*
X158111000Y-82653339D01*
X158106535Y-82698674D01*
X158095101Y-82736367D01*
X158076534Y-82771103D01*
X158051548Y-82801548D01*
X158021103Y-82826534D01*
X157986367Y-82845101D01*
X157948674Y-82856535D01*
X157903339Y-82861000D01*
X157066661Y-82861000D01*
X157021326Y-82856535D01*
X156983633Y-82845101D01*
X156948897Y-82826534D01*
X156918452Y-82801548D01*
X156893466Y-82771103D01*
X156874899Y-82736367D01*
X156863465Y-82698674D01*
X156859000Y-82653339D01*
X156859000Y-81566661D01*
X156863465Y-81521326D01*
X156874899Y-81483633D01*
X156893466Y-81448897D01*
X156918452Y-81418452D01*
X156948897Y-81393466D01*
X156983633Y-81374899D01*
X157021326Y-81363465D01*
X157066661Y-81359000D01*
X157903339Y-81359000D01*
X157948674Y-81363465D01*
X157948674Y-81363465D01*
G37*
G36*
X133608674Y-81253465D02*
G01*
X133646367Y-81264899D01*
X133681103Y-81283466D01*
X133711548Y-81308452D01*
X133736534Y-81338897D01*
X133755101Y-81373633D01*
X133766535Y-81411326D01*
X133771000Y-81456661D01*
X133771000Y-82543339D01*
X133766535Y-82588674D01*
X133755101Y-82626367D01*
X133736534Y-82661103D01*
X133711548Y-82691548D01*
X133681103Y-82716534D01*
X133646367Y-82735101D01*
X133608674Y-82746535D01*
X133563339Y-82751000D01*
X132726661Y-82751000D01*
X132681326Y-82746535D01*
X132643633Y-82735101D01*
X132608897Y-82716534D01*
X132578452Y-82691548D01*
X132553466Y-82661103D01*
X132534899Y-82626367D01*
X132523465Y-82588674D01*
X132519000Y-82543339D01*
X132519000Y-81456661D01*
X132523465Y-81411326D01*
X132534899Y-81373633D01*
X132553466Y-81338897D01*
X132578452Y-81308452D01*
X132608897Y-81283466D01*
X132643633Y-81264899D01*
X132681326Y-81253465D01*
X132726661Y-81249000D01*
X133563339Y-81249000D01*
X133608674Y-81253465D01*
X133608674Y-81253465D01*
G37*
G36*
X135658674Y-81253465D02*
G01*
X135696367Y-81264899D01*
X135731103Y-81283466D01*
X135761548Y-81308452D01*
X135786534Y-81338897D01*
X135805101Y-81373633D01*
X135816535Y-81411326D01*
X135821000Y-81456661D01*
X135821000Y-82543339D01*
X135816535Y-82588674D01*
X135805101Y-82626367D01*
X135786534Y-82661103D01*
X135761548Y-82691548D01*
X135731103Y-82716534D01*
X135696367Y-82735101D01*
X135658674Y-82746535D01*
X135613339Y-82751000D01*
X134776661Y-82751000D01*
X134731326Y-82746535D01*
X134693633Y-82735101D01*
X134658897Y-82716534D01*
X134628452Y-82691548D01*
X134603466Y-82661103D01*
X134584899Y-82626367D01*
X134573465Y-82588674D01*
X134569000Y-82543339D01*
X134569000Y-81456661D01*
X134573465Y-81411326D01*
X134584899Y-81373633D01*
X134603466Y-81338897D01*
X134628452Y-81308452D01*
X134658897Y-81283466D01*
X134693633Y-81264899D01*
X134731326Y-81253465D01*
X134776661Y-81249000D01*
X135613339Y-81249000D01*
X135658674Y-81253465D01*
X135658674Y-81253465D01*
G37*
G36*
X166725560Y-79313064D02*
G01*
X166877027Y-79343193D01*
X167091045Y-79431842D01*
X167138372Y-79463465D01*
X167283654Y-79560539D01*
X167447461Y-79724346D01*
X167533258Y-79852751D01*
X167576158Y-79916955D01*
X167664807Y-80130973D01*
X167710000Y-80358174D01*
X167710000Y-80589826D01*
X167664807Y-80817027D01*
X167576158Y-81031045D01*
X167533258Y-81095249D01*
X167447461Y-81223654D01*
X167283654Y-81387461D01*
X167237272Y-81418452D01*
X167091045Y-81516158D01*
X166877027Y-81604807D01*
X166744476Y-81631173D01*
X166649827Y-81650000D01*
X166418173Y-81650000D01*
X166323524Y-81631173D01*
X166190973Y-81604807D01*
X165976955Y-81516158D01*
X165830728Y-81418452D01*
X165784346Y-81387461D01*
X165620539Y-81223654D01*
X165534742Y-81095249D01*
X165491842Y-81031045D01*
X165403193Y-80817027D01*
X165358000Y-80589826D01*
X165358000Y-80358174D01*
X165403193Y-80130973D01*
X165491842Y-79916955D01*
X165534742Y-79852751D01*
X165620539Y-79724346D01*
X165784346Y-79560539D01*
X165929628Y-79463465D01*
X165976955Y-79431842D01*
X166190973Y-79343193D01*
X166342440Y-79313064D01*
X166418173Y-79298000D01*
X166649827Y-79298000D01*
X166725560Y-79313064D01*
X166725560Y-79313064D01*
G37*
G36*
X161645560Y-79313064D02*
G01*
X161797027Y-79343193D01*
X162011045Y-79431842D01*
X162058372Y-79463465D01*
X162203654Y-79560539D01*
X162367461Y-79724346D01*
X162453258Y-79852751D01*
X162496158Y-79916955D01*
X162584807Y-80130973D01*
X162630000Y-80358174D01*
X162630000Y-80589826D01*
X162584807Y-80817027D01*
X162496158Y-81031045D01*
X162453258Y-81095249D01*
X162367461Y-81223654D01*
X162203654Y-81387461D01*
X162157272Y-81418452D01*
X162011045Y-81516158D01*
X161797027Y-81604807D01*
X161664476Y-81631173D01*
X161569827Y-81650000D01*
X161338173Y-81650000D01*
X161243524Y-81631173D01*
X161110973Y-81604807D01*
X160896955Y-81516158D01*
X160750728Y-81418452D01*
X160704346Y-81387461D01*
X160540539Y-81223654D01*
X160454742Y-81095249D01*
X160411842Y-81031045D01*
X160323193Y-80817027D01*
X160278000Y-80589826D01*
X160278000Y-80358174D01*
X160323193Y-80130973D01*
X160411842Y-79916955D01*
X160454742Y-79852751D01*
X160540539Y-79724346D01*
X160704346Y-79560539D01*
X160849628Y-79463465D01*
X160896955Y-79431842D01*
X161110973Y-79343193D01*
X161262440Y-79313064D01*
X161338173Y-79298000D01*
X161569827Y-79298000D01*
X161645560Y-79313064D01*
X161645560Y-79313064D01*
G37*
G36*
X128717841Y-80070797D02*
G01*
X128756545Y-80078496D01*
X128788580Y-80091765D01*
X128865920Y-80123800D01*
X128964355Y-80189573D01*
X129048067Y-80273285D01*
X129113840Y-80371720D01*
X129159144Y-80481096D01*
X129182240Y-80597205D01*
X129182240Y-80715595D01*
X129174732Y-80753339D01*
X129162064Y-80817027D01*
X129159144Y-80831704D01*
X129113840Y-80941080D01*
X129048067Y-81039515D01*
X128964355Y-81123227D01*
X128865920Y-81189000D01*
X128788580Y-81221035D01*
X128756545Y-81234304D01*
X128717841Y-81242003D01*
X128640435Y-81257400D01*
X128522045Y-81257400D01*
X128444639Y-81242003D01*
X128405935Y-81234304D01*
X128373900Y-81221035D01*
X128296560Y-81189000D01*
X128198125Y-81123227D01*
X128114413Y-81039515D01*
X128048640Y-80941080D01*
X128003336Y-80831704D01*
X128000417Y-80817027D01*
X127987748Y-80753339D01*
X127980240Y-80715595D01*
X127980240Y-80597205D01*
X128003336Y-80481096D01*
X128048640Y-80371720D01*
X128114413Y-80273285D01*
X128198125Y-80189573D01*
X128296560Y-80123800D01*
X128373900Y-80091765D01*
X128405935Y-80078496D01*
X128444639Y-80070797D01*
X128522045Y-80055400D01*
X128640435Y-80055400D01*
X128717841Y-80070797D01*
X128717841Y-80070797D01*
G37*
G36*
X153011000Y-81121000D02*
G01*
X152109000Y-81121000D01*
X152109000Y-80119000D01*
X153011000Y-80119000D01*
X153011000Y-81121000D01*
X153011000Y-81121000D01*
G37*
G36*
X157938674Y-79463465D02*
G01*
X157976367Y-79474899D01*
X158011103Y-79493466D01*
X158041548Y-79518452D01*
X158066534Y-79548897D01*
X158085101Y-79583633D01*
X158096535Y-79621326D01*
X158101000Y-79666661D01*
X158101000Y-80753339D01*
X158096535Y-80798674D01*
X158085101Y-80836367D01*
X158066534Y-80871103D01*
X158041548Y-80901548D01*
X158011103Y-80926534D01*
X157976367Y-80945101D01*
X157938674Y-80956535D01*
X157893339Y-80961000D01*
X157056661Y-80961000D01*
X157011326Y-80956535D01*
X156973633Y-80945101D01*
X156938897Y-80926534D01*
X156908452Y-80901548D01*
X156883466Y-80871103D01*
X156864899Y-80836367D01*
X156853465Y-80798674D01*
X156849000Y-80753339D01*
X156849000Y-79666661D01*
X156853465Y-79621326D01*
X156864899Y-79583633D01*
X156883466Y-79548897D01*
X156908452Y-79518452D01*
X156938897Y-79493466D01*
X156973633Y-79474899D01*
X157011326Y-79463465D01*
X157056661Y-79459000D01*
X157893339Y-79459000D01*
X157938674Y-79463465D01*
X157938674Y-79463465D01*
G37*
G36*
X155888674Y-79463465D02*
G01*
X155926367Y-79474899D01*
X155961103Y-79493466D01*
X155991548Y-79518452D01*
X156016534Y-79548897D01*
X156035101Y-79583633D01*
X156046535Y-79621326D01*
X156051000Y-79666661D01*
X156051000Y-80753339D01*
X156046535Y-80798674D01*
X156035101Y-80836367D01*
X156016534Y-80871103D01*
X155991548Y-80901548D01*
X155961103Y-80926534D01*
X155926367Y-80945101D01*
X155888674Y-80956535D01*
X155843339Y-80961000D01*
X155006661Y-80961000D01*
X154961326Y-80956535D01*
X154923633Y-80945101D01*
X154888897Y-80926534D01*
X154858452Y-80901548D01*
X154833466Y-80871103D01*
X154814899Y-80836367D01*
X154803465Y-80798674D01*
X154799000Y-80753339D01*
X154799000Y-79666661D01*
X154803465Y-79621326D01*
X154814899Y-79583633D01*
X154833466Y-79548897D01*
X154858452Y-79518452D01*
X154888897Y-79493466D01*
X154923633Y-79474899D01*
X154961326Y-79463465D01*
X155006661Y-79459000D01*
X155843339Y-79459000D01*
X155888674Y-79463465D01*
X155888674Y-79463465D01*
G37*
G36*
X133608674Y-79353465D02*
G01*
X133646367Y-79364899D01*
X133681103Y-79383466D01*
X133711548Y-79408452D01*
X133736534Y-79438897D01*
X133755101Y-79473633D01*
X133766535Y-79511326D01*
X133771000Y-79556661D01*
X133771000Y-80643339D01*
X133766535Y-80688674D01*
X133755101Y-80726367D01*
X133736534Y-80761103D01*
X133711548Y-80791548D01*
X133681103Y-80816534D01*
X133646367Y-80835101D01*
X133608674Y-80846535D01*
X133563339Y-80851000D01*
X132726661Y-80851000D01*
X132681326Y-80846535D01*
X132643633Y-80835101D01*
X132608897Y-80816534D01*
X132578452Y-80791548D01*
X132553466Y-80761103D01*
X132534899Y-80726367D01*
X132523465Y-80688674D01*
X132519000Y-80643339D01*
X132519000Y-79556661D01*
X132523465Y-79511326D01*
X132534899Y-79473633D01*
X132553466Y-79438897D01*
X132578452Y-79408452D01*
X132608897Y-79383466D01*
X132643633Y-79364899D01*
X132681326Y-79353465D01*
X132726661Y-79349000D01*
X133563339Y-79349000D01*
X133608674Y-79353465D01*
X133608674Y-79353465D01*
G37*
G36*
X135658674Y-79353465D02*
G01*
X135696367Y-79364899D01*
X135731103Y-79383466D01*
X135761548Y-79408452D01*
X135786534Y-79438897D01*
X135805101Y-79473633D01*
X135816535Y-79511326D01*
X135821000Y-79556661D01*
X135821000Y-80643339D01*
X135816535Y-80688674D01*
X135805101Y-80726367D01*
X135786534Y-80761103D01*
X135761548Y-80791548D01*
X135731103Y-80816534D01*
X135696367Y-80835101D01*
X135658674Y-80846535D01*
X135613339Y-80851000D01*
X134776661Y-80851000D01*
X134731326Y-80846535D01*
X134693633Y-80835101D01*
X134658897Y-80816534D01*
X134628452Y-80791548D01*
X134603466Y-80761103D01*
X134584899Y-80726367D01*
X134573465Y-80688674D01*
X134569000Y-80643339D01*
X134569000Y-79556661D01*
X134573465Y-79511326D01*
X134584899Y-79473633D01*
X134603466Y-79438897D01*
X134628452Y-79408452D01*
X134658897Y-79383466D01*
X134693633Y-79364899D01*
X134731326Y-79353465D01*
X134776661Y-79349000D01*
X135613339Y-79349000D01*
X135658674Y-79353465D01*
X135658674Y-79353465D01*
G37*
G36*
X157938674Y-77563465D02*
G01*
X157976367Y-77574899D01*
X158011103Y-77593466D01*
X158041548Y-77618452D01*
X158066534Y-77648897D01*
X158085101Y-77683633D01*
X158096535Y-77721326D01*
X158101000Y-77766661D01*
X158101000Y-78853339D01*
X158096535Y-78898674D01*
X158085101Y-78936367D01*
X158066534Y-78971103D01*
X158041548Y-79001548D01*
X158011103Y-79026534D01*
X157976367Y-79045101D01*
X157938674Y-79056535D01*
X157893339Y-79061000D01*
X157056661Y-79061000D01*
X157011326Y-79056535D01*
X156973633Y-79045101D01*
X156938897Y-79026534D01*
X156908452Y-79001548D01*
X156883466Y-78971103D01*
X156864899Y-78936367D01*
X156853465Y-78898674D01*
X156849000Y-78853339D01*
X156849000Y-77766661D01*
X156853465Y-77721326D01*
X156864899Y-77683633D01*
X156883466Y-77648897D01*
X156908452Y-77618452D01*
X156938897Y-77593466D01*
X156973633Y-77574899D01*
X157011326Y-77563465D01*
X157056661Y-77559000D01*
X157893339Y-77559000D01*
X157938674Y-77563465D01*
X157938674Y-77563465D01*
G37*
G36*
X155888674Y-77563465D02*
G01*
X155926367Y-77574899D01*
X155961103Y-77593466D01*
X155991548Y-77618452D01*
X156016534Y-77648897D01*
X156035101Y-77683633D01*
X156046535Y-77721326D01*
X156051000Y-77766661D01*
X156051000Y-78853339D01*
X156046535Y-78898674D01*
X156035101Y-78936367D01*
X156016534Y-78971103D01*
X155991548Y-79001548D01*
X155961103Y-79026534D01*
X155926367Y-79045101D01*
X155888674Y-79056535D01*
X155843339Y-79061000D01*
X155006661Y-79061000D01*
X154961326Y-79056535D01*
X154923633Y-79045101D01*
X154888897Y-79026534D01*
X154858452Y-79001548D01*
X154833466Y-78971103D01*
X154814899Y-78936367D01*
X154803465Y-78898674D01*
X154799000Y-78853339D01*
X154799000Y-77766661D01*
X154803465Y-77721326D01*
X154814899Y-77683633D01*
X154833466Y-77648897D01*
X154858452Y-77618452D01*
X154888897Y-77593466D01*
X154923633Y-77574899D01*
X154961326Y-77563465D01*
X155006661Y-77559000D01*
X155843339Y-77559000D01*
X155888674Y-77563465D01*
X155888674Y-77563465D01*
G37*
G36*
X139358674Y-77453465D02*
G01*
X139396367Y-77464899D01*
X139431103Y-77483466D01*
X139461548Y-77508452D01*
X139486534Y-77538897D01*
X139505101Y-77573633D01*
X139516535Y-77611326D01*
X139521000Y-77656661D01*
X139521000Y-78743339D01*
X139516535Y-78788674D01*
X139505101Y-78826367D01*
X139486534Y-78861103D01*
X139461548Y-78891548D01*
X139431103Y-78916534D01*
X139396367Y-78935101D01*
X139358674Y-78946535D01*
X139313339Y-78951000D01*
X138476661Y-78951000D01*
X138431326Y-78946535D01*
X138393633Y-78935101D01*
X138358897Y-78916534D01*
X138328452Y-78891548D01*
X138303466Y-78861103D01*
X138284899Y-78826367D01*
X138273465Y-78788674D01*
X138269000Y-78743339D01*
X138269000Y-77656661D01*
X138273465Y-77611326D01*
X138284899Y-77573633D01*
X138303466Y-77538897D01*
X138328452Y-77508452D01*
X138358897Y-77483466D01*
X138393633Y-77464899D01*
X138431326Y-77453465D01*
X138476661Y-77449000D01*
X139313339Y-77449000D01*
X139358674Y-77453465D01*
X139358674Y-77453465D01*
G37*
G36*
X135658674Y-77453465D02*
G01*
X135696367Y-77464899D01*
X135731103Y-77483466D01*
X135761548Y-77508452D01*
X135786534Y-77538897D01*
X135805101Y-77573633D01*
X135816535Y-77611326D01*
X135821000Y-77656661D01*
X135821000Y-78743339D01*
X135816535Y-78788674D01*
X135805101Y-78826367D01*
X135786534Y-78861103D01*
X135761548Y-78891548D01*
X135731103Y-78916534D01*
X135696367Y-78935101D01*
X135658674Y-78946535D01*
X135613339Y-78951000D01*
X134776661Y-78951000D01*
X134731326Y-78946535D01*
X134693633Y-78935101D01*
X134658897Y-78916534D01*
X134628452Y-78891548D01*
X134603466Y-78861103D01*
X134584899Y-78826367D01*
X134573465Y-78788674D01*
X134569000Y-78743339D01*
X134569000Y-77656661D01*
X134573465Y-77611326D01*
X134584899Y-77573633D01*
X134603466Y-77538897D01*
X134628452Y-77508452D01*
X134658897Y-77483466D01*
X134693633Y-77464899D01*
X134731326Y-77453465D01*
X134776661Y-77449000D01*
X135613339Y-77449000D01*
X135658674Y-77453465D01*
X135658674Y-77453465D01*
G37*
G36*
X137308674Y-77453465D02*
G01*
X137346367Y-77464899D01*
X137381103Y-77483466D01*
X137411548Y-77508452D01*
X137436534Y-77538897D01*
X137455101Y-77573633D01*
X137466535Y-77611326D01*
X137471000Y-77656661D01*
X137471000Y-78743339D01*
X137466535Y-78788674D01*
X137455101Y-78826367D01*
X137436534Y-78861103D01*
X137411548Y-78891548D01*
X137381103Y-78916534D01*
X137346367Y-78935101D01*
X137308674Y-78946535D01*
X137263339Y-78951000D01*
X136426661Y-78951000D01*
X136381326Y-78946535D01*
X136343633Y-78935101D01*
X136308897Y-78916534D01*
X136278452Y-78891548D01*
X136253466Y-78861103D01*
X136234899Y-78826367D01*
X136223465Y-78788674D01*
X136219000Y-78743339D01*
X136219000Y-77656661D01*
X136223465Y-77611326D01*
X136234899Y-77573633D01*
X136253466Y-77538897D01*
X136278452Y-77508452D01*
X136308897Y-77483466D01*
X136343633Y-77464899D01*
X136381326Y-77453465D01*
X136426661Y-77449000D01*
X137263339Y-77449000D01*
X137308674Y-77453465D01*
X137308674Y-77453465D01*
G37*
G36*
X133608674Y-77453465D02*
G01*
X133646367Y-77464899D01*
X133681103Y-77483466D01*
X133711548Y-77508452D01*
X133736534Y-77538897D01*
X133755101Y-77573633D01*
X133766535Y-77611326D01*
X133771000Y-77656661D01*
X133771000Y-78743339D01*
X133766535Y-78788674D01*
X133755101Y-78826367D01*
X133736534Y-78861103D01*
X133711548Y-78891548D01*
X133681103Y-78916534D01*
X133646367Y-78935101D01*
X133608674Y-78946535D01*
X133563339Y-78951000D01*
X132726661Y-78951000D01*
X132681326Y-78946535D01*
X132643633Y-78935101D01*
X132608897Y-78916534D01*
X132578452Y-78891548D01*
X132553466Y-78861103D01*
X132534899Y-78826367D01*
X132523465Y-78788674D01*
X132519000Y-78743339D01*
X132519000Y-77656661D01*
X132523465Y-77611326D01*
X132534899Y-77573633D01*
X132553466Y-77538897D01*
X132578452Y-77508452D01*
X132608897Y-77483466D01*
X132643633Y-77464899D01*
X132681326Y-77453465D01*
X132726661Y-77449000D01*
X133563339Y-77449000D01*
X133608674Y-77453465D01*
X133608674Y-77453465D01*
G37*
G36*
X151291000Y-78796000D02*
G01*
X150389000Y-78796000D01*
X150389000Y-78144000D01*
X151291000Y-78144000D01*
X151291000Y-78796000D01*
X151291000Y-78796000D01*
G37*
G36*
X153691000Y-78796000D02*
G01*
X152789000Y-78796000D01*
X152789000Y-78144000D01*
X153691000Y-78144000D01*
X153691000Y-78796000D01*
X153691000Y-78796000D01*
G37*
G36*
X129577468Y-76269883D02*
G01*
X129766162Y-76327123D01*
X129940055Y-76420071D01*
X130092479Y-76545161D01*
X130217569Y-76697585D01*
X130310517Y-76871478D01*
X130367757Y-77060172D01*
X130387083Y-77256400D01*
X130367757Y-77452628D01*
X130310517Y-77641322D01*
X130217569Y-77815215D01*
X130092479Y-77967639D01*
X129940055Y-78092729D01*
X129766162Y-78185677D01*
X129577468Y-78242917D01*
X129430415Y-78257400D01*
X127732065Y-78257400D01*
X127585012Y-78242917D01*
X127396318Y-78185677D01*
X127222425Y-78092729D01*
X127070001Y-77967639D01*
X126944911Y-77815215D01*
X126851963Y-77641322D01*
X126794723Y-77452628D01*
X126775397Y-77256400D01*
X126794723Y-77060172D01*
X126851963Y-76871478D01*
X126944911Y-76697585D01*
X127070001Y-76545161D01*
X127222425Y-76420071D01*
X127396318Y-76327123D01*
X127585012Y-76269883D01*
X127732065Y-76255400D01*
X129430415Y-76255400D01*
X129577468Y-76269883D01*
X129577468Y-76269883D01*
G37*
G36*
X151291000Y-77846000D02*
G01*
X150389000Y-77846000D01*
X150389000Y-77194000D01*
X151291000Y-77194000D01*
X151291000Y-77846000D01*
X151291000Y-77846000D01*
G37*
G36*
X135878231Y-76376705D02*
G01*
X135916967Y-76384410D01*
X135947195Y-76396931D01*
X135989944Y-76414638D01*
X136055622Y-76458523D01*
X136111477Y-76514378D01*
X136155362Y-76580056D01*
X136173069Y-76622805D01*
X136185590Y-76653033D01*
X136201000Y-76730505D01*
X136201000Y-76809495D01*
X136185590Y-76886967D01*
X136181848Y-76896000D01*
X136155362Y-76959944D01*
X136111477Y-77025622D01*
X136055622Y-77081477D01*
X135989944Y-77125362D01*
X135953923Y-77140282D01*
X135916967Y-77155590D01*
X135889769Y-77161000D01*
X135839496Y-77171000D01*
X135760504Y-77171000D01*
X135710231Y-77161000D01*
X135683033Y-77155590D01*
X135646077Y-77140282D01*
X135610056Y-77125362D01*
X135544378Y-77081477D01*
X135488523Y-77025622D01*
X135444638Y-76959944D01*
X135418152Y-76896000D01*
X135414410Y-76886967D01*
X135399000Y-76809495D01*
X135399000Y-76730505D01*
X135414410Y-76653033D01*
X135426931Y-76622805D01*
X135444638Y-76580056D01*
X135488523Y-76514378D01*
X135544378Y-76458523D01*
X135610056Y-76414638D01*
X135652805Y-76396931D01*
X135683033Y-76384410D01*
X135721769Y-76376705D01*
X135760504Y-76369000D01*
X135839496Y-76369000D01*
X135878231Y-76376705D01*
X135878231Y-76376705D01*
G37*
G36*
X134178231Y-76376705D02*
G01*
X134216967Y-76384410D01*
X134247195Y-76396931D01*
X134289944Y-76414638D01*
X134355622Y-76458523D01*
X134411477Y-76514378D01*
X134455362Y-76580056D01*
X134473069Y-76622805D01*
X134485590Y-76653033D01*
X134501000Y-76730505D01*
X134501000Y-76809495D01*
X134485590Y-76886967D01*
X134481848Y-76896000D01*
X134455362Y-76959944D01*
X134411477Y-77025622D01*
X134355622Y-77081477D01*
X134289944Y-77125362D01*
X134253923Y-77140282D01*
X134216967Y-77155590D01*
X134189769Y-77161000D01*
X134139496Y-77171000D01*
X134060504Y-77171000D01*
X134010231Y-77161000D01*
X133983033Y-77155590D01*
X133946077Y-77140282D01*
X133910056Y-77125362D01*
X133844378Y-77081477D01*
X133788523Y-77025622D01*
X133744638Y-76959944D01*
X133718152Y-76896000D01*
X133714410Y-76886967D01*
X133699000Y-76809495D01*
X133699000Y-76730505D01*
X133714410Y-76653033D01*
X133726931Y-76622805D01*
X133744638Y-76580056D01*
X133788523Y-76514378D01*
X133844378Y-76458523D01*
X133910056Y-76414638D01*
X133952805Y-76396931D01*
X133983033Y-76384410D01*
X134021769Y-76376705D01*
X134060504Y-76369000D01*
X134139496Y-76369000D01*
X134178231Y-76376705D01*
X134178231Y-76376705D01*
G37*
G36*
X157448674Y-75663465D02*
G01*
X157486367Y-75674899D01*
X157521103Y-75693466D01*
X157551548Y-75718452D01*
X157576534Y-75748897D01*
X157595101Y-75783633D01*
X157606535Y-75821326D01*
X157611000Y-75866661D01*
X157611000Y-76953339D01*
X157606535Y-76998674D01*
X157595101Y-77036367D01*
X157576534Y-77071103D01*
X157551548Y-77101548D01*
X157521103Y-77126534D01*
X157486367Y-77145101D01*
X157448674Y-77156535D01*
X157403339Y-77161000D01*
X156566661Y-77161000D01*
X156521326Y-77156535D01*
X156483633Y-77145101D01*
X156448897Y-77126534D01*
X156418452Y-77101548D01*
X156393466Y-77071103D01*
X156374899Y-77036367D01*
X156363465Y-76998674D01*
X156359000Y-76953339D01*
X156359000Y-75866661D01*
X156363465Y-75821326D01*
X156374899Y-75783633D01*
X156393466Y-75748897D01*
X156418452Y-75718452D01*
X156448897Y-75693466D01*
X156483633Y-75674899D01*
X156521326Y-75663465D01*
X156566661Y-75659000D01*
X157403339Y-75659000D01*
X157448674Y-75663465D01*
X157448674Y-75663465D01*
G37*
G36*
X155398674Y-75663465D02*
G01*
X155436367Y-75674899D01*
X155471103Y-75693466D01*
X155501548Y-75718452D01*
X155526534Y-75748897D01*
X155545101Y-75783633D01*
X155556535Y-75821326D01*
X155561000Y-75866661D01*
X155561000Y-76953339D01*
X155556535Y-76998674D01*
X155545101Y-77036367D01*
X155526534Y-77071103D01*
X155501548Y-77101548D01*
X155471103Y-77126534D01*
X155436367Y-77145101D01*
X155398674Y-77156535D01*
X155353339Y-77161000D01*
X154516661Y-77161000D01*
X154471326Y-77156535D01*
X154433633Y-77145101D01*
X154398897Y-77126534D01*
X154368452Y-77101548D01*
X154343466Y-77071103D01*
X154324899Y-77036367D01*
X154313465Y-76998674D01*
X154309000Y-76953339D01*
X154309000Y-75866661D01*
X154313465Y-75821326D01*
X154324899Y-75783633D01*
X154343466Y-75748897D01*
X154368452Y-75718452D01*
X154398897Y-75693466D01*
X154433633Y-75674899D01*
X154471326Y-75663465D01*
X154516661Y-75659000D01*
X155353339Y-75659000D01*
X155398674Y-75663465D01*
X155398674Y-75663465D01*
G37*
G36*
X151291000Y-76896000D02*
G01*
X150389000Y-76896000D01*
X150389000Y-76244000D01*
X151291000Y-76244000D01*
X151291000Y-76896000D01*
X151291000Y-76896000D01*
G37*
G36*
X153691000Y-76896000D02*
G01*
X152789000Y-76896000D01*
X152789000Y-76244000D01*
X153691000Y-76244000D01*
X153691000Y-76896000D01*
X153691000Y-76896000D01*
G37*
M02*
