G04 #@! TF.GenerationSoftware,KiCad,Pcbnew,(5.1.4)-1*
G04 #@! TF.CreationDate,2020-08-19T16:22:55+02:00*
G04 #@! TF.ProjectId,Long range deauther,4c6f6e67-2072-4616-9e67-652064656175,rev?*
G04 #@! TF.SameCoordinates,Original*
G04 #@! TF.FileFunction,Paste,Bot*
G04 #@! TF.FilePolarity,Positive*
%FSLAX46Y46*%
G04 Gerber Fmt 4.6, Leading zero omitted, Abs format (unit mm)*
G04 Created by KiCad (PCBNEW (5.1.4)-1) date 2020-08-19 16:22:55*
%MOMM*%
%LPD*%
G04 APERTURE LIST*
%ADD10C,0.100000*%
%ADD11C,1.150000*%
%ADD12R,1.200000X1.400000*%
%ADD13R,1.000000X1.400000*%
%ADD14R,2.000000X1.500000*%
%ADD15R,2.000000X3.800000*%
%ADD16R,0.950000X0.300000*%
%ADD17R,0.300000X0.950000*%
%ADD18R,0.900000X0.800000*%
G04 APERTURE END LIST*
D10*
G36*
X138324505Y-88301204D02*
G01*
X138348773Y-88304804D01*
X138372572Y-88310765D01*
X138395671Y-88319030D01*
X138417850Y-88329520D01*
X138438893Y-88342132D01*
X138458599Y-88356747D01*
X138476777Y-88373223D01*
X138493253Y-88391401D01*
X138507868Y-88411107D01*
X138520480Y-88432150D01*
X138530970Y-88454329D01*
X138539235Y-88477428D01*
X138545196Y-88501227D01*
X138548796Y-88525495D01*
X138550000Y-88549999D01*
X138550000Y-89450001D01*
X138548796Y-89474505D01*
X138545196Y-89498773D01*
X138539235Y-89522572D01*
X138530970Y-89545671D01*
X138520480Y-89567850D01*
X138507868Y-89588893D01*
X138493253Y-89608599D01*
X138476777Y-89626777D01*
X138458599Y-89643253D01*
X138438893Y-89657868D01*
X138417850Y-89670480D01*
X138395671Y-89680970D01*
X138372572Y-89689235D01*
X138348773Y-89695196D01*
X138324505Y-89698796D01*
X138300001Y-89700000D01*
X137649999Y-89700000D01*
X137625495Y-89698796D01*
X137601227Y-89695196D01*
X137577428Y-89689235D01*
X137554329Y-89680970D01*
X137532150Y-89670480D01*
X137511107Y-89657868D01*
X137491401Y-89643253D01*
X137473223Y-89626777D01*
X137456747Y-89608599D01*
X137442132Y-89588893D01*
X137429520Y-89567850D01*
X137419030Y-89545671D01*
X137410765Y-89522572D01*
X137404804Y-89498773D01*
X137401204Y-89474505D01*
X137400000Y-89450001D01*
X137400000Y-88549999D01*
X137401204Y-88525495D01*
X137404804Y-88501227D01*
X137410765Y-88477428D01*
X137419030Y-88454329D01*
X137429520Y-88432150D01*
X137442132Y-88411107D01*
X137456747Y-88391401D01*
X137473223Y-88373223D01*
X137491401Y-88356747D01*
X137511107Y-88342132D01*
X137532150Y-88329520D01*
X137554329Y-88319030D01*
X137577428Y-88310765D01*
X137601227Y-88304804D01*
X137625495Y-88301204D01*
X137649999Y-88300000D01*
X138300001Y-88300000D01*
X138324505Y-88301204D01*
X138324505Y-88301204D01*
G37*
D11*
X137975000Y-89000000D03*
D10*
G36*
X140374505Y-88301204D02*
G01*
X140398773Y-88304804D01*
X140422572Y-88310765D01*
X140445671Y-88319030D01*
X140467850Y-88329520D01*
X140488893Y-88342132D01*
X140508599Y-88356747D01*
X140526777Y-88373223D01*
X140543253Y-88391401D01*
X140557868Y-88411107D01*
X140570480Y-88432150D01*
X140580970Y-88454329D01*
X140589235Y-88477428D01*
X140595196Y-88501227D01*
X140598796Y-88525495D01*
X140600000Y-88549999D01*
X140600000Y-89450001D01*
X140598796Y-89474505D01*
X140595196Y-89498773D01*
X140589235Y-89522572D01*
X140580970Y-89545671D01*
X140570480Y-89567850D01*
X140557868Y-89588893D01*
X140543253Y-89608599D01*
X140526777Y-89626777D01*
X140508599Y-89643253D01*
X140488893Y-89657868D01*
X140467850Y-89670480D01*
X140445671Y-89680970D01*
X140422572Y-89689235D01*
X140398773Y-89695196D01*
X140374505Y-89698796D01*
X140350001Y-89700000D01*
X139699999Y-89700000D01*
X139675495Y-89698796D01*
X139651227Y-89695196D01*
X139627428Y-89689235D01*
X139604329Y-89680970D01*
X139582150Y-89670480D01*
X139561107Y-89657868D01*
X139541401Y-89643253D01*
X139523223Y-89626777D01*
X139506747Y-89608599D01*
X139492132Y-89588893D01*
X139479520Y-89567850D01*
X139469030Y-89545671D01*
X139460765Y-89522572D01*
X139454804Y-89498773D01*
X139451204Y-89474505D01*
X139450000Y-89450001D01*
X139450000Y-88549999D01*
X139451204Y-88525495D01*
X139454804Y-88501227D01*
X139460765Y-88477428D01*
X139469030Y-88454329D01*
X139479520Y-88432150D01*
X139492132Y-88411107D01*
X139506747Y-88391401D01*
X139523223Y-88373223D01*
X139541401Y-88356747D01*
X139561107Y-88342132D01*
X139582150Y-88329520D01*
X139604329Y-88319030D01*
X139627428Y-88310765D01*
X139651227Y-88304804D01*
X139675495Y-88301204D01*
X139699999Y-88300000D01*
X140350001Y-88300000D01*
X140374505Y-88301204D01*
X140374505Y-88301204D01*
G37*
D11*
X140025000Y-89000000D03*
D10*
G36*
X134324505Y-88301204D02*
G01*
X134348773Y-88304804D01*
X134372572Y-88310765D01*
X134395671Y-88319030D01*
X134417850Y-88329520D01*
X134438893Y-88342132D01*
X134458599Y-88356747D01*
X134476777Y-88373223D01*
X134493253Y-88391401D01*
X134507868Y-88411107D01*
X134520480Y-88432150D01*
X134530970Y-88454329D01*
X134539235Y-88477428D01*
X134545196Y-88501227D01*
X134548796Y-88525495D01*
X134550000Y-88549999D01*
X134550000Y-89450001D01*
X134548796Y-89474505D01*
X134545196Y-89498773D01*
X134539235Y-89522572D01*
X134530970Y-89545671D01*
X134520480Y-89567850D01*
X134507868Y-89588893D01*
X134493253Y-89608599D01*
X134476777Y-89626777D01*
X134458599Y-89643253D01*
X134438893Y-89657868D01*
X134417850Y-89670480D01*
X134395671Y-89680970D01*
X134372572Y-89689235D01*
X134348773Y-89695196D01*
X134324505Y-89698796D01*
X134300001Y-89700000D01*
X133649999Y-89700000D01*
X133625495Y-89698796D01*
X133601227Y-89695196D01*
X133577428Y-89689235D01*
X133554329Y-89680970D01*
X133532150Y-89670480D01*
X133511107Y-89657868D01*
X133491401Y-89643253D01*
X133473223Y-89626777D01*
X133456747Y-89608599D01*
X133442132Y-89588893D01*
X133429520Y-89567850D01*
X133419030Y-89545671D01*
X133410765Y-89522572D01*
X133404804Y-89498773D01*
X133401204Y-89474505D01*
X133400000Y-89450001D01*
X133400000Y-88549999D01*
X133401204Y-88525495D01*
X133404804Y-88501227D01*
X133410765Y-88477428D01*
X133419030Y-88454329D01*
X133429520Y-88432150D01*
X133442132Y-88411107D01*
X133456747Y-88391401D01*
X133473223Y-88373223D01*
X133491401Y-88356747D01*
X133511107Y-88342132D01*
X133532150Y-88329520D01*
X133554329Y-88319030D01*
X133577428Y-88310765D01*
X133601227Y-88304804D01*
X133625495Y-88301204D01*
X133649999Y-88300000D01*
X134300001Y-88300000D01*
X134324505Y-88301204D01*
X134324505Y-88301204D01*
G37*
D11*
X133975000Y-89000000D03*
D10*
G36*
X136374505Y-88301204D02*
G01*
X136398773Y-88304804D01*
X136422572Y-88310765D01*
X136445671Y-88319030D01*
X136467850Y-88329520D01*
X136488893Y-88342132D01*
X136508599Y-88356747D01*
X136526777Y-88373223D01*
X136543253Y-88391401D01*
X136557868Y-88411107D01*
X136570480Y-88432150D01*
X136580970Y-88454329D01*
X136589235Y-88477428D01*
X136595196Y-88501227D01*
X136598796Y-88525495D01*
X136600000Y-88549999D01*
X136600000Y-89450001D01*
X136598796Y-89474505D01*
X136595196Y-89498773D01*
X136589235Y-89522572D01*
X136580970Y-89545671D01*
X136570480Y-89567850D01*
X136557868Y-89588893D01*
X136543253Y-89608599D01*
X136526777Y-89626777D01*
X136508599Y-89643253D01*
X136488893Y-89657868D01*
X136467850Y-89670480D01*
X136445671Y-89680970D01*
X136422572Y-89689235D01*
X136398773Y-89695196D01*
X136374505Y-89698796D01*
X136350001Y-89700000D01*
X135699999Y-89700000D01*
X135675495Y-89698796D01*
X135651227Y-89695196D01*
X135627428Y-89689235D01*
X135604329Y-89680970D01*
X135582150Y-89670480D01*
X135561107Y-89657868D01*
X135541401Y-89643253D01*
X135523223Y-89626777D01*
X135506747Y-89608599D01*
X135492132Y-89588893D01*
X135479520Y-89567850D01*
X135469030Y-89545671D01*
X135460765Y-89522572D01*
X135454804Y-89498773D01*
X135451204Y-89474505D01*
X135450000Y-89450001D01*
X135450000Y-88549999D01*
X135451204Y-88525495D01*
X135454804Y-88501227D01*
X135460765Y-88477428D01*
X135469030Y-88454329D01*
X135479520Y-88432150D01*
X135492132Y-88411107D01*
X135506747Y-88391401D01*
X135523223Y-88373223D01*
X135541401Y-88356747D01*
X135561107Y-88342132D01*
X135582150Y-88329520D01*
X135604329Y-88319030D01*
X135627428Y-88310765D01*
X135651227Y-88304804D01*
X135675495Y-88301204D01*
X135699999Y-88300000D01*
X136350001Y-88300000D01*
X136374505Y-88301204D01*
X136374505Y-88301204D01*
G37*
D11*
X136025000Y-89000000D03*
D10*
G36*
X144374505Y-88301204D02*
G01*
X144398773Y-88304804D01*
X144422572Y-88310765D01*
X144445671Y-88319030D01*
X144467850Y-88329520D01*
X144488893Y-88342132D01*
X144508599Y-88356747D01*
X144526777Y-88373223D01*
X144543253Y-88391401D01*
X144557868Y-88411107D01*
X144570480Y-88432150D01*
X144580970Y-88454329D01*
X144589235Y-88477428D01*
X144595196Y-88501227D01*
X144598796Y-88525495D01*
X144600000Y-88549999D01*
X144600000Y-89450001D01*
X144598796Y-89474505D01*
X144595196Y-89498773D01*
X144589235Y-89522572D01*
X144580970Y-89545671D01*
X144570480Y-89567850D01*
X144557868Y-89588893D01*
X144543253Y-89608599D01*
X144526777Y-89626777D01*
X144508599Y-89643253D01*
X144488893Y-89657868D01*
X144467850Y-89670480D01*
X144445671Y-89680970D01*
X144422572Y-89689235D01*
X144398773Y-89695196D01*
X144374505Y-89698796D01*
X144350001Y-89700000D01*
X143699999Y-89700000D01*
X143675495Y-89698796D01*
X143651227Y-89695196D01*
X143627428Y-89689235D01*
X143604329Y-89680970D01*
X143582150Y-89670480D01*
X143561107Y-89657868D01*
X143541401Y-89643253D01*
X143523223Y-89626777D01*
X143506747Y-89608599D01*
X143492132Y-89588893D01*
X143479520Y-89567850D01*
X143469030Y-89545671D01*
X143460765Y-89522572D01*
X143454804Y-89498773D01*
X143451204Y-89474505D01*
X143450000Y-89450001D01*
X143450000Y-88549999D01*
X143451204Y-88525495D01*
X143454804Y-88501227D01*
X143460765Y-88477428D01*
X143469030Y-88454329D01*
X143479520Y-88432150D01*
X143492132Y-88411107D01*
X143506747Y-88391401D01*
X143523223Y-88373223D01*
X143541401Y-88356747D01*
X143561107Y-88342132D01*
X143582150Y-88329520D01*
X143604329Y-88319030D01*
X143627428Y-88310765D01*
X143651227Y-88304804D01*
X143675495Y-88301204D01*
X143699999Y-88300000D01*
X144350001Y-88300000D01*
X144374505Y-88301204D01*
X144374505Y-88301204D01*
G37*
D11*
X144025000Y-89000000D03*
D10*
G36*
X142324505Y-88301204D02*
G01*
X142348773Y-88304804D01*
X142372572Y-88310765D01*
X142395671Y-88319030D01*
X142417850Y-88329520D01*
X142438893Y-88342132D01*
X142458599Y-88356747D01*
X142476777Y-88373223D01*
X142493253Y-88391401D01*
X142507868Y-88411107D01*
X142520480Y-88432150D01*
X142530970Y-88454329D01*
X142539235Y-88477428D01*
X142545196Y-88501227D01*
X142548796Y-88525495D01*
X142550000Y-88549999D01*
X142550000Y-89450001D01*
X142548796Y-89474505D01*
X142545196Y-89498773D01*
X142539235Y-89522572D01*
X142530970Y-89545671D01*
X142520480Y-89567850D01*
X142507868Y-89588893D01*
X142493253Y-89608599D01*
X142476777Y-89626777D01*
X142458599Y-89643253D01*
X142438893Y-89657868D01*
X142417850Y-89670480D01*
X142395671Y-89680970D01*
X142372572Y-89689235D01*
X142348773Y-89695196D01*
X142324505Y-89698796D01*
X142300001Y-89700000D01*
X141649999Y-89700000D01*
X141625495Y-89698796D01*
X141601227Y-89695196D01*
X141577428Y-89689235D01*
X141554329Y-89680970D01*
X141532150Y-89670480D01*
X141511107Y-89657868D01*
X141491401Y-89643253D01*
X141473223Y-89626777D01*
X141456747Y-89608599D01*
X141442132Y-89588893D01*
X141429520Y-89567850D01*
X141419030Y-89545671D01*
X141410765Y-89522572D01*
X141404804Y-89498773D01*
X141401204Y-89474505D01*
X141400000Y-89450001D01*
X141400000Y-88549999D01*
X141401204Y-88525495D01*
X141404804Y-88501227D01*
X141410765Y-88477428D01*
X141419030Y-88454329D01*
X141429520Y-88432150D01*
X141442132Y-88411107D01*
X141456747Y-88391401D01*
X141473223Y-88373223D01*
X141491401Y-88356747D01*
X141511107Y-88342132D01*
X141532150Y-88329520D01*
X141554329Y-88319030D01*
X141577428Y-88310765D01*
X141601227Y-88304804D01*
X141625495Y-88301204D01*
X141649999Y-88300000D01*
X142300001Y-88300000D01*
X142324505Y-88301204D01*
X142324505Y-88301204D01*
G37*
D11*
X141975000Y-89000000D03*
D10*
G36*
X143474505Y-84401204D02*
G01*
X143498773Y-84404804D01*
X143522572Y-84410765D01*
X143545671Y-84419030D01*
X143567850Y-84429520D01*
X143588893Y-84442132D01*
X143608599Y-84456747D01*
X143626777Y-84473223D01*
X143643253Y-84491401D01*
X143657868Y-84511107D01*
X143670480Y-84532150D01*
X143680970Y-84554329D01*
X143689235Y-84577428D01*
X143695196Y-84601227D01*
X143698796Y-84625495D01*
X143700000Y-84649999D01*
X143700000Y-85300001D01*
X143698796Y-85324505D01*
X143695196Y-85348773D01*
X143689235Y-85372572D01*
X143680970Y-85395671D01*
X143670480Y-85417850D01*
X143657868Y-85438893D01*
X143643253Y-85458599D01*
X143626777Y-85476777D01*
X143608599Y-85493253D01*
X143588893Y-85507868D01*
X143567850Y-85520480D01*
X143545671Y-85530970D01*
X143522572Y-85539235D01*
X143498773Y-85545196D01*
X143474505Y-85548796D01*
X143450001Y-85550000D01*
X142549999Y-85550000D01*
X142525495Y-85548796D01*
X142501227Y-85545196D01*
X142477428Y-85539235D01*
X142454329Y-85530970D01*
X142432150Y-85520480D01*
X142411107Y-85507868D01*
X142391401Y-85493253D01*
X142373223Y-85476777D01*
X142356747Y-85458599D01*
X142342132Y-85438893D01*
X142329520Y-85417850D01*
X142319030Y-85395671D01*
X142310765Y-85372572D01*
X142304804Y-85348773D01*
X142301204Y-85324505D01*
X142300000Y-85300001D01*
X142300000Y-84649999D01*
X142301204Y-84625495D01*
X142304804Y-84601227D01*
X142310765Y-84577428D01*
X142319030Y-84554329D01*
X142329520Y-84532150D01*
X142342132Y-84511107D01*
X142356747Y-84491401D01*
X142373223Y-84473223D01*
X142391401Y-84456747D01*
X142411107Y-84442132D01*
X142432150Y-84429520D01*
X142454329Y-84419030D01*
X142477428Y-84410765D01*
X142501227Y-84404804D01*
X142525495Y-84401204D01*
X142549999Y-84400000D01*
X143450001Y-84400000D01*
X143474505Y-84401204D01*
X143474505Y-84401204D01*
G37*
D11*
X143000000Y-84975000D03*
D10*
G36*
X143474505Y-86451204D02*
G01*
X143498773Y-86454804D01*
X143522572Y-86460765D01*
X143545671Y-86469030D01*
X143567850Y-86479520D01*
X143588893Y-86492132D01*
X143608599Y-86506747D01*
X143626777Y-86523223D01*
X143643253Y-86541401D01*
X143657868Y-86561107D01*
X143670480Y-86582150D01*
X143680970Y-86604329D01*
X143689235Y-86627428D01*
X143695196Y-86651227D01*
X143698796Y-86675495D01*
X143700000Y-86699999D01*
X143700000Y-87350001D01*
X143698796Y-87374505D01*
X143695196Y-87398773D01*
X143689235Y-87422572D01*
X143680970Y-87445671D01*
X143670480Y-87467850D01*
X143657868Y-87488893D01*
X143643253Y-87508599D01*
X143626777Y-87526777D01*
X143608599Y-87543253D01*
X143588893Y-87557868D01*
X143567850Y-87570480D01*
X143545671Y-87580970D01*
X143522572Y-87589235D01*
X143498773Y-87595196D01*
X143474505Y-87598796D01*
X143450001Y-87600000D01*
X142549999Y-87600000D01*
X142525495Y-87598796D01*
X142501227Y-87595196D01*
X142477428Y-87589235D01*
X142454329Y-87580970D01*
X142432150Y-87570480D01*
X142411107Y-87557868D01*
X142391401Y-87543253D01*
X142373223Y-87526777D01*
X142356747Y-87508599D01*
X142342132Y-87488893D01*
X142329520Y-87467850D01*
X142319030Y-87445671D01*
X142310765Y-87422572D01*
X142304804Y-87398773D01*
X142301204Y-87374505D01*
X142300000Y-87350001D01*
X142300000Y-86699999D01*
X142301204Y-86675495D01*
X142304804Y-86651227D01*
X142310765Y-86627428D01*
X142319030Y-86604329D01*
X142329520Y-86582150D01*
X142342132Y-86561107D01*
X142356747Y-86541401D01*
X142373223Y-86523223D01*
X142391401Y-86506747D01*
X142411107Y-86492132D01*
X142432150Y-86479520D01*
X142454329Y-86469030D01*
X142477428Y-86460765D01*
X142501227Y-86454804D01*
X142525495Y-86451204D01*
X142549999Y-86450000D01*
X143450001Y-86450000D01*
X143474505Y-86451204D01*
X143474505Y-86451204D01*
G37*
D11*
X143000000Y-87025000D03*
D12*
X135570000Y-79600000D03*
D13*
X133850000Y-79600000D03*
X133850000Y-77400000D03*
X135750000Y-77400000D03*
D10*
G36*
X140124505Y-76551204D02*
G01*
X140148773Y-76554804D01*
X140172572Y-76560765D01*
X140195671Y-76569030D01*
X140217850Y-76579520D01*
X140238893Y-76592132D01*
X140258599Y-76606747D01*
X140276777Y-76623223D01*
X140293253Y-76641401D01*
X140307868Y-76661107D01*
X140320480Y-76682150D01*
X140330970Y-76704329D01*
X140339235Y-76727428D01*
X140345196Y-76751227D01*
X140348796Y-76775495D01*
X140350000Y-76799999D01*
X140350000Y-77700001D01*
X140348796Y-77724505D01*
X140345196Y-77748773D01*
X140339235Y-77772572D01*
X140330970Y-77795671D01*
X140320480Y-77817850D01*
X140307868Y-77838893D01*
X140293253Y-77858599D01*
X140276777Y-77876777D01*
X140258599Y-77893253D01*
X140238893Y-77907868D01*
X140217850Y-77920480D01*
X140195671Y-77930970D01*
X140172572Y-77939235D01*
X140148773Y-77945196D01*
X140124505Y-77948796D01*
X140100001Y-77950000D01*
X139449999Y-77950000D01*
X139425495Y-77948796D01*
X139401227Y-77945196D01*
X139377428Y-77939235D01*
X139354329Y-77930970D01*
X139332150Y-77920480D01*
X139311107Y-77907868D01*
X139291401Y-77893253D01*
X139273223Y-77876777D01*
X139256747Y-77858599D01*
X139242132Y-77838893D01*
X139229520Y-77817850D01*
X139219030Y-77795671D01*
X139210765Y-77772572D01*
X139204804Y-77748773D01*
X139201204Y-77724505D01*
X139200000Y-77700001D01*
X139200000Y-76799999D01*
X139201204Y-76775495D01*
X139204804Y-76751227D01*
X139210765Y-76727428D01*
X139219030Y-76704329D01*
X139229520Y-76682150D01*
X139242132Y-76661107D01*
X139256747Y-76641401D01*
X139273223Y-76623223D01*
X139291401Y-76606747D01*
X139311107Y-76592132D01*
X139332150Y-76579520D01*
X139354329Y-76569030D01*
X139377428Y-76560765D01*
X139401227Y-76554804D01*
X139425495Y-76551204D01*
X139449999Y-76550000D01*
X140100001Y-76550000D01*
X140124505Y-76551204D01*
X140124505Y-76551204D01*
G37*
D11*
X139775000Y-77250000D03*
D10*
G36*
X138074505Y-76551204D02*
G01*
X138098773Y-76554804D01*
X138122572Y-76560765D01*
X138145671Y-76569030D01*
X138167850Y-76579520D01*
X138188893Y-76592132D01*
X138208599Y-76606747D01*
X138226777Y-76623223D01*
X138243253Y-76641401D01*
X138257868Y-76661107D01*
X138270480Y-76682150D01*
X138280970Y-76704329D01*
X138289235Y-76727428D01*
X138295196Y-76751227D01*
X138298796Y-76775495D01*
X138300000Y-76799999D01*
X138300000Y-77700001D01*
X138298796Y-77724505D01*
X138295196Y-77748773D01*
X138289235Y-77772572D01*
X138280970Y-77795671D01*
X138270480Y-77817850D01*
X138257868Y-77838893D01*
X138243253Y-77858599D01*
X138226777Y-77876777D01*
X138208599Y-77893253D01*
X138188893Y-77907868D01*
X138167850Y-77920480D01*
X138145671Y-77930970D01*
X138122572Y-77939235D01*
X138098773Y-77945196D01*
X138074505Y-77948796D01*
X138050001Y-77950000D01*
X137399999Y-77950000D01*
X137375495Y-77948796D01*
X137351227Y-77945196D01*
X137327428Y-77939235D01*
X137304329Y-77930970D01*
X137282150Y-77920480D01*
X137261107Y-77907868D01*
X137241401Y-77893253D01*
X137223223Y-77876777D01*
X137206747Y-77858599D01*
X137192132Y-77838893D01*
X137179520Y-77817850D01*
X137169030Y-77795671D01*
X137160765Y-77772572D01*
X137154804Y-77748773D01*
X137151204Y-77724505D01*
X137150000Y-77700001D01*
X137150000Y-76799999D01*
X137151204Y-76775495D01*
X137154804Y-76751227D01*
X137160765Y-76727428D01*
X137169030Y-76704329D01*
X137179520Y-76682150D01*
X137192132Y-76661107D01*
X137206747Y-76641401D01*
X137223223Y-76623223D01*
X137241401Y-76606747D01*
X137261107Y-76592132D01*
X137282150Y-76579520D01*
X137304329Y-76569030D01*
X137327428Y-76560765D01*
X137351227Y-76554804D01*
X137375495Y-76551204D01*
X137399999Y-76550000D01*
X138050001Y-76550000D01*
X138074505Y-76551204D01*
X138074505Y-76551204D01*
G37*
D11*
X137725000Y-77250000D03*
D10*
G36*
X141824505Y-76551204D02*
G01*
X141848773Y-76554804D01*
X141872572Y-76560765D01*
X141895671Y-76569030D01*
X141917850Y-76579520D01*
X141938893Y-76592132D01*
X141958599Y-76606747D01*
X141976777Y-76623223D01*
X141993253Y-76641401D01*
X142007868Y-76661107D01*
X142020480Y-76682150D01*
X142030970Y-76704329D01*
X142039235Y-76727428D01*
X142045196Y-76751227D01*
X142048796Y-76775495D01*
X142050000Y-76799999D01*
X142050000Y-77700001D01*
X142048796Y-77724505D01*
X142045196Y-77748773D01*
X142039235Y-77772572D01*
X142030970Y-77795671D01*
X142020480Y-77817850D01*
X142007868Y-77838893D01*
X141993253Y-77858599D01*
X141976777Y-77876777D01*
X141958599Y-77893253D01*
X141938893Y-77907868D01*
X141917850Y-77920480D01*
X141895671Y-77930970D01*
X141872572Y-77939235D01*
X141848773Y-77945196D01*
X141824505Y-77948796D01*
X141800001Y-77950000D01*
X141149999Y-77950000D01*
X141125495Y-77948796D01*
X141101227Y-77945196D01*
X141077428Y-77939235D01*
X141054329Y-77930970D01*
X141032150Y-77920480D01*
X141011107Y-77907868D01*
X140991401Y-77893253D01*
X140973223Y-77876777D01*
X140956747Y-77858599D01*
X140942132Y-77838893D01*
X140929520Y-77817850D01*
X140919030Y-77795671D01*
X140910765Y-77772572D01*
X140904804Y-77748773D01*
X140901204Y-77724505D01*
X140900000Y-77700001D01*
X140900000Y-76799999D01*
X140901204Y-76775495D01*
X140904804Y-76751227D01*
X140910765Y-76727428D01*
X140919030Y-76704329D01*
X140929520Y-76682150D01*
X140942132Y-76661107D01*
X140956747Y-76641401D01*
X140973223Y-76623223D01*
X140991401Y-76606747D01*
X141011107Y-76592132D01*
X141032150Y-76579520D01*
X141054329Y-76569030D01*
X141077428Y-76560765D01*
X141101227Y-76554804D01*
X141125495Y-76551204D01*
X141149999Y-76550000D01*
X141800001Y-76550000D01*
X141824505Y-76551204D01*
X141824505Y-76551204D01*
G37*
D11*
X141475000Y-77250000D03*
D10*
G36*
X143874505Y-76551204D02*
G01*
X143898773Y-76554804D01*
X143922572Y-76560765D01*
X143945671Y-76569030D01*
X143967850Y-76579520D01*
X143988893Y-76592132D01*
X144008599Y-76606747D01*
X144026777Y-76623223D01*
X144043253Y-76641401D01*
X144057868Y-76661107D01*
X144070480Y-76682150D01*
X144080970Y-76704329D01*
X144089235Y-76727428D01*
X144095196Y-76751227D01*
X144098796Y-76775495D01*
X144100000Y-76799999D01*
X144100000Y-77700001D01*
X144098796Y-77724505D01*
X144095196Y-77748773D01*
X144089235Y-77772572D01*
X144080970Y-77795671D01*
X144070480Y-77817850D01*
X144057868Y-77838893D01*
X144043253Y-77858599D01*
X144026777Y-77876777D01*
X144008599Y-77893253D01*
X143988893Y-77907868D01*
X143967850Y-77920480D01*
X143945671Y-77930970D01*
X143922572Y-77939235D01*
X143898773Y-77945196D01*
X143874505Y-77948796D01*
X143850001Y-77950000D01*
X143199999Y-77950000D01*
X143175495Y-77948796D01*
X143151227Y-77945196D01*
X143127428Y-77939235D01*
X143104329Y-77930970D01*
X143082150Y-77920480D01*
X143061107Y-77907868D01*
X143041401Y-77893253D01*
X143023223Y-77876777D01*
X143006747Y-77858599D01*
X142992132Y-77838893D01*
X142979520Y-77817850D01*
X142969030Y-77795671D01*
X142960765Y-77772572D01*
X142954804Y-77748773D01*
X142951204Y-77724505D01*
X142950000Y-77700001D01*
X142950000Y-76799999D01*
X142951204Y-76775495D01*
X142954804Y-76751227D01*
X142960765Y-76727428D01*
X142969030Y-76704329D01*
X142979520Y-76682150D01*
X142992132Y-76661107D01*
X143006747Y-76641401D01*
X143023223Y-76623223D01*
X143041401Y-76606747D01*
X143061107Y-76592132D01*
X143082150Y-76579520D01*
X143104329Y-76569030D01*
X143127428Y-76560765D01*
X143151227Y-76554804D01*
X143175495Y-76551204D01*
X143199999Y-76550000D01*
X143850001Y-76550000D01*
X143874505Y-76551204D01*
X143874505Y-76551204D01*
G37*
D11*
X143525000Y-77250000D03*
D10*
G36*
X145574505Y-76551204D02*
G01*
X145598773Y-76554804D01*
X145622572Y-76560765D01*
X145645671Y-76569030D01*
X145667850Y-76579520D01*
X145688893Y-76592132D01*
X145708599Y-76606747D01*
X145726777Y-76623223D01*
X145743253Y-76641401D01*
X145757868Y-76661107D01*
X145770480Y-76682150D01*
X145780970Y-76704329D01*
X145789235Y-76727428D01*
X145795196Y-76751227D01*
X145798796Y-76775495D01*
X145800000Y-76799999D01*
X145800000Y-77700001D01*
X145798796Y-77724505D01*
X145795196Y-77748773D01*
X145789235Y-77772572D01*
X145780970Y-77795671D01*
X145770480Y-77817850D01*
X145757868Y-77838893D01*
X145743253Y-77858599D01*
X145726777Y-77876777D01*
X145708599Y-77893253D01*
X145688893Y-77907868D01*
X145667850Y-77920480D01*
X145645671Y-77930970D01*
X145622572Y-77939235D01*
X145598773Y-77945196D01*
X145574505Y-77948796D01*
X145550001Y-77950000D01*
X144899999Y-77950000D01*
X144875495Y-77948796D01*
X144851227Y-77945196D01*
X144827428Y-77939235D01*
X144804329Y-77930970D01*
X144782150Y-77920480D01*
X144761107Y-77907868D01*
X144741401Y-77893253D01*
X144723223Y-77876777D01*
X144706747Y-77858599D01*
X144692132Y-77838893D01*
X144679520Y-77817850D01*
X144669030Y-77795671D01*
X144660765Y-77772572D01*
X144654804Y-77748773D01*
X144651204Y-77724505D01*
X144650000Y-77700001D01*
X144650000Y-76799999D01*
X144651204Y-76775495D01*
X144654804Y-76751227D01*
X144660765Y-76727428D01*
X144669030Y-76704329D01*
X144679520Y-76682150D01*
X144692132Y-76661107D01*
X144706747Y-76641401D01*
X144723223Y-76623223D01*
X144741401Y-76606747D01*
X144761107Y-76592132D01*
X144782150Y-76579520D01*
X144804329Y-76569030D01*
X144827428Y-76560765D01*
X144851227Y-76554804D01*
X144875495Y-76551204D01*
X144899999Y-76550000D01*
X145550001Y-76550000D01*
X145574505Y-76551204D01*
X145574505Y-76551204D01*
G37*
D11*
X145225000Y-77250000D03*
D10*
G36*
X147624505Y-76551204D02*
G01*
X147648773Y-76554804D01*
X147672572Y-76560765D01*
X147695671Y-76569030D01*
X147717850Y-76579520D01*
X147738893Y-76592132D01*
X147758599Y-76606747D01*
X147776777Y-76623223D01*
X147793253Y-76641401D01*
X147807868Y-76661107D01*
X147820480Y-76682150D01*
X147830970Y-76704329D01*
X147839235Y-76727428D01*
X147845196Y-76751227D01*
X147848796Y-76775495D01*
X147850000Y-76799999D01*
X147850000Y-77700001D01*
X147848796Y-77724505D01*
X147845196Y-77748773D01*
X147839235Y-77772572D01*
X147830970Y-77795671D01*
X147820480Y-77817850D01*
X147807868Y-77838893D01*
X147793253Y-77858599D01*
X147776777Y-77876777D01*
X147758599Y-77893253D01*
X147738893Y-77907868D01*
X147717850Y-77920480D01*
X147695671Y-77930970D01*
X147672572Y-77939235D01*
X147648773Y-77945196D01*
X147624505Y-77948796D01*
X147600001Y-77950000D01*
X146949999Y-77950000D01*
X146925495Y-77948796D01*
X146901227Y-77945196D01*
X146877428Y-77939235D01*
X146854329Y-77930970D01*
X146832150Y-77920480D01*
X146811107Y-77907868D01*
X146791401Y-77893253D01*
X146773223Y-77876777D01*
X146756747Y-77858599D01*
X146742132Y-77838893D01*
X146729520Y-77817850D01*
X146719030Y-77795671D01*
X146710765Y-77772572D01*
X146704804Y-77748773D01*
X146701204Y-77724505D01*
X146700000Y-77700001D01*
X146700000Y-76799999D01*
X146701204Y-76775495D01*
X146704804Y-76751227D01*
X146710765Y-76727428D01*
X146719030Y-76704329D01*
X146729520Y-76682150D01*
X146742132Y-76661107D01*
X146756747Y-76641401D01*
X146773223Y-76623223D01*
X146791401Y-76606747D01*
X146811107Y-76592132D01*
X146832150Y-76579520D01*
X146854329Y-76569030D01*
X146877428Y-76560765D01*
X146901227Y-76554804D01*
X146925495Y-76551204D01*
X146949999Y-76550000D01*
X147600001Y-76550000D01*
X147624505Y-76551204D01*
X147624505Y-76551204D01*
G37*
D11*
X147275000Y-77250000D03*
D10*
G36*
X154774505Y-86201204D02*
G01*
X154798773Y-86204804D01*
X154822572Y-86210765D01*
X154845671Y-86219030D01*
X154867850Y-86229520D01*
X154888893Y-86242132D01*
X154908599Y-86256747D01*
X154926777Y-86273223D01*
X154943253Y-86291401D01*
X154957868Y-86311107D01*
X154970480Y-86332150D01*
X154980970Y-86354329D01*
X154989235Y-86377428D01*
X154995196Y-86401227D01*
X154998796Y-86425495D01*
X155000000Y-86449999D01*
X155000000Y-87350001D01*
X154998796Y-87374505D01*
X154995196Y-87398773D01*
X154989235Y-87422572D01*
X154980970Y-87445671D01*
X154970480Y-87467850D01*
X154957868Y-87488893D01*
X154943253Y-87508599D01*
X154926777Y-87526777D01*
X154908599Y-87543253D01*
X154888893Y-87557868D01*
X154867850Y-87570480D01*
X154845671Y-87580970D01*
X154822572Y-87589235D01*
X154798773Y-87595196D01*
X154774505Y-87598796D01*
X154750001Y-87600000D01*
X154099999Y-87600000D01*
X154075495Y-87598796D01*
X154051227Y-87595196D01*
X154027428Y-87589235D01*
X154004329Y-87580970D01*
X153982150Y-87570480D01*
X153961107Y-87557868D01*
X153941401Y-87543253D01*
X153923223Y-87526777D01*
X153906747Y-87508599D01*
X153892132Y-87488893D01*
X153879520Y-87467850D01*
X153869030Y-87445671D01*
X153860765Y-87422572D01*
X153854804Y-87398773D01*
X153851204Y-87374505D01*
X153850000Y-87350001D01*
X153850000Y-86449999D01*
X153851204Y-86425495D01*
X153854804Y-86401227D01*
X153860765Y-86377428D01*
X153869030Y-86354329D01*
X153879520Y-86332150D01*
X153892132Y-86311107D01*
X153906747Y-86291401D01*
X153923223Y-86273223D01*
X153941401Y-86256747D01*
X153961107Y-86242132D01*
X153982150Y-86229520D01*
X154004329Y-86219030D01*
X154027428Y-86210765D01*
X154051227Y-86204804D01*
X154075495Y-86201204D01*
X154099999Y-86200000D01*
X154750001Y-86200000D01*
X154774505Y-86201204D01*
X154774505Y-86201204D01*
G37*
D11*
X154425000Y-86900000D03*
D10*
G36*
X152724505Y-86201204D02*
G01*
X152748773Y-86204804D01*
X152772572Y-86210765D01*
X152795671Y-86219030D01*
X152817850Y-86229520D01*
X152838893Y-86242132D01*
X152858599Y-86256747D01*
X152876777Y-86273223D01*
X152893253Y-86291401D01*
X152907868Y-86311107D01*
X152920480Y-86332150D01*
X152930970Y-86354329D01*
X152939235Y-86377428D01*
X152945196Y-86401227D01*
X152948796Y-86425495D01*
X152950000Y-86449999D01*
X152950000Y-87350001D01*
X152948796Y-87374505D01*
X152945196Y-87398773D01*
X152939235Y-87422572D01*
X152930970Y-87445671D01*
X152920480Y-87467850D01*
X152907868Y-87488893D01*
X152893253Y-87508599D01*
X152876777Y-87526777D01*
X152858599Y-87543253D01*
X152838893Y-87557868D01*
X152817850Y-87570480D01*
X152795671Y-87580970D01*
X152772572Y-87589235D01*
X152748773Y-87595196D01*
X152724505Y-87598796D01*
X152700001Y-87600000D01*
X152049999Y-87600000D01*
X152025495Y-87598796D01*
X152001227Y-87595196D01*
X151977428Y-87589235D01*
X151954329Y-87580970D01*
X151932150Y-87570480D01*
X151911107Y-87557868D01*
X151891401Y-87543253D01*
X151873223Y-87526777D01*
X151856747Y-87508599D01*
X151842132Y-87488893D01*
X151829520Y-87467850D01*
X151819030Y-87445671D01*
X151810765Y-87422572D01*
X151804804Y-87398773D01*
X151801204Y-87374505D01*
X151800000Y-87350001D01*
X151800000Y-86449999D01*
X151801204Y-86425495D01*
X151804804Y-86401227D01*
X151810765Y-86377428D01*
X151819030Y-86354329D01*
X151829520Y-86332150D01*
X151842132Y-86311107D01*
X151856747Y-86291401D01*
X151873223Y-86273223D01*
X151891401Y-86256747D01*
X151911107Y-86242132D01*
X151932150Y-86229520D01*
X151954329Y-86219030D01*
X151977428Y-86210765D01*
X152001227Y-86204804D01*
X152025495Y-86201204D01*
X152049999Y-86200000D01*
X152700001Y-86200000D01*
X152724505Y-86201204D01*
X152724505Y-86201204D01*
G37*
D11*
X152375000Y-86900000D03*
D10*
G36*
X154774505Y-88101204D02*
G01*
X154798773Y-88104804D01*
X154822572Y-88110765D01*
X154845671Y-88119030D01*
X154867850Y-88129520D01*
X154888893Y-88142132D01*
X154908599Y-88156747D01*
X154926777Y-88173223D01*
X154943253Y-88191401D01*
X154957868Y-88211107D01*
X154970480Y-88232150D01*
X154980970Y-88254329D01*
X154989235Y-88277428D01*
X154995196Y-88301227D01*
X154998796Y-88325495D01*
X155000000Y-88349999D01*
X155000000Y-89250001D01*
X154998796Y-89274505D01*
X154995196Y-89298773D01*
X154989235Y-89322572D01*
X154980970Y-89345671D01*
X154970480Y-89367850D01*
X154957868Y-89388893D01*
X154943253Y-89408599D01*
X154926777Y-89426777D01*
X154908599Y-89443253D01*
X154888893Y-89457868D01*
X154867850Y-89470480D01*
X154845671Y-89480970D01*
X154822572Y-89489235D01*
X154798773Y-89495196D01*
X154774505Y-89498796D01*
X154750001Y-89500000D01*
X154099999Y-89500000D01*
X154075495Y-89498796D01*
X154051227Y-89495196D01*
X154027428Y-89489235D01*
X154004329Y-89480970D01*
X153982150Y-89470480D01*
X153961107Y-89457868D01*
X153941401Y-89443253D01*
X153923223Y-89426777D01*
X153906747Y-89408599D01*
X153892132Y-89388893D01*
X153879520Y-89367850D01*
X153869030Y-89345671D01*
X153860765Y-89322572D01*
X153854804Y-89298773D01*
X153851204Y-89274505D01*
X153850000Y-89250001D01*
X153850000Y-88349999D01*
X153851204Y-88325495D01*
X153854804Y-88301227D01*
X153860765Y-88277428D01*
X153869030Y-88254329D01*
X153879520Y-88232150D01*
X153892132Y-88211107D01*
X153906747Y-88191401D01*
X153923223Y-88173223D01*
X153941401Y-88156747D01*
X153961107Y-88142132D01*
X153982150Y-88129520D01*
X154004329Y-88119030D01*
X154027428Y-88110765D01*
X154051227Y-88104804D01*
X154075495Y-88101204D01*
X154099999Y-88100000D01*
X154750001Y-88100000D01*
X154774505Y-88101204D01*
X154774505Y-88101204D01*
G37*
D11*
X154425000Y-88800000D03*
D10*
G36*
X152724505Y-88101204D02*
G01*
X152748773Y-88104804D01*
X152772572Y-88110765D01*
X152795671Y-88119030D01*
X152817850Y-88129520D01*
X152838893Y-88142132D01*
X152858599Y-88156747D01*
X152876777Y-88173223D01*
X152893253Y-88191401D01*
X152907868Y-88211107D01*
X152920480Y-88232150D01*
X152930970Y-88254329D01*
X152939235Y-88277428D01*
X152945196Y-88301227D01*
X152948796Y-88325495D01*
X152950000Y-88349999D01*
X152950000Y-89250001D01*
X152948796Y-89274505D01*
X152945196Y-89298773D01*
X152939235Y-89322572D01*
X152930970Y-89345671D01*
X152920480Y-89367850D01*
X152907868Y-89388893D01*
X152893253Y-89408599D01*
X152876777Y-89426777D01*
X152858599Y-89443253D01*
X152838893Y-89457868D01*
X152817850Y-89470480D01*
X152795671Y-89480970D01*
X152772572Y-89489235D01*
X152748773Y-89495196D01*
X152724505Y-89498796D01*
X152700001Y-89500000D01*
X152049999Y-89500000D01*
X152025495Y-89498796D01*
X152001227Y-89495196D01*
X151977428Y-89489235D01*
X151954329Y-89480970D01*
X151932150Y-89470480D01*
X151911107Y-89457868D01*
X151891401Y-89443253D01*
X151873223Y-89426777D01*
X151856747Y-89408599D01*
X151842132Y-89388893D01*
X151829520Y-89367850D01*
X151819030Y-89345671D01*
X151810765Y-89322572D01*
X151804804Y-89298773D01*
X151801204Y-89274505D01*
X151800000Y-89250001D01*
X151800000Y-88349999D01*
X151801204Y-88325495D01*
X151804804Y-88301227D01*
X151810765Y-88277428D01*
X151819030Y-88254329D01*
X151829520Y-88232150D01*
X151842132Y-88211107D01*
X151856747Y-88191401D01*
X151873223Y-88173223D01*
X151891401Y-88156747D01*
X151911107Y-88142132D01*
X151932150Y-88129520D01*
X151954329Y-88119030D01*
X151977428Y-88110765D01*
X152001227Y-88104804D01*
X152025495Y-88101204D01*
X152049999Y-88100000D01*
X152700001Y-88100000D01*
X152724505Y-88101204D01*
X152724505Y-88101204D01*
G37*
D11*
X152375000Y-88800000D03*
D10*
G36*
X157874505Y-76601204D02*
G01*
X157898773Y-76604804D01*
X157922572Y-76610765D01*
X157945671Y-76619030D01*
X157967850Y-76629520D01*
X157988893Y-76642132D01*
X158008599Y-76656747D01*
X158026777Y-76673223D01*
X158043253Y-76691401D01*
X158057868Y-76711107D01*
X158070480Y-76732150D01*
X158080970Y-76754329D01*
X158089235Y-76777428D01*
X158095196Y-76801227D01*
X158098796Y-76825495D01*
X158100000Y-76849999D01*
X158100000Y-77750001D01*
X158098796Y-77774505D01*
X158095196Y-77798773D01*
X158089235Y-77822572D01*
X158080970Y-77845671D01*
X158070480Y-77867850D01*
X158057868Y-77888893D01*
X158043253Y-77908599D01*
X158026777Y-77926777D01*
X158008599Y-77943253D01*
X157988893Y-77957868D01*
X157967850Y-77970480D01*
X157945671Y-77980970D01*
X157922572Y-77989235D01*
X157898773Y-77995196D01*
X157874505Y-77998796D01*
X157850001Y-78000000D01*
X157199999Y-78000000D01*
X157175495Y-77998796D01*
X157151227Y-77995196D01*
X157127428Y-77989235D01*
X157104329Y-77980970D01*
X157082150Y-77970480D01*
X157061107Y-77957868D01*
X157041401Y-77943253D01*
X157023223Y-77926777D01*
X157006747Y-77908599D01*
X156992132Y-77888893D01*
X156979520Y-77867850D01*
X156969030Y-77845671D01*
X156960765Y-77822572D01*
X156954804Y-77798773D01*
X156951204Y-77774505D01*
X156950000Y-77750001D01*
X156950000Y-76849999D01*
X156951204Y-76825495D01*
X156954804Y-76801227D01*
X156960765Y-76777428D01*
X156969030Y-76754329D01*
X156979520Y-76732150D01*
X156992132Y-76711107D01*
X157006747Y-76691401D01*
X157023223Y-76673223D01*
X157041401Y-76656747D01*
X157061107Y-76642132D01*
X157082150Y-76629520D01*
X157104329Y-76619030D01*
X157127428Y-76610765D01*
X157151227Y-76604804D01*
X157175495Y-76601204D01*
X157199999Y-76600000D01*
X157850001Y-76600000D01*
X157874505Y-76601204D01*
X157874505Y-76601204D01*
G37*
D11*
X157525000Y-77300000D03*
D10*
G36*
X155824505Y-76601204D02*
G01*
X155848773Y-76604804D01*
X155872572Y-76610765D01*
X155895671Y-76619030D01*
X155917850Y-76629520D01*
X155938893Y-76642132D01*
X155958599Y-76656747D01*
X155976777Y-76673223D01*
X155993253Y-76691401D01*
X156007868Y-76711107D01*
X156020480Y-76732150D01*
X156030970Y-76754329D01*
X156039235Y-76777428D01*
X156045196Y-76801227D01*
X156048796Y-76825495D01*
X156050000Y-76849999D01*
X156050000Y-77750001D01*
X156048796Y-77774505D01*
X156045196Y-77798773D01*
X156039235Y-77822572D01*
X156030970Y-77845671D01*
X156020480Y-77867850D01*
X156007868Y-77888893D01*
X155993253Y-77908599D01*
X155976777Y-77926777D01*
X155958599Y-77943253D01*
X155938893Y-77957868D01*
X155917850Y-77970480D01*
X155895671Y-77980970D01*
X155872572Y-77989235D01*
X155848773Y-77995196D01*
X155824505Y-77998796D01*
X155800001Y-78000000D01*
X155149999Y-78000000D01*
X155125495Y-77998796D01*
X155101227Y-77995196D01*
X155077428Y-77989235D01*
X155054329Y-77980970D01*
X155032150Y-77970480D01*
X155011107Y-77957868D01*
X154991401Y-77943253D01*
X154973223Y-77926777D01*
X154956747Y-77908599D01*
X154942132Y-77888893D01*
X154929520Y-77867850D01*
X154919030Y-77845671D01*
X154910765Y-77822572D01*
X154904804Y-77798773D01*
X154901204Y-77774505D01*
X154900000Y-77750001D01*
X154900000Y-76849999D01*
X154901204Y-76825495D01*
X154904804Y-76801227D01*
X154910765Y-76777428D01*
X154919030Y-76754329D01*
X154929520Y-76732150D01*
X154942132Y-76711107D01*
X154956747Y-76691401D01*
X154973223Y-76673223D01*
X154991401Y-76656747D01*
X155011107Y-76642132D01*
X155032150Y-76629520D01*
X155054329Y-76619030D01*
X155077428Y-76610765D01*
X155101227Y-76604804D01*
X155125495Y-76601204D01*
X155149999Y-76600000D01*
X155800001Y-76600000D01*
X155824505Y-76601204D01*
X155824505Y-76601204D01*
G37*
D11*
X155475000Y-77300000D03*
D10*
G36*
X155824505Y-84201204D02*
G01*
X155848773Y-84204804D01*
X155872572Y-84210765D01*
X155895671Y-84219030D01*
X155917850Y-84229520D01*
X155938893Y-84242132D01*
X155958599Y-84256747D01*
X155976777Y-84273223D01*
X155993253Y-84291401D01*
X156007868Y-84311107D01*
X156020480Y-84332150D01*
X156030970Y-84354329D01*
X156039235Y-84377428D01*
X156045196Y-84401227D01*
X156048796Y-84425495D01*
X156050000Y-84449999D01*
X156050000Y-85350001D01*
X156048796Y-85374505D01*
X156045196Y-85398773D01*
X156039235Y-85422572D01*
X156030970Y-85445671D01*
X156020480Y-85467850D01*
X156007868Y-85488893D01*
X155993253Y-85508599D01*
X155976777Y-85526777D01*
X155958599Y-85543253D01*
X155938893Y-85557868D01*
X155917850Y-85570480D01*
X155895671Y-85580970D01*
X155872572Y-85589235D01*
X155848773Y-85595196D01*
X155824505Y-85598796D01*
X155800001Y-85600000D01*
X155149999Y-85600000D01*
X155125495Y-85598796D01*
X155101227Y-85595196D01*
X155077428Y-85589235D01*
X155054329Y-85580970D01*
X155032150Y-85570480D01*
X155011107Y-85557868D01*
X154991401Y-85543253D01*
X154973223Y-85526777D01*
X154956747Y-85508599D01*
X154942132Y-85488893D01*
X154929520Y-85467850D01*
X154919030Y-85445671D01*
X154910765Y-85422572D01*
X154904804Y-85398773D01*
X154901204Y-85374505D01*
X154900000Y-85350001D01*
X154900000Y-84449999D01*
X154901204Y-84425495D01*
X154904804Y-84401227D01*
X154910765Y-84377428D01*
X154919030Y-84354329D01*
X154929520Y-84332150D01*
X154942132Y-84311107D01*
X154956747Y-84291401D01*
X154973223Y-84273223D01*
X154991401Y-84256747D01*
X155011107Y-84242132D01*
X155032150Y-84229520D01*
X155054329Y-84219030D01*
X155077428Y-84210765D01*
X155101227Y-84204804D01*
X155125495Y-84201204D01*
X155149999Y-84200000D01*
X155800001Y-84200000D01*
X155824505Y-84201204D01*
X155824505Y-84201204D01*
G37*
D11*
X155475000Y-84900000D03*
D10*
G36*
X157874505Y-84201204D02*
G01*
X157898773Y-84204804D01*
X157922572Y-84210765D01*
X157945671Y-84219030D01*
X157967850Y-84229520D01*
X157988893Y-84242132D01*
X158008599Y-84256747D01*
X158026777Y-84273223D01*
X158043253Y-84291401D01*
X158057868Y-84311107D01*
X158070480Y-84332150D01*
X158080970Y-84354329D01*
X158089235Y-84377428D01*
X158095196Y-84401227D01*
X158098796Y-84425495D01*
X158100000Y-84449999D01*
X158100000Y-85350001D01*
X158098796Y-85374505D01*
X158095196Y-85398773D01*
X158089235Y-85422572D01*
X158080970Y-85445671D01*
X158070480Y-85467850D01*
X158057868Y-85488893D01*
X158043253Y-85508599D01*
X158026777Y-85526777D01*
X158008599Y-85543253D01*
X157988893Y-85557868D01*
X157967850Y-85570480D01*
X157945671Y-85580970D01*
X157922572Y-85589235D01*
X157898773Y-85595196D01*
X157874505Y-85598796D01*
X157850001Y-85600000D01*
X157199999Y-85600000D01*
X157175495Y-85598796D01*
X157151227Y-85595196D01*
X157127428Y-85589235D01*
X157104329Y-85580970D01*
X157082150Y-85570480D01*
X157061107Y-85557868D01*
X157041401Y-85543253D01*
X157023223Y-85526777D01*
X157006747Y-85508599D01*
X156992132Y-85488893D01*
X156979520Y-85467850D01*
X156969030Y-85445671D01*
X156960765Y-85422572D01*
X156954804Y-85398773D01*
X156951204Y-85374505D01*
X156950000Y-85350001D01*
X156950000Y-84449999D01*
X156951204Y-84425495D01*
X156954804Y-84401227D01*
X156960765Y-84377428D01*
X156969030Y-84354329D01*
X156979520Y-84332150D01*
X156992132Y-84311107D01*
X157006747Y-84291401D01*
X157023223Y-84273223D01*
X157041401Y-84256747D01*
X157061107Y-84242132D01*
X157082150Y-84229520D01*
X157104329Y-84219030D01*
X157127428Y-84210765D01*
X157151227Y-84204804D01*
X157175495Y-84201204D01*
X157199999Y-84200000D01*
X157850001Y-84200000D01*
X157874505Y-84201204D01*
X157874505Y-84201204D01*
G37*
D11*
X157525000Y-84900000D03*
D10*
G36*
X157874505Y-80401204D02*
G01*
X157898773Y-80404804D01*
X157922572Y-80410765D01*
X157945671Y-80419030D01*
X157967850Y-80429520D01*
X157988893Y-80442132D01*
X158008599Y-80456747D01*
X158026777Y-80473223D01*
X158043253Y-80491401D01*
X158057868Y-80511107D01*
X158070480Y-80532150D01*
X158080970Y-80554329D01*
X158089235Y-80577428D01*
X158095196Y-80601227D01*
X158098796Y-80625495D01*
X158100000Y-80649999D01*
X158100000Y-81550001D01*
X158098796Y-81574505D01*
X158095196Y-81598773D01*
X158089235Y-81622572D01*
X158080970Y-81645671D01*
X158070480Y-81667850D01*
X158057868Y-81688893D01*
X158043253Y-81708599D01*
X158026777Y-81726777D01*
X158008599Y-81743253D01*
X157988893Y-81757868D01*
X157967850Y-81770480D01*
X157945671Y-81780970D01*
X157922572Y-81789235D01*
X157898773Y-81795196D01*
X157874505Y-81798796D01*
X157850001Y-81800000D01*
X157199999Y-81800000D01*
X157175495Y-81798796D01*
X157151227Y-81795196D01*
X157127428Y-81789235D01*
X157104329Y-81780970D01*
X157082150Y-81770480D01*
X157061107Y-81757868D01*
X157041401Y-81743253D01*
X157023223Y-81726777D01*
X157006747Y-81708599D01*
X156992132Y-81688893D01*
X156979520Y-81667850D01*
X156969030Y-81645671D01*
X156960765Y-81622572D01*
X156954804Y-81598773D01*
X156951204Y-81574505D01*
X156950000Y-81550001D01*
X156950000Y-80649999D01*
X156951204Y-80625495D01*
X156954804Y-80601227D01*
X156960765Y-80577428D01*
X156969030Y-80554329D01*
X156979520Y-80532150D01*
X156992132Y-80511107D01*
X157006747Y-80491401D01*
X157023223Y-80473223D01*
X157041401Y-80456747D01*
X157061107Y-80442132D01*
X157082150Y-80429520D01*
X157104329Y-80419030D01*
X157127428Y-80410765D01*
X157151227Y-80404804D01*
X157175495Y-80401204D01*
X157199999Y-80400000D01*
X157850001Y-80400000D01*
X157874505Y-80401204D01*
X157874505Y-80401204D01*
G37*
D11*
X157525000Y-81100000D03*
D10*
G36*
X155824505Y-80401204D02*
G01*
X155848773Y-80404804D01*
X155872572Y-80410765D01*
X155895671Y-80419030D01*
X155917850Y-80429520D01*
X155938893Y-80442132D01*
X155958599Y-80456747D01*
X155976777Y-80473223D01*
X155993253Y-80491401D01*
X156007868Y-80511107D01*
X156020480Y-80532150D01*
X156030970Y-80554329D01*
X156039235Y-80577428D01*
X156045196Y-80601227D01*
X156048796Y-80625495D01*
X156050000Y-80649999D01*
X156050000Y-81550001D01*
X156048796Y-81574505D01*
X156045196Y-81598773D01*
X156039235Y-81622572D01*
X156030970Y-81645671D01*
X156020480Y-81667850D01*
X156007868Y-81688893D01*
X155993253Y-81708599D01*
X155976777Y-81726777D01*
X155958599Y-81743253D01*
X155938893Y-81757868D01*
X155917850Y-81770480D01*
X155895671Y-81780970D01*
X155872572Y-81789235D01*
X155848773Y-81795196D01*
X155824505Y-81798796D01*
X155800001Y-81800000D01*
X155149999Y-81800000D01*
X155125495Y-81798796D01*
X155101227Y-81795196D01*
X155077428Y-81789235D01*
X155054329Y-81780970D01*
X155032150Y-81770480D01*
X155011107Y-81757868D01*
X154991401Y-81743253D01*
X154973223Y-81726777D01*
X154956747Y-81708599D01*
X154942132Y-81688893D01*
X154929520Y-81667850D01*
X154919030Y-81645671D01*
X154910765Y-81622572D01*
X154904804Y-81598773D01*
X154901204Y-81574505D01*
X154900000Y-81550001D01*
X154900000Y-80649999D01*
X154901204Y-80625495D01*
X154904804Y-80601227D01*
X154910765Y-80577428D01*
X154919030Y-80554329D01*
X154929520Y-80532150D01*
X154942132Y-80511107D01*
X154956747Y-80491401D01*
X154973223Y-80473223D01*
X154991401Y-80456747D01*
X155011107Y-80442132D01*
X155032150Y-80429520D01*
X155054329Y-80419030D01*
X155077428Y-80410765D01*
X155101227Y-80404804D01*
X155125495Y-80401204D01*
X155149999Y-80400000D01*
X155800001Y-80400000D01*
X155824505Y-80401204D01*
X155824505Y-80401204D01*
G37*
D11*
X155475000Y-81100000D03*
D10*
G36*
X157874505Y-78501204D02*
G01*
X157898773Y-78504804D01*
X157922572Y-78510765D01*
X157945671Y-78519030D01*
X157967850Y-78529520D01*
X157988893Y-78542132D01*
X158008599Y-78556747D01*
X158026777Y-78573223D01*
X158043253Y-78591401D01*
X158057868Y-78611107D01*
X158070480Y-78632150D01*
X158080970Y-78654329D01*
X158089235Y-78677428D01*
X158095196Y-78701227D01*
X158098796Y-78725495D01*
X158100000Y-78749999D01*
X158100000Y-79650001D01*
X158098796Y-79674505D01*
X158095196Y-79698773D01*
X158089235Y-79722572D01*
X158080970Y-79745671D01*
X158070480Y-79767850D01*
X158057868Y-79788893D01*
X158043253Y-79808599D01*
X158026777Y-79826777D01*
X158008599Y-79843253D01*
X157988893Y-79857868D01*
X157967850Y-79870480D01*
X157945671Y-79880970D01*
X157922572Y-79889235D01*
X157898773Y-79895196D01*
X157874505Y-79898796D01*
X157850001Y-79900000D01*
X157199999Y-79900000D01*
X157175495Y-79898796D01*
X157151227Y-79895196D01*
X157127428Y-79889235D01*
X157104329Y-79880970D01*
X157082150Y-79870480D01*
X157061107Y-79857868D01*
X157041401Y-79843253D01*
X157023223Y-79826777D01*
X157006747Y-79808599D01*
X156992132Y-79788893D01*
X156979520Y-79767850D01*
X156969030Y-79745671D01*
X156960765Y-79722572D01*
X156954804Y-79698773D01*
X156951204Y-79674505D01*
X156950000Y-79650001D01*
X156950000Y-78749999D01*
X156951204Y-78725495D01*
X156954804Y-78701227D01*
X156960765Y-78677428D01*
X156969030Y-78654329D01*
X156979520Y-78632150D01*
X156992132Y-78611107D01*
X157006747Y-78591401D01*
X157023223Y-78573223D01*
X157041401Y-78556747D01*
X157061107Y-78542132D01*
X157082150Y-78529520D01*
X157104329Y-78519030D01*
X157127428Y-78510765D01*
X157151227Y-78504804D01*
X157175495Y-78501204D01*
X157199999Y-78500000D01*
X157850001Y-78500000D01*
X157874505Y-78501204D01*
X157874505Y-78501204D01*
G37*
D11*
X157525000Y-79200000D03*
D10*
G36*
X155824505Y-78501204D02*
G01*
X155848773Y-78504804D01*
X155872572Y-78510765D01*
X155895671Y-78519030D01*
X155917850Y-78529520D01*
X155938893Y-78542132D01*
X155958599Y-78556747D01*
X155976777Y-78573223D01*
X155993253Y-78591401D01*
X156007868Y-78611107D01*
X156020480Y-78632150D01*
X156030970Y-78654329D01*
X156039235Y-78677428D01*
X156045196Y-78701227D01*
X156048796Y-78725495D01*
X156050000Y-78749999D01*
X156050000Y-79650001D01*
X156048796Y-79674505D01*
X156045196Y-79698773D01*
X156039235Y-79722572D01*
X156030970Y-79745671D01*
X156020480Y-79767850D01*
X156007868Y-79788893D01*
X155993253Y-79808599D01*
X155976777Y-79826777D01*
X155958599Y-79843253D01*
X155938893Y-79857868D01*
X155917850Y-79870480D01*
X155895671Y-79880970D01*
X155872572Y-79889235D01*
X155848773Y-79895196D01*
X155824505Y-79898796D01*
X155800001Y-79900000D01*
X155149999Y-79900000D01*
X155125495Y-79898796D01*
X155101227Y-79895196D01*
X155077428Y-79889235D01*
X155054329Y-79880970D01*
X155032150Y-79870480D01*
X155011107Y-79857868D01*
X154991401Y-79843253D01*
X154973223Y-79826777D01*
X154956747Y-79808599D01*
X154942132Y-79788893D01*
X154929520Y-79767850D01*
X154919030Y-79745671D01*
X154910765Y-79722572D01*
X154904804Y-79698773D01*
X154901204Y-79674505D01*
X154900000Y-79650001D01*
X154900000Y-78749999D01*
X154901204Y-78725495D01*
X154904804Y-78701227D01*
X154910765Y-78677428D01*
X154919030Y-78654329D01*
X154929520Y-78632150D01*
X154942132Y-78611107D01*
X154956747Y-78591401D01*
X154973223Y-78573223D01*
X154991401Y-78556747D01*
X155011107Y-78542132D01*
X155032150Y-78529520D01*
X155054329Y-78519030D01*
X155077428Y-78510765D01*
X155101227Y-78504804D01*
X155125495Y-78501204D01*
X155149999Y-78500000D01*
X155800001Y-78500000D01*
X155824505Y-78501204D01*
X155824505Y-78501204D01*
G37*
D11*
X155475000Y-79200000D03*
D10*
G36*
X143474505Y-80401204D02*
G01*
X143498773Y-80404804D01*
X143522572Y-80410765D01*
X143545671Y-80419030D01*
X143567850Y-80429520D01*
X143588893Y-80442132D01*
X143608599Y-80456747D01*
X143626777Y-80473223D01*
X143643253Y-80491401D01*
X143657868Y-80511107D01*
X143670480Y-80532150D01*
X143680970Y-80554329D01*
X143689235Y-80577428D01*
X143695196Y-80601227D01*
X143698796Y-80625495D01*
X143700000Y-80649999D01*
X143700000Y-81300001D01*
X143698796Y-81324505D01*
X143695196Y-81348773D01*
X143689235Y-81372572D01*
X143680970Y-81395671D01*
X143670480Y-81417850D01*
X143657868Y-81438893D01*
X143643253Y-81458599D01*
X143626777Y-81476777D01*
X143608599Y-81493253D01*
X143588893Y-81507868D01*
X143567850Y-81520480D01*
X143545671Y-81530970D01*
X143522572Y-81539235D01*
X143498773Y-81545196D01*
X143474505Y-81548796D01*
X143450001Y-81550000D01*
X142549999Y-81550000D01*
X142525495Y-81548796D01*
X142501227Y-81545196D01*
X142477428Y-81539235D01*
X142454329Y-81530970D01*
X142432150Y-81520480D01*
X142411107Y-81507868D01*
X142391401Y-81493253D01*
X142373223Y-81476777D01*
X142356747Y-81458599D01*
X142342132Y-81438893D01*
X142329520Y-81417850D01*
X142319030Y-81395671D01*
X142310765Y-81372572D01*
X142304804Y-81348773D01*
X142301204Y-81324505D01*
X142300000Y-81300001D01*
X142300000Y-80649999D01*
X142301204Y-80625495D01*
X142304804Y-80601227D01*
X142310765Y-80577428D01*
X142319030Y-80554329D01*
X142329520Y-80532150D01*
X142342132Y-80511107D01*
X142356747Y-80491401D01*
X142373223Y-80473223D01*
X142391401Y-80456747D01*
X142411107Y-80442132D01*
X142432150Y-80429520D01*
X142454329Y-80419030D01*
X142477428Y-80410765D01*
X142501227Y-80404804D01*
X142525495Y-80401204D01*
X142549999Y-80400000D01*
X143450001Y-80400000D01*
X143474505Y-80401204D01*
X143474505Y-80401204D01*
G37*
D11*
X143000000Y-80975000D03*
D10*
G36*
X143474505Y-82451204D02*
G01*
X143498773Y-82454804D01*
X143522572Y-82460765D01*
X143545671Y-82469030D01*
X143567850Y-82479520D01*
X143588893Y-82492132D01*
X143608599Y-82506747D01*
X143626777Y-82523223D01*
X143643253Y-82541401D01*
X143657868Y-82561107D01*
X143670480Y-82582150D01*
X143680970Y-82604329D01*
X143689235Y-82627428D01*
X143695196Y-82651227D01*
X143698796Y-82675495D01*
X143700000Y-82699999D01*
X143700000Y-83350001D01*
X143698796Y-83374505D01*
X143695196Y-83398773D01*
X143689235Y-83422572D01*
X143680970Y-83445671D01*
X143670480Y-83467850D01*
X143657868Y-83488893D01*
X143643253Y-83508599D01*
X143626777Y-83526777D01*
X143608599Y-83543253D01*
X143588893Y-83557868D01*
X143567850Y-83570480D01*
X143545671Y-83580970D01*
X143522572Y-83589235D01*
X143498773Y-83595196D01*
X143474505Y-83598796D01*
X143450001Y-83600000D01*
X142549999Y-83600000D01*
X142525495Y-83598796D01*
X142501227Y-83595196D01*
X142477428Y-83589235D01*
X142454329Y-83580970D01*
X142432150Y-83570480D01*
X142411107Y-83557868D01*
X142391401Y-83543253D01*
X142373223Y-83526777D01*
X142356747Y-83508599D01*
X142342132Y-83488893D01*
X142329520Y-83467850D01*
X142319030Y-83445671D01*
X142310765Y-83422572D01*
X142304804Y-83398773D01*
X142301204Y-83374505D01*
X142300000Y-83350001D01*
X142300000Y-82699999D01*
X142301204Y-82675495D01*
X142304804Y-82651227D01*
X142310765Y-82627428D01*
X142319030Y-82604329D01*
X142329520Y-82582150D01*
X142342132Y-82561107D01*
X142356747Y-82541401D01*
X142373223Y-82523223D01*
X142391401Y-82506747D01*
X142411107Y-82492132D01*
X142432150Y-82479520D01*
X142454329Y-82469030D01*
X142477428Y-82460765D01*
X142501227Y-82454804D01*
X142525495Y-82451204D01*
X142549999Y-82450000D01*
X143450001Y-82450000D01*
X143474505Y-82451204D01*
X143474505Y-82451204D01*
G37*
D11*
X143000000Y-83025000D03*
D10*
G36*
X151399505Y-76551204D02*
G01*
X151423773Y-76554804D01*
X151447572Y-76560765D01*
X151470671Y-76569030D01*
X151492850Y-76579520D01*
X151513893Y-76592132D01*
X151533599Y-76606747D01*
X151551777Y-76623223D01*
X151568253Y-76641401D01*
X151582868Y-76661107D01*
X151595480Y-76682150D01*
X151605970Y-76704329D01*
X151614235Y-76727428D01*
X151620196Y-76751227D01*
X151623796Y-76775495D01*
X151625000Y-76799999D01*
X151625000Y-77700001D01*
X151623796Y-77724505D01*
X151620196Y-77748773D01*
X151614235Y-77772572D01*
X151605970Y-77795671D01*
X151595480Y-77817850D01*
X151582868Y-77838893D01*
X151568253Y-77858599D01*
X151551777Y-77876777D01*
X151533599Y-77893253D01*
X151513893Y-77907868D01*
X151492850Y-77920480D01*
X151470671Y-77930970D01*
X151447572Y-77939235D01*
X151423773Y-77945196D01*
X151399505Y-77948796D01*
X151375001Y-77950000D01*
X150724999Y-77950000D01*
X150700495Y-77948796D01*
X150676227Y-77945196D01*
X150652428Y-77939235D01*
X150629329Y-77930970D01*
X150607150Y-77920480D01*
X150586107Y-77907868D01*
X150566401Y-77893253D01*
X150548223Y-77876777D01*
X150531747Y-77858599D01*
X150517132Y-77838893D01*
X150504520Y-77817850D01*
X150494030Y-77795671D01*
X150485765Y-77772572D01*
X150479804Y-77748773D01*
X150476204Y-77724505D01*
X150475000Y-77700001D01*
X150475000Y-76799999D01*
X150476204Y-76775495D01*
X150479804Y-76751227D01*
X150485765Y-76727428D01*
X150494030Y-76704329D01*
X150504520Y-76682150D01*
X150517132Y-76661107D01*
X150531747Y-76641401D01*
X150548223Y-76623223D01*
X150566401Y-76606747D01*
X150586107Y-76592132D01*
X150607150Y-76579520D01*
X150629329Y-76569030D01*
X150652428Y-76560765D01*
X150676227Y-76554804D01*
X150700495Y-76551204D01*
X150724999Y-76550000D01*
X151375001Y-76550000D01*
X151399505Y-76551204D01*
X151399505Y-76551204D01*
G37*
D11*
X151050000Y-77250000D03*
D10*
G36*
X149349505Y-76551204D02*
G01*
X149373773Y-76554804D01*
X149397572Y-76560765D01*
X149420671Y-76569030D01*
X149442850Y-76579520D01*
X149463893Y-76592132D01*
X149483599Y-76606747D01*
X149501777Y-76623223D01*
X149518253Y-76641401D01*
X149532868Y-76661107D01*
X149545480Y-76682150D01*
X149555970Y-76704329D01*
X149564235Y-76727428D01*
X149570196Y-76751227D01*
X149573796Y-76775495D01*
X149575000Y-76799999D01*
X149575000Y-77700001D01*
X149573796Y-77724505D01*
X149570196Y-77748773D01*
X149564235Y-77772572D01*
X149555970Y-77795671D01*
X149545480Y-77817850D01*
X149532868Y-77838893D01*
X149518253Y-77858599D01*
X149501777Y-77876777D01*
X149483599Y-77893253D01*
X149463893Y-77907868D01*
X149442850Y-77920480D01*
X149420671Y-77930970D01*
X149397572Y-77939235D01*
X149373773Y-77945196D01*
X149349505Y-77948796D01*
X149325001Y-77950000D01*
X148674999Y-77950000D01*
X148650495Y-77948796D01*
X148626227Y-77945196D01*
X148602428Y-77939235D01*
X148579329Y-77930970D01*
X148557150Y-77920480D01*
X148536107Y-77907868D01*
X148516401Y-77893253D01*
X148498223Y-77876777D01*
X148481747Y-77858599D01*
X148467132Y-77838893D01*
X148454520Y-77817850D01*
X148444030Y-77795671D01*
X148435765Y-77772572D01*
X148429804Y-77748773D01*
X148426204Y-77724505D01*
X148425000Y-77700001D01*
X148425000Y-76799999D01*
X148426204Y-76775495D01*
X148429804Y-76751227D01*
X148435765Y-76727428D01*
X148444030Y-76704329D01*
X148454520Y-76682150D01*
X148467132Y-76661107D01*
X148481747Y-76641401D01*
X148498223Y-76623223D01*
X148516401Y-76606747D01*
X148536107Y-76592132D01*
X148557150Y-76579520D01*
X148579329Y-76569030D01*
X148602428Y-76560765D01*
X148626227Y-76554804D01*
X148650495Y-76551204D01*
X148674999Y-76550000D01*
X149325001Y-76550000D01*
X149349505Y-76551204D01*
X149349505Y-76551204D01*
G37*
D11*
X149000000Y-77250000D03*
D10*
G36*
X155824505Y-82301204D02*
G01*
X155848773Y-82304804D01*
X155872572Y-82310765D01*
X155895671Y-82319030D01*
X155917850Y-82329520D01*
X155938893Y-82342132D01*
X155958599Y-82356747D01*
X155976777Y-82373223D01*
X155993253Y-82391401D01*
X156007868Y-82411107D01*
X156020480Y-82432150D01*
X156030970Y-82454329D01*
X156039235Y-82477428D01*
X156045196Y-82501227D01*
X156048796Y-82525495D01*
X156050000Y-82549999D01*
X156050000Y-83450001D01*
X156048796Y-83474505D01*
X156045196Y-83498773D01*
X156039235Y-83522572D01*
X156030970Y-83545671D01*
X156020480Y-83567850D01*
X156007868Y-83588893D01*
X155993253Y-83608599D01*
X155976777Y-83626777D01*
X155958599Y-83643253D01*
X155938893Y-83657868D01*
X155917850Y-83670480D01*
X155895671Y-83680970D01*
X155872572Y-83689235D01*
X155848773Y-83695196D01*
X155824505Y-83698796D01*
X155800001Y-83700000D01*
X155149999Y-83700000D01*
X155125495Y-83698796D01*
X155101227Y-83695196D01*
X155077428Y-83689235D01*
X155054329Y-83680970D01*
X155032150Y-83670480D01*
X155011107Y-83657868D01*
X154991401Y-83643253D01*
X154973223Y-83626777D01*
X154956747Y-83608599D01*
X154942132Y-83588893D01*
X154929520Y-83567850D01*
X154919030Y-83545671D01*
X154910765Y-83522572D01*
X154904804Y-83498773D01*
X154901204Y-83474505D01*
X154900000Y-83450001D01*
X154900000Y-82549999D01*
X154901204Y-82525495D01*
X154904804Y-82501227D01*
X154910765Y-82477428D01*
X154919030Y-82454329D01*
X154929520Y-82432150D01*
X154942132Y-82411107D01*
X154956747Y-82391401D01*
X154973223Y-82373223D01*
X154991401Y-82356747D01*
X155011107Y-82342132D01*
X155032150Y-82329520D01*
X155054329Y-82319030D01*
X155077428Y-82310765D01*
X155101227Y-82304804D01*
X155125495Y-82301204D01*
X155149999Y-82300000D01*
X155800001Y-82300000D01*
X155824505Y-82301204D01*
X155824505Y-82301204D01*
G37*
D11*
X155475000Y-83000000D03*
D10*
G36*
X157874505Y-82301204D02*
G01*
X157898773Y-82304804D01*
X157922572Y-82310765D01*
X157945671Y-82319030D01*
X157967850Y-82329520D01*
X157988893Y-82342132D01*
X158008599Y-82356747D01*
X158026777Y-82373223D01*
X158043253Y-82391401D01*
X158057868Y-82411107D01*
X158070480Y-82432150D01*
X158080970Y-82454329D01*
X158089235Y-82477428D01*
X158095196Y-82501227D01*
X158098796Y-82525495D01*
X158100000Y-82549999D01*
X158100000Y-83450001D01*
X158098796Y-83474505D01*
X158095196Y-83498773D01*
X158089235Y-83522572D01*
X158080970Y-83545671D01*
X158070480Y-83567850D01*
X158057868Y-83588893D01*
X158043253Y-83608599D01*
X158026777Y-83626777D01*
X158008599Y-83643253D01*
X157988893Y-83657868D01*
X157967850Y-83670480D01*
X157945671Y-83680970D01*
X157922572Y-83689235D01*
X157898773Y-83695196D01*
X157874505Y-83698796D01*
X157850001Y-83700000D01*
X157199999Y-83700000D01*
X157175495Y-83698796D01*
X157151227Y-83695196D01*
X157127428Y-83689235D01*
X157104329Y-83680970D01*
X157082150Y-83670480D01*
X157061107Y-83657868D01*
X157041401Y-83643253D01*
X157023223Y-83626777D01*
X157006747Y-83608599D01*
X156992132Y-83588893D01*
X156979520Y-83567850D01*
X156969030Y-83545671D01*
X156960765Y-83522572D01*
X156954804Y-83498773D01*
X156951204Y-83474505D01*
X156950000Y-83450001D01*
X156950000Y-82549999D01*
X156951204Y-82525495D01*
X156954804Y-82501227D01*
X156960765Y-82477428D01*
X156969030Y-82454329D01*
X156979520Y-82432150D01*
X156992132Y-82411107D01*
X157006747Y-82391401D01*
X157023223Y-82373223D01*
X157041401Y-82356747D01*
X157061107Y-82342132D01*
X157082150Y-82329520D01*
X157104329Y-82319030D01*
X157127428Y-82310765D01*
X157151227Y-82304804D01*
X157175495Y-82301204D01*
X157199999Y-82300000D01*
X157850001Y-82300000D01*
X157874505Y-82301204D01*
X157874505Y-82301204D01*
G37*
D11*
X157525000Y-83000000D03*
D14*
X140650000Y-81900000D03*
X140650000Y-86500000D03*
X140650000Y-84200000D03*
D15*
X134350000Y-84200000D03*
D16*
X145980000Y-83650000D03*
X145980000Y-83150000D03*
X145980000Y-82650000D03*
X145980000Y-82150000D03*
X145980000Y-81650000D03*
X145980000Y-81150000D03*
X145980000Y-80650000D03*
D17*
X146875000Y-79745000D03*
X147375000Y-79745000D03*
X147875000Y-79745000D03*
X148375000Y-79745000D03*
X148875000Y-79745000D03*
X149375000Y-79745000D03*
X149875000Y-79745000D03*
D16*
X150780000Y-80650000D03*
X150780000Y-81150000D03*
X150780000Y-81650000D03*
X150780000Y-82150000D03*
X150780000Y-82650000D03*
X150780000Y-83150000D03*
X150780000Y-83650000D03*
D17*
X149875000Y-84545000D03*
X149375000Y-84545000D03*
X148875000Y-84545000D03*
X148375000Y-84545000D03*
X147875000Y-84545000D03*
X147375000Y-84545000D03*
X146875000Y-84545000D03*
D18*
X150800000Y-86850000D03*
X150800000Y-88750000D03*
X148800000Y-87800000D03*
X158000000Y-87900000D03*
X156000000Y-86950000D03*
X156000000Y-88850000D03*
M02*
