G04 #@! TF.GenerationSoftware,KiCad,Pcbnew,(5.1.4)-1*
G04 #@! TF.CreationDate,2020-08-19T16:22:55+02:00*
G04 #@! TF.ProjectId,Long range deauther,4c6f6e67-2072-4616-9e67-652064656175,rev?*
G04 #@! TF.SameCoordinates,Original*
G04 #@! TF.FileFunction,Legend,Bot*
G04 #@! TF.FilePolarity,Positive*
%FSLAX46Y46*%
G04 Gerber Fmt 4.6, Leading zero omitted, Abs format (unit mm)*
G04 Created by KiCad (PCBNEW (5.1.4)-1) date 2020-08-19 16:22:55*
%MOMM*%
%LPD*%
G04 APERTURE LIST*
%ADD10C,0.100000*%
%ADD11C,0.120000*%
%ADD12C,0.150000*%
G04 APERTURE END LIST*
D10*
G36*
X169000000Y-91000000D02*
G01*
X159000000Y-91000000D01*
X159000000Y-75000000D01*
X169000000Y-75000000D01*
X169000000Y-91000000D01*
G37*
X169000000Y-91000000D02*
X159000000Y-91000000D01*
X159000000Y-75000000D01*
X169000000Y-75000000D01*
X169000000Y-91000000D01*
D11*
X138738748Y-89710000D02*
X139261252Y-89710000D01*
X138738748Y-88290000D02*
X139261252Y-88290000D01*
X135261252Y-89710000D02*
X134738748Y-89710000D01*
X135261252Y-88290000D02*
X134738748Y-88290000D01*
X143261252Y-88290000D02*
X142738748Y-88290000D01*
X143261252Y-89710000D02*
X142738748Y-89710000D01*
X142290000Y-86261252D02*
X142290000Y-85738748D01*
X143710000Y-86261252D02*
X143710000Y-85738748D01*
X133250000Y-79700000D02*
X133250000Y-77300000D01*
X136350000Y-77300000D02*
X136350000Y-80250000D01*
X138488748Y-76540000D02*
X139011252Y-76540000D01*
X138488748Y-77960000D02*
X139011252Y-77960000D01*
X142238748Y-77960000D02*
X142761252Y-77960000D01*
X142238748Y-76540000D02*
X142761252Y-76540000D01*
X145988748Y-77960000D02*
X146511252Y-77960000D01*
X145988748Y-76540000D02*
X146511252Y-76540000D01*
X153138748Y-86190000D02*
X153661252Y-86190000D01*
X153138748Y-87610000D02*
X153661252Y-87610000D01*
X153661252Y-88090000D02*
X153138748Y-88090000D01*
X153661252Y-89510000D02*
X153138748Y-89510000D01*
X156238748Y-76590000D02*
X156761252Y-76590000D01*
X156238748Y-78010000D02*
X156761252Y-78010000D01*
X156238748Y-85610000D02*
X156761252Y-85610000D01*
X156238748Y-84190000D02*
X156761252Y-84190000D01*
X156238748Y-80390000D02*
X156761252Y-80390000D01*
X156238748Y-81810000D02*
X156761252Y-81810000D01*
X156761252Y-78490000D02*
X156238748Y-78490000D01*
X156761252Y-79910000D02*
X156238748Y-79910000D01*
X142290000Y-81738748D02*
X142290000Y-82261252D01*
X143710000Y-81738748D02*
X143710000Y-82261252D01*
X150286252Y-76540000D02*
X149763748Y-76540000D01*
X150286252Y-77960000D02*
X149763748Y-77960000D01*
X156761252Y-83710000D02*
X156238748Y-83710000D01*
X156761252Y-82290000D02*
X156238748Y-82290000D01*
X141600000Y-80790000D02*
X135590000Y-80790000D01*
X139350000Y-87610000D02*
X135590000Y-87610000D01*
X135590000Y-80790000D02*
X135590000Y-82050000D01*
X135590000Y-87610000D02*
X135590000Y-86350000D01*
X150375000Y-84700000D02*
X150925000Y-84700000D01*
X150925000Y-84700000D02*
X150925000Y-84150000D01*
X150375000Y-79600000D02*
X150925000Y-79600000D01*
X150925000Y-79600000D02*
X150925000Y-80150000D01*
X146375000Y-79600000D02*
X145825000Y-79600000D01*
X145825000Y-79600000D02*
X145825000Y-80150000D01*
X146375000Y-84700000D02*
X145500000Y-84700000D01*
X149040000Y-89380000D02*
X149040000Y-88450000D01*
X149040000Y-86220000D02*
X149040000Y-87150000D01*
X149040000Y-86220000D02*
X151200000Y-86220000D01*
X149040000Y-89380000D02*
X150500000Y-89380000D01*
X157760000Y-86320000D02*
X156300000Y-86320000D01*
X157760000Y-89480000D02*
X155600000Y-89480000D01*
X157760000Y-89480000D02*
X157760000Y-88550000D01*
X157760000Y-86320000D02*
X157760000Y-87250000D01*
D12*
X139166666Y-90757142D02*
X139214285Y-90804761D01*
X139357142Y-90852380D01*
X139452380Y-90852380D01*
X139595238Y-90804761D01*
X139690476Y-90709523D01*
X139738095Y-90614285D01*
X139785714Y-90423809D01*
X139785714Y-90280952D01*
X139738095Y-90090476D01*
X139690476Y-89995238D01*
X139595238Y-89900000D01*
X139452380Y-89852380D01*
X139357142Y-89852380D01*
X139214285Y-89900000D01*
X139166666Y-89947619D01*
X138214285Y-90852380D02*
X138785714Y-90852380D01*
X138500000Y-90852380D02*
X138500000Y-89852380D01*
X138595238Y-89995238D01*
X138690476Y-90090476D01*
X138785714Y-90138095D01*
X135166666Y-90757142D02*
X135214285Y-90804761D01*
X135357142Y-90852380D01*
X135452380Y-90852380D01*
X135595238Y-90804761D01*
X135690476Y-90709523D01*
X135738095Y-90614285D01*
X135785714Y-90423809D01*
X135785714Y-90280952D01*
X135738095Y-90090476D01*
X135690476Y-89995238D01*
X135595238Y-89900000D01*
X135452380Y-89852380D01*
X135357142Y-89852380D01*
X135214285Y-89900000D01*
X135166666Y-89947619D01*
X134785714Y-89947619D02*
X134738095Y-89900000D01*
X134642857Y-89852380D01*
X134404761Y-89852380D01*
X134309523Y-89900000D01*
X134261904Y-89947619D01*
X134214285Y-90042857D01*
X134214285Y-90138095D01*
X134261904Y-90280952D01*
X134833333Y-90852380D01*
X134214285Y-90852380D01*
X143166666Y-90757142D02*
X143214285Y-90804761D01*
X143357142Y-90852380D01*
X143452380Y-90852380D01*
X143595238Y-90804761D01*
X143690476Y-90709523D01*
X143738095Y-90614285D01*
X143785714Y-90423809D01*
X143785714Y-90280952D01*
X143738095Y-90090476D01*
X143690476Y-89995238D01*
X143595238Y-89900000D01*
X143452380Y-89852380D01*
X143357142Y-89852380D01*
X143214285Y-89900000D01*
X143166666Y-89947619D01*
X142833333Y-89852380D02*
X142214285Y-89852380D01*
X142547619Y-90233333D01*
X142404761Y-90233333D01*
X142309523Y-90280952D01*
X142261904Y-90328571D01*
X142214285Y-90423809D01*
X142214285Y-90661904D01*
X142261904Y-90757142D01*
X142309523Y-90804761D01*
X142404761Y-90852380D01*
X142690476Y-90852380D01*
X142785714Y-90804761D01*
X142833333Y-90757142D01*
X144757142Y-85833333D02*
X144804761Y-85785714D01*
X144852380Y-85642857D01*
X144852380Y-85547619D01*
X144804761Y-85404761D01*
X144709523Y-85309523D01*
X144614285Y-85261904D01*
X144423809Y-85214285D01*
X144280952Y-85214285D01*
X144090476Y-85261904D01*
X143995238Y-85309523D01*
X143900000Y-85404761D01*
X143852380Y-85547619D01*
X143852380Y-85642857D01*
X143900000Y-85785714D01*
X143947619Y-85833333D01*
X144185714Y-86690476D02*
X144852380Y-86690476D01*
X143804761Y-86452380D02*
X144519047Y-86214285D01*
X144519047Y-86833333D01*
X132852380Y-76461904D02*
X131852380Y-76461904D01*
X131852380Y-76700000D01*
X131900000Y-76842857D01*
X131995238Y-76938095D01*
X132090476Y-76985714D01*
X132280952Y-77033333D01*
X132423809Y-77033333D01*
X132614285Y-76985714D01*
X132709523Y-76938095D01*
X132804761Y-76842857D01*
X132852380Y-76700000D01*
X132852380Y-76461904D01*
X132852380Y-77985714D02*
X132852380Y-77414285D01*
X132852380Y-77700000D02*
X131852380Y-77700000D01*
X131995238Y-77604761D01*
X132090476Y-77509523D01*
X132138095Y-77414285D01*
X138916666Y-76352380D02*
X139250000Y-75876190D01*
X139488095Y-76352380D02*
X139488095Y-75352380D01*
X139107142Y-75352380D01*
X139011904Y-75400000D01*
X138964285Y-75447619D01*
X138916666Y-75542857D01*
X138916666Y-75685714D01*
X138964285Y-75780952D01*
X139011904Y-75828571D01*
X139107142Y-75876190D01*
X139488095Y-75876190D01*
X137964285Y-76352380D02*
X138535714Y-76352380D01*
X138250000Y-76352380D02*
X138250000Y-75352380D01*
X138345238Y-75495238D01*
X138440476Y-75590476D01*
X138535714Y-75638095D01*
X142666666Y-76352380D02*
X143000000Y-75876190D01*
X143238095Y-76352380D02*
X143238095Y-75352380D01*
X142857142Y-75352380D01*
X142761904Y-75400000D01*
X142714285Y-75447619D01*
X142666666Y-75542857D01*
X142666666Y-75685714D01*
X142714285Y-75780952D01*
X142761904Y-75828571D01*
X142857142Y-75876190D01*
X143238095Y-75876190D01*
X142285714Y-75447619D02*
X142238095Y-75400000D01*
X142142857Y-75352380D01*
X141904761Y-75352380D01*
X141809523Y-75400000D01*
X141761904Y-75447619D01*
X141714285Y-75542857D01*
X141714285Y-75638095D01*
X141761904Y-75780952D01*
X142333333Y-76352380D01*
X141714285Y-76352380D01*
X146416666Y-76352380D02*
X146750000Y-75876190D01*
X146988095Y-76352380D02*
X146988095Y-75352380D01*
X146607142Y-75352380D01*
X146511904Y-75400000D01*
X146464285Y-75447619D01*
X146416666Y-75542857D01*
X146416666Y-75685714D01*
X146464285Y-75780952D01*
X146511904Y-75828571D01*
X146607142Y-75876190D01*
X146988095Y-75876190D01*
X146083333Y-75352380D02*
X145464285Y-75352380D01*
X145797619Y-75733333D01*
X145654761Y-75733333D01*
X145559523Y-75780952D01*
X145511904Y-75828571D01*
X145464285Y-75923809D01*
X145464285Y-76161904D01*
X145511904Y-76257142D01*
X145559523Y-76304761D01*
X145654761Y-76352380D01*
X145940476Y-76352380D01*
X146035714Y-76304761D01*
X146083333Y-76257142D01*
X153952380Y-86733333D02*
X153476190Y-86400000D01*
X153952380Y-86161904D02*
X152952380Y-86161904D01*
X152952380Y-86542857D01*
X153000000Y-86638095D01*
X153047619Y-86685714D01*
X153142857Y-86733333D01*
X153285714Y-86733333D01*
X153380952Y-86685714D01*
X153428571Y-86638095D01*
X153476190Y-86542857D01*
X153476190Y-86161904D01*
X153285714Y-87590476D02*
X153952380Y-87590476D01*
X152904761Y-87352380D02*
X153619047Y-87114285D01*
X153619047Y-87733333D01*
X153566666Y-90752380D02*
X153900000Y-90276190D01*
X154138095Y-90752380D02*
X154138095Y-89752380D01*
X153757142Y-89752380D01*
X153661904Y-89800000D01*
X153614285Y-89847619D01*
X153566666Y-89942857D01*
X153566666Y-90085714D01*
X153614285Y-90180952D01*
X153661904Y-90228571D01*
X153757142Y-90276190D01*
X154138095Y-90276190D01*
X152661904Y-89752380D02*
X153138095Y-89752380D01*
X153185714Y-90228571D01*
X153138095Y-90180952D01*
X153042857Y-90133333D01*
X152804761Y-90133333D01*
X152709523Y-90180952D01*
X152661904Y-90228571D01*
X152614285Y-90323809D01*
X152614285Y-90561904D01*
X152661904Y-90657142D01*
X152709523Y-90704761D01*
X152804761Y-90752380D01*
X153042857Y-90752380D01*
X153138095Y-90704761D01*
X153185714Y-90657142D01*
X154066666Y-77852380D02*
X154400000Y-77376190D01*
X154638095Y-77852380D02*
X154638095Y-76852380D01*
X154257142Y-76852380D01*
X154161904Y-76900000D01*
X154114285Y-76947619D01*
X154066666Y-77042857D01*
X154066666Y-77185714D01*
X154114285Y-77280952D01*
X154161904Y-77328571D01*
X154257142Y-77376190D01*
X154638095Y-77376190D01*
X153209523Y-76852380D02*
X153400000Y-76852380D01*
X153495238Y-76900000D01*
X153542857Y-76947619D01*
X153638095Y-77090476D01*
X153685714Y-77280952D01*
X153685714Y-77661904D01*
X153638095Y-77757142D01*
X153590476Y-77804761D01*
X153495238Y-77852380D01*
X153304761Y-77852380D01*
X153209523Y-77804761D01*
X153161904Y-77757142D01*
X153114285Y-77661904D01*
X153114285Y-77423809D01*
X153161904Y-77328571D01*
X153209523Y-77280952D01*
X153304761Y-77233333D01*
X153495238Y-77233333D01*
X153590476Y-77280952D01*
X153638095Y-77328571D01*
X153685714Y-77423809D01*
X154066666Y-85452380D02*
X154400000Y-84976190D01*
X154638095Y-85452380D02*
X154638095Y-84452380D01*
X154257142Y-84452380D01*
X154161904Y-84500000D01*
X154114285Y-84547619D01*
X154066666Y-84642857D01*
X154066666Y-84785714D01*
X154114285Y-84880952D01*
X154161904Y-84928571D01*
X154257142Y-84976190D01*
X154638095Y-84976190D01*
X153733333Y-84452380D02*
X153066666Y-84452380D01*
X153495238Y-85452380D01*
X154066666Y-81452380D02*
X154400000Y-80976190D01*
X154638095Y-81452380D02*
X154638095Y-80452380D01*
X154257142Y-80452380D01*
X154161904Y-80500000D01*
X154114285Y-80547619D01*
X154066666Y-80642857D01*
X154066666Y-80785714D01*
X154114285Y-80880952D01*
X154161904Y-80928571D01*
X154257142Y-80976190D01*
X154638095Y-80976190D01*
X153495238Y-80880952D02*
X153590476Y-80833333D01*
X153638095Y-80785714D01*
X153685714Y-80690476D01*
X153685714Y-80642857D01*
X153638095Y-80547619D01*
X153590476Y-80500000D01*
X153495238Y-80452380D01*
X153304761Y-80452380D01*
X153209523Y-80500000D01*
X153161904Y-80547619D01*
X153114285Y-80642857D01*
X153114285Y-80690476D01*
X153161904Y-80785714D01*
X153209523Y-80833333D01*
X153304761Y-80880952D01*
X153495238Y-80880952D01*
X153590476Y-80928571D01*
X153638095Y-80976190D01*
X153685714Y-81071428D01*
X153685714Y-81261904D01*
X153638095Y-81357142D01*
X153590476Y-81404761D01*
X153495238Y-81452380D01*
X153304761Y-81452380D01*
X153209523Y-81404761D01*
X153161904Y-81357142D01*
X153114285Y-81261904D01*
X153114285Y-81071428D01*
X153161904Y-80976190D01*
X153209523Y-80928571D01*
X153304761Y-80880952D01*
X154066666Y-79852380D02*
X154400000Y-79376190D01*
X154638095Y-79852380D02*
X154638095Y-78852380D01*
X154257142Y-78852380D01*
X154161904Y-78900000D01*
X154114285Y-78947619D01*
X154066666Y-79042857D01*
X154066666Y-79185714D01*
X154114285Y-79280952D01*
X154161904Y-79328571D01*
X154257142Y-79376190D01*
X154638095Y-79376190D01*
X153590476Y-79852380D02*
X153400000Y-79852380D01*
X153304761Y-79804761D01*
X153257142Y-79757142D01*
X153161904Y-79614285D01*
X153114285Y-79423809D01*
X153114285Y-79042857D01*
X153161904Y-78947619D01*
X153209523Y-78900000D01*
X153304761Y-78852380D01*
X153495238Y-78852380D01*
X153590476Y-78900000D01*
X153638095Y-78947619D01*
X153685714Y-79042857D01*
X153685714Y-79280952D01*
X153638095Y-79376190D01*
X153590476Y-79423809D01*
X153495238Y-79471428D01*
X153304761Y-79471428D01*
X153209523Y-79423809D01*
X153161904Y-79376190D01*
X153114285Y-79280952D01*
X144852380Y-81357142D02*
X144376190Y-81023809D01*
X144852380Y-80785714D02*
X143852380Y-80785714D01*
X143852380Y-81166666D01*
X143900000Y-81261904D01*
X143947619Y-81309523D01*
X144042857Y-81357142D01*
X144185714Y-81357142D01*
X144280952Y-81309523D01*
X144328571Y-81261904D01*
X144376190Y-81166666D01*
X144376190Y-80785714D01*
X144852380Y-82309523D02*
X144852380Y-81738095D01*
X144852380Y-82023809D02*
X143852380Y-82023809D01*
X143995238Y-81928571D01*
X144090476Y-81833333D01*
X144138095Y-81738095D01*
X143852380Y-82928571D02*
X143852380Y-83023809D01*
X143900000Y-83119047D01*
X143947619Y-83166666D01*
X144042857Y-83214285D01*
X144233333Y-83261904D01*
X144471428Y-83261904D01*
X144661904Y-83214285D01*
X144757142Y-83166666D01*
X144804761Y-83119047D01*
X144852380Y-83023809D01*
X144852380Y-82928571D01*
X144804761Y-82833333D01*
X144757142Y-82785714D01*
X144661904Y-82738095D01*
X144471428Y-82690476D01*
X144233333Y-82690476D01*
X144042857Y-82738095D01*
X143947619Y-82785714D01*
X143900000Y-82833333D01*
X143852380Y-82928571D01*
X150667857Y-76352380D02*
X151001190Y-75876190D01*
X151239285Y-76352380D02*
X151239285Y-75352380D01*
X150858333Y-75352380D01*
X150763095Y-75400000D01*
X150715476Y-75447619D01*
X150667857Y-75542857D01*
X150667857Y-75685714D01*
X150715476Y-75780952D01*
X150763095Y-75828571D01*
X150858333Y-75876190D01*
X151239285Y-75876190D01*
X149715476Y-76352380D02*
X150286904Y-76352380D01*
X150001190Y-76352380D02*
X150001190Y-75352380D01*
X150096428Y-75495238D01*
X150191666Y-75590476D01*
X150286904Y-75638095D01*
X148763095Y-76352380D02*
X149334523Y-76352380D01*
X149048809Y-76352380D02*
X149048809Y-75352380D01*
X149144047Y-75495238D01*
X149239285Y-75590476D01*
X149334523Y-75638095D01*
X154042857Y-83452380D02*
X154376190Y-82976190D01*
X154614285Y-83452380D02*
X154614285Y-82452380D01*
X154233333Y-82452380D01*
X154138095Y-82500000D01*
X154090476Y-82547619D01*
X154042857Y-82642857D01*
X154042857Y-82785714D01*
X154090476Y-82880952D01*
X154138095Y-82928571D01*
X154233333Y-82976190D01*
X154614285Y-82976190D01*
X153090476Y-83452380D02*
X153661904Y-83452380D01*
X153376190Y-83452380D02*
X153376190Y-82452380D01*
X153471428Y-82595238D01*
X153566666Y-82690476D01*
X153661904Y-82738095D01*
X152709523Y-82547619D02*
X152661904Y-82500000D01*
X152566666Y-82452380D01*
X152328571Y-82452380D01*
X152233333Y-82500000D01*
X152185714Y-82547619D01*
X152138095Y-82642857D01*
X152138095Y-82738095D01*
X152185714Y-82880952D01*
X152757142Y-83452380D01*
X152138095Y-83452380D01*
X138261904Y-81452380D02*
X138261904Y-82261904D01*
X138214285Y-82357142D01*
X138166666Y-82404761D01*
X138071428Y-82452380D01*
X137880952Y-82452380D01*
X137785714Y-82404761D01*
X137738095Y-82357142D01*
X137690476Y-82261904D01*
X137690476Y-81452380D01*
X136690476Y-82452380D02*
X137261904Y-82452380D01*
X136976190Y-82452380D02*
X136976190Y-81452380D01*
X137071428Y-81595238D01*
X137166666Y-81690476D01*
X137261904Y-81738095D01*
X147361904Y-85252380D02*
X147361904Y-86061904D01*
X147314285Y-86157142D01*
X147266666Y-86204761D01*
X147171428Y-86252380D01*
X146980952Y-86252380D01*
X146885714Y-86204761D01*
X146838095Y-86157142D01*
X146790476Y-86061904D01*
X146790476Y-85252380D01*
X146361904Y-85347619D02*
X146314285Y-85300000D01*
X146219047Y-85252380D01*
X145980952Y-85252380D01*
X145885714Y-85300000D01*
X145838095Y-85347619D01*
X145790476Y-85442857D01*
X145790476Y-85538095D01*
X145838095Y-85680952D01*
X146409523Y-86252380D01*
X145790476Y-86252380D01*
X149895238Y-85847619D02*
X149990476Y-85800000D01*
X150085714Y-85704761D01*
X150228571Y-85561904D01*
X150323809Y-85514285D01*
X150419047Y-85514285D01*
X150371428Y-85752380D02*
X150466666Y-85704761D01*
X150561904Y-85609523D01*
X150609523Y-85419047D01*
X150609523Y-85085714D01*
X150561904Y-84895238D01*
X150466666Y-84800000D01*
X150371428Y-84752380D01*
X150180952Y-84752380D01*
X150085714Y-84800000D01*
X149990476Y-84895238D01*
X149942857Y-85085714D01*
X149942857Y-85419047D01*
X149990476Y-85609523D01*
X150085714Y-85704761D01*
X150180952Y-85752380D01*
X150371428Y-85752380D01*
X148990476Y-85752380D02*
X149561904Y-85752380D01*
X149276190Y-85752380D02*
X149276190Y-84752380D01*
X149371428Y-84895238D01*
X149466666Y-84990476D01*
X149561904Y-85038095D01*
X157095238Y-90947619D02*
X157190476Y-90900000D01*
X157285714Y-90804761D01*
X157428571Y-90661904D01*
X157523809Y-90614285D01*
X157619047Y-90614285D01*
X157571428Y-90852380D02*
X157666666Y-90804761D01*
X157761904Y-90709523D01*
X157809523Y-90519047D01*
X157809523Y-90185714D01*
X157761904Y-89995238D01*
X157666666Y-89900000D01*
X157571428Y-89852380D01*
X157380952Y-89852380D01*
X157285714Y-89900000D01*
X157190476Y-89995238D01*
X157142857Y-90185714D01*
X157142857Y-90519047D01*
X157190476Y-90709523D01*
X157285714Y-90804761D01*
X157380952Y-90852380D01*
X157571428Y-90852380D01*
X156761904Y-89947619D02*
X156714285Y-89900000D01*
X156619047Y-89852380D01*
X156380952Y-89852380D01*
X156285714Y-89900000D01*
X156238095Y-89947619D01*
X156190476Y-90042857D01*
X156190476Y-90138095D01*
X156238095Y-90280952D01*
X156809523Y-90852380D01*
X156190476Y-90852380D01*
M02*
