G04 #@! TF.GenerationSoftware,KiCad,Pcbnew,(5.1.4)-1*
G04 #@! TF.CreationDate,2020-10-04T20:17:45+02:00*
G04 #@! TF.ProjectId,Long range deauther,4c6f6e67-2072-4616-9e67-652064656175,rev?*
G04 #@! TF.SameCoordinates,Original*
G04 #@! TF.FileFunction,Soldermask,Top*
G04 #@! TF.FilePolarity,Negative*
%FSLAX46Y46*%
G04 Gerber Fmt 4.6, Leading zero omitted, Abs format (unit mm)*
G04 Created by KiCad (PCBNEW (5.1.4)-1) date 2020-10-04 20:17:45*
%MOMM*%
%LPD*%
G04 APERTURE LIST*
%ADD10C,0.100000*%
G04 APERTURE END LIST*
D10*
G36*
X137731000Y-90461000D02*
G01*
X137029000Y-90461000D01*
X137029000Y-89159000D01*
X137731000Y-89159000D01*
X137731000Y-90461000D01*
X137731000Y-90461000D01*
G37*
G36*
X133131000Y-90461000D02*
G01*
X132429000Y-90461000D01*
X132429000Y-89159000D01*
X133131000Y-89159000D01*
X133131000Y-90461000D01*
X133131000Y-90461000D01*
G37*
G36*
X129577468Y-87669883D02*
G01*
X129766162Y-87727123D01*
X129940055Y-87820071D01*
X130092479Y-87945161D01*
X130217569Y-88097585D01*
X130310517Y-88271478D01*
X130310518Y-88271481D01*
X130321172Y-88306604D01*
X130367757Y-88460172D01*
X130387083Y-88656400D01*
X130367757Y-88852628D01*
X130310517Y-89041322D01*
X130217569Y-89215215D01*
X130092479Y-89367639D01*
X129940055Y-89492729D01*
X129766162Y-89585677D01*
X129577468Y-89642917D01*
X129430415Y-89657400D01*
X127732065Y-89657400D01*
X127585012Y-89642917D01*
X127396318Y-89585677D01*
X127222425Y-89492729D01*
X127070001Y-89367639D01*
X126944911Y-89215215D01*
X126851963Y-89041322D01*
X126794723Y-88852628D01*
X126775397Y-88656400D01*
X126794723Y-88460172D01*
X126841308Y-88306604D01*
X126851962Y-88271481D01*
X126851963Y-88271478D01*
X126944911Y-88097585D01*
X127070001Y-87945161D01*
X127222425Y-87820071D01*
X127396318Y-87727123D01*
X127585012Y-87669883D01*
X127732065Y-87655400D01*
X129430415Y-87655400D01*
X129577468Y-87669883D01*
X129577468Y-87669883D01*
G37*
G36*
X136008231Y-88816705D02*
G01*
X136046967Y-88824410D01*
X136077195Y-88836931D01*
X136119944Y-88854638D01*
X136185622Y-88898523D01*
X136241477Y-88954378D01*
X136285362Y-89020056D01*
X136315590Y-89093034D01*
X136331000Y-89170504D01*
X136331000Y-89249496D01*
X136315590Y-89326966D01*
X136285362Y-89399944D01*
X136241477Y-89465622D01*
X136185622Y-89521477D01*
X136119944Y-89565362D01*
X136077195Y-89583069D01*
X136046967Y-89595590D01*
X136008231Y-89603295D01*
X135969496Y-89611000D01*
X135890504Y-89611000D01*
X135851769Y-89603295D01*
X135813033Y-89595590D01*
X135782805Y-89583069D01*
X135740056Y-89565362D01*
X135674378Y-89521477D01*
X135618523Y-89465622D01*
X135574638Y-89399944D01*
X135544410Y-89326966D01*
X135529000Y-89249496D01*
X135529000Y-89170504D01*
X135544410Y-89093034D01*
X135574638Y-89020056D01*
X135618523Y-88954378D01*
X135674378Y-88898523D01*
X135740056Y-88854638D01*
X135782805Y-88836931D01*
X135813033Y-88824410D01*
X135851769Y-88816705D01*
X135890504Y-88809000D01*
X135969496Y-88809000D01*
X136008231Y-88816705D01*
X136008231Y-88816705D01*
G37*
G36*
X134308231Y-88816705D02*
G01*
X134346967Y-88824410D01*
X134377195Y-88836931D01*
X134419944Y-88854638D01*
X134485622Y-88898523D01*
X134541477Y-88954378D01*
X134585362Y-89020056D01*
X134615590Y-89093034D01*
X134631000Y-89170504D01*
X134631000Y-89249496D01*
X134615590Y-89326966D01*
X134585362Y-89399944D01*
X134541477Y-89465622D01*
X134485622Y-89521477D01*
X134419944Y-89565362D01*
X134377195Y-89583069D01*
X134346967Y-89595590D01*
X134308231Y-89603295D01*
X134269496Y-89611000D01*
X134190504Y-89611000D01*
X134151769Y-89603295D01*
X134113033Y-89595590D01*
X134082805Y-89583069D01*
X134040056Y-89565362D01*
X133974378Y-89521477D01*
X133918523Y-89465622D01*
X133874638Y-89399944D01*
X133844410Y-89326966D01*
X133829000Y-89249496D01*
X133829000Y-89170504D01*
X133844410Y-89093034D01*
X133874638Y-89020056D01*
X133918523Y-88954378D01*
X133974378Y-88898523D01*
X134040056Y-88854638D01*
X134082805Y-88836931D01*
X134113033Y-88824410D01*
X134151769Y-88816705D01*
X134190504Y-88809000D01*
X134269496Y-88809000D01*
X134308231Y-88816705D01*
X134308231Y-88816705D01*
G37*
G36*
X158051000Y-89381000D02*
G01*
X156449000Y-89381000D01*
X156449000Y-88379000D01*
X158051000Y-88379000D01*
X158051000Y-89381000D01*
X158051000Y-89381000D01*
G37*
G36*
X139591000Y-89371000D02*
G01*
X137989000Y-89371000D01*
X137989000Y-88369000D01*
X139591000Y-88369000D01*
X139591000Y-89371000D01*
X139591000Y-89371000D01*
G37*
G36*
X137281000Y-88281000D02*
G01*
X136279000Y-88281000D01*
X136279000Y-87379000D01*
X137281000Y-87379000D01*
X137281000Y-88281000D01*
X137281000Y-88281000D01*
G37*
G36*
X133871000Y-88271000D02*
G01*
X132869000Y-88271000D01*
X132869000Y-87369000D01*
X133871000Y-87369000D01*
X133871000Y-88271000D01*
X133871000Y-88271000D01*
G37*
G36*
X158051000Y-87881000D02*
G01*
X156449000Y-87881000D01*
X156449000Y-86879000D01*
X158051000Y-86879000D01*
X158051000Y-87881000D01*
X158051000Y-87881000D01*
G37*
G36*
X139591000Y-87871000D02*
G01*
X137989000Y-87871000D01*
X137989000Y-86869000D01*
X139591000Y-86869000D01*
X139591000Y-87871000D01*
X139591000Y-87871000D01*
G37*
G36*
X132632240Y-87057400D02*
G01*
X130030240Y-87057400D01*
X130030240Y-85855400D01*
X132632240Y-85855400D01*
X132632240Y-87057400D01*
X132632240Y-87057400D01*
G37*
G36*
X166725560Y-84393064D02*
G01*
X166877027Y-84423193D01*
X167091045Y-84511842D01*
X167091046Y-84511843D01*
X167283654Y-84640539D01*
X167447461Y-84804346D01*
X167493524Y-84873285D01*
X167576158Y-84996955D01*
X167664807Y-85210973D01*
X167710000Y-85438174D01*
X167710000Y-85669826D01*
X167664807Y-85897027D01*
X167576158Y-86111045D01*
X167576157Y-86111046D01*
X167447461Y-86303654D01*
X167283654Y-86467461D01*
X167155249Y-86553258D01*
X167091045Y-86596158D01*
X166877027Y-86684807D01*
X166725560Y-86714936D01*
X166649827Y-86730000D01*
X166418173Y-86730000D01*
X166342440Y-86714936D01*
X166190973Y-86684807D01*
X165976955Y-86596158D01*
X165912751Y-86553258D01*
X165784346Y-86467461D01*
X165620539Y-86303654D01*
X165491843Y-86111046D01*
X165491842Y-86111045D01*
X165403193Y-85897027D01*
X165358000Y-85669826D01*
X165358000Y-85438174D01*
X165403193Y-85210973D01*
X165491842Y-84996955D01*
X165574476Y-84873285D01*
X165620539Y-84804346D01*
X165784346Y-84640539D01*
X165976954Y-84511843D01*
X165976955Y-84511842D01*
X166190973Y-84423193D01*
X166342440Y-84393064D01*
X166418173Y-84378000D01*
X166649827Y-84378000D01*
X166725560Y-84393064D01*
X166725560Y-84393064D01*
G37*
G36*
X161645560Y-84393064D02*
G01*
X161797027Y-84423193D01*
X162011045Y-84511842D01*
X162011046Y-84511843D01*
X162203654Y-84640539D01*
X162367461Y-84804346D01*
X162413524Y-84873285D01*
X162496158Y-84996955D01*
X162584807Y-85210973D01*
X162630000Y-85438174D01*
X162630000Y-85669826D01*
X162584807Y-85897027D01*
X162496158Y-86111045D01*
X162496157Y-86111046D01*
X162367461Y-86303654D01*
X162203654Y-86467461D01*
X162075249Y-86553258D01*
X162011045Y-86596158D01*
X161797027Y-86684807D01*
X161645560Y-86714936D01*
X161569827Y-86730000D01*
X161338173Y-86730000D01*
X161262440Y-86714936D01*
X161110973Y-86684807D01*
X160896955Y-86596158D01*
X160832751Y-86553258D01*
X160704346Y-86467461D01*
X160540539Y-86303654D01*
X160411843Y-86111046D01*
X160411842Y-86111045D01*
X160323193Y-85897027D01*
X160278000Y-85669826D01*
X160278000Y-85438174D01*
X160323193Y-85210973D01*
X160411842Y-84996955D01*
X160494476Y-84873285D01*
X160540539Y-84804346D01*
X160704346Y-84640539D01*
X160896954Y-84511843D01*
X160896955Y-84511842D01*
X161110973Y-84423193D01*
X161262440Y-84393064D01*
X161338173Y-84378000D01*
X161569827Y-84378000D01*
X161645560Y-84393064D01*
X161645560Y-84393064D01*
G37*
G36*
X158051000Y-86381000D02*
G01*
X156449000Y-86381000D01*
X156449000Y-85379000D01*
X158051000Y-85379000D01*
X158051000Y-86381000D01*
X158051000Y-86381000D01*
G37*
G36*
X139591000Y-86371000D02*
G01*
X137989000Y-86371000D01*
X137989000Y-85369000D01*
X139591000Y-85369000D01*
X139591000Y-86371000D01*
X139591000Y-86371000D01*
G37*
G36*
X128717841Y-84670797D02*
G01*
X128756545Y-84678496D01*
X128788580Y-84691765D01*
X128865920Y-84723800D01*
X128964355Y-84789573D01*
X129048067Y-84873285D01*
X129113840Y-84971720D01*
X129159144Y-85081096D01*
X129182240Y-85197205D01*
X129182240Y-85315595D01*
X129159144Y-85431704D01*
X129113840Y-85541080D01*
X129048067Y-85639515D01*
X128964355Y-85723227D01*
X128865920Y-85789000D01*
X128788580Y-85821035D01*
X128756545Y-85834304D01*
X128717841Y-85842003D01*
X128640435Y-85857400D01*
X128522045Y-85857400D01*
X128444639Y-85842003D01*
X128405935Y-85834304D01*
X128373900Y-85821035D01*
X128296560Y-85789000D01*
X128198125Y-85723227D01*
X128114413Y-85639515D01*
X128048640Y-85541080D01*
X128003336Y-85431704D01*
X127980240Y-85315595D01*
X127980240Y-85197205D01*
X128003336Y-85081096D01*
X128048640Y-84971720D01*
X128114413Y-84873285D01*
X128198125Y-84789573D01*
X128296560Y-84723800D01*
X128373900Y-84691765D01*
X128405935Y-84678496D01*
X128444639Y-84670797D01*
X128522045Y-84655400D01*
X128640435Y-84655400D01*
X128717841Y-84670797D01*
X128717841Y-84670797D01*
G37*
G36*
X158051000Y-84881000D02*
G01*
X156449000Y-84881000D01*
X156449000Y-83879000D01*
X158051000Y-83879000D01*
X158051000Y-84881000D01*
X158051000Y-84881000D01*
G37*
G36*
X139591000Y-84871000D02*
G01*
X137989000Y-84871000D01*
X137989000Y-83869000D01*
X139591000Y-83869000D01*
X139591000Y-84871000D01*
X139591000Y-84871000D01*
G37*
G36*
X132632240Y-84557400D02*
G01*
X130030240Y-84557400D01*
X130030240Y-83355400D01*
X132632240Y-83355400D01*
X132632240Y-84557400D01*
X132632240Y-84557400D01*
G37*
G36*
X148951000Y-84291000D02*
G01*
X144849000Y-84291000D01*
X144849000Y-80189000D01*
X148951000Y-80189000D01*
X148951000Y-84291000D01*
X148951000Y-84291000D01*
G37*
G36*
X158051000Y-83381000D02*
G01*
X156449000Y-83381000D01*
X156449000Y-82379000D01*
X158051000Y-82379000D01*
X158051000Y-83381000D01*
X158051000Y-83381000D01*
G37*
G36*
X139591000Y-83371000D02*
G01*
X137989000Y-83371000D01*
X137989000Y-82369000D01*
X139591000Y-82369000D01*
X139591000Y-83371000D01*
X139591000Y-83371000D01*
G37*
G36*
X132632240Y-82557400D02*
G01*
X130030240Y-82557400D01*
X130030240Y-81355400D01*
X132632240Y-81355400D01*
X132632240Y-82557400D01*
X132632240Y-82557400D01*
G37*
G36*
X158051000Y-81881000D02*
G01*
X156449000Y-81881000D01*
X156449000Y-80879000D01*
X158051000Y-80879000D01*
X158051000Y-81881000D01*
X158051000Y-81881000D01*
G37*
G36*
X139591000Y-81871000D02*
G01*
X137989000Y-81871000D01*
X137989000Y-80869000D01*
X139591000Y-80869000D01*
X139591000Y-81871000D01*
X139591000Y-81871000D01*
G37*
G36*
X166725560Y-79313064D02*
G01*
X166877027Y-79343193D01*
X167091045Y-79431842D01*
X167091046Y-79431843D01*
X167283654Y-79560539D01*
X167447461Y-79724346D01*
X167533258Y-79852751D01*
X167576158Y-79916955D01*
X167664807Y-80130973D01*
X167710000Y-80358174D01*
X167710000Y-80589826D01*
X167664807Y-80817027D01*
X167576158Y-81031045D01*
X167533258Y-81095249D01*
X167447461Y-81223654D01*
X167283654Y-81387461D01*
X167155249Y-81473258D01*
X167091045Y-81516158D01*
X166877027Y-81604807D01*
X166725560Y-81634936D01*
X166649827Y-81650000D01*
X166418173Y-81650000D01*
X166342440Y-81634936D01*
X166190973Y-81604807D01*
X165976955Y-81516158D01*
X165912751Y-81473258D01*
X165784346Y-81387461D01*
X165620539Y-81223654D01*
X165534742Y-81095249D01*
X165491842Y-81031045D01*
X165403193Y-80817027D01*
X165358000Y-80589826D01*
X165358000Y-80358174D01*
X165403193Y-80130973D01*
X165491842Y-79916955D01*
X165534742Y-79852751D01*
X165620539Y-79724346D01*
X165784346Y-79560539D01*
X165976954Y-79431843D01*
X165976955Y-79431842D01*
X166190973Y-79343193D01*
X166342440Y-79313064D01*
X166418173Y-79298000D01*
X166649827Y-79298000D01*
X166725560Y-79313064D01*
X166725560Y-79313064D01*
G37*
G36*
X161645560Y-79313064D02*
G01*
X161797027Y-79343193D01*
X162011045Y-79431842D01*
X162011046Y-79431843D01*
X162203654Y-79560539D01*
X162367461Y-79724346D01*
X162453258Y-79852751D01*
X162496158Y-79916955D01*
X162584807Y-80130973D01*
X162630000Y-80358174D01*
X162630000Y-80589826D01*
X162584807Y-80817027D01*
X162496158Y-81031045D01*
X162453258Y-81095249D01*
X162367461Y-81223654D01*
X162203654Y-81387461D01*
X162075249Y-81473258D01*
X162011045Y-81516158D01*
X161797027Y-81604807D01*
X161645560Y-81634936D01*
X161569827Y-81650000D01*
X161338173Y-81650000D01*
X161262440Y-81634936D01*
X161110973Y-81604807D01*
X160896955Y-81516158D01*
X160832751Y-81473258D01*
X160704346Y-81387461D01*
X160540539Y-81223654D01*
X160454742Y-81095249D01*
X160411842Y-81031045D01*
X160323193Y-80817027D01*
X160278000Y-80589826D01*
X160278000Y-80358174D01*
X160323193Y-80130973D01*
X160411842Y-79916955D01*
X160454742Y-79852751D01*
X160540539Y-79724346D01*
X160704346Y-79560539D01*
X160896954Y-79431843D01*
X160896955Y-79431842D01*
X161110973Y-79343193D01*
X161262440Y-79313064D01*
X161338173Y-79298000D01*
X161569827Y-79298000D01*
X161645560Y-79313064D01*
X161645560Y-79313064D01*
G37*
G36*
X128717841Y-80070797D02*
G01*
X128756545Y-80078496D01*
X128788580Y-80091765D01*
X128865920Y-80123800D01*
X128964355Y-80189573D01*
X129048067Y-80273285D01*
X129113840Y-80371720D01*
X129145875Y-80449060D01*
X129159144Y-80481095D01*
X129182240Y-80597207D01*
X129182240Y-80715593D01*
X129162064Y-80817027D01*
X129159144Y-80831704D01*
X129113840Y-80941080D01*
X129048067Y-81039515D01*
X128964355Y-81123227D01*
X128865920Y-81189000D01*
X128788580Y-81221035D01*
X128756545Y-81234304D01*
X128717841Y-81242003D01*
X128640435Y-81257400D01*
X128522045Y-81257400D01*
X128444639Y-81242003D01*
X128405935Y-81234304D01*
X128373900Y-81221035D01*
X128296560Y-81189000D01*
X128198125Y-81123227D01*
X128114413Y-81039515D01*
X128048640Y-80941080D01*
X128003336Y-80831704D01*
X128000417Y-80817027D01*
X127980240Y-80715593D01*
X127980240Y-80597207D01*
X128003336Y-80481095D01*
X128016605Y-80449060D01*
X128048640Y-80371720D01*
X128114413Y-80273285D01*
X128198125Y-80189573D01*
X128296560Y-80123800D01*
X128373900Y-80091765D01*
X128405935Y-80078496D01*
X128444639Y-80070797D01*
X128522045Y-80055400D01*
X128640435Y-80055400D01*
X128717841Y-80070797D01*
X128717841Y-80070797D01*
G37*
G36*
X158051000Y-80381000D02*
G01*
X156449000Y-80381000D01*
X156449000Y-79379000D01*
X158051000Y-79379000D01*
X158051000Y-80381000D01*
X158051000Y-80381000D01*
G37*
G36*
X139591000Y-80371000D02*
G01*
X137989000Y-80371000D01*
X137989000Y-79369000D01*
X139591000Y-79369000D01*
X139591000Y-80371000D01*
X139591000Y-80371000D01*
G37*
G36*
X132632240Y-80057400D02*
G01*
X130030240Y-80057400D01*
X130030240Y-78855400D01*
X132632240Y-78855400D01*
X132632240Y-80057400D01*
X132632240Y-80057400D01*
G37*
G36*
X158051000Y-78881000D02*
G01*
X156449000Y-78881000D01*
X156449000Y-77879000D01*
X158051000Y-77879000D01*
X158051000Y-78881000D01*
X158051000Y-78881000D01*
G37*
G36*
X139591000Y-78871000D02*
G01*
X137989000Y-78871000D01*
X137989000Y-77869000D01*
X139591000Y-77869000D01*
X139591000Y-78871000D01*
X139591000Y-78871000D01*
G37*
G36*
X137161000Y-78611000D02*
G01*
X136159000Y-78611000D01*
X136159000Y-77709000D01*
X137161000Y-77709000D01*
X137161000Y-78611000D01*
X137161000Y-78611000D01*
G37*
G36*
X133751000Y-78601000D02*
G01*
X132749000Y-78601000D01*
X132749000Y-77699000D01*
X133751000Y-77699000D01*
X133751000Y-78601000D01*
X133751000Y-78601000D01*
G37*
G36*
X129577468Y-76269883D02*
G01*
X129766162Y-76327123D01*
X129940055Y-76420071D01*
X130092479Y-76545161D01*
X130217569Y-76697585D01*
X130310517Y-76871478D01*
X130367757Y-77060172D01*
X130387083Y-77256400D01*
X130367757Y-77452628D01*
X130310517Y-77641322D01*
X130217569Y-77815215D01*
X130092479Y-77967639D01*
X129940055Y-78092729D01*
X129766162Y-78185677D01*
X129577468Y-78242917D01*
X129430415Y-78257400D01*
X127732065Y-78257400D01*
X127585012Y-78242917D01*
X127396318Y-78185677D01*
X127222425Y-78092729D01*
X127070001Y-77967639D01*
X126944911Y-77815215D01*
X126851963Y-77641322D01*
X126794723Y-77452628D01*
X126775397Y-77256400D01*
X126794723Y-77060172D01*
X126851963Y-76871478D01*
X126944911Y-76697585D01*
X127070001Y-76545161D01*
X127222425Y-76420071D01*
X127396318Y-76327123D01*
X127585012Y-76269883D01*
X127732065Y-76255400D01*
X129430415Y-76255400D01*
X129577468Y-76269883D01*
X129577468Y-76269883D01*
G37*
G36*
X158051000Y-77381000D02*
G01*
X156449000Y-77381000D01*
X156449000Y-76379000D01*
X158051000Y-76379000D01*
X158051000Y-77381000D01*
X158051000Y-77381000D01*
G37*
G36*
X139591000Y-77371000D02*
G01*
X137989000Y-77371000D01*
X137989000Y-76369000D01*
X139591000Y-76369000D01*
X139591000Y-77371000D01*
X139591000Y-77371000D01*
G37*
G36*
X134178231Y-76376705D02*
G01*
X134216967Y-76384410D01*
X134247195Y-76396931D01*
X134289944Y-76414638D01*
X134355622Y-76458523D01*
X134411477Y-76514378D01*
X134455362Y-76580056D01*
X134485590Y-76653034D01*
X134501000Y-76730504D01*
X134501000Y-76809496D01*
X134485590Y-76886966D01*
X134455362Y-76959944D01*
X134411477Y-77025622D01*
X134355622Y-77081477D01*
X134289944Y-77125362D01*
X134247195Y-77143069D01*
X134216967Y-77155590D01*
X134178231Y-77163295D01*
X134139496Y-77171000D01*
X134060504Y-77171000D01*
X134021769Y-77163295D01*
X133983033Y-77155590D01*
X133952805Y-77143069D01*
X133910056Y-77125362D01*
X133844378Y-77081477D01*
X133788523Y-77025622D01*
X133744638Y-76959944D01*
X133714410Y-76886966D01*
X133699000Y-76809496D01*
X133699000Y-76730504D01*
X133714410Y-76653034D01*
X133744638Y-76580056D01*
X133788523Y-76514378D01*
X133844378Y-76458523D01*
X133910056Y-76414638D01*
X133952805Y-76396931D01*
X133983033Y-76384410D01*
X134021769Y-76376705D01*
X134060504Y-76369000D01*
X134139496Y-76369000D01*
X134178231Y-76376705D01*
X134178231Y-76376705D01*
G37*
G36*
X135878231Y-76376705D02*
G01*
X135916967Y-76384410D01*
X135947195Y-76396931D01*
X135989944Y-76414638D01*
X136055622Y-76458523D01*
X136111477Y-76514378D01*
X136155362Y-76580056D01*
X136185590Y-76653034D01*
X136201000Y-76730504D01*
X136201000Y-76809496D01*
X136185590Y-76886966D01*
X136155362Y-76959944D01*
X136111477Y-77025622D01*
X136055622Y-77081477D01*
X135989944Y-77125362D01*
X135947195Y-77143069D01*
X135916967Y-77155590D01*
X135878231Y-77163295D01*
X135839496Y-77171000D01*
X135760504Y-77171000D01*
X135721769Y-77163295D01*
X135683033Y-77155590D01*
X135652805Y-77143069D01*
X135610056Y-77125362D01*
X135544378Y-77081477D01*
X135488523Y-77025622D01*
X135444638Y-76959944D01*
X135414410Y-76886966D01*
X135399000Y-76809496D01*
X135399000Y-76730504D01*
X135414410Y-76653034D01*
X135444638Y-76580056D01*
X135488523Y-76514378D01*
X135544378Y-76458523D01*
X135610056Y-76414638D01*
X135652805Y-76396931D01*
X135683033Y-76384410D01*
X135721769Y-76376705D01*
X135760504Y-76369000D01*
X135839496Y-76369000D01*
X135878231Y-76376705D01*
X135878231Y-76376705D01*
G37*
G36*
X133001000Y-76821000D02*
G01*
X132299000Y-76821000D01*
X132299000Y-75519000D01*
X133001000Y-75519000D01*
X133001000Y-76821000D01*
X133001000Y-76821000D01*
G37*
G36*
X137601000Y-76821000D02*
G01*
X136899000Y-76821000D01*
X136899000Y-75519000D01*
X137601000Y-75519000D01*
X137601000Y-76821000D01*
X137601000Y-76821000D01*
G37*
M02*
