M48
; DRILL file {KiCad (5.1.4)-1} date 8/19/2020 4:22:57 PM
; FORMAT={-:-/ absolute / inch / decimal}
; #@! TF.CreationDate,2020-08-19T16:22:57+02:00
; #@! TF.GenerationSoftware,Kicad,Pcbnew,(5.1.4)-1
FMAT,2
INCH
T1C0.0157
T2C0.0362
T3C0.0394
T4C0.0591
T5C0.0433
%
G90
G05
T1
X5.4035Y-3.1398
X5.4823Y-3.1437
X5.5374Y-3.2244
X5.5512Y-3.3135
X5.6127Y-3.1201
X5.614Y-3.1958
X5.6243Y-3.2755
X5.6272Y-3.3459
X5.6496Y-3.0512
X5.6811Y-3.2087
X5.6832Y-3.1373
X5.7175Y-3.0502
X5.8071Y-3.3957
X5.8268Y-3.2283
X5.8366Y-3.0906
X5.8583Y-3.4567
X5.937Y-3.3314
X5.999Y-3.4961
X6.0039Y-3.3465
X6.0138Y-3.1299
X6.0138Y-3.2677
X6.0531Y-2.9921
X6.063Y-3.0709
X6.063Y-3.2382
X6.063Y-3.3465
X6.2018Y-3.1929
X6.2205Y-3.1398
X6.2238Y-3.344
T2
X5.1685Y-3.1299
X5.1685Y-3.2283
X5.1685Y-3.3071
X5.1685Y-3.4055
T4
X6.3565Y-3.1683
X6.3565Y-3.3683
X6.5565Y-3.1683
X6.5565Y-3.3683
T5
X5.065Y-3.1772
X5.065Y-3.3583
T3
G00X5.1083Y-3.0374
M15
G01X5.0492Y-3.0374
M16
G05
G00X5.1083Y-3.498
M15
G01X5.0492Y-3.498
M16
G05
T0
M30
